<svg xmlns="http://www.w3.org/2000/svg" viewBox="0 0 24 24" fill="none"><path fill-rule="evenodd" clip-rule="evenodd" d="M3 4C3 3.44772 3.44772 3 4 3H8C8.55228 3 9 3.44772 9 4C9 4.55228 8.55228 5 8 5H5V8C5 8.55228 4.55228 9 4 9C3.44772 9 3 8.55228 3 8V4ZM15 4C15 3.44772 15.4477 3 16 3H20C20.5523 3 21 3.44772 21 4V8C21 8.55228 20.5523 9 20 9C19.4477 9 19 8.55228 19 8V5H16C15.4477 5 15 4.55228 15 4ZM4 15C4.55228 15 5 15.4477 5 16V19H8C8.55228 19 9 19.4477 9 20C9 20.5523 8.55228 21 8 21H4C3.44772 21 3 20.5523 3 20V16C3 15.4477 3.44772 15 4 15ZM20 15C20.5523 15 21 15.4477 21 16V20C21 20.5523 20.5523 21 20 21H16C15.4477 21 15 20.5523 15 20C15 19.4477 15.4477 19 16 19H19V16C19 15.4477 19.4477 15 20 15Z" fill="black"/><path fill-rule="evenodd" clip-rule="evenodd" d="M10.2929 7.29289C10.4804 7.10536 10.7348 7 11 7H13C13.2652 7 13.5196 7.10536 13.7071 7.29289L14.4142 8H16C16.5523 8 17 8.44772 17 9V15C17 15.5523 16.5523 16 16 16H8C7.44772 16 7 15.5523 7 15V9C7 8.44772 7.44772 8 8 8H9.58579L10.2929 7.29289ZM10.5 11.85C10.5 11.0216 11.1716 10.35 12 10.35C12.8284 10.35 13.5 11.0216 13.5 11.85C13.5 12.6784 12.8284 13.35 12 13.35C11.1716 13.35 10.5 12.6784 10.5 11.85Z" fill="black"/></svg>
