<svg xmlns="http://www.w3.org/2000/svg" viewBox="0 0 24 24" fill="none"><path fill-rule="evenodd" clip-rule="evenodd" d="M2 5C2 4.44772 2.44772 4 3 4H15C15.5523 4 16 4.44772 16 5V8.38197L20.5528 6.10557C20.8628 5.95058 21.2309 5.96714 21.5257 6.14935C21.8205 6.33156 22 6.65342 22 7V17C22 17.3466 21.8205 17.6684 21.5257 17.8507C21.2309 18.0329 20.8628 18.0494 20.5528 17.8944L16 15.618V19C16 19.5523 15.5523 20 15 20H3C2.44772 20 2 19.5523 2 19V5ZM16 13.382L20 15.382V8.61804L16 10.618V13.382Z" fill="black"/></svg>
