<svg xmlns="http://www.w3.org/2000/svg" viewBox="0 0 24 24" fill="none"><path d="M9.5 3.5C7.567 3.5 6 5.067 6 7C6 8.933 7.567 10.5 9.5 10.5C11.433 10.5 13 8.933 13 7C13 5.067 11.433 3.5 9.5 3.5Z" fill="black"/><path fill-rule="evenodd" clip-rule="evenodd" d="M1.03043 18.756L2.00001 19.0007C1.03043 18.756 1.03063 18.7552 1.03068 18.755L1.03107 18.7534L1.03228 18.7487L1.03637 18.7328L1.05126 18.6761C1.06413 18.6277 1.08291 18.5584 1.10744 18.4711C1.15647 18.2967 1.2287 18.0498 1.32296 17.7546C1.5106 17.1668 1.78966 16.3742 2.15211 15.5737C2.50993 14.7836 2.97236 13.933 3.54295 13.2646C4.09662 12.6159 4.898 11.9718 5.93815 11.9718C7.18155 11.9718 8.20378 12.6436 8.91167 13.1115L9.04049 13.1968C9.37142 13.4161 9.63723 13.5923 9.89762 13.7268C10.1824 13.8738 10.3678 13.9192 10.4982 13.9197C10.4977 13.9197 10.4982 13.9197 10.4982 13.9197C10.4981 13.9196 10.498 13.9193 10.4994 13.9189C10.5181 13.9136 10.6727 13.8694 11.0109 13.5059C11.2826 13.2138 11.5523 12.8541 11.8749 12.424C11.9869 12.2746 12.1054 12.1166 12.2324 11.95C13.1112 10.7984 14.4293 9.17686 16.4174 9.01215C17.9281 8.88699 19.145 10.0513 20.096 11.5772C21.0942 13.1785 22.0515 15.5666 22.9609 18.724C23.0479 19.0259 22.9879 19.3511 22.799 19.6021C22.6101 19.8531 22.3142 20.0007 22 20.0007H2.00001C1.69167 20.0007 1.40057 19.8585 1.21109 19.6152C1.02161 19.372 0.954954 19.0549 1.03043 18.756Z" fill="black"/></svg>
