<svg xmlns="http://www.w3.org/2000/svg" viewBox="0 0 24 24" fill="none"><path fill-rule="evenodd" clip-rule="evenodd" d="M11 10C11 10.5523 10.5523 11 10 11H4C3.44772 11 3 10.5523 3 10C3 9.44772 3.44772 9 4 9H9V4C9 3.44772 9.44772 3 10 3C10.5523 3 11 3.44772 11 4V10Z" fill="black"/><path fill-rule="evenodd" clip-rule="evenodd" d="M21 10C21 10.5523 20.5523 11 20 11H14C13.4477 11 13 10.5523 13 10V4C13 3.44772 13.4477 3 14 3C14.5523 3 15 3.44772 15 4V9H20C20.5523 9 21 9.44772 21 10Z" fill="black"/><path fill-rule="evenodd" clip-rule="evenodd" d="M14 21C13.4477 21 13 20.5523 13 20V14C13 13.4477 13.4477 13 14 13H20C20.5523 13 21 13.4477 21 14C21 14.5523 20.5523 15 20 15H15V20C15 20.5523 14.5523 21 14 21Z" fill="black"/><path fill-rule="evenodd" clip-rule="evenodd" d="M10 21C9.44772 21 9 20.5523 9 20V15H4C3.44772 15 3 14.5523 3 14C3 13.4477 3.44772 13 4 13H10C10.5523 13 11 13.4477 11 14V20C11 20.5523 10.5523 21 10 21Z" fill="black"/></svg>
