<svg xmlns="http://www.w3.org/2000/svg" viewBox="0 0 24 24" fill="none"><path d="M11 13C11.5523 13 12 13.4477 12 14V21C12 21.5523 11.5523 22 11 22H3C2.44771 22 2 21.5523 2 21V14C2 13.4477 2.44771 13 3 13H11Z" fill="black"/><path d="M21 3C21.5523 3 22 3.44772 22 4V15C22 15.5523 21.5523 16 21 16H15C14.4477 16 14 15.5523 14 15C14 14.4477 14.4477 14 15 14H20V5H5V10C5 10.5523 4.55228 11 4 11C3.44772 11 3 10.5523 3 10V4C3 3.44772 3.44772 3 4 3H21Z" fill="black"/><path d="M14 12C13.4477 12 13 11.5523 13 11V8C13 7.44772 13.4477 7 14 7C14.5523 7 15 7.44772 15 8V8.58579L16.2929 7.29289C16.6834 6.90237 17.3166 6.90237 17.7071 7.29289C18.0976 7.68342 18.0976 8.31658 17.7071 8.70711L16.4142 10H17C17.5523 10 18 10.4477 18 11C18 11.5523 17.5523 12 17 12H14Z" fill="black"/></svg>
