<svg xmlns="http://www.w3.org/2000/svg" viewBox="0 0 24 24" fill="none"><path d="M14 2.00007C14 1.56265 13.7157 1.17599 13.2982 1.04556C12.8806 0.915134 12.4268 1.07122 12.1778 1.43086L8.15385 7.24325L3.66437 3.2526C3.25159 2.88568 2.61952 2.92286 2.2526 3.33565C1.88568 3.74843 1.92286 4.3805 2.33565 4.74742L20.3356 20.7474C20.7484 21.1143 21.3805 21.0772 21.7474 20.6644C22.1143 20.2516 22.0772 19.6195 21.6644 19.2526L16.993 15.1003L20.8222 9.56928C21.0339 9.26347 21.0584 8.86543 20.8858 8.53597C20.7132 8.20651 20.3719 8.00007 20 8.00007H14V2.00007Z" fill="black"/><path d="M3.17781 14.4309L5.86054 10.5558L14.6997 18.4129L11.8222 22.5693C11.5732 22.9289 11.1194 23.085 10.7018 22.9546C10.2843 22.8242 10 22.4375 10 22.0001V16.0001H4C3.62806 16.0001 3.28685 15.7936 3.11422 15.4642C2.9416 15.1347 2.9661 14.7367 3.17781 14.4309Z" fill="black"/></svg>
