<svg xmlns="http://www.w3.org/2000/svg" viewBox="0 0 24 24" fill="none"><path fill-rule="evenodd" clip-rule="evenodd" d="M15 2C15.5523 2 16 2.44772 16 3V21C16 21.5523 15.5523 22 15 22C14.4477 22 14 21.5523 14 21V20H3C2.44772 20 2 19.5523 2 19V5C2 4.44772 2.44772 4 3 4H14V3C14 2.44772 14.4477 2 15 2ZM7.56681 9.09871C7.91328 8.93219 8.32452 8.979 8.62469 9.21914L11.1247 11.2191C11.3619 11.4089 11.5 11.6962 11.5 12C11.5 12.3038 11.3619 12.5911 11.1247 12.7809L8.62469 14.7809C8.32452 15.021 7.91328 15.0678 7.56681 14.9013C7.22035 14.7348 7 14.3844 7 14V10C7 9.6156 7.22035 9.26523 7.56681 9.09871Z" fill="black"/><path d="M18 4H21C21.5523 4 22 4.44772 22 5V19C22 19.5523 21.5523 20 21 20H18V4Z" fill="black"/></svg>
