<svg xmlns="http://www.w3.org/2000/svg" viewBox="0 0 24 24" fill="none"><path d="M12 12.9166L12.2652 13.5H11.7348L12 12.9166Z" fill="black"/><path fill-rule="evenodd" clip-rule="evenodd" d="M8.66795 3.4453C8.85342 3.1671 9.16565 3 9.5 3H14.5C14.8344 3 15.1466 3.1671 15.3321 3.4453L17.0352 6H21C21.5523 6 22 6.44772 22 7V20C22 20.5523 21.5523 21 21 21H3C2.44772 21 2 20.5523 2 20V7C2 6.44772 2.44772 6 3 6H6.96482L8.66795 3.4453ZM12.9104 10.0862C12.7481 9.7292 12.3921 9.5 12 9.5C11.6079 9.5 11.2519 9.7292 11.0896 10.0862L8.58963 15.5862C8.3611 16.089 8.58342 16.6818 9.0862 16.9104C9.58898 17.1389 10.1818 16.9166 10.4104 16.4138L10.8257 15.5H13.1743L13.5896 16.4138C13.8182 16.9166 14.411 17.1389 14.9138 16.9104C15.4166 16.6818 15.6389 16.089 15.4104 15.5862L12.9104 10.0862Z" fill="black"/></svg>
