<svg xmlns="http://www.w3.org/2000/svg" viewBox="0 0 24 24" fill="none"><path fill-rule="evenodd" clip-rule="evenodd" d="M2.00011 3C2.00011 2.44772 2.44782 2 3.00011 2H15.0001C15.5524 2 16.0001 2.44772 16.0001 3V8H21.0001C21.5524 8 22.0001 8.44772 22.0001 9V21C22.0001 21.5523 21.5524 22 21.0001 22H9.00011C8.44782 22 8.00011 21.5523 8.00011 21V16H3.00011C2.44782 16 2.00011 15.5523 2.00011 15C2.00011 11 2.00011 7 2.00011 3ZM8.00011 10.1315L6.55481 9.16795C6.21891 8.94402 5.78131 8.94402 5.44541 9.16795L4.00011 10.1315V4H14.0001V8H9.00011C8.44782 8 8.00011 8.44772 8.00011 9V10.1315ZM5.00011 6.25C5.00011 5.55964 5.55975 5 6.25011 5C6.94046 5 7.50011 5.55964 7.50011 6.25C7.50011 6.94036 6.94046 7.5 6.25011 7.5C5.55975 7.5 5.00011 6.94036 5.00011 6.25ZM13.5416 12.5113C13.8741 12.3397 14.2747 12.3682 14.5796 12.585L16.8296 14.185C17.0934 14.3726 17.2501 14.6763 17.2501 15C17.2501 15.3237 17.0934 15.6274 16.8296 15.815L14.5796 17.415C14.2747 17.6318 13.8741 17.6603 13.5416 17.4887C13.209 17.3171 13.0001 16.9742 13.0001 16.6V13.4C13.0001 13.0258 13.209 12.6829 13.5416 12.5113Z" fill="black"/></svg>
