<svg xmlns="http://www.w3.org/2000/svg" viewBox="0 0 24 24" fill="none"><path d="M4 3C3.44772 3 3 3.44772 3 4V8C3 8.55228 3.44772 9 4 9C4.55228 9 5 8.55228 5 8V5H8C8.55228 5 9 4.55228 9 4C9 3.44772 8.55228 3 8 3H4Z" fill="black"/><path d="M16 3C15.4477 3 15 3.44772 15 4C15 4.55228 15.4477 5 16 5H19V8C19 8.55228 19.4477 9 20 9C20.5523 9 21 8.55228 21 8V4C21 3.44772 20.5523 3 20 3H16Z" fill="black"/><path d="M5 16C5 15.4477 4.55228 15 4 15C3.44772 15 3 15.4477 3 16V20C3 20.5523 3.44772 21 4 21H8C8.55228 21 9 20.5523 9 20C9 19.4477 8.55228 19 8 19H5V16Z" fill="black"/><path d="M21 16C21 15.4477 20.5523 15 20 15C19.4477 15 19 15.4477 19 16V19H16C15.4477 19 15 19.4477 15 20C15 20.5523 15.4477 21 16 21H20C20.5523 21 21 20.5523 21 20V16Z" fill="black"/><path d="M10.5858 9.17156C10.1952 8.78103 9.56208 8.78103 9.17156 9.17156C8.78103 9.56208 8.78103 10.1952 9.17156 10.5858L10.5858 12L9.17156 13.4142C8.78103 13.8047 8.78103 14.4379 9.17156 14.8284C9.56208 15.2189 10.1952 15.2189 10.5858 14.8284L12 13.4142L13.4142 14.8284C13.8047 15.2189 14.4379 15.2189 14.8284 14.8284C15.2189 14.4379 15.2189 13.8047 14.8284 13.4142L13.4142 12L14.8284 10.5858C15.2189 10.1952 15.2189 9.56208 14.8284 9.17156C14.4379 8.78103 13.8047 8.78103 13.4142 9.17156L12 10.5858L10.5858 9.17156Z" fill="black"/></svg>
