<svg xmlns="http://www.w3.org/2000/svg" viewBox="0 0 24 24" fill="none"><path d="M11 13C11.5523 13 12 13.4477 12 14V21C12 21.5523 11.5523 22 11 22H3C2.44771 22 2 21.5523 2 21V14C2 13.4477 2.44771 13 3 13H11Z" fill="black"/><path d="M21 3C21.5523 3 22 3.44772 22 4V15C22 15.5523 21.5523 16 21 16H15C14.4477 16 14 15.5523 14 15C14 14.4477 14.4477 14 15 14H20V5H5V10C5 10.5523 4.55228 11 4 11C3.44772 11 3 10.5523 3 10V4C3 3.44772 3.44772 3 4 3H21Z" fill="black"/><path d="M17 7C17.5523 7 18 7.44772 18 8V11C18 11.5523 17.5523 12 17 12C16.4477 12 16 11.5523 16 11V10.4142L14.7071 11.7071C14.3166 12.0976 13.6834 12.0976 13.2929 11.7071C12.9024 11.3166 12.9024 10.6834 13.2929 10.2929L14.5858 9H14C13.4477 9 13 8.55228 13 8C13 7.44772 13.4477 7 14 7H17Z" fill="black"/></svg>
