<svg xmlns="http://www.w3.org/2000/svg" viewBox="0 0 24 24" fill="none"><path d="M4 3C3.44772 3 3 3.44772 3 4V8C3 8.55228 3.44772 9 4 9C4.55228 9 5 8.55228 5 8V5H8C8.55228 5 9 4.55228 9 4C9 3.44772 8.55228 3 8 3H4Z" fill="black"/><path d="M16 3C15.4477 3 15 3.44772 15 4C15 4.55228 15.4477 5 16 5H19V8C19 8.55228 19.4477 9 20 9C20.5523 9 21 8.55228 21 8V4C21 3.44772 20.5523 3 20 3H16Z" fill="black"/><path d="M5 16C5 15.4477 4.55228 15 4 15C3.44772 15 3 15.4477 3 16V20C3 20.5523 3.44772 21 4 21H8C8.55228 21 9 20.5523 9 20C9 19.4477 8.55228 19 8 19H5V16Z" fill="black"/><path d="M21 16C21 15.4477 20.5523 15 20 15C19.4477 15 19 15.4477 19 16V19H16C15.4477 19 15 19.4477 15 20C15 20.5523 15.4477 21 16 21H20C20.5523 21 21 20.5523 21 20V16Z" fill="black"/><path fill-rule="evenodd" clip-rule="evenodd" d="M8 11C8 10.4477 8.44772 10 9 10C9 8.34315 10.3431 7 12 7C13.6569 7 15 8.34315 15 10C15.5523 10 16 10.4477 16 11V15C16 15.5523 15.5523 16 15 16H9C8.44772 16 8 15.5523 8 15V11ZM13 10C13 9.44772 12.5523 9 12 9C11.4477 9 11 9.44772 11 10H13Z" fill="black"/></svg>
