<svg xmlns="http://www.w3.org/2000/svg" viewBox="0 0 24 24" fill="none"><path fill-rule="evenodd" clip-rule="evenodd" d="M8.66795 3.4453C8.85342 3.1671 9.16565 3 9.5 3H14.5C14.8344 3 15.1466 3.1671 15.3321 3.4453L17.0352 6H21C21.5523 6 22 6.44772 22 7V20C22 20.5523 21.5523 21 21 21H3C2.44772 21 2 20.5523 2 20V7C2 6.44772 2.44772 6 3 6H6.96482L8.66795 3.4453ZM12 9C10.067 9 8.5 10.567 8.5 12.5C8.5 14.433 10.067 16 12 16C13.933 16 15.5 14.433 15.5 12.5C15.5 10.567 13.933 9 12 9Z" fill="black"/></svg>
