<svg xmlns="http://www.w3.org/2000/svg" viewBox="0 0 24 24" fill="none"><path d="M3.2871 2.38316C2.94641 1.94848 2.31784 1.87229 1.88316 2.21299C1.44848 2.55368 1.37229 3.18225 1.71299 3.61693L2.26533 4.32164C2.10066 4.4999 2.00005 4.73822 2.00005 5.00003V19C2.00005 19.5523 2.44776 20 3.00005 20H14.5538L16.213 22.1169C16.5537 22.5516 17.1822 22.6278 17.6169 22.2871C18.0516 21.9464 18.1278 21.3178 17.7871 20.8832L3.2871 2.38316Z" fill="black"/><path fill-rule="evenodd" clip-rule="evenodd" d="M7.09549 4.00003L16.3314 15.7837L20.5528 17.8945C20.8628 18.0495 21.231 18.0329 21.5258 17.8507C21.8206 17.6685 22 17.3466 22 17V7.00003C22 6.65345 21.8206 6.33159 21.5258 6.14938C21.231 5.96717 20.8628 5.95061 20.5528 6.1056L16 8.382V5.00003C16 4.44775 15.5523 4.00003 15 4.00003H7.09549ZM16 13.382L20 15.382V8.61807L16 10.6181V13.382Z" fill="black"/></svg>
