<svg xmlns="http://www.w3.org/2000/svg" viewBox="0 0 24 24" fill="none"><path d="M4 3C3.44772 3 3 3.44772 3 4V8C3 8.55228 3.44772 9 4 9C4.55228 9 5 8.55228 5 8V5H8C8.55228 5 9 4.55228 9 4C9 3.44772 8.55228 3 8 3H4Z" fill="black"/><path d="M16 3C15.4477 3 15 3.44772 15 4C15 4.55228 15.4477 5 16 5H19V8C19 8.55228 19.4477 9 20 9C20.5523 9 21 8.55228 21 8V4C21 3.44772 20.5523 3 20 3H16Z" fill="black"/><path d="M11.049 9.54897C11.346 9.4366 11.6673 9.375 12 9.375C13.1971 9.375 14.2095 10.1772 14.524 11.2753C14.676 11.8063 15.2297 12.1134 15.7606 11.9614C16.2916 11.8093 16.5987 11.2556 16.4467 10.7247C15.893 8.79143 14.1132 7.375 12 7.375C11.1127 7.375 10.2735 7.62556 9.56005 8.06L8.85355 7.3535C8.53857 7.03852 8 7.26161 8 7.70706V9.99995C8 10.5522 8.44772 11 9 11H11.2929C11.7383 11 11.9614 10.4614 11.6464 10.1464L11.049 9.54897Z" fill="black"/><path d="M9.47604 12.7247C9.32399 12.1937 8.77031 11.8866 8.23937 12.0386C7.70843 12.1907 7.40128 12.7444 7.55333 13.2753C8.10699 15.2086 9.88679 16.625 12 16.625C12.8875 16.625 13.7268 16.3742 14.44 15.94L15.1464 16.6464C15.4614 16.9614 16 16.7383 16 16.2928V14C16 13.4477 15.5523 13 15 13H12.7071C12.2617 13 12.0386 13.5385 12.3536 13.8535L12.9511 14.451C12.654 14.5634 12.3327 14.625 12 14.625C10.8029 14.625 9.79054 13.8228 9.47604 12.7247Z" fill="black"/><path d="M5 16C5 15.4477 4.55228 15 4 15C3.44772 15 3 15.4477 3 16V20C3 20.5523 3.44772 21 4 21H8C8.55228 21 9 20.5523 9 20C9 19.4477 8.55228 19 8 19H5V16Z" fill="black"/><path d="M21 16C21 15.4477 20.5523 15 20 15C19.4477 15 19 15.4477 19 16V19H16C15.4477 19 15 19.4477 15 20C15 20.5523 15.4477 21 16 21H20C20.5523 21 21 20.5523 21 20V16Z" fill="black"/></svg>
