<svg xmlns="http://www.w3.org/2000/svg" viewBox="0 0 24 24" fill="none"><path d="M21 4C21 3.45 20.55 3 20 3H4C3.45 3 3 3.45 3 4V20C3 20.55 3.45 21 4 21H20C20.12 21 20.24 20.97 20.35 20.93C20.38 20.92 20.41 20.9 20.44 20.89C20.52 20.85 20.58 20.81 20.65 20.75C20.68 20.73 20.7 20.71 20.73 20.68C20.8 20.6 20.86 20.52 20.91 20.42C20.91 20.42 20.92 20.4 20.93 20.39C20.98 20.28 20.99 20.16 21 20.04C21 20.03 21 20.02 21 20V4ZM19 5V17.59L14.71 13.3C14.32 12.91 13.69 12.91 13.3 13.3L12.01 14.59L8.72 11.3C8.33 10.91 7.7 10.91 7.31 11.3L5.02 13.59V5H19.02H19ZM12.25 9C12.25 7.9 13.15 7 14.25 7C15.35 7 16.25 7.9 16.25 9C16.25 10.1 15.35 11 14.25 11C13.15 11 12.25 10.1 12.25 9Z" fill="black"/></svg>
