<svg xmlns="http://www.w3.org/2000/svg" viewBox="0 0 24 24" fill="none"><path fill-rule="evenodd" clip-rule="evenodd" d="M9.5 3C9.16565 3 8.85342 3.1671 8.66795 3.4453L6.96482 6H3C2.44772 6 2 6.44772 2 7V20C2 20.5523 2.44772 21 3 21H21C21.5523 21 22 20.5523 22 20V7C22 6.44772 21.5523 6 21 6H17.0352L15.3321 3.4453C15.1466 3.1671 14.8344 3 14.5 3H9.5ZM9.29123 10.7929C9.68175 10.4024 10.3149 10.4024 10.7054 10.7929L12 12.0875L13.2946 10.7929C13.6851 10.4024 14.3182 10.4024 14.7088 10.7929C15.0993 11.1834 15.0993 11.8166 14.7088 12.2071L13.4142 13.5017L14.7071 14.7946C15.0976 15.1851 15.0976 15.8182 14.7071 16.2088C14.3166 16.5993 13.6834 16.5993 13.2929 16.2088L12 14.9159L10.7071 16.2088C10.3166 16.5993 9.68342 16.5993 9.29289 16.2088C8.90237 15.8182 8.90237 15.1851 9.29289 14.7946L10.5858 13.5017L9.29123 12.2071C8.9007 11.8166 8.9007 11.1834 9.29123 10.7929Z" fill="black"/></svg>
