<svg xmlns="http://www.w3.org/2000/svg" viewBox="0 0 24 24" fill="none"><path fill-rule="evenodd" clip-rule="evenodd" d="M2 5C2 4.44772 2.44772 4 3 4H21C21.5523 4 22 4.44772 22 5V19C22 19.5523 21.5523 20 21 20H3C2.44772 20 2 19.5523 2 19V5ZM12.7071 7.79289C12.3166 7.40237 11.6834 7.40237 11.2929 7.79289L8.29289 10.7929C7.90237 11.1834 7.90237 11.8166 8.29289 12.2071C8.68342 12.5976 9.31658 12.5976 9.70711 12.2071L11 10.9142V15.5C11 16.0523 11.4477 16.5 12 16.5C12.5523 16.5 13 16.0523 13 15.5V10.9142L14.2929 12.2071C14.6834 12.5976 15.3166 12.5976 15.7071 12.2071C16.0976 11.8166 16.0976 11.1834 15.7071 10.7929L12.7071 7.79289Z" fill="black"/></svg>
