<svg xmlns="http://www.w3.org/2000/svg" viewBox="0 0 24 24" fill="none"><path fill-rule="evenodd" clip-rule="evenodd" d="M13 4.9C13 4.40294 13.4029 4 13.9 4H21.1C21.5971 4 22 4.40294 22 4.9V12.1C22 12.5971 21.5971 13 21.1 13H13.9C13.4029 13 13 12.5971 13 12.1V4.9ZM17.5 9.75C16.8096 9.75 16.25 9.19036 16.25 8.5C16.25 7.80964 16.8096 7.25 17.5 7.25C18.1904 7.25 18.75 7.80964 18.75 8.5C18.75 9.19036 18.1904 9.75 17.5 9.75Z" fill="black"/><path fill-rule="evenodd" clip-rule="evenodd" d="M11 4V12.1C11 13.7016 12.2984 15 13.9 15H22V20C22 20.5523 21.5523 21 21 21H3C2.44772 21 2 20.5523 2 20V5C2 4.44772 2.44772 4 3 4H11ZM6 16C5.44772 16 5 16.4477 5 17C5 17.5523 5.44772 18 6 18H8C8.55228 18 9 17.5523 9 17C9 16.4477 8.55228 16 8 16H6Z" fill="black"/></svg>
