<svg xmlns="http://www.w3.org/2000/svg" viewBox="0 0 24 24" fill="none"><path fill-rule="evenodd" clip-rule="evenodd" d="M3.70711 2.29289C3.31658 1.90237 2.68342 1.90237 2.29289 2.29289C1.90237 2.68342 1.90237 3.31658 2.29289 3.70711L4.58579 6H3C2.44772 6 2 6.44772 2 7V20C2 20.5523 2.44772 21 3 21H19.5858L20.2929 21.7071C20.6834 22.0976 21.3166 22.0976 21.7071 21.7071C22.0976 21.3166 22.0976 20.6834 21.7071 20.2929L3.70711 2.29289ZM13.9754 15.3896L9.11036 10.5246C8.72528 11.0868 8.5 11.7671 8.5 12.5C8.5 14.433 10.067 16 12 16C12.7329 16 13.4132 15.7747 13.9754 15.3896Z" fill="black"/><path d="M8.2758 4.03352L22 17.7577V7C22 6.44772 21.5523 6 21 6H17.0352L15.3321 3.4453C15.1466 3.1671 14.8344 3 14.5 3H9.5C9.16565 3 8.85342 3.1671 8.66795 3.4453L8.2758 4.03352Z" fill="black"/></svg>
