<svg xmlns="http://www.w3.org/2000/svg" viewBox="0 0 24 24" fill="none"><path fill-rule="evenodd" clip-rule="evenodd" d="M3 3C2.44772 3 2 3.44772 2 4V20C2 20.5523 2.44772 21 3 21H21C21.5523 21 22 20.5523 22 20V4C22 3.44772 21.5523 3 21 3H3ZM8.5 12C8.5 10.067 10.067 8.5 12 8.5C13.933 8.5 15.5 10.067 15.5 12C15.5 13.933 13.933 15.5 12 15.5C10.067 15.5 8.5 13.933 8.5 12ZM17.5 8.75C16.8096 8.75 16.25 8.19036 16.25 7.5C16.25 6.80964 16.8096 6.25 17.5 6.25C18.1904 6.25 18.75 6.80964 18.75 7.5C18.75 8.19036 18.1904 8.75 17.5 8.75Z" fill="black"/></svg>
