<svg xmlns="http://www.w3.org/2000/svg" viewBox="0 0 24 24" fill="none"><path fill-rule="evenodd" clip-rule="evenodd" d="M2 5C2 4.44772 2.44772 4 3 4H16C16.5523 4 17 4.44772 17 5V7.52297L20.6286 6.07152C20.9367 5.94829 21.2859 5.9859 21.5606 6.17193C21.8354 6.35796 22 6.66818 22 7V17C22 17.3318 21.8354 17.642 21.5606 17.8281C21.2859 18.0141 20.9367 18.0517 20.6286 17.9285L17 16.477V19C17 19.5523 16.5523 20 16 20H3C2.44772 20 2 19.5523 2 19V5ZM9.5 15C11.1569 15 12.5 13.6569 12.5 12C12.5 10.3431 11.1569 9 9.5 9C7.84315 9 6.5 10.3431 6.5 12C6.5 13.6569 7.84315 15 9.5 15Z" fill="black"/></svg>
