<svg xmlns="http://www.w3.org/2000/svg" viewBox="0 0 24 24" fill="none"><path d="M17.5 9C17.5 10.3807 16.3807 11.5 15 11.5C13.6193 11.5 12.5 10.3807 12.5 9C12.5 7.61929 13.6193 6.5 15 6.5C16.3807 6.5 17.5 7.61929 17.5 9Z" fill="black"/><path fill-rule="evenodd" clip-rule="evenodd" d="M4 3H20.01C20.56 3 21.01 3.45 21.01 4V20C21.01 20.02 21.005 20.0375 21 20.055C20.995 20.0725 20.99 20.09 20.99 20.11C20.9833 20.14 20.9789 20.17 20.9744 20.2C20.9656 20.26 20.9567 20.32 20.93 20.38C20.88 20.47 20.82 20.56 20.75 20.64C20.74 20.65 20.735 20.66 20.73 20.67C20.725 20.68 20.72 20.69 20.71 20.7C20.62 20.8 20.51 20.87 20.39 20.92C20.26 20.97 20.13 21 20 21H4C3.45 21 3 20.55 3 20V4C3 3.45 3.45 3 4 3ZM19 12.83V5H5V12.21L6.25 11.28C6.26 11.27 6.27 11.26 6.29 11.25C7.51 10.43 9.15 10.62 10.15 11.7C11.62 13.28 13.09 14.45 15 14.45C16.7 14.45 17.86 13.89 19 12.83Z" fill="black"/></svg>
