<svg xmlns="http://www.w3.org/2000/svg" viewBox="0 0 24 24" fill="none"><path d="M14 2.00007C14 1.56265 13.7157 1.17599 13.2982 1.04556C12.8806 0.915134 12.4268 1.07122 12.1778 1.43086L3.17781 14.4309C2.9661 14.7367 2.9416 15.1347 3.11422 15.4642C3.28685 15.7936 3.62806 16.0001 4 16.0001H10V22.0001C10 22.4375 10.2843 22.8242 10.7018 22.9546C11.1194 23.085 11.5732 22.9289 11.8222 22.5693L20.8222 9.56928C21.0339 9.26347 21.0584 8.86543 20.8858 8.53597C20.7132 8.20651 20.3719 8.00007 20 8.00007H14V2.00007Z" fill="black"/><path fill-rule="evenodd" clip-rule="evenodd" d="M21.4291 14.0162C21.8276 14.0888 22.1429 14.3945 22.2278 14.7905L23.7278 21.7905C23.8435 22.3306 23.4996 22.8621 22.9595 22.9779C22.4195 23.0936 21.8879 22.7496 21.7722 22.2096L21.6202 21.5001H18.2602L17.5912 22.5408C17.2925 23.0054 16.6738 23.1399 16.2092 22.8412C15.7447 22.5426 15.6102 21.9239 15.9088 21.4593L20.4088 14.4593C20.6278 14.1186 21.0307 13.9437 21.4291 14.0162ZM19.5459 19.5001H21.1916L20.7802 17.5802L19.5459 19.5001Z" fill="black"/></svg>
