<svg xmlns="http://www.w3.org/2000/svg" viewBox="0 0 24 24" fill="none"><path d="M3 4C3 3.44772 3.44772 3 4 3H8C8.55228 3 9 3.44772 9 4C9 4.55228 8.55228 5 8 5H5V8C5 8.55228 4.55228 9 4 9C3.44772 9 3 8.55228 3 8V4Z" fill="black"/><path d="M15 4C15 3.44772 15.4477 3 16 3H20C20.5523 3 21 3.44772 21 4V8C21 8.55228 20.5523 9 20 9C19.4477 9 19 8.55228 19 8V5H16C15.4477 5 15 4.55228 15 4Z" fill="black"/><path d="M4 15C4.55228 15 5 15.4477 5 16V19H8C8.55228 19 9 19.4477 9 20C9 20.5523 8.55228 21 8 21H4C3.44772 21 3 20.5523 3 20V16C3 15.4477 3.44772 15 4 15Z" fill="black"/><path d="M20 15C20.5523 15 21 15.4477 21 16V20C21 20.5523 20.5523 21 20 21H16C15.4477 21 15 20.5523 15 20C15 19.4477 15.4477 19 16 19H19V16C19 15.4477 19.4477 15 20 15Z" fill="black"/><path d="M13 14.874C14.7252 14.4299 16 12.8638 16 11V8.75C16 8.41386 15.8311 8.1002 15.5505 7.91516C15.2699 7.73012 14.915 7.69844 14.6061 7.83085L13.4784 8.31416L12.7071 7.54289C12.3166 7.15237 11.6834 7.15237 11.2929 7.54289L10.5216 8.31416L9.39392 7.83085C9.08496 7.69844 8.73013 7.73012 8.44951 7.91516C8.16888 8.1002 8 8.41386 8 8.75V11C8 12.8638 9.27477 14.4299 11 14.874V16C11 16.5523 11.4477 17 12 17C12.5523 17 13 16.5523 13 16V14.874Z" fill="black"/></svg>
