<svg xmlns="http://www.w3.org/2000/svg" viewBox="0 0 24 24" fill="none"><path d="M11.418 1.93689C11.766 1.6877 12.2341 1.6877 12.5822 1.93689L22.0822 8.7381C22.5313 9.0596 22.6347 9.68426 22.3132 10.1333C21.9917 10.5824 21.3671 10.6858 20.918 10.3643L20.0001 9.70718V9.88077C20.0001 10.4331 19.5524 10.8808 19.0001 10.8808C18.4478 10.8808 18.0001 10.4331 18.0001 9.88077V8.27535L12.0001 3.97985L6.00009 8.27535V19.0001H12.0001C12.5524 19.0001 13.0001 19.4478 13.0001 20.0001C13.0001 20.5523 12.5524 21.0001 12.0001 21.0001H5.00009C4.44781 21.0001 4.00009 20.5523 4.00009 20.0001V9.70718L3.08219 10.3643C2.63313 10.6858 2.00846 10.5824 1.68697 10.1333C1.36548 9.68426 1.4689 9.0596 1.91796 8.7381L4.41303 6.95184C4.41675 6.94914 4.42048 6.94647 4.42423 6.94383L11.418 1.93689Z" fill="black"/><path d="M12.0001 9C10.3432 9 9.00008 10.3431 9.00008 12C9.00008 13.6569 10.3432 15 12.0001 15C13.6569 15 15.0001 13.6569 15.0001 12C15.0001 10.3431 13.6569 9 12.0001 9Z" fill="black"/><path d="M19.0185 14.0218C19.0185 13.5324 18.4182 13.3132 18.1152 13.692L15.1161 17.441C14.8441 17.781 15.0807 18.2916 15.5102 18.2916H16.9817V20.4782C16.9817 20.9676 17.582 21.1868 17.885 20.808L20.884 17.059C21.156 16.719 20.9195 16.2084 20.4899 16.2084H19.0185V14.0218Z" fill="black"/></svg>
