<svg xmlns="http://www.w3.org/2000/svg" viewBox="0 0 24 24" fill="none"><path d="M11.418 2.18689C11.766 1.9377 12.2341 1.9377 12.5822 2.18689L22.0822 8.9881C22.5313 9.3096 22.6347 9.93426 22.3132 10.3833C21.9917 10.8324 21.3671 10.9358 20.918 10.6143L20.0001 9.95718V20C20.0001 20.5523 19.5524 21 19.0001 21H16.0001C15.4478 21 15.0001 20.5523 15.0001 20C15.0001 19.4477 15.4478 19 16.0001 19H18.0001V8.52535L12.0001 4.22985L6.00009 8.52535V19H8.00008C8.55236 19 9.00008 19.4477 9.00008 20C9.00008 20.5523 8.55236 21 8.00008 21H5.00009C4.44781 21 4.00009 20.5523 4.00009 20V9.95718L3.08219 10.6143C2.63313 10.9358 2.00846 10.8324 1.68697 10.3833C1.36548 9.93426 1.4689 9.3096 1.91796 8.9881L11.418 2.18689Z" fill="black"/><path d="M9.00008 11C8.44779 11 8.00008 11.4477 8.00008 12V16C8.00008 16.5523 8.44779 17 9.00008 17H11.0001V20C11.0001 20.5523 11.4478 21 12.0001 21C12.5524 21 13.0001 20.5523 13.0001 20V17H15.0001C15.5524 17 16.0001 16.5523 16.0001 16V12C16.0001 11.4477 15.5524 11 15.0001 11V10C15.0001 9.44772 14.5524 9 14.0001 9C13.4478 9 13.0001 9.44772 13.0001 10V11H11.0001V10C11.0001 9.44772 10.5524 9 10.0001 9C9.44779 9 9.00008 9.44772 9.00008 10V11Z" fill="black"/></svg>
