<svg xmlns="http://www.w3.org/2000/svg" viewBox="0 0 24 24" fill="none"><path d="M12.3964 2.08883C12.1454 1.97072 11.8547 1.97072 11.6036 2.08883C10.0558 2.81697 8.7285 3.78149 7.71153 5.13267C9.2742 5.37723 10.7287 5.95103 12 6.7795C13.2713 5.95104 14.7259 5.37724 16.2885 5.13267C15.2716 3.78149 13.9443 2.81697 12.3964 2.08883Z" fill="black"/><path d="M11.8591 9.16825C10.2853 7.81751 8.23767 7.00001 6 7.00001H5C4.44772 7.00001 4 7.44773 4 8.00001V12C4 16.0796 7.05369 19.446 11 19.9381V21C11 21.5523 11.4477 22 12 22C12.5523 22 13 21.5523 13 21V13C13 11.5856 12.5805 10.2691 11.8591 9.16825Z" fill="black"/><path d="M15 19.4185C17.9318 18.2317 20 15.3574 20 12V8.00001C20 7.44773 19.5523 7.00001 19 7.00001H18C16.3962 7.00001 14.8901 7.41995 13.586 8.15518C14.4811 9.55378 15 11.2163 15 13V19.4185Z" fill="black"/></svg>
