<svg xmlns="http://www.w3.org/2000/svg" viewBox="0 0 24 24" fill="none"><path d="M8.59209 6.65363C8.83451 6.35059 9.31472 6.52592 9.31472 6.91746V8.66673H10.4919C10.8355 8.66673 11.0248 9.07516 10.8072 9.34719L8.40793 12.3464C8.16551 12.6494 7.68529 12.4741 7.68529 12.0825V10.3333H6.50813C6.16448 10.3333 5.97524 9.92484 6.19286 9.65281L8.59209 6.65363Z" fill="black"/><path fill-rule="evenodd" clip-rule="evenodd" d="M3 4C3 3.44772 3.44772 3 4 3H13C13.5523 3 14 3.44772 14 4V19H20C20.5523 19 21 19.4477 21 20C21 20.5523 20.5523 21 20 21H4C3.44772 21 3 20.5523 3 20V4ZM5 5V14H12V5H5Z" fill="black"/><path d="M17.6402 3.7318C17.2159 3.37824 16.5853 3.43556 16.2318 3.85984C15.8782 4.28412 15.9355 4.91468 16.3598 5.26825L19 7.4684V15H18V11C18 10.4477 17.5523 10 17 10C16.4477 10 16 10.4477 16 11V16C16 16.5523 16.4477 17 17 17H20C20.5523 17 21 16.5523 21 16V7.00002C21 6.70325 20.8682 6.4218 20.6402 6.2318L17.6402 3.7318Z" fill="black"/></svg>
