<svg xmlns="http://www.w3.org/2000/svg" viewBox="0 0 24 24" fill="none"><path fill-rule="evenodd" clip-rule="evenodd" d="M3 4C3 3.44772 3.44772 3 4 3H5C5.55228 3 6 3.44772 6 4C6 4.55228 5.55228 5 5 5H4C3.44772 5 3 4.55228 3 4ZM18 4C18 3.44772 18.4477 3 19 3H20C20.5523 3 21 3.44772 21 4C21 4.55228 20.5523 5 20 5H19C18.4477 5 18 4.55228 18 4ZM12 9C12.5523 9 13 9.44772 13 10V11C13 11.5523 12.5523 12 12 12C11.4477 12 11 11.5523 11 11V10C11 9.44772 11.4477 9 12 9Z" fill="black"/><path fill-rule="evenodd" clip-rule="evenodd" d="M7.70711 7.54289C8.09763 7.93342 8.09763 8.56658 7.70711 8.95711L6.95711 9.70711C6.56658 10.0976 5.93342 10.0976 5.54289 9.70711C5.15237 9.31658 5.15237 8.68342 5.54289 8.29289L6.29289 7.54289C6.68342 7.15237 7.31658 7.15237 7.70711 7.54289Z" fill="black"/><path fill-rule="evenodd" clip-rule="evenodd" d="M16.2929 7.54289C15.9024 7.93342 15.9024 8.56658 16.2929 8.95711L17.0429 9.70711C17.4334 10.0976 18.0666 10.0976 18.4571 9.70711C18.8476 9.31658 18.8476 8.68342 18.4571 8.29289L17.7071 7.54289C17.3166 7.15237 16.6834 7.15237 16.2929 7.54289Z" fill="black"/><path fill-rule="evenodd" clip-rule="evenodd" d="M14.999 3C15.5513 3 16.0128 3.45467 15.8766 3.98988C15.4361 5.72024 13.8675 7 12 7C10.1325 7 8.56394 5.72024 8.12343 3.98988C7.98717 3.45467 8.4487 3 9.00099 3C11.2761 3 12.7239 3 14.999 3Z" fill="black"/><path d="M11 16C11 15.4477 10.5523 15 10 15H5C4.62123 15 4.27497 15.214 4.10557 15.5528L2.10557 19.5528C1.95058 19.8628 1.96714 20.2309 2.14935 20.5257C2.33156 20.8205 2.65342 21 3 21H10C10.5523 21 11 20.5523 11 20V16Z" fill="black"/><path d="M13 20C13 20.5523 13.4477 21 14 21H21C21.3466 21 21.6684 20.8205 21.8507 20.5257C22.0329 20.2309 22.0494 19.8628 21.8944 19.5528L19.8944 15.5528C19.725 15.214 19.3788 15 19 15H14C13.4477 15 13 15.4477 13 16V20Z" fill="black"/></svg>
