<svg xmlns="http://www.w3.org/2000/svg" viewBox="0 0 24 24" fill="none"><path d="M9 5C9 4.44772 9.44772 4 10 4H19C19.5523 4 20 3.55228 20 3C20 2.44772 19.5523 2 19 2H10C8.34315 2 7 3.34315 7 5C7 5.55228 7.44772 6 8 6C8.55228 6 9 5.55228 9 5Z" fill="black"/><path fill-rule="evenodd" clip-rule="evenodd" d="M6.00001 7C5.51117 7 5.09398 7.35341 5.01361 7.8356L3.01361 19.8356C2.96529 20.1256 3.04698 20.4221 3.23699 20.6464C3.42699 20.8707 3.70606 21 4.00001 21H20C20.5523 21 21 20.5523 21 20V11.5C21 11.1534 20.8205 10.8316 20.5257 10.6494C20.2309 10.4671 19.8628 10.4506 19.5528 10.6056L16 12.382V11.5C16 11.153 15.8201 10.8308 15.5248 10.6487C15.2294 10.4667 14.8607 10.4507 14.5507 10.6066L11.6882 12.0461L10.9864 7.8356C10.906 7.35341 10.4888 7 10 7H6.00001ZM9.92542 13.6353L9.15288 9H6.84713L5.18047 19H10.819L9.93556 13.7157C9.93107 13.6888 9.9277 13.662 9.92542 13.6353Z" fill="black"/></svg>
