<svg xmlns="http://www.w3.org/2000/svg" viewBox="0 0 24 24" fill="none"><path d="M13 15H20C20.2996 15 20.5834 14.8657 20.7733 14.634C20.9633 14.4023 21.0393 14.0977 20.9806 13.8039L20.2198 10H13V15Z" fill="black"/><path d="M11 15V19H5.00002C4.44773 19 4.00002 19.4477 4.00002 20C4.00002 20.5523 4.44773 21 5.00002 21H19C19.5523 21 20 20.5523 20 20C20 19.4477 19.5523 19 19 19H13V15H11Z" fill="black"/><path d="M11 15V10H3.7802L3.01943 13.8039C2.96067 14.0977 3.03673 14.4023 3.22667 14.634C3.41661 14.8657 3.70042 15 4.00001 15H11Z" fill="black"/><path d="M13 8H19.8198L18.9806 3.80388C18.8871 3.33646 18.4767 3 18 3H13V8Z" fill="black"/><path d="M11 3V8H4.1802L5.01943 3.80388C5.11291 3.33646 5.52333 3 6.00001 3H11Z" fill="black"/></svg>
