<svg xmlns="http://www.w3.org/2000/svg" viewBox="0 0 24 24" fill="none"><path d="M17.7473 6.55941L13.3038 8.25841L15.5336 15H8.4658L10.318 9.40005L5.80614 11.1252C6.21178 11.6502 6.73201 12.0598 7.31539 12.3339C7.81525 12.5688 8.03008 13.1644 7.79522 13.6643C7.56036 14.1641 6.96475 14.3789 6.46489 14.1441C5.15156 13.527 4.04918 12.442 3.43472 11.0021C2.72199 9.33195 2.80851 7.52006 3.52063 5.99715C3.75457 5.49686 4.34978 5.28094 4.85007 5.51488C5.35036 5.74882 5.56628 6.34403 5.33235 6.84432C4.98083 7.59606 4.85565 8.44854 5.00072 9.29195L17.0228 4.69522C17.1696 3.7353 17.9988 3 18.9997 3C20.1043 3 20.9997 3.89543 20.9997 5C20.9997 5.74028 20.5975 6.38663 19.9997 6.73244V19C20.552 19 20.9997 19.4477 20.9997 20C20.9997 20.5523 20.552 21 19.9997 21H3.99971C3.44743 21 2.99971 20.5523 2.99971 20C2.99971 19.4477 3.44743 19 3.99971 19H6.98715L7.73845 17H16.261L17.0123 19H17.9997V6.73244C17.911 6.68115 17.8267 6.62324 17.7473 6.55941Z" fill="black"/></svg>
