<svg xmlns="http://www.w3.org/2000/svg" viewBox="0 0 24 24" fill="none"><path fill-rule="evenodd" clip-rule="evenodd" d="M9.28282 2.26408C9.47036 2.07655 9.72471 1.97119 9.98993 1.97119H11.513C13.446 1.97119 15.013 3.53819 15.013 5.47119L15.013 9.2155C15.0266 9.23833 15.0399 9.26133 15.0529 9.28449L20.4604 12.4065C20.6901 12.5391 20.8577 12.7575 20.9263 13.0137C20.995 13.2699 20.9591 13.5428 20.8264 13.7725L20.0649 15.0916C19.0984 16.7656 16.9578 17.3392 15.2838 16.3727L14.34 15.8278L15.1467 20H19.0015C19.5538 20 20.0015 20.4477 20.0015 21C20.0015 21.5523 19.5538 22 19.0015 22H5.00149C4.44921 22 4.00149 21.5523 4.00149 21C4.00149 20.4477 4.44921 20 5.00149 20H8.85631L9.66302 15.8274L6.5541 17.6223C6.32442 17.7549 6.05146 17.7909 5.79528 17.7222C5.53911 17.6536 5.32069 17.486 5.18808 17.2563L4.42653 15.9372C3.46003 14.2632 4.03359 12.1227 5.70762 11.1562L8.95033 9.28397C8.96328 9.261 8.97648 9.23819 8.98993 9.21554L8.98993 2.97119C8.98993 2.70598 9.09528 2.45162 9.28282 2.26408ZM13.013 5.47119L13.013 7.6484C12.6928 7.55188 12.3532 7.5 12.0015 7.5C11.6498 7.5 11.3102 7.55188 10.9899 7.6484L10.9899 3.97119H11.513C12.3415 3.97119 13.013 4.64276 13.013 5.47119ZM15.4097 11.7999C15.2502 12.4821 14.8911 13.0876 14.3974 13.5515L16.2838 14.6406C17.0012 15.0548 17.9186 14.809 18.3328 14.0916L18.5944 13.6385L15.4097 11.7999ZM9.60541 13.5512C9.1117 13.0874 8.75267 12.4818 8.59323 11.7995L6.70762 12.8882C5.99018 13.3024 5.74436 14.2198 6.15858 14.9372L6.42013 15.3903L9.60541 13.5512ZM10.5015 11C10.5015 10.1716 11.1731 9.5 12.0015 9.5C12.8299 9.5 13.5015 10.1716 13.5015 11C13.5015 11.8284 12.8299 12.5 12.0015 12.5C11.1731 12.5 10.5015 11.8284 10.5015 11Z" fill="black"/></svg>
