<svg xmlns="http://www.w3.org/2000/svg" viewBox="0 0 24 24" fill="none"><path fill-rule="evenodd" clip-rule="evenodd" d="M5.14951 3.92279C5.18984 3.40201 5.62419 3 6.14653 3H16.6349C17.1573 3 17.5916 3.40201 17.6319 3.92279C17.8393 6.60007 18.0582 8.78995 18.4023 10.881C20.5484 12.0768 22 14.3689 22 17V20C22 20.5523 21.5523 21 21 21H3.00001C2.67599 21 2.37206 20.843 2.18452 20.5788C1.99699 20.3146 1.9491 19.9758 2.05603 19.67C4.11672 13.7758 4.66491 10.1808 5.14951 3.92279ZM10.416 15H19.584C18.8124 13.2341 17.0503 12 15 12C12.9497 12 11.1876 13.2341 10.416 15ZM20 17H10V19H20V17Z" fill="black"/></svg>
