<svg xmlns="http://www.w3.org/2000/svg" viewBox="0 0 24 24" fill="none"><path fill-rule="evenodd" clip-rule="evenodd" d="M11.3753 2.21913C11.7405 1.92696 12.2595 1.92696 12.6247 2.21913L14.6697 3.8551L16.6286 3.07152C16.9367 2.94829 17.2859 2.9859 17.5606 3.17193C17.8354 3.35796 18 3.66818 18 4V8C18 10.973 15.8377 13.441 13 13.917V15.6072C14.0923 14.6089 15.5465 14 17.1429 14C17.4651 14 17.7823 14.0249 18.0923 14.0731C18.5225 14.1399 18.8601 14.4775 18.9269 14.9077C18.9751 15.2177 19 15.5349 19 15.8571C19 19.202 16.3266 21.9225 13 21.9984V22H11V21.9984C7.67338 21.9225 5 19.202 5 15.8571C5 15.5349 5.02491 15.2177 5.07307 14.9077C5.13991 14.4775 5.47746 14.1399 5.9077 14.0731C6.21771 14.0249 6.53486 14 6.85714 14C8.45353 14 9.90768 14.6089 11 15.6072V13.917C8.16229 13.441 6 10.973 6 8V4C6 3.66818 6.1646 3.35796 6.43937 3.17193C6.71414 2.9859 7.0633 2.94829 7.37139 3.07152L9.33034 3.8551L11.3753 2.21913ZM7.0025 16.0025C7.07742 18.175 8.82503 19.9226 10.9975 19.9975C10.9226 17.825 9.17498 16.0774 7.0025 16.0025ZM16.9975 16.0025C16.9226 18.175 15.175 19.9226 13.0025 19.9975C13.0774 17.825 14.825 16.0774 16.9975 16.0025Z" fill="black"/></svg>
