<svg xmlns="http://www.w3.org/2000/svg" viewBox="0 0 24 24" fill="none"><path fill-rule="evenodd" clip-rule="evenodd" d="M3 11.0357C3 6.04963 7.02524 2 12 2C16.9748 2 21 6.04963 21 11.0357C21 13.72 19.8336 16.1313 17.9828 17.786L18.9487 20.6838C19.0503 20.9887 18.9992 21.3239 18.8112 21.5847C18.6233 21.8455 18.3215 22 18 22H6.00001C5.67856 22 5.37672 21.8455 5.18877 21.5847C5.00081 21.3239 4.94967 20.9887 5.05132 20.6838L6.01725 17.786C4.16642 16.1313 3 13.72 3 11.0357ZM7.72077 19L7.38743 20H16.6126L16.2792 19H7.72077ZM13.1671 6.09703C13.1231 5.96758 12.8769 5.96758 12.833 6.09703C12.7066 6.46956 12.5051 6.93046 12.2178 7.21777C11.9305 7.50507 11.4696 7.70649 11.0971 7.83292C10.9676 7.87685 10.9676 8.12309 11.0971 8.16702C11.4696 8.29345 11.9305 8.49487 12.2178 8.78217C12.5051 9.06948 12.7066 9.53038 12.833 9.90291C12.8769 10.0324 13.1231 10.0324 13.1671 9.90291C13.2935 9.53038 13.4949 9.06948 13.7822 8.78217C14.0695 8.49487 14.5304 8.29345 14.903 8.16702C15.0324 8.12309 15.0324 7.87685 14.903 7.83292C14.5304 7.70649 14.0695 7.50507 13.7822 7.21777C13.4949 6.93046 13.2935 6.46956 13.1671 6.09703ZM15.6879 9.35922C15.6385 9.21359 15.3615 9.21359 15.3121 9.35922C15.1698 9.77831 14.9432 10.2968 14.62 10.62C14.2968 10.9432 13.7783 11.1698 13.3592 11.3121C13.2136 11.3615 13.2136 11.6385 13.3592 11.6879C13.7783 11.8302 14.2968 12.0568 14.62 12.38C14.9432 12.7032 15.1698 13.2217 15.3121 13.6408C15.3615 13.7864 15.6385 13.7864 15.6879 13.6408C15.8302 13.2217 16.0568 12.7032 16.38 12.38C16.7032 12.0568 17.2217 11.8302 17.6408 11.6879C17.7864 11.6385 17.7864 11.3615 17.6408 11.3121C17.2217 11.1698 16.7032 10.9432 16.38 10.62C16.0568 10.2968 15.8302 9.77831 15.6879 9.35922Z" fill="black"/></svg>
