<svg xmlns="http://www.w3.org/2000/svg" viewBox="0 0 24 24" fill="none"><path fill-rule="evenodd" clip-rule="evenodd" d="M6.50195 3C7.05424 3 7.50195 3.44772 7.50195 4V16C7.50195 16.5523 7.05424 17 6.50195 17C5.94967 17 5.50195 16.5523 5.50195 16V4C5.50195 3.44772 5.94967 3 6.50195 3ZM13.502 4C14.0542 4 14.502 4.44772 14.502 5V8.5C14.502 9.05228 14.0542 9.5 13.502 9.5C12.9497 9.5 12.502 9.05228 12.502 8.5V5C12.502 4.44772 12.9497 4 13.502 4ZM10.002 6C10.5542 6 11.002 6.44772 11.002 7V13C11.002 13.5523 10.5542 14 10.002 14C9.44967 14 9.00195 13.5523 9.00195 13V7C9.00195 6.44772 9.44967 6 10.002 6ZM3.00195 8C3.55424 8 4.00195 8.44772 4.00195 9V11C4.00195 11.5523 3.55424 12 3.00195 12C2.44967 12 2.00195 11.5523 2.00195 11V9C2.00195 8.44772 2.44967 8 3.00195 8ZM12.502 12C12.502 11.4477 12.9497 11 13.502 11H21.502C22.0542 11 22.502 11.4477 22.502 12V13.5556C22.502 14.1078 22.0542 14.5556 21.502 14.5556C20.9497 14.5556 20.502 14.1078 20.502 13.5556V13H18.502V19H19.002C19.5542 19 20.002 19.4477 20.002 20C20.002 20.5523 19.5542 21 19.002 21H16.002C15.4497 21 15.002 20.5523 15.002 20C15.002 19.4477 15.4497 19 16.002 19H16.502V13H14.502V13.5556C14.502 14.1078 14.0542 14.5556 13.502 14.5556C12.9497 14.5556 12.502 14.1078 12.502 13.5556V12Z" fill="black"/></svg>
