<svg xmlns="http://www.w3.org/2000/svg" viewBox="0 0 24 24" fill="none"><path d="M13.5 19.2294C13.9783 18.9533 14.5901 19.1174 14.8662 19.5956C15.142 20.0737 14.978 20.6847 14.5 20.9608L12.5 22.1161C12.1906 22.2946 11.8094 22.2946 11.5 22.1161L9.5 20.9608C9.02201 20.6847 8.858 20.0737 9.13379 19.5956C9.40995 19.1174 10.0217 18.9533 10.5 19.2294L12 20.0946L13.5 19.2294Z" fill="black"/><path d="M4 13.2499C4.55224 13.2499 4.99993 13.6976 5 14.2499V16.0487L6.50195 16.9208C6.97956 17.198 7.14238 17.8103 6.86523 18.288C6.58798 18.7656 5.9757 18.9275 5.49805 18.6503L3.49805 17.4901C3.18981 17.3112 3 16.9813 3 16.6249V14.2499C3.00007 13.6976 3.44776 13.2499 4 13.2499Z" fill="black"/><path d="M20 13.2499C20.5522 13.2499 20.9999 13.6976 21 14.2499V16.6249C21 16.9813 20.8102 17.3112 20.502 17.4901L18.502 18.6503C18.0243 18.9275 17.412 18.7656 17.1348 18.288C16.8576 17.8103 17.0204 17.198 17.498 16.9208L19 16.0487V14.2499C19.0001 13.6976 19.4478 13.2499 20 13.2499Z" fill="black"/><path d="M12 7.49986C12.271 7.49986 12.5139 7.66689 12.6113 7.91979L13.415 10.0106C13.5166 10.2746 13.7262 10.4833 13.9902 10.5848L16.0801 11.3885C16.333 11.4859 16.4999 11.7288 16.5 11.9999C16.5 12.2709 16.333 12.5138 16.0801 12.6112L13.9902 13.4159C13.7261 13.5175 13.5166 13.726 13.415 13.9901L12.6113 16.0799C12.514 16.333 12.2711 16.4999 12 16.4999C11.7289 16.4999 11.486 16.333 11.3887 16.0799L10.585 13.9901C10.4834 13.726 10.2739 13.5175 10.0098 13.4159L7.91992 12.6112C7.66699 12.5138 7.5 12.2709 7.5 11.9999C7.50005 11.7288 7.66698 11.4859 7.91992 11.3885L10.0098 10.5848C10.2738 10.4833 10.4834 10.2746 10.585 10.0106L11.3887 7.91979C11.4861 7.66689 11.729 7.49986 12 7.49986Z" fill="black"/><path d="M5.49805 5.34947C5.97566 5.07229 6.58797 5.23423 6.86523 5.71178C7.14245 6.1894 6.97955 6.8017 6.50195 7.07897L5 7.95006V9.74986C5 10.3021 4.55228 10.7499 4 10.7499C3.44772 10.7499 3 10.3021 3 9.74986V7.37486L3.00879 7.24303C3.04927 6.93866 3.22826 6.66623 3.49805 6.50963L5.49805 5.34947Z" fill="black"/><path d="M17.1348 5.71178C17.412 5.23422 18.0243 5.07229 18.502 5.34947L20.502 6.50963C20.8102 6.68854 21 7.01848 21 7.37486V9.74986C21 10.3021 20.5523 10.7499 20 10.7499C19.4477 10.7499 19 10.3021 19 9.74986V7.95006L17.498 7.07897C17.0204 6.8017 16.8575 6.18941 17.1348 5.71178Z" fill="black"/><path d="M11.6191 1.82506C11.9035 1.70791 12.2293 1.72745 12.5 1.88365L14.5 3.03893C14.978 3.31503 15.1419 3.926 14.8662 4.40416C14.5901 4.88245 13.9783 5.04651 13.5 4.77037L12 3.90416L10.5 4.77037C10.0217 5.04651 9.40993 4.88245 9.13379 4.40416C8.85807 3.926 9.022 3.31502 9.5 3.03893L11.5 1.88365L11.6191 1.82506Z" fill="black"/></svg>
