<svg xmlns="http://www.w3.org/2000/svg" viewBox="0 0 24 24" fill="none"><path d="M4.18439 7.40804C4.28116 7.35966 4.35962 7.2812 4.408 7.18444L5.05292 5.8946C5.23718 5.52608 5.76308 5.52608 5.94734 5.8946L6.59226 7.18444C6.64064 7.2812 6.7191 7.35966 6.81587 7.40804L8.1057 8.05296C8.47423 8.23722 8.47423 8.76313 8.1057 8.94739L6.81587 9.59231C6.7191 9.64069 6.64064 9.71915 6.59226 9.81591L5.94734 11.1057C5.76308 11.4743 5.23718 11.4743 5.05292 11.1057L4.408 9.81591C4.35962 9.71915 4.28116 9.64069 4.18439 9.59231L2.89456 8.94739C2.52603 8.76313 2.52603 8.23722 2.89456 8.05296L4.18439 7.40804Z" fill="black"/><path d="M9.56032 3.72008C9.62943 3.68552 9.68548 3.62948 9.72004 3.56036L10.1807 2.63905C10.3123 2.37582 10.688 2.37582 10.8196 2.63905L11.2802 3.56036C11.3148 3.62948 11.3708 3.68552 11.4399 3.72008L12.3613 4.18074C12.6245 4.31235 12.6245 4.688 12.3613 4.81961L11.4399 5.28027C11.3708 5.31483 11.3148 5.37087 11.2802 5.43999L10.8196 6.3613C10.688 6.62453 10.3123 6.62453 10.1807 6.3613L9.72004 5.43999C9.68548 5.37087 9.62943 5.31483 9.56032 5.28027L8.63901 4.81961C8.37578 4.688 8.37577 4.31235 8.63901 4.18074L9.56032 3.72008Z" fill="black"/><path d="M20.4941 2.13071C20.9743 2.40354 21.1424 3.01398 20.8696 3.49417L16.2111 11.6934L16.474 11.7891C17.9947 12.3426 19.2108 13.8511 18.9578 15.6529C18.6219 18.046 17.5998 19.7732 15.7134 21.6998C15.4262 21.9931 14.989 22.0811 14.6107 21.9218L8.967 19.5452C8.86048 19.5003 8.81404 19.3748 8.86573 19.2714L9.733 17.5368C9.81896 17.3649 9.63655 17.1825 9.46464 17.2685L6.84844 18.5772C6.79621 18.6033 6.73517 18.6053 6.68134 18.5826L5.11204 17.9218C4.77278 17.7789 4.53944 17.4612 4.50463 17.0947C4.46981 16.7283 4.63915 16.3723 4.94544 16.1681C6.40273 15.1966 7.56791 14.2453 8.44321 12.8684C9.49968 11.2064 11.5975 10.0142 13.7241 10.7882L14.305 10.9996L19.1307 2.50618C19.4035 2.02599 20.0139 1.85788 20.4941 2.13071Z" fill="black"/></svg>
