<svg xmlns="http://www.w3.org/2000/svg" viewBox="0 0 24 24" fill="none"><path fill-rule="evenodd" clip-rule="evenodd" d="M3 4C3 3.44772 3.44772 3 4 3H20C20.5523 3 21 3.44772 21 4V20C21 20.5523 20.5523 21 20 21H4C3.44772 21 3 20.5523 3 20V4ZM16.4142 19L8.70711 11.2929C8.31658 10.9024 7.68342 10.9024 7.29289 11.2929L5 13.5858V5H19V19H16.4142Z" fill="black"/><path d="M13.5745 8.35093L14.0528 7.39443C14.237 7.0259 14.763 7.0259 14.9472 7.39443L15.4255 8.35093C15.4738 8.44769 15.5523 8.52615 15.6491 8.57454L16.6056 9.05279C16.9741 9.23705 16.9741 9.76295 16.6056 9.94721L15.6491 10.4255C15.5523 10.4738 15.4738 10.5523 15.4255 10.6491L14.9472 11.6056C14.763 11.9741 14.237 11.9741 14.0528 11.6056L13.5745 10.6491C13.5262 10.5523 13.4477 10.4738 13.3509 10.4255L12.3944 9.94721C12.0259 9.76295 12.0259 9.23705 12.3944 9.05279L13.3509 8.57454C13.4477 8.52615 13.5262 8.44769 13.5745 8.35093Z" fill="black"/></svg>
