<svg xmlns="http://www.w3.org/2000/svg" viewBox="0 0 24 24" fill="none"><path fill-rule="evenodd" clip-rule="evenodd" d="M11 2C15.3126 2 18.8255 5.41255 18.9912 9.68457L20.832 12.4453C21.1262 12.8869 21.024 13.4814 20.5996 13.7998L19 14.999V17C19 18.1046 18.1046 19 17 19H14V21C14 21.5523 13.5523 22 13 22H7C6.44772 22 6 21.5523 6 21V16.2422C4.17357 14.7774 3 12.5266 3 10C3 5.58172 6.58172 2 11 2ZM11 6.5C10.7891 6.5 10.6001 6.63034 10.5244 6.82715L9.93457 8.36035C9.83299 8.62433 9.62433 8.83299 9.36035 8.93457L7.82715 9.52441C7.63034 9.60011 7.5 9.78914 7.5 10C7.5 10.2109 7.63034 10.3999 7.82715 10.4756L9.36035 11.0654C9.62433 11.167 9.83299 11.3757 9.93457 11.6396L10.5244 13.1729C10.6001 13.3697 10.7891 13.5 11 13.5C11.2109 13.5 11.3999 13.3697 11.4756 13.1729L12.0654 11.6396C12.167 11.3757 12.3757 11.167 12.6396 11.0654L14.1729 10.4756C14.3697 10.3999 14.5 10.2109 14.5 10C14.5 9.78914 14.3697 9.60011 14.1729 9.52441L12.6396 8.93457C12.3757 8.83299 12.167 8.62433 12.0654 8.36035L11.4756 6.82715C11.3999 6.63034 11.2109 6.5 11 6.5Z" fill="black"/></svg>
