<svg xmlns="http://www.w3.org/2000/svg" viewBox="0 0 24 24" fill="none"><path d="M13 10.0001H18C18.5 9.00014 18 7.50014 18 7.50014L20.5379 7.70065C21.3806 7.76724 21.933 6.81409 21.4276 6.13642C20.385 4.73838 19.1707 3.43446 17.4966 2.9194C13.5483 1.70463 13.0654 7.49783 13 10.0001Z" fill="black"/><path d="M3 11.0001C2.44772 11.0001 2 11.4478 2 12.0001C2 12.5524 2.44772 13.0001 3 13.0001H4V21.0001C4 21.5524 4.44772 22.0001 5 22.0001H19C19.5523 22.0001 20 21.5524 20 21.0001V13.0001H21C21.5523 13.0001 22 12.5524 22 12.0001C22 11.4478 21.5523 11.0001 21 11.0001H3Z" fill="black"/><path d="M6 10.0001H11C10.7409 6.67368 9.84142 3.89692 7.94014 1.38576C7.50427 0.810071 6.62994 0.951257 6.38068 1.62896C5.43865 4.19023 5.15408 6.61645 6 10.0001Z" fill="black"/></svg>
