<svg xmlns="http://www.w3.org/2000/svg" viewBox="0 0 24 24" fill="none"><path d="M13.0527 2.01172C13.4029 2.06573 13.7029 2.30293 13.833 2.64062L15.9229 8.07617L21.3594 10.167C21.7452 10.3156 21.9998 10.6862 22 11.0996V12.9004C21.9998 13.3138 21.7452 13.6844 21.3594 13.833L15.9229 15.9229L13.833 21.3594C13.6844 21.7452 13.3138 21.9998 12.9004 22H11.0996C10.6862 21.9998 10.3156 21.7452 10.167 21.3594L8.07617 15.9229L2.64062 13.833C2.25481 13.6844 2.00016 13.3138 2 12.9004V11.0996L2.01172 10.9473C2.06573 10.5971 2.30293 10.2971 2.64062 10.167L8.07617 8.07617L10.167 2.64062L10.2324 2.50293C10.4085 2.1954 10.7376 2.00014 11.0996 2H12.9004L13.0527 2.01172Z" fill="black"/></svg>
