<svg xmlns="http://www.w3.org/2000/svg" viewBox="0 0 24 24" fill="none"><path d="M11 2.61258L9.31623 2.05132C9.03325 1.957 8.72294 1.99392 8.47 2.15201L4.47 4.65201C4.17762 4.83474 4 5.15521 4 5.5V7.5L2.4 8.7C2.14819 8.88886 2 9.18525 2 9.5V13.5C2 13.8148 2.14819 14.1111 2.4 14.3L4 15.5V18.5C4 18.8448 4.17762 19.1653 4.47 19.348L8.47 21.848C8.72294 22.0061 9.03325 22.043 9.31623 21.9487L11 21.3874V17.4142L9.51804 15.9323C9.35282 15.9764 9.17916 16 9 16C7.89543 16 7 15.1046 7 14C7 12.8954 7.89543 12 9 12C10.1046 12 11 12.8954 11 14C11 14.1792 10.9764 14.3528 10.9323 14.518L12.7071 16.2929C12.8946 16.4804 13 16.7348 13 17V21.3874L14.6838 21.9487C14.9667 22.043 15.2771 22.0061 15.53 21.848L19.53 19.348C19.8224 19.1653 20 18.8448 20 18.5V15.5L21.6 14.3C21.8518 14.1111 22 13.8148 22 13.5V9.5C22 9.18525 21.8518 8.88886 21.6 8.7L20 7.5V5.5C20 5.15521 19.8224 4.83474 19.53 4.65201L15.53 2.15201C15.2771 1.99392 14.9667 1.957 14.6838 2.05132L13 2.61258V6.58579L14.482 8.06774C14.6472 8.02356 14.8208 8 15 8C16.1046 8 17 8.89543 17 10C17 11.1046 16.1046 12 15 12C13.8954 12 13 11.1046 13 10C13 9.82084 13.0236 9.64718 13.0677 9.48196L11.2929 7.70711C11.1054 7.51957 11 7.26522 11 7V2.61258Z" fill="black"/></svg>
