<svg xmlns="http://www.w3.org/2000/svg" viewBox="0 0 24 24" fill="none"><path d="M11 3C11.5523 3 12 3.44772 12 4C12 4.55228 11.5523 5 11 5H5.01953V13.5898L7.30957 11.2998C7.69949 10.9099 8.32971 10.91 8.71973 11.2998L12.0098 14.5898L13.2998 13.2998C13.6898 12.9098 14.32 12.9099 14.71 13.2998L19 17.5898V13C19 12.4477 19.4477 12 20 12C20.5523 12 21 12.4477 21 13V20.04C20.99 20.16 20.9796 20.2797 20.9297 20.3896C20.9202 20.3992 20.9102 20.4199 20.9102 20.4199C20.8602 20.5198 20.8003 20.5998 20.7305 20.6797C20.7006 20.7096 20.6802 20.7301 20.6504 20.75C20.5805 20.8099 20.5202 20.8497 20.4404 20.8896C20.4104 20.8996 20.3796 20.9197 20.3496 20.9297C20.2397 20.9696 20.1199 21 20 21H4C3.45 21 3 20.55 3 20V4C3 3.45 3.45 3 4 3H11Z" fill="black"/><path d="M19.2405 4.18518L18.5436 2.37334C18.4571 2.14842 18.241 2 18 2C17.759 2 17.5429 2.14842 17.4564 2.37334L16.7595 4.18518C16.658 4.44927 16.4493 4.65797 16.1852 4.75955L14.3733 5.45641C14.1484 5.54292 14 5.75901 14 6C14 6.24099 14.1484 6.45708 14.3733 6.54359L16.1852 7.24045C16.4493 7.34203 16.658 7.55073 16.7595 7.81482L17.4564 9.62666C17.5429 9.85158 17.759 10 18 10C18.241 10 18.4571 9.85158 18.5436 9.62666L19.2405 7.81482C19.342 7.55073 19.5507 7.34203 19.8148 7.24045L21.6267 6.54359C21.8516 6.45708 22 6.24099 22 6C22 5.75901 21.8516 5.54292 21.6267 5.45641L19.8148 4.75955C19.5507 4.65797 19.342 4.44927 19.2405 4.18518Z" fill="black"/></svg>
