<svg xmlns="http://www.w3.org/2000/svg" viewBox="0 0 24 24" fill="none"><path d="M19.7072 3.29285C19.3358 2.92142 18.7403 2.90068 18.344 3.24535L9.1755 11.2179C11.4189 11.8147 13.1854 13.5812 13.7822 15.8246L21.7547 6.65614C22.0994 6.25976 22.0787 5.66427 21.7072 5.29285L19.7072 3.29285Z" fill="black"/><path d="M7.50013 13C5.01485 13 3.00013 15.0147 3.00013 17.5V21C3.00013 21.5522 3.44785 22 4.00013 22H7.50013C9.98541 22 12.0001 19.9852 12.0001 17.5C12.0001 15.0147 9.98541 13 7.50013 13Z" fill="black"/><path d="M4.18439 7.40782C4.28116 7.35944 4.35962 7.28098 4.408 7.18422L5.05292 5.89438C5.23718 5.52586 5.76308 5.52586 5.94734 5.89438L6.59226 7.18422C6.64064 7.28098 6.7191 7.35944 6.81587 7.40782L8.1057 8.05274C8.47423 8.237 8.47423 8.7629 8.1057 8.94717L6.81587 9.59208C6.7191 9.64047 6.64064 9.71893 6.59226 9.81569L5.94734 11.1055C5.76308 11.4741 5.23718 11.4741 5.05292 11.1055L4.408 9.81569C4.35962 9.71893 4.28116 9.64047 4.18439 9.59208L2.89456 8.94717C2.52603 8.7629 2.52603 8.237 2.89456 8.05274L4.18439 7.40782Z" fill="black"/><path d="M8.56032 3.71986C8.62943 3.6853 8.68548 3.62926 8.72004 3.56014L9.18069 2.63883C9.31231 2.3756 9.68795 2.3756 9.81957 2.63883L10.2802 3.56014C10.3148 3.62926 10.3708 3.6853 10.4399 3.71986L11.3613 4.18051C11.6245 4.31213 11.6245 4.68778 11.3613 4.81939L10.4399 5.28005C10.3708 5.31461 10.3148 5.37065 10.2802 5.43977L9.81957 6.36108C9.68795 6.62431 9.31231 6.62431 9.18069 6.36108L8.72004 5.43977C8.68548 5.37065 8.62943 5.31461 8.56032 5.28005L7.63901 4.81939C7.37578 4.68778 7.37577 4.31213 7.63901 4.18051L8.56032 3.71986Z" fill="black"/></svg>
