<svg xmlns="http://www.w3.org/2000/svg" viewBox="0 0 24 24" fill="none"><path d="M5.46331 3.17192C5.40476 2.8007 5.55928 2.428 5.86332 2.2071C6.16735 1.98621 6.56957 1.95442 6.90452 2.12482L12.0351 4.73482L17.1656 2.12482C17.5006 1.95442 17.9028 1.98621 18.2068 2.2071C18.5108 2.428 18.6654 2.8007 18.6068 3.17192L17.71 8.85789L21.7777 12.9308C22.0432 13.1967 22.1373 13.589 22.0212 13.9465C21.905 14.3039 21.5983 14.566 21.2272 14.625L15.5424 15.5292L12.9258 20.6563C12.755 20.9911 12.4109 21.2018 12.0351 21.2018C11.6593 21.2018 11.3152 20.9911 11.1443 20.6563L9.00564 16.4655L5.15463 21.6001C4.82325 22.0419 4.19645 22.1315 3.75463 21.8001C3.3128 21.4687 3.22327 20.8419 3.55464 20.4001L7.34859 15.3416L2.84296 14.625C2.47182 14.566 2.1651 14.3039 2.04897 13.9465C1.93284 13.589 2.0269 13.1967 2.29247 12.9308L6.36015 8.85789L5.46331 3.17192Z" fill="black"/></svg>
