<svg xmlns="http://www.w3.org/2000/svg" viewBox="0 0 24 24" fill="none"><path fill-rule="evenodd" clip-rule="evenodd" d="M20 3C20.5523 3 21 3.44772 21 4V20C21 20.5523 20.5523 21 20 21H4C3.44772 21 3 20.5523 3 20V4C3 3.44772 3.44772 3 4 3H20ZM12 7C11.6988 7 11.4284 7.18564 11.3203 7.4668L10.4092 9.83496C10.3076 10.0991 10.0991 10.3076 9.83496 10.4092L7.4668 11.3203C7.18564 11.4284 7 11.6988 7 12C7 12.3012 7.18564 12.5716 7.4668 12.6797L9.83496 13.5908C10.0991 13.6924 10.3076 13.9009 10.4092 14.165L11.3203 16.5332C11.4284 16.8144 11.6988 17 12 17C12.3012 17 12.5716 16.8144 12.6797 16.5332L13.5908 14.165C13.6924 13.9009 13.9009 13.6924 14.165 13.5908L16.5332 12.6797C16.8144 12.5716 17 12.3012 17 12C17 11.6988 16.8144 11.4284 16.5332 11.3203L14.165 10.4092C13.9009 10.3076 13.6924 10.0991 13.5908 9.83496L12.6797 7.4668C12.5716 7.18564 12.3012 7 12 7Z" fill="black"/></svg>
