<svg xmlns="http://www.w3.org/2000/svg" viewBox="0 0 24 24" fill="none"><path fill-rule="evenodd" clip-rule="evenodd" d="M5.28975 11.0001C5.58249 10.854 6.01319 10.6992 6.58568 10.5561C7.93329 10.2192 9.848 10.0001 12 10.0001C14.152 10.0001 16.0667 10.2192 17.4143 10.5561C17.9868 10.6992 18.4175 10.854 18.7102 11.0001C18.4175 11.1462 17.9868 11.3011 17.4143 11.4442C16.0667 11.7811 14.152 12.0001 12 12.0001C9.848 12.0001 7.93329 11.7811 6.58568 11.4442C6.01319 11.3011 5.58249 11.1462 5.28975 11.0001ZM6.10061 8.61577C7.64843 8.22882 9.73373 8.00013 12 8.00013C14.2663 8.00013 16.3516 8.22882 17.8994 8.61577C18.6656 8.80733 19.3566 9.05133 19.8801 9.36077C20.3367 9.63065 21 10.1522 21 11.0001C21 11.8481 20.3367 12.3696 19.8801 12.6395C19.6234 12.7912 19.3264 12.9272 19 13.0491V19.9845C19 20.3857 18.7603 20.748 18.391 20.9049C16.7671 21.5949 14.4805 22.0001 12 22.0001C9.51951 22.0001 7.23294 21.5949 5.60896 20.9049C5.23974 20.748 5 20.3857 5 19.9845V13.0491C4.6736 12.9272 4.37659 12.7912 4.11985 12.6395C3.66326 12.3696 3 11.8481 3 11.0001C3 10.1522 3.66326 9.63065 4.11985 9.36077C4.64339 9.05133 5.33439 8.80733 6.10061 8.61577Z" fill="black"/><path d="M13.0745 2.85106L13.5528 1.89456C13.737 1.52603 14.263 1.52603 14.4472 1.89456L14.9255 2.85106C14.9738 2.94782 15.0523 3.02628 15.1491 3.07467L16.1056 3.55292C16.4741 3.73718 16.4741 4.26308 16.1056 4.44734L15.1491 4.92559C15.0523 4.97398 14.9738 5.05244 14.9255 5.1492L14.4472 6.1057C14.263 6.47423 13.737 6.47423 13.5528 6.1057L13.0745 5.1492C13.0262 5.05244 12.9477 4.97398 12.8509 4.92559L11.8944 4.44734C11.5259 4.26308 11.5259 3.73718 11.8944 3.55292L12.8509 3.07467C12.9477 3.02628 13.0262 2.94782 13.0745 2.85106Z" fill="black"/><path d="M8.22629 4.04754L8.64223 3.21567C8.78964 2.92085 9.21036 2.92085 9.35777 3.21567L9.7737 4.04754C9.81241 4.12495 9.87518 4.18772 9.95259 4.22643L10.7845 4.64236C11.0793 4.78977 11.0793 5.21049 10.7845 5.3579L9.95259 5.77384C9.87518 5.81254 9.81241 5.87531 9.7737 5.95272L9.35777 6.78459C9.21036 7.07941 8.78964 7.07941 8.64223 6.78459L8.22629 5.95272C8.18759 5.87531 8.12482 5.81254 8.04741 5.77384L7.21554 5.3579C6.92072 5.21049 6.92072 4.78977 7.21554 4.64236L8.04741 4.22643C8.12482 4.18772 8.18759 4.12495 8.22629 4.04754Z" fill="black"/></svg>
