<svg xmlns="http://www.w3.org/2000/svg" viewBox="0 0 24 24" fill="none"><path fill-rule="evenodd" clip-rule="evenodd" d="M6.99977 4C7.55206 4 7.99977 4.44772 7.99977 5V6H10.9998C11.5521 6 11.9998 6.44772 11.9998 7C11.9998 7.55228 11.5521 8 10.9998 8H10.3722C10.0598 9.91166 9.4435 11.5244 8.43697 12.8188C9.1879 13.3437 10.1108 13.7471 11.2423 14.0299C11.7781 14.1639 12.1039 14.7068 11.9699 15.2426C11.836 15.7784 11.2931 16.1042 10.7573 15.9702C9.29645 15.605 8.04053 15.0424 6.99972 14.245C5.95892 15.0424 4.70304 15.6049 3.24228 15.9701C2.70649 16.1041 2.16355 15.7783 2.02961 15.2425C1.89566 14.7067 2.22142 14.1638 2.75721 14.0299C3.88868 13.747 4.81159 13.3436 5.56249 12.8188C4.55599 11.5244 3.93974 9.91163 3.62732 8H2.99977C2.44749 8 1.99977 7.55228 1.99977 7C1.99977 6.44772 2.44749 6 2.99977 6H5.99977V5C5.99977 4.44772 6.44749 4 6.99977 4ZM5.65774 8C5.92372 9.41424 6.37346 10.5272 6.99974 11.4013C7.62605 10.5272 8.0758 9.41425 8.3418 8H5.65774ZM15.9998 11C16.3785 11 16.7248 11.214 16.8942 11.5528L20.8942 19.5528C21.1412 20.0468 20.941 20.6474 20.447 20.8944C19.953 21.1414 19.3523 20.9412 19.1053 20.4472L18.3817 19H13.6178L12.8942 20.4472C12.6472 20.9412 12.0465 21.1414 11.5526 20.8944C11.0586 20.6474 10.8584 20.0468 11.1053 19.5528L15.1053 11.5528C15.2747 11.214 15.621 11 15.9998 11ZM14.6178 17H17.3817L15.9998 14.2361L14.6178 17Z" fill="black"/><path d="M18.5655 4.86018L17.9756 3.32667C17.8999 3.12986 17.7109 3 17.5 3C17.2891 3 17.1001 3.12986 17.0244 3.32667L16.4345 4.86018C16.333 5.12427 16.1243 5.33297 15.8602 5.43455L14.3267 6.02436C14.1299 6.10005 14 6.28914 14 6.5C14 6.71086 14.1299 6.89995 14.3267 6.97564L15.8602 7.56545C16.1243 7.66703 16.333 7.87573 16.4345 8.13982L17.0244 9.67333C17.1001 9.87014 17.2891 10 17.5 10C17.7109 10 17.8999 9.87014 17.9756 9.67333L18.5655 8.13982C18.667 7.87573 18.8757 7.66703 19.1398 7.56545L20.6733 6.97564C20.8701 6.89995 21 6.71086 21 6.5C21 6.28914 20.8701 6.10005 20.6733 6.02436L19.1398 5.43455C18.8757 5.33297 18.667 5.12427 18.5655 4.86018Z" fill="black"/></svg>
