<svg xmlns="http://www.w3.org/2000/svg" viewBox="0 0 24 24" fill="none"><path fill-rule="evenodd" clip-rule="evenodd" d="M20.002 3C20.2672 3 20.5214 3.10543 20.709 3.29297C20.8965 3.48051 21.002 3.73478 21.002 4V18.0361C21.0017 18.5882 20.5541 19.0361 20.002 19.0361H15.376L12.6357 21.3057C12.264 21.6136 11.7254 21.6119 11.3555 21.3018L8.65137 19.0361H4.00195C3.73682 19.0361 3.48244 18.9306 3.29492 18.7432C3.10747 18.5557 3.00205 18.3012 3.00195 18.0361V4C3.00197 3.44773 3.44968 3 4.00195 3H20.002ZM12 7C11.7591 7 11.5426 7.14825 11.4561 7.37305L10.7598 9.18555C10.6582 9.44956 10.4486 9.65821 10.1846 9.75977L8.37305 10.4561C8.14812 10.5426 8 10.759 8 11C8 11.241 8.14812 11.4574 8.37305 11.5439L10.1846 12.2402C10.4486 12.3418 10.6582 12.5504 10.7598 12.8145L11.4561 14.627C11.5426 14.8518 11.7591 15 12 15C12.2408 14.9999 12.4564 14.8516 12.543 14.627L13.2402 12.8145C13.3419 12.5505 13.5505 12.3418 13.8145 12.2402L15.626 11.5439C15.8509 11.4574 16 11.241 16 11C16 10.759 15.8509 10.5426 15.626 10.4561L13.8145 9.75977C13.5505 9.65823 13.3419 9.44947 13.2402 9.18555L12.543 7.37305C12.4564 7.14841 12.2408 7.0001 12 7Z" fill="black"/></svg>
