<svg xmlns="http://www.w3.org/2000/svg" viewBox="0 0 24 24" fill="none"><path d="M18.3204 12.594L10.7072 20.2073C10.55 20.3643 10.3446 20.4648 10.1242 20.4924L6.12416 20.9924C5.81819 21.0307 5.51128 20.9251 5.2931 20.7073C5.07505 20.4892 4.9699 20.1822 5.00795 19.8762L5.50795 15.8762L5.54213 15.7141C5.58933 15.556 5.67528 15.4111 5.7931 15.2932L13.4064 7.67992L18.3204 12.594Z" fill="black"/><path d="M17.3693 3.72484C17.762 3.40449 18.341 3.42709 18.7072 3.7932L22.2072 7.2932C22.5972 7.68377 22.5975 8.31691 22.2072 8.70727L19.5939 11.3205L14.6798 6.40648L17.2931 3.7932L17.3693 3.72484Z" fill="black"/><path d="M7.24045 4.18518L6.54359 2.37334C6.45708 2.14842 6.24099 2 6 2C5.75901 2 5.54292 2.14842 5.45641 2.37334L4.75955 4.18518C4.65797 4.44927 4.44927 4.65797 4.18518 4.75955L2.37334 5.45641C2.14842 5.54292 2 5.75901 2 6C2 6.24099 2.14842 6.45708 2.37334 6.54359L4.18518 7.24045C4.44927 7.34203 4.65797 7.55073 4.75955 7.81482L5.45641 9.62666C5.54292 9.85158 5.75901 10 6 10C6.24099 10 6.45708 9.85158 6.54359 9.62666L7.24045 7.81482C7.34203 7.55073 7.55073 7.34203 7.81482 7.24045L9.62666 6.54359C9.85158 6.45708 10 6.24099 10 6C10 5.75901 9.85158 5.54292 9.62666 5.45641L7.81482 4.75955C7.55073 4.65797 7.34203 4.44927 7.24045 4.18518Z" fill="black"/></svg>
