<svg xmlns="http://www.w3.org/2000/svg" viewBox="0 0 24 24" fill="none"><path fill-rule="evenodd" clip-rule="evenodd" d="M17.6567 6.34289C15.0788 3.76496 11.1769 3.31309 8.13575 4.99218C7.65226 5.25912 7.04391 5.08358 6.77697 4.60009C6.51003 4.1166 6.68558 3.50826 7.16906 3.24132C10.9693 1.14313 15.8462 1.70395 19.0709 4.92867C22.2957 8.1534 22.8565 13.0303 20.7583 16.8305C20.4913 17.314 19.883 17.4896 19.3995 17.2226C18.916 16.9557 18.7405 16.3473 19.0074 15.8639C20.6865 12.8227 20.2346 8.92081 17.6567 6.34289ZM4.60021 6.77685C5.0837 7.04379 5.25924 7.65214 4.9923 8.13562C3.31321 11.1768 3.76508 15.0787 6.34301 17.6566C8.92093 20.2345 12.8228 20.6864 15.864 19.0073C16.3475 18.7404 16.9558 18.9159 17.2228 19.3994C17.4897 19.8829 17.3141 20.4912 16.8307 20.7582C13.0304 22.8563 8.15352 22.2955 4.92879 19.0708C1.70407 15.8461 1.14325 10.9692 3.24144 7.16894C3.50838 6.68545 4.11672 6.50991 4.60021 6.77685ZM11.9999 7.49998C14.2313 7.49998 16.2445 8.98775 17.8398 11.4574C18.0532 11.7877 18.0532 12.2123 17.8398 12.5426C16.2445 15.0122 14.2313 16.5 11.9999 16.5C9.76841 16.5 7.75523 15.0122 6.15988 12.5426C5.94652 12.2123 5.94652 11.7877 6.15988 11.4574C7.75523 8.98775 9.76841 7.49998 11.9999 7.49998ZM10.7499 12C10.7499 11.3096 11.3095 10.75 11.9999 10.75C12.6902 10.75 13.2499 11.3096 13.2499 12C13.2499 12.6903 12.6902 13.25 11.9999 13.25C11.3095 13.25 10.7499 12.6903 10.7499 12Z" fill="black"/></svg>
