<svg xmlns="http://www.w3.org/2000/svg" viewBox="0 0 24 24" fill="none"><path d="M18.9472 1.89431C18.763 1.52579 18.237 1.52579 18.0528 1.89431L17.0745 3.85082C17.0262 3.94758 16.9477 4.02604 16.8509 4.07442L14.8944 5.05267C14.5259 5.23693 14.5259 5.76284 14.8944 5.9471L16.8509 6.92535C16.9477 6.97373 17.0262 7.05219 17.0745 7.14896L18.0528 9.10546C18.237 9.47398 18.763 9.47398 18.9472 9.10546L19.9255 7.14896C19.9738 7.05219 20.0523 6.97373 20.1491 6.92535L22.1056 5.9471C22.4741 5.76284 22.4741 5.23693 22.1056 5.05267L20.1491 4.07442C20.0523 4.02604 19.9738 3.94758 19.9255 3.85082L18.9472 1.89431Z" fill="black"/><path fill-rule="evenodd" clip-rule="evenodd" d="M4 2.99989C3.44772 2.99989 3 3.4476 3 3.99989V19.9999C3 20.5522 3.44772 20.9999 4 20.9999H20C20.5523 20.9999 21 20.5522 21 19.9999V12.9999C21 12.4476 20.5523 11.9999 20 11.9999C19.4477 11.9999 19 12.4476 19 12.9999V18.9999H16.9C16.4367 16.7176 14.419 14.9999 12 14.9999C9.58104 14.9999 7.56329 16.7176 7.10002 18.9999H5V4.99989H11C11.5523 4.99989 12 4.55217 12 3.99989C12 3.4476 11.5523 2.99989 11 2.99989H4Z" fill="black"/><path d="M12 7.49976C10.3431 7.49976 9 8.8429 9 10.4998C9 12.1566 10.3431 13.4998 12 13.4998C13.6569 13.4998 15 12.1566 15 10.4998C15 8.8429 13.6569 7.49976 12 7.49976Z" fill="black"/></svg>
