<svg xmlns="http://www.w3.org/2000/svg" viewBox="0 0 24 24" fill="none"><path fill-rule="evenodd" clip-rule="evenodd" d="M20 5C20.5523 5 21 5.44772 21 6V20C21 20.5523 20.5523 21 20 21H6C5.44772 21 5 20.5523 5 20V16C5 15.4477 5.44772 15 6 15C6.55228 15 7 15.4477 7 16V19H7.58594L15.293 11.293C15.6591 10.9269 16.2381 10.9043 16.6309 11.2246L16.707 11.293L19 13.5859V7H15C14.4477 7 14 6.55228 14 6C14 5.44772 14.4477 5 15 5H20Z" fill="black"/><path d="M10 3C10.5523 3 11 3.44772 11 4V5C11 5.55228 10.5523 6 10 6C9.44771 6 9 5.55228 9 5H7V10C7.55228 10 8 10.4477 8 11C8 11.5523 7.55228 12 7 12H5C4.44772 12 4 11.5523 4 11C4 10.4477 4.44772 10 5 10V5H3C3 5.55228 2.55228 6 2 6C1.44772 6 1 5.55228 1 5V4C1 3.44772 1.44772 3 2 3H10Z" fill="black"/></svg>
