<svg xmlns="http://www.w3.org/2000/svg" viewBox="0 0 24 24" fill="none"><path fill-rule="evenodd" clip-rule="evenodd" d="M11.9999 2C14.209 2 15.9999 3.79086 15.9999 6V7H17.4999C17.9934 7 18.413 7.35997 18.4882 7.84766L19.3378 13.376C18.9426 13.1364 18.4831 13 17.9999 13C16.9981 13 16.0931 13.5784 15.6679 14.4727L15.5898 14.6553L15.0517 16.0518L13.6552 16.5898C12.658 16.9735 11.9999 17.9315 11.9999 19C11.9999 20.0685 12.658 21.0265 13.6552 21.4102L15.0517 21.9473L15.0722 22H4.49991C4.20824 22 3.93109 21.8727 3.74112 21.6514C3.55114 21.4299 3.46726 21.136 3.51163 20.8477L5.51163 7.84766C5.5868 7.35998 6.00644 7 6.49991 7H7.99991V6C7.99991 3.79086 9.79077 2 11.9999 2ZM11.9999 4C10.8953 4 9.99991 4.89543 9.99991 6V7H13.9999V6C13.9999 4.89543 13.1045 4 11.9999 4Z" fill="black"/><path d="M14.373 18.4561C14.3449 18.4669 14.3184 18.4805 14.2929 18.4951L14.2919 18.4941C14.3175 18.4794 14.3448 18.4669 14.373 18.4561L14.8632 18.2666L16.1855 17.7598L14.373 18.4561Z" fill="black"/><path d="M19.2404 17.1852L18.5435 15.3733C18.457 15.1484 18.2409 15 17.9999 15C17.7589 15 17.5428 15.1484 17.4563 15.3733L16.7595 17.1852C16.6579 17.4493 16.4495 17.6582 16.1855 17.7598L14.373 18.4561C14.148 18.5426 13.9999 18.759 13.9999 19C13.9999 19.241 14.1483 19.4571 14.3732 19.5436L16.1851 20.2405C16.4492 20.342 16.6579 20.5507 16.7595 20.8148L17.4563 22.6267C17.5428 22.8516 17.7589 23 17.9999 23C18.2409 23 18.457 22.8516 18.5435 22.6267L19.2404 20.8148C19.3419 20.5507 19.5506 20.342 19.8147 20.2405L21.6266 19.5436C21.8515 19.4571 21.9999 19.241 21.9999 19C21.9999 18.759 21.8515 18.5429 21.6266 18.4564L19.8147 17.7595C19.5506 17.658 19.3419 17.4493 19.2404 17.1852Z" fill="black"/></svg>
