<svg xmlns="http://www.w3.org/2000/svg" viewBox="0 0 24 24" fill="none"><path d="M17.2407 5.18518L16.5438 3.37334C16.4573 3.14842 16.2412 3 16.0002 3C15.7592 3 15.5431 3.14842 15.4566 3.37334L14.7598 5.18518C14.6582 5.44927 14.4495 5.65797 14.1854 5.75955L12.3736 6.45641C12.1486 6.54292 12.0002 6.75901 12.0002 7C12.0002 7.24099 12.1486 7.45708 12.3736 7.54359L14.1854 8.24045C14.4495 8.34203 14.6582 8.55073 14.7598 8.81482L15.4566 10.6267C15.5431 10.8516 15.7592 11 16.0002 11C16.2412 11 16.4573 10.8516 16.5438 10.6267L17.2407 8.81482C17.3422 8.55073 17.551 8.34203 17.815 8.24045L19.6269 7.54359C19.8518 7.45708 20.0002 7.24099 20.0002 7C20.0002 6.75901 19.8518 6.54292 19.6269 6.45641L17.815 5.75955C17.551 5.65797 17.3422 5.44927 17.2407 5.18518Z" fill="black"/><path d="M18.1478 14.4561C18.4485 13.9929 19.0674 13.8606 19.5306 14.1611C19.9935 14.4617 20.1256 15.0808 19.8256 15.5439C18.702 17.2754 16.5537 19.5758 13.0004 19.9463V21C13.0004 21.5522 12.5525 21.9998 12.0004 22C11.4482 21.9998 11.0004 21.5522 11.0004 21V19.9463C7.44727 19.5757 5.29974 17.2753 4.17614 15.5439C3.87575 15.0807 4.00788 14.4617 4.47106 14.1611C4.93428 13.861 5.55335 13.993 5.85387 14.4561C6.89352 16.0579 8.80076 17.9999 12.0004 18C15.2001 17.9998 17.1082 16.058 18.1478 14.4561Z" fill="black"/><path d="M12.0004 2C12.6157 2.00005 13.2049 2.11203 13.7494 2.31543C13.7206 2.36661 13.6938 2.41916 13.6683 2.47266L13.5902 2.65527L13.0521 4.05176L11.6556 4.58984C10.6584 4.97346 10.0004 5.93152 10.0004 7C10.0004 8.06848 10.6584 9.02654 11.6556 9.41016L13.0521 9.94727L13.5902 11.3447C13.9738 12.3419 14.9319 13 16.0004 13C16.2111 13 16.417 12.9726 16.6156 12.9238C15.8617 14.73 14.0797 15.9998 12.0004 16C9.23908 15.9998 7.00036 13.7613 7.00036 11V7C7.00036 4.23868 9.23908 2.00017 12.0004 2Z" fill="black"/><path d="M12.3736 6.45641L12.8636 6.2666L13.9007 5.86914L12.3736 6.45641Z" fill="black"/></svg>
