<svg xmlns="http://www.w3.org/2000/svg" viewBox="0 0 24 24" fill="none"><path fill-rule="evenodd" clip-rule="evenodd" d="M2.00439 4C2.00439 3.44772 2.45211 3 3.00439 3H11.0044C11.5567 3 12.0044 3.44772 12.0044 4V5.77778C12.0044 6.33006 11.5567 6.77778 11.0044 6.77778C10.4521 6.77778 10.0044 6.33006 10.0044 5.77778V5H8.00439V11H8.33773C8.89001 11 9.33773 11.4477 9.33773 12C9.33773 12.5523 8.89001 13 8.33773 13H5.67106C5.11878 13 4.67106 12.5523 4.67106 12C4.67106 11.4477 5.11878 11 5.67106 11H6.00439V5H4.00439V5.77778C4.00439 6.33006 3.55668 6.77778 3.00439 6.77778C2.45211 6.77778 2.00439 6.33006 2.00439 5.77778V4ZM14.0044 7C14.5567 7 15.0044 7.44772 15.0044 8V20C15.0044 20.5523 14.5567 21 14.0044 21C13.4521 21 13.0044 20.5523 13.0044 20V8C13.0044 7.44772 13.4521 7 14.0044 7ZM17.5044 10C18.0567 10 18.5044 10.4477 18.5044 11V17C18.5044 17.5523 18.0567 18 17.5044 18C16.9521 18 16.5044 17.5523 16.5044 17V11C16.5044 10.4477 16.9521 10 17.5044 10ZM21.0044 12C21.5567 12 22.0044 12.4477 22.0044 13V15C22.0044 15.5523 21.5567 16 21.0044 16C20.4521 16 20.0044 15.5523 20.0044 15V13C20.0044 12.4477 20.4521 12 21.0044 12ZM10.5044 14C11.0567 14 11.5044 14.4477 11.5044 15V17C11.5044 17.5523 11.0567 18 10.5044 18C9.95211 18 9.50439 17.5523 9.50439 17V15C9.50439 14.4477 9.95211 14 10.5044 14Z" fill="black"/></svg>
