<svg xmlns="http://www.w3.org/2000/svg" viewBox="0 0 24 24" fill="none"><path fill-rule="evenodd" clip-rule="evenodd" d="M12.0002 4C16.2393 3.99997 20.3393 6.61168 22.8889 11.541C23.0375 11.8289 23.0375 12.1711 22.8889 12.459C20.3393 17.3883 16.2393 20 12.0002 20C7.76103 20 3.6611 17.3883 1.11151 12.459C0.962845 12.1711 0.962816 11.8289 1.11151 11.541C3.66109 6.61168 7.76103 4.00003 12.0002 4ZM12.0002 8C11.7592 8 11.5428 8.1482 11.4562 8.37305L10.7599 10.1855C10.6584 10.4494 10.4496 10.6582 10.1857 10.7598L8.37323 11.4561C8.14838 11.5426 8.00018 11.7591 8.00018 12C8.00018 12.2409 8.14838 12.4574 8.37323 12.5439L10.1857 13.2402C10.4496 13.3418 10.6584 13.5506 10.7599 13.8145L11.4562 15.627C11.5428 15.8518 11.7592 16 12.0002 16C12.2411 16 12.4576 15.8518 12.5441 15.627L13.2404 13.8145C13.342 13.5506 13.5507 13.3418 13.8146 13.2402L15.6271 12.5439C15.852 12.4574 16.0002 12.2409 16.0002 12C16.0002 11.7591 15.852 11.5426 15.6271 11.4561L13.8146 10.7598C13.5507 10.6582 13.342 10.4494 13.2404 10.1855L12.5441 8.37305C12.4576 8.1482 12.2411 8 12.0002 8Z" fill="black"/></svg>
