<svg xmlns="http://www.w3.org/2000/svg" viewBox="0 0 24 24" fill="none"><path fill-rule="evenodd" clip-rule="evenodd" d="M11.7878 2.02278C12.1052 1.95387 12.4363 2.04339 12.6757 2.26286L18.6757 7.76286C18.9797 8.04152 19.0815 8.47821 18.932 8.86254C18.7825 9.24687 18.4124 9.50001 18 9.50001H15.7274L19.8729 19H21C21.5523 19 22 19.4477 22 20C22 20.5523 21.5523 21 21 21H3C2.44772 21 2 20.5523 2 20C2 19.4477 2.44772 19 3 19H4.12585L7.22498 11.6949L7.76389 12.8496C7.85746 13.0501 8.14254 13.0501 8.23611 12.8496L8.78901 11.6649C8.81489 11.6095 8.85947 11.5649 8.91493 11.539L10.0996 10.9861C10.3001 10.8925 10.3001 10.6075 10.0996 10.5139L8.91493 9.96099C8.85947 9.93511 8.81489 9.89053 8.78901 9.83507L8.38304 8.9652L11.0794 2.60946C11.2063 2.31047 11.4704 2.0917 11.7878 2.02278ZM11.961 14.8351C11.9351 14.8905 11.8905 14.9351 11.8351 14.961L10.6504 15.5139C10.4499 15.6075 10.4499 15.8925 10.6504 15.9861L11.8351 16.539C11.8905 16.5649 11.9351 16.6095 11.961 16.6649L12.5139 17.8496C12.6075 18.0501 12.8925 18.0501 12.9861 17.8496L13.539 16.6649C13.5649 16.6095 13.6095 16.5649 13.6649 16.539L14.8496 15.9861C15.0501 15.8925 15.0501 15.6075 14.8496 15.5139L13.6649 14.961C13.6095 14.9351 13.5649 14.8905 13.539 14.8351L12.9861 13.6504C12.8925 13.4499 12.6075 13.4499 12.5139 13.6504L11.961 14.8351Z" fill="black"/></svg>
