<svg xmlns="http://www.w3.org/2000/svg" viewBox="0 0 24 24" fill="none"><path d="M22 15.0713L21.9473 15.0518L21.4102 13.6553L21.332 13.4727C20.9068 12.5784 20.0019 12 19 12C17.9981 12 17.0932 12.5784 16.668 13.4727L16.5898 13.6553L16.0518 15.0518L14.6553 15.5898C13.658 15.9735 13 16.9315 13 18C13 18.7894 13.3594 19.5183 13.9492 20H3C2.44772 20 2 19.5523 2 19V5.96289L11.4121 12.8086C11.7627 13.0635 12.2373 13.0635 12.5879 12.8086L22 5.96289V15.0713Z" fill="black"/><path d="M15.373 17.4561C15.345 17.4669 15.3185 17.4805 15.293 17.4951L15.292 17.4941C15.3176 17.4794 15.3449 17.4669 15.373 17.4561L15.8633 17.2666L17.1855 16.7598L15.373 17.4561Z" fill="black"/><path d="M21 4C21.0875 4 21.1721 4.01211 21.2529 4.0332L12 10.7637L2.74609 4.0332C2.82722 4.01195 2.91221 4 3 4H21Z" fill="black"/><path d="M20.2405 16.1852L19.5436 14.3733C19.4571 14.1484 19.241 14 19 14C18.759 14 18.5429 14.1484 18.4564 14.3733L17.7595 16.1852C17.658 16.4493 17.4496 16.6582 17.1855 16.7598L15.373 17.4561C15.1481 17.5426 15 17.759 15 18C15 18.241 15.1484 18.4571 15.3733 18.5436L17.1852 19.2405C17.4493 19.342 17.658 19.5507 17.7595 19.8148L18.4564 21.6267C18.5429 21.8516 18.759 22 19 22C19.241 22 19.4571 21.8516 19.5436 21.6267L20.2405 19.8148C20.342 19.5507 20.5507 19.342 20.8148 19.2405L22.6267 18.5436C22.8516 18.4571 23 18.241 23 18C23 17.759 22.8516 17.5429 22.6267 17.4564L20.8148 16.7595C20.5507 16.658 20.342 16.4493 20.2405 16.1852Z" fill="black"/></svg>
