<svg xmlns="http://www.w3.org/2000/svg" viewBox="0 0 24 24" fill="none"><path fill-rule="evenodd" clip-rule="evenodd" d="M15.1318 4.50386C15.3098 4.19229 15.6411 4 16 4H20C20.5523 4 21 4.44772 21 5C21 5.55228 20.5523 6 20 6H16.5803L8.86824 19.4961C8.6902 19.8077 8.35886 20 8 20H4C3.44772 20 3 19.5523 3 19C3 18.4477 3.44772 18 4 18H7.41968L15.1318 4.50386ZM15 19C15 18.4477 15.4477 18 16 18H20C20.5523 18 21 18.4477 21 19C21 19.5523 20.5523 20 20 20H16C15.4477 20 15 19.5523 15 19Z" fill="black"/></svg>
