<svg xmlns="http://www.w3.org/2000/svg" viewBox="0 0 24 24" fill="none"><path fill-rule="evenodd" clip-rule="evenodd" d="M3 4C3 3.44772 3.44772 3 4 3H20C20.5523 3 21 3.44772 21 4V20C21 20.5523 20.5523 21 20 21H4C3.44772 21 3 20.5523 3 20V4ZM14.7071 7.29289C14.3166 6.90237 13.6834 6.90237 13.2929 7.29289L11.2929 9.29289C10.9024 9.68342 10.9024 10.3166 11.2929 10.7071C11.6834 11.0976 12.3166 11.0976 12.7071 10.7071L14 9.41421L15.2929 10.7071C15.6834 11.0976 16.3166 11.0976 16.7071 10.7071C17.0976 10.3166 17.0976 9.68342 16.7071 9.29289L14.7071 7.29289Z" fill="black"/></svg>
