<svg xmlns="http://www.w3.org/2000/svg" viewBox="0 0 24 24" fill="none"><path fill-rule="evenodd" clip-rule="evenodd" d="M6 4C5.64114 4 5.3098 4.19229 5.13176 4.50386L1.13176 11.5039C0.956081 11.8113 0.956081 12.1887 1.13176 12.4961L5.13176 19.4961C5.3098 19.8077 5.64114 20 6 20H21C21.5523 20 22 19.5523 22 19V5C22 4.44772 21.5523 4 21 4H6ZM11.7071 9.29289C11.3166 8.90237 10.6834 8.90237 10.2929 9.29289C9.90237 9.68342 9.90237 10.3166 10.2929 10.7071L11.5858 12L10.2929 13.2929C9.90237 13.6834 9.90237 14.3166 10.2929 14.7071C10.6834 15.0976 11.3166 15.0976 11.7071 14.7071L13 13.4142L14.2929 14.7071C14.6834 15.0976 15.3166 15.0976 15.7071 14.7071C16.0976 14.3166 16.0976 13.6834 15.7071 13.2929L14.4142 12L15.7071 10.7071C16.0976 10.3166 16.0976 9.68342 15.7071 9.29289C15.3166 8.90237 14.6834 8.90237 14.2929 9.29289L13 10.5858L11.7071 9.29289Z" fill="black"/></svg>
