<svg xmlns="http://www.w3.org/2000/svg" viewBox="0 0 24 24" fill="none"><path fill-rule="evenodd" clip-rule="evenodd" d="M12.0003 1.17163C12.2655 1.17163 12.5199 1.27699 12.7074 1.46452L14.1216 2.87874C15.2932 4.05031 15.2932 5.94981 14.1216 7.12138C13.794 7.44895 13.4096 7.68494 13 7.82933V9.00006H19.5C20.0523 9.00006 20.5 9.44777 20.5 10.0001V15.0001C20.5 15.3608 20.3063 15.6894 20 15.8661V21.0001C20 21.5523 19.5523 22.0001 19 22.0001H5C4.44772 22.0001 4 21.5523 4 21.0001V15.8661C3.69372 15.6894 3.5 15.3608 3.5 15.0001V10.0001C3.5 9.44777 3.94772 9.00006 4.5 9.00006H11V7.82912C10.5907 7.6847 10.2064 7.44879 9.87898 7.12138C8.70741 5.94981 8.70741 4.05031 9.87898 2.87874L11.2932 1.46452C11.4807 1.27699 11.7351 1.17163 12.0003 1.17163ZM5.5 11.0001V14.323L7 14.923L9.12861 14.0716C9.36702 13.9762 9.63298 13.9762 9.87139 14.0716L12 14.923L14.1286 14.0716C14.367 13.9762 14.633 13.9762 14.8714 14.0716L17 14.923L18.5 14.323V11.0001H5.5Z" fill="black"/></svg>
