<svg xmlns="http://www.w3.org/2000/svg" viewBox="0 0 24 24" fill="none"><path fill-rule="evenodd" clip-rule="evenodd" d="M21.2071 4.20711C21.5976 3.81658 21.5976 3.18342 21.2071 2.79289C20.8166 2.40237 20.1834 2.40237 19.7929 2.79289L18.5021 4.08366C16.5538 2.69163 13.9063 2.53389 12.2201 4.22009C10.5339 5.90628 10.6916 8.55377 12.0837 10.5021L11.2929 11.2929C11.2861 11.2996 11.2795 11.3065 11.273 11.3133L9.25256 9.29289C8.86329 8.90362 8.23259 8.90219 7.84155 9.2897L6.58019 10.5397C6.28216 10.835 6.20041 11.2847 6.37461 11.6658L6.38126 11.6818C6.38899 11.7011 6.40177 11.7348 6.41613 11.7797C6.44567 11.8721 6.47727 11.9976 6.4905 12.1343C6.51744 12.4126 6.46435 12.6247 6.2999 12.786C6.13177 12.9508 5.9186 12.9986 5.64822 12.9683C5.51459 12.9533 5.39241 12.9204 5.30281 12.8901C5.25926 12.8754 5.22675 12.8624 5.20832 12.8546L5.19343 12.8482C4.81268 12.6657 4.35784 12.742 4.05746 13.0397L2.7961 14.2897C2.60716 14.4769 2.5006 14.7317 2.5 14.9977C2.4994 15.2637 2.6048 15.519 2.79289 15.7071L4.83707 17.7513C4.82203 17.7646 4.8073 17.7785 4.79289 17.7929L2.79289 19.7929C2.40237 20.1834 2.40237 20.8166 2.79289 21.2071C3.18342 21.5976 3.81658 21.5976 4.20711 21.2071L6.20711 19.2071C6.22151 19.1927 6.23538 19.178 6.24872 19.1629L8.29289 21.2071C8.48098 21.3952 8.73626 21.5006 9.00226 21.5C9.26826 21.4994 9.52306 21.3928 9.7103 21.2039L14.7103 16.1584C15.0978 15.7674 15.0964 15.1367 14.7071 14.7474L12.6867 12.727C12.6935 12.7205 12.7004 12.7139 12.7071 12.7071L13.4979 11.9163C15.4462 13.3084 18.0937 13.4661 19.7799 11.7799C21.4661 10.0937 21.3084 7.44623 19.9163 5.49788L21.2071 4.20711ZM8.99673 19.0825L7.5 17.5C8 16 10 16 10.5 17.5L8.99673 19.0825Z" fill="black"/></svg>
