<svg xmlns="http://www.w3.org/2000/svg" viewBox="0 0 24 24" fill="none"><path fill-rule="evenodd" clip-rule="evenodd" d="M10 5.1517V18H14V5.1517C13.3589 5.05184 12.6897 5 12 5C11.3103 5 10.6411 5.05184 10 5.1517ZM7 20C4.79086 20 3 18.2091 3 16V15.7238C2.72194 15.7502 2.40839 15.7244 2.09746 15.5781C1.5965 15.3423 1.3254 14.9019 1.18463 14.4748C1.04798 14.0601 1 13.5653 1 13.0217C1 8.70496 4.01411 5.71188 8 4.55013V4.32435C8 3.85674 8.32405 3.45157 8.78023 3.3488C9.80275 3.11844 10.8844 3 12 3C13.1156 3 14.1973 3.11844 15.2198 3.3488C15.6759 3.45157 16 3.85674 16 4.32435V4.55013C19.9859 5.71188 23 8.70496 23 13.0217C23 13.5653 22.952 14.0601 22.8154 14.4748C22.6746 14.9019 22.4035 15.3423 21.9025 15.5781C21.5916 15.7244 21.2781 15.7502 21 15.7238V16C21 18.2091 19.2091 20 17 20H7ZM19 14.8803V16C19 17.1046 18.1046 18 17 18H16V13.1257C16.4437 13.3404 16.8758 13.5808 17.2951 13.8295C17.6068 14.0144 17.9379 14.2213 18.2632 14.4245C18.5163 14.5827 18.7659 14.7387 19 14.8803ZM8 13.1257C7.55628 13.3404 7.12415 13.5808 6.70488 13.8295C6.39321 14.0144 6.06209 14.2213 5.73685 14.4245C5.48368 14.5827 5.23407 14.7387 5 14.8803V16C5 17.1046 5.89543 18 7 18H8V13.1257Z" fill="black"/></svg>
