<svg xmlns="http://www.w3.org/2000/svg" viewBox="0 0 24 24" fill="none"><path d="M19.4706 13.0092L20.9861 4.16898C21.0409 3.84906 20.9371 3.52242 20.7075 3.29291C20.478 3.06339 20.1514 2.95955 19.8315 3.01439L15.9105 3.68656C16.5762 4.23681 17.0004 5.06887 17.0004 6.00002C17.0004 7.65687 15.6573 9.00002 14.0004 9.00002C12.3436 9.00002 11.0004 7.65687 11.0004 6.00002C11.0004 5.43487 11.1567 4.90622 11.4284 4.45492L7.16992 5.18494C7.71611 8.6701 9.54803 11.7288 12.1651 13.8605C12.6558 12.2065 14.1872 11 16.0004 11C17.4848 11 18.7803 11.8085 19.4706 13.0092Z" fill="black"/><path d="M17.3172 16.5106L17.4088 16.4196C17.775 16.0561 18 15.5553 18 15C18 13.8954 17.1046 13 16 13C14.8954 13 14 13.8954 14 15V15.1271C15.03 15.7229 16.1429 16.1912 17.3172 16.5106Z" fill="black"/><path d="M18.4771 18.8022C11.6611 17.7226 6.27743 12.339 5.19778 5.52295L2.83104 5.92868C2.56732 5.97389 2.33272 6.12289 2.1797 6.34238C2.02667 6.56186 1.96798 6.83351 2.01676 7.09659C2.679 10.6685 4.39224 14.0848 7.15374 16.8463C9.91525 19.6078 13.3315 21.321 16.9034 21.9833C17.1665 22.032 17.4382 21.9733 17.6576 21.8203C17.8771 21.6673 18.0261 21.4327 18.0713 21.169L18.4771 18.8022Z" fill="black"/><path d="M14 5C13.4477 5 13 5.44772 13 6C13 6.55228 13.4477 7 14 7C14.5523 7 15 6.55228 15 6C15 5.44772 14.5523 5 14 5Z" fill="black"/></svg>
