<svg xmlns="http://www.w3.org/2000/svg" viewBox="0 0 24 24" fill="none"><path d="M8.04517 2.69725C8.19804 2.21393 8.69544 1.9159 9.20239 2.02147C9.70904 2.12715 10.0459 2.59861 9.99341 3.10253L9.97681 3.20409C9.81679 3.97266 9.79717 4.70839 9.91724 5.46874L9.97681 5.79589L9.99341 5.89745C10.0459 6.40137 9.70904 6.87283 9.20239 6.9785C8.69544 7.08408 8.19804 6.78605 8.04517 6.30272L8.01978 6.20409L7.94067 5.77538C7.78382 4.77791 7.81068 3.79993 8.01978 2.79589L8.04517 2.69725Z" fill="black"/><path fill-rule="evenodd" clip-rule="evenodd" d="M19.5 8.99999C21.433 8.99999 23 10.567 23 12.5C23 14.433 21.433 16 19.5 16H18.748C17.8599 19.4504 14.7277 22 11 22C6.58172 22 3 18.4183 3 14V9.99999L3.00488 9.89745C3.05621 9.39332 3.48232 8.99999 4 8.99999H19.5ZM19 14H19.5C20.3284 14 21 13.3284 21 12.5C21 11.6716 20.3284 11 19.5 11H19V14Z" fill="black"/><path d="M13.2024 2.02147C12.6954 1.9159 12.198 2.21393 12.0452 2.69725L12.0198 2.79589C11.8107 3.79993 11.7838 4.77791 11.9407 5.77538L12.0198 6.20409L12.0452 6.30272C12.198 6.78605 12.6954 7.08408 13.2024 6.9785C13.709 6.87283 14.0459 6.40137 13.9934 5.89745L13.9768 5.79589L13.9172 5.46874C13.7972 4.70839 13.8168 3.97266 13.9768 3.20409L13.9934 3.10253C14.0459 2.59861 13.709 2.12715 13.2024 2.02147Z" fill="black"/></svg>
