<svg xmlns="http://www.w3.org/2000/svg" viewBox="0 0 24 24" fill="none"><path fill-rule="evenodd" clip-rule="evenodd" d="M14.6299 4.90853C14.787 4.66318 14.9705 4.4335 15.1822 4.22185C16.3501 3.05388 18.0673 2.74378 19.9363 2.98187C20.5014 3.05385 20.9463 3.4988 21.0183 4.0639C21.2564 5.93295 20.9463 7.65007 19.7784 8.81804C19.5667 9.0297 19.337 9.21318 19.0917 9.37033L20.4516 10.2398C20.7707 10.4438 20.9801 10.7814 21.021 11.1579C21.0619 11.5344 20.93 11.9091 20.6622 12.1769L19.2563 13.5828C18.843 13.9961 18.3617 14.3089 17.8456 14.5175C17.8349 14.8319 17.7057 15.1333 17.4802 15.3588L16.0743 16.7647C15.661 17.1779 15.1798 17.4907 14.6637 17.6994C14.653 18.0138 14.5238 18.3151 14.2983 18.5406L12.8924 19.9466C11.4815 21.3575 9.27903 21.5969 7.59792 20.5221C7.59791 20.5221 7.5979 20.5221 7.59789 20.5221L6.16303 19.6048L5.10583 20.662C4.61767 21.1501 3.82622 21.1501 3.33806 20.662C2.84991 20.1738 2.84991 19.3823 3.33806 18.8942L4.39525 17.837L3.47796 16.4023C2.40314 14.7211 2.64255 12.5187 4.05347 11.1077L5.45938 9.70183C5.68492 9.47629 5.98635 9.3471 6.30078 9.33642C6.50944 8.82032 6.8222 8.33913 7.23548 7.92585L8.64139 6.51994C8.86693 6.2944 9.16835 6.16522 9.48278 6.15454C9.69145 5.63843 10.0042 5.15724 10.4175 4.74397L11.8234 3.33806C12.0912 3.07029 12.4659 2.93834 12.8424 2.97926C13.2188 3.02018 13.5564 3.22956 13.7604 3.54862L14.6299 4.90853ZM16.3707 7.62946C17.2075 7.59383 17.7158 7.34508 18.0106 7.05028C18.3054 6.75547 18.5541 6.24723 18.5898 5.41043C17.753 5.44605 17.2447 5.69481 16.9499 5.98962C16.6551 6.28442 16.4064 6.79266 16.3707 7.62946ZM9.30968 9.38719L9.00324 9.69362C8.42228 10.2746 8.3237 11.1815 8.76627 11.8737L9.38731 12.8451L9.69375 12.5387C10.2747 11.9577 10.3733 11.0508 9.93072 10.3586L9.30968 9.38719ZM14.3371 11.431L15.3084 12.052L15.2559 12.1342L15.3084 12.052C16.0007 12.4946 16.9076 12.396 17.4885 11.815L17.795 11.5086L16.8236 10.8875C16.1314 10.445 15.2245 10.5436 14.6435 11.1245L14.3371 11.431ZM12.8758 9.35677C13.4567 8.7758 13.5553 7.8689 13.1127 7.17667L12.4917 6.2053L12.1853 6.51174C11.6043 7.0927 11.5057 7.99961 11.9483 8.69183L12.5693 9.66321L12.8758 9.35677ZM14.613 14.6905L13.6416 14.0694C12.9494 13.6269 12.0425 13.7254 11.4615 14.3064L11.1551 14.6129L12.1264 15.2339C12.8187 15.6764 13.7256 15.5779 14.3065 14.9969L14.613 14.6905ZM6.12767 12.5691L5.82124 12.8755C5.24027 13.4565 5.14169 14.3634 5.58426 15.0556L6.2053 16.027L6.51174 15.7205C7.0927 15.1396 7.19129 14.2327 6.74871 13.5404L6.12767 12.5691ZM8.27951 17.4883L7.9731 17.7947L8.94451 18.4157L8.94454 18.4158C9.63677 18.8583 10.5437 18.7598 11.1246 18.1788L11.4311 17.8723L10.4597 17.2513C9.76748 16.8087 8.86048 16.9073 8.27951 17.4883Z" fill="black"/></svg>
