<svg xmlns="http://www.w3.org/2000/svg" viewBox="0 0 24 24" fill="none"><path d="M5.93167 14.334C6.59066 16.046 7.9531 17.4073 9.66507 18.0664C9.36457 19.4377 8.84836 20.7648 8.05862 21.7119C7.7327 22.1028 7.15192 22.0669 6.79202 21.7071L2.29202 17.2071C1.9322 16.8472 1.89614 16.2662 2.28714 15.9405C3.23409 15.1515 4.56149 14.6347 5.93167 14.334ZM11.9991 7.00003C14.7605 7.00003 16.9991 9.2386 16.9991 12C16.9991 14.7615 14.7605 17 11.9991 17C9.23763 17 6.99905 14.7615 6.99905 12C6.99905 9.2386 9.23763 7.00003 11.9991 7.00003ZM15.9395 2.28811C16.2653 1.89712 16.8462 1.93318 17.2061 2.293L21.7061 6.793C22.0659 7.15289 22.102 7.73383 21.711 8.0596C20.7638 8.8487 19.4359 9.36442 18.0655 9.66507C17.4062 7.9535 16.0448 6.59153 14.333 5.93264C14.6337 4.56247 15.1505 3.23507 15.9395 2.28811Z" fill="black"/></svg>
