<svg xmlns="http://www.w3.org/2000/svg" viewBox="0 0 24 24" fill="none"><path fill-rule="evenodd" clip-rule="evenodd" d="M16.7169 2.97616C17.2561 2.85635 17.596 2.32217 17.4762 1.78304C17.3564 1.24391 16.8222 0.903976 16.2831 1.02378L11.7831 2.02378C11.3255 2.12546 11 2.53127 11 2.99997V5.99997H6C5.72323 5.99997 5.45884 6.11468 5.26976 6.31679C5.08067 6.5189 4.98381 6.79033 5.00222 7.06649L5.33534 12.0633L5.33555 12.0665L6.00222 22.0665C6.03505 22.559 6.42057 22.9485 6.90242 22.9953C6.93455 22.9984 6.9671 23 7 23H17C17.4607 23 17.8523 22.6875 17.9665 22.2574C17.9828 22.196 17.9934 22.1322 17.9978 22.0665L18.9978 7.06649C19.0162 6.79033 18.9193 6.5189 18.7302 6.31679C18.5412 6.11468 18.2768 5.99997 18 5.99997H13V3.80214L16.7169 2.97616ZM12.001 7.99997C12.0007 7.99997 12.0013 7.99997 12.001 7.99997C12.0007 7.99997 11.9993 7.99997 11.999 7.99997H7.06889L7.26889 11H16.7311L16.9311 7.99997H12.001Z" fill="black"/></svg>
