<svg xmlns="http://www.w3.org/2000/svg" viewBox="0 0 24 24" fill="none"><path fill-rule="evenodd" clip-rule="evenodd" d="M16.9998 1C15.0054 1 13.3519 2.45963 13.0493 4.36893C12.3057 3.58521 11.4838 2.86342 10.6001 2.20021C10.2571 1.94278 9.78809 1.93275 9.43437 2.17527C9.08065 2.41779 8.92096 2.85886 9.03744 3.27162C9.84665 6.13917 9.63676 8.49162 8.14206 10.986C8.13657 10.9952 8.13125 11.0044 8.12608 11.0137C7.24496 10.6571 6.29342 10.5357 5.36179 10.8074C3.84703 11.2491 2.76205 12.6138 2.20107 14.7074C1.32629 17.9721 3.37389 20.9745 6.50842 21.8144C8.52053 22.3535 10.5904 21.9043 12.0538 20.6283C13.1186 21.4987 14.5074 22 15.9998 22C19.2449 22 21.9998 19.6299 21.9998 16.25C21.9998 14.0825 21.3051 12.4835 19.9562 11.6648C19.0138 11.0927 17.9152 11.0041 16.8484 11.2094C16.5696 10.0656 16.1646 8.99707 15.6513 8H15.9998C18.209 8 19.9998 6.20914 19.9998 4V2C19.9998 1.44772 19.5521 1 18.9998 1H16.9998ZM11.6415 11.9472C11.1542 11.752 10.6291 11.6444 10.0914 11.6086C11.1882 9.62909 11.6129 7.67974 11.4799 5.62146C13.0105 7.1994 14.1466 9.0298 14.7623 11.148C13.8205 11.0327 12.8717 11.1621 12.0435 11.6648C11.9023 11.7505 11.7683 11.8447 11.6415 11.9472Z" fill="black"/></svg>
