<svg xmlns="http://www.w3.org/2000/svg" viewBox="0 0 24 24" fill="none"><path d="M11.9994 3C10.5441 3 8.34807 3.40458 6.4821 4.58792C4.77685 5.66934 3.34788 7.40977 3.05452 10.0013C2.9924 10.5501 3.44713 11 3.99941 11H19.9994C20.5517 11 21.0064 10.5501 20.9443 10.0013C20.6509 7.40977 19.222 5.66934 17.5167 4.58792C15.6508 3.40458 13.4547 3 11.9994 3Z" fill="black"/><path d="M3 18C3 17.4477 3.44772 17 4 17H20C20.5523 17 21 17.4477 21 18V20C21 20.5523 20.5523 21 20 21H4C3.44772 21 3 20.5523 3 20V18Z" fill="black"/><path d="M2.5 13C2.22386 13 2 13.2239 2 13.5V14.5C2 14.7761 2.22386 15 2.5 15H21.5C21.7761 15 22 14.7761 22 14.5V13.5C22 13.2239 21.7761 13 21.5 13H2.5Z" fill="black"/></svg>
