<svg xmlns="http://www.w3.org/2000/svg" viewBox="0 0 24 24" fill="none"><path d="M13 5C13 4.44772 12.5523 4 12 4C11.4477 4 11 4.44772 11 5V5.04938C5.94668 5.5511 2 9.81465 2 15C2 15.5523 2.44772 16 3 16H21C21.5523 16 22 15.5523 22 15C22 9.81465 18.0533 5.5511 13 5.04938V5Z" fill="black"/><path d="M3 17C2.44772 17 2 17.4477 2 18C2 18.5523 2.44772 19 3 19H9C9 19.5523 9.44772 20 10 20H14C14.5523 20 15 19.5523 15 19H21C21.5523 19 22 18.5523 22 18C22 17.4477 21.5523 17 21 17H3Z" fill="black"/></svg>
