<svg xmlns="http://www.w3.org/2000/svg" viewBox="0 0 24 24" fill="none"><path fill-rule="evenodd" clip-rule="evenodd" d="M6.10557 2.55279C6.27496 2.214 6.62123 2 7 2H17C17.3788 2 17.725 2.214 17.8944 2.55279L18.8944 4.55279C18.9663 4.6966 19.0003 4.84946 19.0002 5H20C20.5523 5 21 5.44772 21 6V9C21 9.55228 20.5523 10 20 10H19.9544L18.8282 21.1009C18.7764 21.6115 18.3465 22 17.8333 22H6.16667C5.65346 22 5.22357 21.6115 5.17177 21.1009L4.04559 10H4C3.44772 10 3 9.55228 3 9V6C3 5.44772 3.44772 5 4 5H4.99978C4.99966 4.84946 5.03367 4.6966 5.10557 4.55279L6.10557 2.55279ZM7.11803 5H16.882L16.382 4H7.61803L7.11803 5ZM19 8V7H5V8H19Z" fill="black"/></svg>
