<svg xmlns="http://www.w3.org/2000/svg" viewBox="0 0 24 24" fill="none"><path fill-rule="evenodd" clip-rule="evenodd" d="M9 1C6.79086 1 5 2.79086 5 5V12.7298C5 12.7309 5 12.732 5.00001 12.7331V17C5.00001 17.5523 5.44772 18 6.00001 18H9V20C9 21.6569 10.3431 23 12 23C13.6569 23 15 21.6569 15 20V18H18C18.5523 18 19 17.5523 19 17L19 5C19 2.96103 17.4744 1.27838 15.5024 1.03125C15.3379 1.01063 15.1702 1 15 1H9ZM7.00154 13.0947C7.00102 13.0953 7.00052 13.0959 7.00001 13.0965V16H17V11.5083C16.5835 11.7745 16.1114 12.0338 15.6484 12.1919C15.6 12.2085 15.5517 12.2239 15.5036 12.2381C14.2294 12.6146 13.1754 12.3362 12.3313 12.0156C12.2107 11.9698 12.0944 11.9232 11.9823 11.8775L11.7817 11.7953C11.051 11.4954 10.5552 11.2919 10.0176 11.2997C9.94083 11.3008 9.86318 11.3062 9.78387 11.3163C9.36062 11.37 8.8527 11.5862 8.32254 11.9407C8.2872 11.9643 8.25176 11.9885 8.21623 12.0134C7.76271 12.3306 7.34147 12.7152 7.00154 13.0947ZM13 18H11V20C11 20.5523 11.4477 21 12 21C12.5523 21 13 20.5523 13 20V18Z" fill="black"/></svg>
