<svg xmlns="http://www.w3.org/2000/svg" viewBox="0 0 24 24" fill="none"><path fill-rule="evenodd" clip-rule="evenodd" d="M5 5C5 2.79086 6.79086 1 9 1H15C17.2091 1 19 2.79086 19 5V17C19 17.5523 18.5523 18 18 18H15V20C15 21.6569 13.6569 23 12 23C10.3431 23 9 21.6569 9 20V18H6C5.44772 18 5 17.5523 5 17V5ZM11 18V20C11 20.5523 11.4477 21 12 21C12.5523 21 13 20.5523 13 20V18H11ZM11 7C11 6.44772 10.5523 6 10 6C9.44772 6 9 6.44772 9 7V12.5C9 13.0523 9.44772 13.5 10 13.5C10.5523 13.5 11 13.0523 11 12.5V7ZM14 6C14.5523 6 15 6.44772 15 7V12.5C15 13.0523 14.5523 13.5 14 13.5C13.4477 13.5 13 13.0523 13 12.5V7C13 6.44772 13.4477 6 14 6Z" fill="black"/></svg>
