<svg xmlns="http://www.w3.org/2000/svg" viewBox="0 0 24 24" fill="none"><path d="M3 4.5C3 4.22386 3.22386 4 3.5 4H20.5C20.7761 4 21 4.22386 21 4.5V5.5C21 5.77614 20.7761 6 20.5 6H14V10.5C14 11.3284 13.3284 12 12.5 12C11.6716 12 11 11.3284 11 10.5V14.5C11 15.3284 10.3284 16 9.5 16C8.67157 16 8 15.3284 8 14.5V6H3.5C3.22386 6 3 5.77614 3 5.5V4.5Z" fill="black"/><path d="M21 8C21 7.72386 20.7761 7.5 20.5 7.5H16V9.5H20.5C20.7761 9.5 21 9.27614 21 9V8Z" fill="black"/><path d="M15.9646 11C15.8532 11.7788 15.4854 12.4749 14.9495 13H21.5C21.7761 13 22 12.7761 22 12.5V11.5C22 11.2239 21.7761 11 21.5 11H15.9646Z" fill="black"/><path d="M6 7.5H2.5C2.22386 7.5 2 7.72386 2 8V9C2 9.27614 2.22386 9.5 2.5 9.5H6V7.5Z" fill="black"/><path d="M6 11H3.5C3.22386 11 3 11.2239 3 11.5V12.5C3 12.7761 3.22386 13 3.5 13H6V11Z" fill="black"/><path d="M6 14.5H3.5C3.22386 14.5 3 14.7239 3 15V16C3 16.2761 3.22386 16.5 3.5 16.5H6.62734C6.23191 15.9331 6 15.2436 6 14.5Z" fill="black"/><path d="M12.3727 16.5C12.7681 15.9331 13 15.2436 13 14.5H20.5C20.7761 14.5 21 14.7239 21 15V16C21 16.2761 20.7761 16.5 20.5 16.5H12.3727Z" fill="black"/><path d="M23 19C23 18.4477 22.5523 18 22 18H2C1.44772 18 1 18.4477 1 19C1 19.5523 1.44772 20 2 20H22C22.5523 20 23 19.5523 23 19Z" fill="black"/></svg>
