<svg xmlns="http://www.w3.org/2000/svg" viewBox="0 0 24 24" fill="none"><path d="M7.38712 3.00669C7.38712 2.4866 7.01337 2.05333 6.52748 2.01014L6.45286 2.00351C5.93688 1.95765 5.48374 2.36663 5.44074 2.91701L4.50324 14.917C4.48034 15.2101 4.5796 15.4992 4.77459 15.7072L7.97542 19.1214C8.15123 19.3089 8.25 19.5633 8.25 19.8285V21.0001C8.25 21.5523 8.66974 22.0001 9.1875 22.0001H14.8125C15.3303 22.0001 15.75 21.5523 15.75 21.0001V19.8285C15.75 19.5633 15.8488 19.3089 16.0246 19.1214L19.2254 15.7072C19.4204 15.4992 19.5197 15.2101 19.4968 14.917L18.5593 2.91701C18.5163 2.36663 18.0631 1.95765 17.5471 2.00351L17.4725 2.01014C16.9866 2.05333 16.6129 2.4866 16.6129 3.00669V12.0399C16.6129 12.5702 16.2099 13.0001 15.7127 13.0001C15.2155 13.0001 14.8125 12.5702 14.8125 12.0399V3.00006C14.8125 2.44777 14.3928 2.00006 13.875 2.00006C13.3572 2.00006 12.9375 2.44777 12.9375 3.00006V12.0001C12.9375 12.5523 12.5178 13.0001 12 13.0001C11.4822 13.0001 11.0625 12.5523 11.0625 12.0001V3.00006C11.0625 2.44777 10.6428 2.00006 10.125 2.00006C9.60723 2.00006 9.1875 2.44777 9.1875 3.00006V12.0399C9.1875 12.5702 8.78447 13.0001 8.28731 13.0001C7.79015 13.0001 7.38712 12.5702 7.38712 12.0399V3.00669Z" fill="black"/></svg>
