<svg xmlns="http://www.w3.org/2000/svg" viewBox="0 0 24 24" fill="none"><path d="M5 3C5.55228 3 6 3.44772 6 4V9.5C6 9.77614 6.22386 10 6.5 10C6.77614 10 7 9.77614 7 9.5V4C7 3.44772 7.44772 3 8 3C8.55228 3 9 3.44772 9 4V9.5C9 9.77614 9.22386 10 9.5 10C9.77614 10 10 9.77614 10 9.5V4C10 3.44772 10.4477 3 11 3C11.5523 3 12 3.44772 12 4V10.9142C12 11.229 11.8518 11.5254 11.6 11.7142L10.4 12.6142C10.1482 12.8031 10 13.0995 10 13.4142V20C10 20.5523 9.55228 21 9 21H7C6.44772 21 6 20.5523 6 20V13.4142C6 13.0995 5.85181 12.8031 5.6 12.6142L4.4 11.7142C4.14819 11.5254 4 11.229 4 10.9142V4C4 3.44772 4.44772 3 5 3Z" fill="black"/><path fill-rule="evenodd" clip-rule="evenodd" d="M19 3C19.5523 3 20 3.44772 20 4V20C20 20.5523 19.5523 21 19 21H17C16.4477 21 16 20.5523 16 20V16H14C13.4273 16 12.9716 15.5199 13.0014 14.948C13.2171 10.8058 14.2567 7.88907 15.4287 5.97732C16.0129 5.02446 16.6351 4.31345 17.2119 3.82841C17.4995 3.5865 17.7879 3.39071 18.0665 3.25085C18.3271 3.11997 18.6541 3 19 3Z" fill="black"/></svg>
