<svg xmlns="http://www.w3.org/2000/svg" viewBox="0 0 24 24" fill="none"><path fill-rule="evenodd" clip-rule="evenodd" d="M13.6077 2.79415C14.0463 2.45853 14.1298 1.83089 13.7942 1.39228C13.4585 0.953681 12.8309 0.870202 12.3923 1.20583C11.7045 1.73213 11.2846 2.35378 11.2462 3.09583C11.2141 3.71596 11.4757 4.2521 11.6156 4.53883L11.6358 4.58033C11.7305 4.7758 11.7742 4.88136 11.7946 4.93416C11.7489 4.97612 11.663 5.04198 11.5088 5.12896C11.0277 5.40027 10.8577 6.01017 11.129 6.49123C11.4003 6.97228 12.0102 7.14232 12.4912 6.87102C13.1826 6.48112 13.7269 5.94422 13.8038 5.16715C13.8627 4.57151 13.5945 4.0295 13.4638 3.76557C13.4535 3.74458 13.4439 3.72536 13.4355 3.708C13.2623 3.35071 13.2407 3.25384 13.2435 3.19933C13.2436 3.19562 13.2438 3.17484 13.2746 3.12526C13.3128 3.0638 13.4032 2.95064 13.6077 2.79415Z" fill="black"/><path fill-rule="evenodd" clip-rule="evenodd" d="M8.49776 3.8673C8.97677 3.5924 9.14222 2.98123 8.86731 2.50223C8.59241 2.02322 7.98124 1.85777 7.50224 2.13268C6.86309 2.49949 6.30055 3.01988 6.24722 3.79176C6.20781 4.36216 6.49359 4.84072 6.64022 5.06623L6.61043 5.07899C6.10178 5.29414 5.86385 5.8809 6.079 6.38956C6.29415 6.89821 6.88091 7.13614 7.38957 6.92099C7.98861 6.6676 8.69303 6.24335 8.80005 5.43232C8.84965 5.05641 8.74231 4.74236 8.64961 4.54052C8.56698 4.3606 8.45741 4.19163 8.39034 4.08821L8.37553 4.06534C8.35438 4.03262 8.33633 4.00388 8.32095 3.9788C8.36476 3.94781 8.42246 3.91052 8.49776 3.8673Z" fill="black"/><path fill-rule="evenodd" clip-rule="evenodd" d="M18.3673 4.50223C18.6422 4.98123 18.4768 5.5924 17.9978 5.8673C17.9225 5.91052 17.8648 5.94781 17.8209 5.9788C17.8363 6.00388 17.8544 6.03262 17.8755 6.06534L17.8903 6.08821C17.9574 6.19164 18.067 6.36064 18.1496 6.54052C18.2423 6.74236 18.3496 7.05641 18.3 7.43232C18.193 8.24335 17.4886 8.6676 16.8896 8.92099C16.3809 9.13614 15.7942 8.89821 15.579 8.38956C15.3639 7.8809 15.6018 7.29414 16.1104 7.07899L16.1402 7.06623C15.9936 6.84072 15.7078 6.36216 15.7472 5.79176C15.8006 5.01988 16.3631 4.49949 17.0022 4.13268C17.4812 3.85777 18.0924 4.02322 18.3673 4.50223Z" fill="black"/><path d="M8.61973 8.01313C6.00781 7.82206 3.58506 9.52184 2.5373 12.2037C1.87179 13.9071 1.82311 15.8409 2.39911 17.5833C3.09298 19.6823 4.18206 21.1072 5.56232 21.9669C7.12717 20.0753 8.09008 18.425 8.58648 16.4766C9.1214 14.377 9.13918 11.8355 8.62912 8.13659C8.6234 8.09514 8.62031 8.05393 8.61973 8.01313Z" fill="black"/><path d="M7.48665 22.7686C9.24259 23.1993 11.1603 22.9772 12.9788 22.5239C14.6869 22.098 16.9556 21.3754 18.7799 20.1878C16.0637 17.6655 12.4618 17.8236 10.1799 18.2408C10.163 18.2439 10.1461 18.2466 10.1292 18.2488C9.54065 19.8562 8.65608 21.2927 7.48665 22.7686Z" fill="black"/><path d="M21.9181 14.1072C22.2589 16.1248 21.513 17.711 20.3452 18.9171C17.2703 15.8915 13.2982 15.7977 10.7102 16.1341C11.1073 14.0467 11.0838 11.6665 10.7162 8.67381C10.7415 8.68872 10.7665 8.70355 10.7909 8.71826L13.0063 10.0489C13.3141 10.2338 13.5574 10.3479 13.782 10.3965C14.3776 10.5254 15.0108 10.5171 15.7234 10.4713C15.8542 10.4629 15.991 10.4528 16.1318 10.4425C16.7065 10.4001 17.3505 10.3527 17.9462 10.3923C18.7281 10.4443 19.561 10.6477 20.2967 11.2585C21.0223 11.8609 21.5403 12.7657 21.8934 13.9983L21.9088 14.052L21.9181 14.1072Z" fill="black"/></svg>
