<svg xmlns="http://www.w3.org/2000/svg" viewBox="0 0 24 24" fill="none"><path fill-rule="evenodd" clip-rule="evenodd" d="M2 5C2 4.44772 2.44772 4 3 4H21C21.5523 4 22 4.44772 22 5V19C22 19.5523 21.5523 20 21 20H8.14286C7.18465 20 6.25228 19.6892 5.48571 19.1143C3.29141 17.4686 2 14.8857 2 12.1429V5ZM8.5 18H20V6H4.00112C4.03797 8.33553 4.98174 10.5675 6.63604 12.2218L7.70711 13.2929C8.04417 13.63 8.09647 14.1581 7.83205 14.5547C7.49068 15.0668 7.27427 16.05 7.42228 16.8887C7.49331 17.2912 7.6335 17.5716 7.7933 17.7388C7.93052 17.8824 8.13321 18 8.5 18Z" fill="black"/></svg>
