<svg xmlns="http://www.w3.org/2000/svg" viewBox="0 0 24 24" fill="none"><path fill-rule="evenodd" clip-rule="evenodd" d="M3.5 3.5C3.5 2.94772 3.94772 2.5 4.5 2.5H19.5C20.0523 2.5 20.5 2.94772 20.5 3.5V20.5C20.5 21.0523 20.0523 21.5 19.5 21.5H4.5C3.94772 21.5 3.5 21.0523 3.5 20.5V3.5ZM8 8C8 7.44772 8.44772 7 9 7H15C15.5523 7 16 7.44772 16 8C16 8.55228 15.5523 9 15 9H9C8.44772 9 8 8.55228 8 8ZM8 12C8 11.4477 8.44772 11 9 11H12C12.5523 11 13 11.4477 13 12C13 12.5523 12.5523 13 12 13H9C8.44772 13 8 12.5523 8 12Z" fill="black"/></svg>
