<svg xmlns="http://www.w3.org/2000/svg" viewBox="0 0 24 24" fill="none"><path fill-rule="evenodd" clip-rule="evenodd" d="M5 2H12V9C12 9.55228 12.4477 10 13 10H20V21C20 21.5523 19.5523 22 19 22H5C4.44772 22 4 21.5523 4 21V3C4 2.44772 4.44772 2 5 2ZM15.2071 17.2071L12.7071 19.7071C12.3166 20.0976 11.6834 20.0976 11.2929 19.7071L8.79289 17.2071C8.40237 16.8166 8.40237 16.1834 8.79289 15.7929C9.18342 15.4024 9.81658 15.4024 10.2071 15.7929L11 16.5858V13C11 12.4477 11.4477 12 12 12C12.5523 12 13 12.4477 13 13V16.5858L13.7929 15.7929C14.1834 15.4024 14.8166 15.4024 15.2071 15.7929C15.5976 16.1834 15.5976 16.8166 15.2071 17.2071Z" fill="black"/><path d="M14 2.58579L19.4142 8H14V2.58579Z" fill="black"/></svg>
