<svg xmlns="http://www.w3.org/2000/svg" viewBox="0 0 24 24" fill="none"><path fill-rule="evenodd" clip-rule="evenodd" d="M5 2H12V9C12 9.55228 12.4477 10 13 10H20V21C20 21.5523 19.5523 22 19 22H5C4.44772 22 4 21.5523 4 21V3C4 2.44772 4.44772 2 5 2ZM9.5 16.5C9.5 15.9477 9.05228 15.5 8.5 15.5C7.94772 15.5 7.5 15.9477 7.5 16.5V18C7.5 18.5523 7.94772 19 8.5 19C9.05228 19 9.5 18.5523 9.5 18V16.5ZM12 12.5C12.5523 12.5 13 12.9477 13 13.5V18C13 18.5523 12.5523 19 12 19C11.4477 19 11 18.5523 11 18V13.5C11 12.9477 11.4477 12.5 12 12.5ZM16.5 15.5C16.5 14.9477 16.0523 14.5 15.5 14.5C14.9477 14.5 14.5 14.9477 14.5 15.5V18C14.5 18.5523 14.9477 19 15.5 19C16.0523 19 16.5 18.5523 16.5 18V15.5Z" fill="black"/><path d="M14 2.58579L19.4142 8H14V2.58579Z" fill="black"/></svg>
