<svg xmlns="http://www.w3.org/2000/svg" viewBox="0 0 24 24" fill="none"><path d="M2 4C2 3.44772 2.44772 3 3 3H10C10.3344 3 10.6466 3.1671 10.8321 3.4453L12.5352 6H21C21.5523 6 22 6.44772 22 7V19C22 19.5523 21.5523 20 21 20H15V13C15 11.8954 14.1046 11 13 11H2V4Z" fill="black"/><path fill-rule="evenodd" clip-rule="evenodd" d="M5 17C5 16.4477 5.44772 16 6 16H8C8.55228 16 9 16.4477 9 17C9 17.5523 8.55228 18 8 18H6C5.44772 18 5 17.5523 5 17Z" fill="black"/><path d="M2 13C1.44772 13 1 13.4477 1 14V20C1 20.5523 1.44772 21 2 21H5C5.55228 21 6 20.5523 6 20C6 19.4477 5.55228 19 5 19H3V15H5C5.55228 15 6 14.5523 6 14C6 13.4477 5.55228 13 5 13H2Z" fill="black"/><path d="M12 13C12.5523 13 13 13.4477 13 14V20C13 20.5523 12.5523 21 12 21H9C8.44772 21 8 20.5523 8 20C8 19.4477 8.44772 19 9 19H11V15H9C8.44772 15 8 14.5523 8 14C8 13.4477 8.44772 13 9 13H12Z" fill="black"/></svg>
