<svg xmlns="http://www.w3.org/2000/svg" viewBox="0 0 24 24" fill="none"><path fill-rule="evenodd" clip-rule="evenodd" d="M3 4C3 3.44772 3.44772 3 4 3H20C20.5523 3 21 3.44772 21 4V14H15C14.4477 14 14 14.4477 14 15V21H4C3.44772 21 3 20.5523 3 20V4ZM8 9C8 8.44772 8.44772 8 9 8H15C15.5523 8 16 8.44772 16 9C16 9.55228 15.5523 10 15 10H9C8.44772 10 8 9.55228 8 9ZM9 12C8.44772 12 8 12.4477 8 13C8 13.5523 8.44772 14 9 14H11C11.5523 14 12 13.5523 12 13C12 12.4477 11.5523 12 11 12H9Z" fill="black"/><path d="M16 21C16.2652 21 16.5196 20.8946 16.7071 20.7071L20.7071 16.7071C20.8946 16.5196 21 16.2652 21 16H16V21Z" fill="black"/></svg>
