<svg xmlns="http://www.w3.org/2000/svg" viewBox="0 0 24 24" fill="none"><path fill-rule="evenodd" clip-rule="evenodd" d="M5 22C4.44772 22 4 21.5523 4 21V3C4 2.44772 4.44772 2 5 2H19C19.5523 2 20 2.44772 20 3V15.8571C20 16.8154 19.6892 17.7477 19.1143 18.5143C17.4686 20.7086 14.8857 22 12.1429 22H5ZM18 15.5V4H6V19.9989C8.33553 19.962 10.5675 19.0183 12.2218 17.364L13.2929 16.2929C13.63 15.9558 14.1581 15.9035 14.5547 16.1679C15.0668 16.5093 16.05 16.7257 16.8887 16.5777C17.2912 16.5067 17.5716 16.3665 17.7388 16.2067C17.8824 16.0695 18 15.8668 18 15.5Z" fill="black"/></svg>
