<svg xmlns="http://www.w3.org/2000/svg" viewBox="0 0 24 24" fill="none"><path fill-rule="evenodd" clip-rule="evenodd" d="M5 2C4.44772 2 4 2.44772 4 3V21C4 21.2652 4.10536 21.5196 4.29289 21.7071C4.48043 21.8946 4.73478 22 5 22H11.1707C11.0602 21.6872 11 21.3506 11 21V17C11 16.0193 11.4706 15.1484 12.1983 14.601C12.8035 12.5205 14.7242 11 17 11C18.1256 11 19.1643 11.3719 20 11.9996V3C20 2.44772 19.5523 2 19 2H5ZM8 5C7.44772 5 7 5.44772 7 6C7 6.55228 7.44772 7 8 7H14C14.5523 7 15 6.55228 15 6C15 5.44772 14.5523 5 14 5H8ZM8 9C7.44772 9 7 9.44772 7 10C7 10.5523 7.44772 11 8 11H11C11.5523 11 12 10.5523 12 10C12 9.44772 11.5523 9 11 9H8Z" fill="black"/><path fill-rule="evenodd" clip-rule="evenodd" d="M13 17C13 16.4477 13.4477 16 14 16C14 14.3431 15.3431 13 17 13C18.6569 13 20 14.3431 20 16C20.5523 16 21 16.4477 21 17V21C21 21.5523 20.5523 22 20 22H14C13.4477 22 13 21.5523 13 21V17ZM19 18H15V20H19V18ZM18 16C18 15.4477 17.5523 15 17 15C16.4477 15 16 15.4477 16 16H18Z" fill="black"/></svg>
