<svg xmlns="http://www.w3.org/2000/svg" viewBox="0 0 24 24" fill="none"><path d="M5 2H12V9C12 9.55228 12.4477 10 13 10H20V21C20 21.5523 19.5523 22 19 22H12.8293C12.9398 21.6872 13 21.3506 13 21V17C13 16.0193 12.5294 15.1484 11.8017 14.601C11.1965 12.5205 9.27582 11 7 11C5.87439 11 4.83566 11.3719 4 11.9996V3C4 2.44772 4.44772 2 5 2Z" fill="black"/><path d="M14 2.58579L19.4142 8H14V2.58579Z" fill="black"/><path fill-rule="evenodd" clip-rule="evenodd" d="M3 17C3 16.4477 3.44772 16 4 16C4 14.3431 5.34315 13 7 13C8.65685 13 10 14.3431 10 16C10.5523 16 11 16.4477 11 17V21C11 21.5523 10.5523 22 10 22H4C3.44772 22 3 21.5523 3 21V17ZM8 16C8 15.4477 7.55228 15 7 15C6.44772 15 6 15.4477 6 16H8Z" fill="black"/></svg>
