<svg xmlns="http://www.w3.org/2000/svg" viewBox="0 0 24 24" fill="none"><path fill-rule="evenodd" clip-rule="evenodd" d="M3 4C3 3.44772 3.44772 3 4 3H16C16.5523 3 17 3.44772 17 4V5H20C20.5523 5 21 5.44772 21 6V10H21.0039C21.5562 10 22.0039 10.4477 22.0039 11V20C22.0039 20.5523 21.5562 21 21.0039 21H3.00391C2.45162 21 2.00391 20.5523 2.00391 20V8C2.00391 7.44902 2.44951 7.00211 3 7.00001V4ZM19 10V7H17V10H19ZM15 10V5H5V7H9.00391C9.26912 7 9.52348 7.10536 9.71101 7.29289L12.4181 10H15Z" fill="black"/></svg>
