<svg xmlns="http://www.w3.org/2000/svg" viewBox="0 0 24 24" fill="none"><path d="M18.2871 11.2979C18.4217 11.2347 18.5783 11.2347 18.7129 11.2979L22.2129 12.9404C22.388 13.0228 22.4999 13.199 22.5 13.3926V16.2051C22.5 18.1522 21.2474 19.879 19.3965 20.4834L18.6553 20.7256C18.5544 20.7585 18.4456 20.7585 18.3447 20.7256L17.6035 20.4834C15.7526 19.879 14.5 18.1522 14.5 16.2051V13.3926L14.5049 13.3213C14.5287 13.1566 14.6337 13.0126 14.7871 12.9404L18.2871 11.2979Z" fill="black"/><path d="M10 3C10.3344 3 10.6466 3.16711 10.832 3.44531L12.2383 5.55469C12.4237 5.83287 12.736 5.99998 13.0703 6H21C21.5523 6 22 6.44772 22 7V10.6309L19.5625 9.4873C18.8895 9.17143 18.1105 9.17143 17.4375 9.4873L13.9375 11.1299C13.0603 11.5417 12.5001 12.4235 12.5 13.3926V16.2051C12.5 17.6017 12.9461 18.9199 13.7227 20H3C2.44772 20 2 19.5523 2 19V4C2 3.44772 2.44772 3 3 3H10Z" fill="black"/></svg>
