<svg xmlns="http://www.w3.org/2000/svg" viewBox="0 0 24 24" fill="none"><path fill-rule="evenodd" clip-rule="evenodd" d="M10 3C10.3344 3 10.6466 3.16711 10.832 3.44531L12.2383 5.55469C12.4237 5.83287 12.736 5.99998 13.0703 6H21C21.5523 6 22 6.44772 22 7V19C22 19.5523 21.5523 20 21 20H3C2.44772 20 2 19.5523 2 19V4C2 3.44772 2.44772 3 3 3H10ZM13.1367 10.3633C12.7852 10.0118 12.2148 10.0118 11.8633 10.3633C11.5119 10.7148 11.5118 11.2853 11.8633 11.6367L12.8262 12.5996H9C8.50296 12.5996 8.09964 13.003 8.09961 13.5C8.09961 13.9971 8.50294 14.4004 9 14.4004H12.8262L11.8633 15.3633C11.5119 15.7148 11.5118 16.2853 11.8633 16.6367C12.2147 16.9881 12.7853 16.9881 13.1367 16.6367L15.6367 14.1367C15.9882 13.7853 15.9881 13.2148 15.6367 12.8633L13.1367 10.3633Z" fill="black"/></svg>
