<svg xmlns="http://www.w3.org/2000/svg" viewBox="0 0 24 24" fill="none"><path d="M10 15C10 13.8954 10.8954 13 12 13C13.1046 13 14 13.8954 14 15C14 16.1046 13.1046 17 12 17C10.8954 17 10 16.1046 10 15Z" fill="black"/><path fill-rule="evenodd" clip-rule="evenodd" d="M4 3H8V8C8 8.55228 8.44772 9 9 9H15C15.5523 9 16 8.55228 16 8V3H17C17.2652 3 17.5196 3.10536 17.7071 3.29289L20.7071 6.29289C20.8946 6.48043 21 6.73478 21 7V20C21 20.5523 20.5523 21 20 21H4C3.44772 21 3 20.5523 3 20V4C3 3.44772 3.44772 3 4 3ZM12 11C9.79086 11 8 12.7909 8 15C8 17.2091 9.79086 19 12 19C14.2091 19 16 17.2091 16 15C16 12.7909 14.2091 11 12 11Z" fill="black"/><path d="M10 3H14V7H10V3Z" fill="black"/></svg>
