<svg xmlns="http://www.w3.org/2000/svg" viewBox="0 0 24 24" fill="none"><path d="M12 2H5C4.44772 2 4 2.44772 4 3V11.9172C4.69814 11.6478 5.45682 11.5 6.25 11.5C7.92339 11.5 9.44209 12.1588 10.561 13.2252C12.8386 13.8985 14.5 16.0038 14.5 18.5C14.5 19.8296 14.0282 21.0491 13.2428 22H19C19.5523 22 20 21.5523 20 21V10H13C12.4477 10 12 9.55228 12 9V2Z" fill="black"/><path d="M19.4142 8L14 2.58579V8H19.4142Z" fill="black"/><path fill-rule="evenodd" clip-rule="evenodd" d="M6.25 13.5C3.90279 13.5 2 15.4028 2 17.75C2 20.0972 3.90279 22 6.25 22H9C10.933 22 12.5 20.433 12.5 18.5C12.5 16.7446 11.2077 15.2911 9.52265 15.0388C8.74466 14.1005 7.56843 13.5 6.25 13.5Z" fill="black"/></svg>
