<svg xmlns="http://www.w3.org/2000/svg" viewBox="0 0 24 24" fill="none"><path d="M3 3C2.44772 3 2 3.44772 2 4V14C2 12.3431 3.34315 11 5 11C6.65685 11 8 12.3431 8 14C9.65685 14 11 15.3431 11 17C11 18.6569 9.65685 20 8 20H21C21.5523 20 22 19.5523 22 19V7C22 6.44772 21.5523 6 21 6H12.5352L10.8321 3.4453C10.6466 3.1671 10.3344 3 10 3H3Z" fill="black"/><path d="M6 14C6 13.4477 5.55228 13 5 13C4.44772 13 4 13.4477 4 14V16H2C1.44772 16 1 16.4477 1 17C1 17.5523 1.44772 18 2 18H4V20C4 20.5523 4.44772 21 5 21C5.55228 21 6 20.5523 6 20V18H8C8.55228 18 9 17.5523 9 17C9 16.4477 8.55228 16 8 16H6V14Z" fill="black"/></svg>
