<svg xmlns="http://www.w3.org/2000/svg" viewBox="0 0 24 24" fill="none"><path d="M20 8C20 7.73478 19.8946 7.48043 19.7071 7.29289L15.7071 3.29289C15.5196 3.10536 15.2652 3 15 3V8H20Z" fill="black"/><path d="M13 3H5C4.44772 3 4 3.44772 4 4V12H20V10H14C13.4477 10 13 9.55228 13 9V3Z" fill="black"/><path fill-rule="evenodd" clip-rule="evenodd" d="M3 15C3 14.4477 3.44772 14 4 14H5.75C7.13071 14 8.25 15.1193 8.25 16.5C8.25 17.8807 7.13071 19 5.75 19H5V20C5 20.5523 4.55228 21 4 21C3.44772 21 3 20.5523 3 20V15ZM5 17H5.75C6.02614 17 6.25 16.7761 6.25 16.5C6.25 16.2239 6.02614 16 5.75 16H5V17Z" fill="black"/><path fill-rule="evenodd" clip-rule="evenodd" d="M9 15C9 14.4477 9.44772 14 10 14H10.25C10.6013 14 10.9268 14.1843 11.1075 14.4855L12.5 16.8063V15C12.5 14.4477 12.9477 14 13.5 14C14.0523 14 14.5 14.4477 14.5 15V20C14.5 20.5523 14.0523 21 13.5 21H13.25C12.8987 21 12.5732 20.8157 12.3925 20.5145L11 18.1937V20C11 20.5523 10.5523 21 10 21C9.44772 21 9 20.5523 9 20V15Z" fill="black"/><path fill-rule="evenodd" clip-rule="evenodd" d="M18.706 15.9395C18.5585 15.9032 18.4054 15.8949 18.3087 15.9008C17.9167 15.9246 17.25 16.4176 17.25 17.4833C17.25 18.538 17.8447 18.9968 18.3847 19C18.6734 18.9956 18.9317 18.9313 19.125 18.8385V18.0036C19.125 17.4513 19.5727 17.0036 20.125 17.0036C20.6773 17.0036 21.125 17.4513 21.125 18.0036V19.3316C21.125 19.5826 21.0306 19.8245 20.8605 20.0092C20.1836 20.7438 19.1744 20.9906 18.4024 20.9999L18.3903 21.0001C16.4473 21.0001 15.25 19.3237 15.25 17.4833C15.25 15.6503 16.4728 14.0086 18.1874 13.9044C18.4716 13.8872 18.8276 13.9097 19.184 13.9974C19.5314 14.0829 19.9689 14.2525 20.3228 14.5965C20.7189 14.9814 20.7279 15.6145 20.343 16.0106C19.9581 16.4066 19.325 16.4157 18.929 16.0308C18.929 16.0308 18.913 16.0166 18.8741 15.9976C18.833 15.9776 18.7768 15.9569 18.706 15.9395Z" fill="black"/></svg>
