<svg xmlns="http://www.w3.org/2000/svg" viewBox="0 0 24 24" fill="none"><path d="M4 4C4 2.89543 4.89543 2 6 2H18C19.1046 2 20 2.89543 20 4V11.8779C18.4159 11.4054 16.6296 11.7946 15.3787 13.0455L11.8787 16.5455C11.3161 17.1081 11 17.8712 11 18.6668V21.0002C11 21.3507 11.0601 21.6873 11.1706 22H6C4.89543 22 4 21.1046 4 20V4Z" fill="black"/><path fill-rule="evenodd" clip-rule="evenodd" d="M19.1262 15.874C18.8724 15.6201 18.4609 15.6201 18.2071 15.8739L15 19.0811V20.0002H15.9191L19.1262 16.7931C19.38 16.5393 19.38 16.1278 19.1262 15.874ZM16.7929 14.4597C17.8278 13.4249 19.5056 13.4249 20.5404 14.4597C21.5753 15.4946 21.5753 17.1724 20.5404 18.2073L17.0404 21.7073C16.8529 21.8948 16.5986 22.0002 16.3333 22.0002H14C13.4477 22.0002 13 21.5525 13 21.0002V18.6668C13 18.4016 13.1054 18.1473 13.2929 17.9597L16.7929 14.4597Z" fill="black"/></svg>
