<svg xmlns="http://www.w3.org/2000/svg" viewBox="0 0 24 24" fill="none"><path fill-rule="evenodd" clip-rule="evenodd" d="M2 4C2 3.44772 2.44772 3 3 3H10C10.3344 3 10.6466 3.1671 10.8321 3.4453L12.5352 6H21C21.5523 6 22 6.44772 22 7V19C22 19.5523 21.5523 20 21 20H3C2.44772 20 2 19.5523 2 19V4ZM15.2071 15.2071L12.7071 17.7071C12.3166 18.0976 11.6834 18.0976 11.2929 17.7071L8.79289 15.2071C8.40237 14.8166 8.40237 14.1834 8.79289 13.7929C9.18342 13.4024 9.81658 13.4024 10.2071 13.7929L11 14.5858V11C11 10.4477 11.4477 10 12 10C12.5523 10 13 10.4477 13 11V14.5858L13.7929 13.7929C14.1834 13.4024 14.8166 13.4024 15.2071 13.7929C15.5976 14.1834 15.5976 14.8166 15.2071 15.2071Z" fill="black"/></svg>
