<svg xmlns="http://www.w3.org/2000/svg" viewBox="0 0 24 24" fill="none"><path d="M4 3C4 2.44772 4.44772 2 5 2H19C19.5523 2 20 2.44772 20 3V14.0952C19.636 14.2417 19.2949 14.4623 19 14.7573C17.8284 13.5857 15.9289 13.5857 14.7574 14.7573C13.5858 15.9289 13.5858 17.8284 14.7574 18.9999C13.9454 19.8119 13.6962 20.9734 14.0096 22H5C4.73478 22 4.48043 21.8946 4.29289 21.7071C4.10536 21.5196 4 21.2652 4 21V3Z" fill="black"/><path fill-rule="evenodd" clip-rule="evenodd" d="M21.8284 16.1716C22.219 16.5621 22.219 17.1953 21.8284 17.5858L20.4142 19L21.8284 20.4142C22.219 20.8047 22.219 21.4379 21.8284 21.8284C21.4379 22.219 20.8047 22.219 20.4142 21.8284L19 20.4142L17.5858 21.8284C17.1953 22.219 16.5621 22.219 16.1716 21.8284C15.781 21.4379 15.781 20.8047 16.1716 20.4142L17.5858 19L16.1716 17.5858C15.781 17.1953 15.781 16.5621 16.1716 16.1716C16.5621 15.781 17.1953 15.781 17.5858 16.1716L19 17.5858L20.4142 16.1716C20.8047 15.781 21.4379 15.781 21.8284 16.1716Z" fill="black"/></svg>
