<svg xmlns="http://www.w3.org/2000/svg" viewBox="0 0 24 24" fill="none"><path d="M2 4C2 3.44772 2.44772 3 3 3H10C10.3344 3 10.6466 3.1671 10.8321 3.4453L12.5352 6H21C21.5523 6 22 6.44772 22 7V19C22 19.5523 21.5523 20 21 20H12.874C12.874 19.7503 12.8428 19.4991 12.7793 19.2522C12.3474 17.5744 11.31 16.1387 9.91233 15.1945C10.4406 14.4289 10.75 13.5006 10.75 12.5C10.75 9.87665 8.62337 7.75 6.00002 7.75C4.32053 7.75 2.84463 8.62163 2 9.93721V4Z" fill="black"/><path d="M2 15.0628V15.2547C2.02907 15.2344 2.0583 15.2144 2.08769 15.1945C2.05775 15.1511 2.02851 15.1072 2 15.0628Z" fill="black"/><path fill-rule="evenodd" clip-rule="evenodd" d="M3.25 12.5C3.25 10.9812 4.48122 9.75 6 9.75C7.51878 9.75 8.75 10.9812 8.75 12.5C8.75 14.0188 7.51878 15.25 6 15.25C4.48122 15.25 3.25 14.0188 3.25 12.5ZM6 11.75C5.58579 11.75 5.25 12.0858 5.25 12.5C5.25 12.9142 5.58579 13.25 6 13.25C6.41421 13.25 6.75 12.9142 6.75 12.5C6.75 12.0858 6.41421 11.75 6 11.75Z" fill="black"/><path fill-rule="evenodd" clip-rule="evenodd" d="M5.99899 16C3.66782 16 1.71157 17.5944 1.15657 19.7507C1.07951 20.0501 1.14526 20.3683 1.33467 20.6127C1.52408 20.857 1.81586 21 2.12501 21H9.87297C10.1821 21 10.4739 20.857 10.6633 20.6127C10.8527 20.3683 10.9185 20.0501 10.8414 19.7507C10.2864 17.5944 8.33016 16 5.99899 16ZM5.99899 18C6.88692 18 7.68568 18.3861 8.23532 19H3.76267C4.31231 18.3861 5.11107 18 5.99899 18Z" fill="black"/></svg>
