<svg xmlns="http://www.w3.org/2000/svg" viewBox="0 0 24 24" fill="none"><path d="M5 2H12V9C12 9.55228 12.4477 10 13 10H20V21C20 21.5523 19.5523 22 19 22H8.74264L9.12132 21.6213C9.68393 21.0587 10 20.2957 10 19.5V13.5588C10 11.0736 7.98528 9.05884 5.5 9.05884C4.97405 9.05884 4.46917 9.14907 4 9.3149V3C4 2.44772 4.44772 2 5 2Z" fill="black"/><path d="M14 2.58579L19.4142 8H14V2.58579Z" fill="black"/><path fill-rule="evenodd" clip-rule="evenodd" d="M3 13.5588C3 12.1781 4.11929 11.0588 5.5 11.0588C6.88071 11.0588 8 12.1781 8 13.5588V19.5C8 19.7652 7.89464 20.0196 7.70711 20.2071L6.20711 21.7071C6.01957 21.8946 5.76522 22 5.5 22C5.23478 22 4.98043 21.8946 4.79289 21.7071L3.29289 20.2071C3.10536 20.0196 3 19.7652 3 19.5L3 13.5588Z" fill="black"/></svg>
