<svg xmlns="http://www.w3.org/2000/svg" viewBox="0 0 24 24" fill="none"><path fill-rule="evenodd" clip-rule="evenodd" d="M18.9997 3H9.00035C8.20624 3 7.44316 3.31377 6.8799 3.87612C6.31592 4.4384 6 5.20126 6 5.9964V15H4C3.44772 15 3 15.4477 3 16V17.9675C3 18.7713 3.31912 19.543 3.88829 20.1119C4.45715 20.6806 5.22857 21 6.0329 21C9.02126 21 12.0096 20.9996 14.998 20.9996H15.002C16.6573 20.9996 18 19.6569 18 18.0016V10H21C21.5523 10 22 9.55226 22 8.99998V6C22 5.20421 21.6838 4.44134 21.1215 3.87885C20.5589 3.3161 19.7953 3 18.9997 3ZM18 6V8H20V6C20 5.73487 19.8946 5.48051 19.707 5.29284C19.5197 5.10544 19.2653 5 19 5C18.7347 5 18.4803 5.10544 18.293 5.29284C18.1053 5.48051 18 5.73487 18 6ZM5 17H12V18.0016C12 18.3516 12.06 18.6877 12.1704 19H6.0329C5.7588 19 5.496 18.8912 5.30224 18.6975C5.10877 18.5041 5 18.2414 5 17.9675V17ZM10 8C10 7.44772 10.4477 7 11 7H13C13.5523 7 14 7.44772 14 8C14 8.55228 13.5523 9 13 9H11C10.4477 9 10 8.55228 10 8ZM11 11C10.4477 11 10 11.4477 10 12C10 12.5523 10.4477 13 11 13H12C12.5523 13 13 12.5523 13 12C13 11.4477 12.5523 11 12 11H11Z" fill="black"/></svg>
