<svg xmlns="http://www.w3.org/2000/svg" viewBox="0 0 24 24" fill="none"><path fill-rule="evenodd" clip-rule="evenodd" d="M12 2H5C4.44772 2 4 2.44772 4 3V21C4 21.5523 4.44772 22 5 22H8V20H10V22H19C19.5523 22 20 21.5523 20 21V10H13C12.4477 10 12 9.55228 12 9V2ZM10 18H12V20H10V18ZM10 16H8V18H10V16ZM10 14V16H12V14H10ZM10 14V12H8V14H10Z" fill="black"/><path d="M19.866 8C19.8227 7.92495 19.7694 7.85523 19.7071 7.79289L14.2071 2.29289C14.1448 2.23056 14.075 2.1773 14 2.13397V8H19.866Z" fill="black"/></svg>
