<svg xmlns="http://www.w3.org/2000/svg" viewBox="0 0 24 24" fill="none"><path d="M5 2C4.44772 2 4 2.44772 4 3V21C4 21.2652 4.10536 21.5196 4.29289 21.7071C4.48043 21.8946 4.73478 22 5 22H11.1674C10.1326 20.8848 9.5 19.3913 9.5 17.75C9.5 14.2982 12.2982 11.5 15.75 11.5C17.3932 11.5 18.8872 12.1353 20 13.1678V3C20 2.44772 19.5523 2 19 2H5Z" fill="black"/><path fill-rule="evenodd" clip-rule="evenodd" d="M15.75 13.5C13.4028 13.5 11.5 15.4028 11.5 17.75C11.5 20.0972 13.4028 22 15.75 22H18.5C20.433 22 22 20.433 22 18.5C22 16.7446 20.7077 15.2911 19.0227 15.0388C18.2447 14.1005 17.0684 13.5 15.75 13.5ZM13.5 17.75C13.5 16.5074 14.5074 15.5 15.75 15.5C16.5461 15.5 17.2453 15.9122 17.6466 16.5391C17.8308 16.827 18.1493 17.0008 18.491 17L18.5 17C19.328 17.0005 20 17.6719 20 18.5C20 19.3284 19.3284 20 18.5 20H15.75C14.5074 20 13.5 18.9926 13.5 17.75Z" fill="black"/></svg>
