<svg xmlns="http://www.w3.org/2000/svg" viewBox="0 0 24 24" fill="none"><path fill-rule="evenodd" clip-rule="evenodd" d="M6 3C5.44772 3 5 3.44772 5 4V7H2C1.44772 7 1 7.44772 1 8V20C1 20.5523 1.44772 21 2 21H18C18.5523 21 19 20.5523 19 20V17H22C22.5523 17 23 16.5523 23 16V6C23 5.44772 22.5523 5 22 5H14.4142L12.7071 3.29289C12.5196 3.10536 12.2652 3 12 3H6ZM19 15H21V7H14C13.7348 7 13.4804 6.89464 13.2929 6.70711L11.5858 5H7V7H8C8.26522 7 8.51957 7.10536 8.70711 7.29289L10.4142 9H18C18.5523 9 19 9.44772 19 10V15Z" fill="black"/></svg>
