<svg xmlns="http://www.w3.org/2000/svg" viewBox="0 0 24 24" fill="none"><path fill-rule="evenodd" clip-rule="evenodd" d="M5 2C4.44772 2 4 2.44772 4 3V21C4 21.5523 4.44772 22 5 22H19C19.5523 22 20 21.5523 20 21V11C20 10.8026 19.9416 10.6096 19.8321 10.4453L18 7.69722V3C18 2.44772 17.5523 2 17 2H5ZM9 6C9.55228 6 10 6.44772 10 7V9C10 9.55228 9.55228 10 9 10C8.44772 10 8 9.55228 8 9V7C8 6.44772 8.44772 6 9 6ZM14 7C14 6.44772 13.5523 6 13 6C12.4477 6 12 6.44772 12 7V9C12 9.55228 12.4477 10 13 10C13.5523 10 14 9.55228 14 9V7Z" fill="black"/></svg>
