<svg xmlns="http://www.w3.org/2000/svg" viewBox="0 0 24 24" fill="none"><path fill-rule="evenodd" clip-rule="evenodd" d="M6 2C5.44772 2 5 2.44772 5 3V8H4C3.44772 8 3 8.44772 3 9V20C3 20.5523 3.44772 21 4 21H20C20.5523 21 21 20.5523 21 20V9C21 8.44772 20.5523 8 20 8H19V5C19 4.44772 18.5523 4 18 4H12.9142L11.2071 2.29289C11.0196 2.10536 10.7652 2 10.5 2H6ZM17 8V6H12.5C12.2348 6 11.9804 5.89464 11.7929 5.70711L10.0858 4H7V8H17ZM7 13C7 12.4477 7.44772 12 8 12H12C12.5523 12 13 12.4477 13 13C13 13.5523 12.5523 14 12 14H8C7.44772 14 7 13.5523 7 13Z" fill="black"/></svg>
