<svg xmlns="http://www.w3.org/2000/svg" viewBox="0 0 24 24" fill="none"><path d="M2 4C2 3.44772 2.44772 3 3 3H10C10.3344 3 10.6466 3.1671 10.8321 3.4453L12.5352 6H21C21.5523 6 22 6.44772 22 7V19C22 19.5523 21.5523 20 21 20H13V15.4142L13.7929 16.2071C14.1834 16.5976 14.8166 16.5976 15.2071 16.2071C15.5976 15.8166 15.5976 15.1834 15.2071 14.7929L12.7071 12.2929C12.3166 11.9024 11.6834 11.9024 11.2929 12.2929L8.79289 14.7929C8.40237 15.1834 8.40237 15.8166 8.79289 16.2071C9.18342 16.5976 9.81658 16.5976 10.2071 16.2071L11 15.4142V20H3C2.44772 20 2 19.5523 2 19V4Z" fill="black"/></svg>
