<svg xmlns="http://www.w3.org/2000/svg" viewBox="0 0 24 24" fill="none"><path d="M7.29297 15.293C7.68349 14.9024 8.31651 14.9024 8.70703 15.293L11.707 18.293C12.0976 18.6835 12.0976 19.3165 11.707 19.707L8.70703 22.707C8.31651 23.0976 7.68349 23.0976 7.29297 22.707C6.90244 22.3165 6.90244 21.6835 7.29297 21.293L8.58594 20H4C3.44772 20 3 19.5523 3 19C3 18.4477 3.44772 18 4 18H8.58594L7.29297 16.707C6.90244 16.3165 6.90244 15.6835 7.29297 15.293ZM12 9C12 9.55228 12.4477 10 13 10H20V21C20 21.5523 19.5523 22 19 22H12.2422L13.1211 21.1211C14.2927 19.9495 14.2927 18.0505 13.1211 16.8789L10.1211 13.8789C8.94952 12.7073 7.05048 12.7073 5.87891 13.8789C5.29312 14.4647 5 15.2323 5 16H4V3C4 2.44772 4.44772 2 5 2H12V9ZM19.4141 8H14V2.58594L19.4141 8Z" fill="black"/></svg>
