<svg xmlns="http://www.w3.org/2000/svg" viewBox="0 0 24 24" fill="none"><path fill-rule="evenodd" clip-rule="evenodd" d="M3.5 3.5C3.5 2.94772 3.94772 2.5 4.5 2.5H19.5C20.0523 2.5 20.5 2.94772 20.5 3.5V20.5C20.5 21.0523 20.0523 21.5 19.5 21.5H4.5C3.94772 21.5 3.5 21.0523 3.5 20.5V17C2.94772 17 2.5 16.5523 2.5 16C2.5 15.4477 2.94772 15 3.5 15V13C2.94772 13 2.5 12.5523 2.5 12C2.5 11.4477 2.94772 11 3.5 11V9C2.94772 9 2.5 8.55228 2.5 8C2.5 7.44772 2.94772 7 3.5 7V3.5ZM9 8C9 7.44772 9.44772 7 10 7H14C14.5523 7 15 7.44772 15 8C15 8.55228 14.5523 9 14 9H10C9.44772 9 9 8.55228 9 8ZM9 12C9 11.4477 9.44772 11 10 11H12C12.5523 11 13 11.4477 13 12C13 12.5523 12.5523 13 12 13H10C9.44772 13 9 12.5523 9 12Z" fill="black"/></svg>
