<svg xmlns="http://www.w3.org/2000/svg" viewBox="0 0 24 24" fill="none"><path fill-rule="evenodd" clip-rule="evenodd" d="M18 13C18.5523 13 19 13.4477 19 14V16H21C21.5523 16 22 16.4477 22 17C22 17.5523 21.5523 18 21 18H19V20C19 20.5523 18.5523 21 18 21C17.4477 21 17 20.5523 17 20V18H15C14.4477 18 14 17.5523 14 17C14 16.4477 14.4477 16 15 16H17V14C17 13.4477 17.4477 13 18 13Z" fill="black"/><path d="M10 3C10.3344 3 10.6466 3.1671 10.8321 3.4453L12.2383 5.5547C12.4238 5.8329 12.736 6 13.0704 6H21C21.5523 6 22 6.44772 22 7V12.5278C20.9385 11.5777 19.5367 11 18 11C14.6863 11 12 13.6863 12 17C12 18.0929 12.2922 19.1175 12.8027 20H3C2.44772 20 2 19.5523 2 19V4C2 3.44772 2.44772 3 3 3H10Z" fill="black"/></svg>
