<svg xmlns="http://www.w3.org/2000/svg" viewBox="0 0 24 24" fill="none"><path d="M6 2.5H4.5C3.94772 2.5 3.5 2.94772 3.5 3.5V20.5C3.5 21.0523 3.94772 21.5 4.5 21.5H6V2.5Z" fill="black"/><path fill-rule="evenodd" clip-rule="evenodd" d="M8 21.5H19.5C20.0523 21.5 20.5 21.0523 20.5 20.5V3.5C20.5 2.94772 20.0523 2.5 19.5 2.5H8V21.5ZM13 7C12.4477 7 12 7.44772 12 8C12 8.55228 12.4477 9 13 9H15.5C16.0523 9 16.5 8.55228 16.5 8C16.5 7.44772 16.0523 7 15.5 7H13ZM13 11C12.4477 11 12 11.4477 12 12C12 12.5523 12.4477 13 13 13H15.5C16.0523 13 16.5 12.5523 16.5 12C16.5 11.4477 16.0523 11 15.5 11H13Z" fill="black"/></svg>
