<svg xmlns="http://www.w3.org/2000/svg" viewBox="0 0 24 24" fill="none"><path d="M12.5945 2.6325C12.8292 2.13272 13.4247 1.91746 13.9246 2.15204C14.4245 2.38663 14.6395 2.98222 14.4051 3.48211C13.0118 6.45129 11.9773 8.89866 11.243 11.9997H12.9998C13.2964 11.9997 13.5784 12.1312 13.7684 12.3591C13.9582 12.5868 14.0364 12.8877 13.9832 13.1794C13.714 14.6503 13.5799 16.0823 13.5809 17.5134C14.9758 17.2372 16.4148 16.5941 17.9285 15.5397C18.3817 15.2243 19.0045 15.3357 19.3201 15.7888C19.6357 16.2419 19.5241 16.8647 19.0711 17.1804C17.2825 18.4261 15.4905 19.2241 13.6717 19.53C13.7106 19.9703 13.7618 20.4124 13.826 20.8571C13.9047 21.4036 13.5248 21.911 12.9783 21.9899C12.4319 22.0684 11.9253 21.6887 11.8465 21.1423C11.7751 20.6472 11.7181 20.1551 11.6756 19.6647C9.39054 19.5903 7.15728 18.7327 4.92852 17.1804C4.47534 16.8647 4.36388 16.2419 4.6795 15.7888C4.99519 15.3358 5.61799 15.2242 6.0711 15.5397C8.00963 16.8899 9.82428 17.5674 11.5828 17.6598C11.5751 16.4446 11.6562 15.2304 11.827 13.9997H9.99981C9.70012 13.9997 9.41631 13.8653 9.22637 13.6335C9.03646 13.4016 8.96028 13.0963 9.01934 12.8024C9.8083 8.87703 11.0008 6.02875 12.5945 2.6325Z" fill="black"/><path d="M6.99981 6.49969C7.55193 6.4998 7.99969 6.94758 7.99981 7.49969V9.49969C7.99981 10.0519 7.55201 10.4996 6.99981 10.4997C6.44752 10.4997 5.99981 10.052 5.99981 9.49969V7.49969C5.99993 6.94751 6.4476 6.49969 6.99981 6.49969Z" fill="black"/><path d="M16.9998 6.49969C17.5519 6.4998 17.9997 6.94758 17.9998 7.49969V9.49969C17.9998 10.0519 17.552 10.4996 16.9998 10.4997C16.4475 10.4997 15.9998 10.052 15.9998 9.49969V7.49969C15.9999 6.94751 16.4476 6.49969 16.9998 6.49969Z" fill="black"/></svg>
