<svg xmlns="http://www.w3.org/2000/svg" viewBox="0 0 24 24" fill="none"><path fill-rule="evenodd" clip-rule="evenodd" d="M3 3C2.44772 3 2 3.44772 2 4V19C2 19.5523 2.44772 20 3 20H19.5C19.5273 20 19.5545 19.9989 19.5814 19.9967C19.9847 19.9639 20.3322 19.6897 20.4545 19.2983L22.9545 11.2983C22.9663 11.2603 22.9759 11.2219 22.9831 11.1833C23.0263 10.9517 22.9862 10.712 22.8701 10.5071C22.8507 10.4729 22.8292 10.4397 22.8057 10.4077C22.629 10.1674 22.3551 10.0193 22.0594 10.0018C22.0397 10.0006 22.0199 10 22 10H21V7C21 6.44772 20.5523 6 20 6H12.5352L10.8321 3.4453C10.6466 3.1671 10.3344 3 10 3H3ZM19 10V8H12C11.6656 8 11.3534 7.8329 11.1679 7.5547L9.46482 5H4V18H4.76481L7.04552 10.7017C7.12702 10.4409 7.3085 10.2321 7.53988 10.1121C7.67887 10.04 7.83586 10 8 10C8 10 8 10 8 10H19Z" fill="black"/></svg>
