<svg xmlns="http://www.w3.org/2000/svg" viewBox="0 0 24 24" fill="none"><path d="M4 3C4 2.44772 4.44772 2 5 2H19C19.5523 2 20 2.44772 20 3V11.9996C19.1643 11.3719 18.1256 11 17 11C14.7242 11 12.8035 12.5205 12.1983 14.601C11.4706 15.1484 11 16.0193 11 17V21C11 21.3506 11.0602 21.6872 11.1707 22H5C4.73478 22 4.48043 21.8946 4.29289 21.7071C4.10536 21.5196 4 21.2652 4 21V3Z" fill="black"/><path fill-rule="evenodd" clip-rule="evenodd" d="M13 17C13 16.4477 13.4477 16 14 16C14 14.3431 15.3431 13 17 13C18.6569 13 20 14.3431 20 16C20.5523 16 21 16.4477 21 17V21C21 21.5523 20.5523 22 20 22H14C13.4477 22 13 21.5523 13 21V17ZM19 18H15V20H19V18ZM18 16C18 15.4477 17.5523 15 17 15C16.4477 15 16 15.4477 16 16H18Z" fill="black"/></svg>
