<svg xmlns="http://www.w3.org/2000/svg" viewBox="0 0 24 24" fill="none"><path d="M11 16V15H13V16C13 16.5523 12.5523 17 12 17C11.4477 17 11 16.5523 11 16Z" fill="black"/><path fill-rule="evenodd" clip-rule="evenodd" d="M4.00005 3.00001L20 3C20.2652 3 20.5196 3.10536 20.7071 3.29289C20.8947 3.48043 21 3.73478 21 4V20C21 20.5523 20.5523 21 20 21H4C3.73478 21 3.48043 20.8946 3.29289 20.7071C3.10536 20.5196 3 20.2652 3 20L3.00005 4C3.00005 3.44772 3.44777 3.00001 4.00005 3.00001ZM10 5C9.44772 5 9 5.44772 9 6C9 6.55228 9.44772 7 10 7H14C14.5523 7 15 6.55228 15 6C15 5.44772 14.5523 5 14 5H10ZM9 10C9 9.44772 9.44772 9 10 9H14C14.5523 9 15 9.44772 15 10C15 10.5523 14.5523 11 14 11H10C9.44772 11 9 10.5523 9 10ZM10 13C9.44772 13 9 13.4477 9 14V16C9 17.6569 10.3431 19 12 19C13.6569 19 15 17.6569 15 16V14C15 13.4477 14.5523 13 14 13H10Z" fill="black"/></svg>
