<svg xmlns="http://www.w3.org/2000/svg" viewBox="0 0 24 24" fill="none"><path d="M20 8C20 7.73478 19.8946 7.48043 19.7071 7.29289L15.7071 3.29289C15.5196 3.10536 15.2652 3 15 3V8H20Z" fill="black"/><path d="M13 3H5C4.44772 3 4 3.44772 4 4V12H20V10H14C13.4477 10 13 9.55228 13 9V3Z" fill="black"/><path fill-rule="evenodd" clip-rule="evenodd" d="M8.5 15C8.5 14.4477 8.94772 14 9.5 14H11.25C12.6307 14 13.75 15.1193 13.75 16.5C13.75 17.8807 12.6307 19 11.25 19H10.5V20C10.5 20.5523 10.0523 21 9.5 21C8.94772 21 8.5 20.5523 8.5 20V15ZM10.5 17H11.25C11.5261 17 11.75 16.7761 11.75 16.5C11.75 16.2239 11.5261 16 11.25 16H10.5V17Z" fill="black"/><path fill-rule="evenodd" clip-rule="evenodd" d="M6.5 14C7.05228 14 7.5 14.4477 7.5 15V18.5C7.5 19.8807 6.38071 21 5 21H4.5C3.94772 21 3.5 20.5523 3.5 20C3.5 19.4477 3.94772 19 4.5 19H5C5.27614 19 5.5 18.7761 5.5 18.5V15C5.5 14.4477 5.94772 14 6.5 14Z" fill="black"/><path fill-rule="evenodd" clip-rule="evenodd" d="M17.706 15.9904C17.5585 15.9541 17.4054 15.9458 17.3087 15.9517C16.9167 15.9755 16.25 16.4685 16.25 17.5342C16.25 18.5889 16.8447 19.0477 17.3847 19.0509C17.6734 19.0465 17.9317 18.9822 18.125 18.8894V18.0545C18.125 17.5022 18.5727 17.0545 19.125 17.0545C19.6773 17.0545 20.125 17.5022 20.125 18.0545V19.3825C20.125 19.6335 20.0306 19.8754 19.8605 20.0601C19.1836 20.7947 18.1744 21.0415 17.4024 21.0508L17.3903 21.051C15.4473 21.051 14.25 19.3746 14.25 17.5342C14.25 15.7012 15.4728 14.0595 17.1874 13.9553C17.4716 13.9381 17.8276 13.9606 18.184 14.0483C18.5314 14.1338 18.9689 14.3034 19.3228 14.6474C19.7189 15.0323 19.7279 15.6654 19.343 16.0615C18.9581 16.4575 18.325 16.4666 17.929 16.0817C17.929 16.0817 17.929 16.0818 17.929 16.0817C17.928 16.0809 17.913 16.0675 17.8741 16.0485C17.833 16.0285 17.7768 16.0078 17.706 15.9904Z" fill="black"/></svg>
