<svg xmlns="http://www.w3.org/2000/svg" viewBox="0 0 24 24" fill="none"><path fill-rule="evenodd" clip-rule="evenodd" d="M13.6489 3.06345C14.166 2.86953 14.7424 3.13154 14.9363 3.64866L20.9363 19.6487C21.1302 20.1658 20.8682 20.7422 20.3511 20.9361C19.834 21.13 19.2576 20.868 19.0637 20.3509L13.0637 4.35091C12.8698 3.83379 13.1318 3.25737 13.6489 3.06345ZM4 2.99978C4.55228 2.99978 5 3.4475 5 3.99978V19.9998C5 20.5521 4.55228 20.9998 4 20.9998C3.44772 20.9998 3 20.5521 3 19.9998V3.99978C3 3.4475 3.44772 2.99978 4 2.99978ZM9 2.99978C9.55228 2.99978 10 3.4475 10 3.99978V19.9998C10 20.5521 9.55228 20.9998 9 20.9998C8.44772 20.9998 8 20.5521 8 19.9998V3.99978C8 3.4475 8.44772 2.99978 9 2.99978Z" fill="black"/></svg>
