<svg xmlns="http://www.w3.org/2000/svg" viewBox="0 0 24 24" fill="none"><path fill-rule="evenodd" clip-rule="evenodd" d="M4 3C4 2.44772 4.44772 2 5 2H19C19.5523 2 20 2.44772 20 3V18C20 18.5523 19.5523 19 19 19V21C19 21.5523 18.5523 22 18 22H6C5.44772 22 5 21.5523 5 21V19C4.44772 19 4 18.5523 4 18V3ZM6 17V4H18V17H6ZM7 6C7 5.44772 7.44772 5 8 5H16C16.5523 5 17 5.44772 17 6V12C17 12.5523 16.5523 13 16 13H8C7.44772 13 7 12.5523 7 12V6ZM13 15C13 14.4477 13.4477 14 14 14H16C16.5523 14 17 14.4477 17 15C17 15.5523 16.5523 16 16 16H14C13.4477 16 13 15.5523 13 15Z" fill="black"/></svg>
