<svg xmlns="http://www.w3.org/2000/svg" viewBox="0 0 24 24" fill="none"><path fill-rule="evenodd" clip-rule="evenodd" d="M2 5C1.44772 5 1 5.44772 1 6V18C1 18.5523 1.44772 19 2 19H19C19.5523 19 20 18.5523 20 18V16H22C22.5523 16 23 15.5523 23 15V9C23 8.44772 22.5523 8 22 8H20V6C20 5.44772 19.5523 5 19 5H2ZM20 10V14H21V10H20ZM7.79289 9.29289C8.18342 8.90237 8.81658 8.90237 9.20711 9.29289L10.5 10.5858L11.7929 9.29289C12.1834 8.90237 12.8166 8.90237 13.2071 9.29289C13.5976 9.68342 13.5976 10.3166 13.2071 10.7071L11.9142 12L13.2071 13.2929C13.5976 13.6834 13.5976 14.3166 13.2071 14.7071C12.8166 15.0976 12.1834 15.0976 11.7929 14.7071L10.5 13.4142L9.20711 14.7071C8.81658 15.0976 8.18342 15.0976 7.79289 14.7071C7.40237 14.3166 7.40237 13.6834 7.79289 13.2929L9.08579 12L7.79289 10.7071C7.40237 10.3166 7.40237 9.68342 7.79289 9.29289Z" fill="black"/></svg>
