<svg xmlns="http://www.w3.org/2000/svg" viewBox="0 0 24 24" fill="none"><path d="M2 4C2 3.44772 2.44772 3 3 3H21C21.5523 3 22 3.44772 22 4V16C22 16.5523 21.5523 17 21 17H3C2.44772 17 2 16.5523 2 16V4Z" fill="black"/><path d="M6.32554 20.9456C8.10859 20.3323 10.0161 20 12.0003 20C13.9845 20 15.892 20.3323 17.675 20.9456C18.1973 21.1253 18.7663 20.8475 18.9459 20.3253C19.1255 19.803 18.8478 19.234 18.3255 19.0544C16.3366 18.3702 14.2094 18 12.0003 18C9.79115 18 7.66398 18.3702 5.675 19.0544C5.15275 19.234 4.87501 19.803 5.05465 20.3253C5.23429 20.8475 5.80329 21.1253 6.32554 20.9456Z" fill="black"/></svg>
