<svg xmlns="http://www.w3.org/2000/svg" viewBox="0 0 24 24" fill="none"><path d="M17 17.5C16.4477 17.5 16 17.9477 16 18.5C16 19.0523 16.4477 19.5 17 19.5H18C18.5523 19.5 19 19.0523 19 18.5C19 17.9477 18.5523 17.5 18 17.5H17Z" fill="black"/><path fill-rule="evenodd" clip-rule="evenodd" d="M4 3C3.44772 3 3 3.44772 3 4V15H2C1.44772 15 1 15.4477 1 16V20C1 20.5523 1.44772 21 2 21H12C12 21.5523 12.4477 22 13 22H22C22.5523 22 23 21.5523 23 21V9C23 8.44772 22.5523 8 22 8H21V4C21 3.44772 20.5523 3 20 3H4ZM12 17H3V19H12V17ZM14 20H21V10H14V20Z" fill="black"/></svg>
