<svg xmlns="http://www.w3.org/2000/svg" viewBox="0 0 24 24" fill="none"><path d="M2 5H11.5L6.7 11.4C6.47274 11.703 6.43618 12.1084 6.60557 12.4472C6.77496 12.786 7.12123 13 7.5 13H11.5L7 19H2C1.44772 19 1 18.5523 1 18V6C1 5.44772 1.44772 5 2 5Z" fill="black"/><path fill-rule="evenodd" clip-rule="evenodd" d="M19 19H9.5L14.3 12.6C14.5273 12.297 14.5638 11.8916 14.3944 11.5528C14.225 11.214 13.8788 11 13.5 11H9.5L14 5H19C19.5523 5 20 5.44772 20 6V8H22C22.5523 8 23 8.44772 23 9V15C23 15.5523 22.5523 16 22 16H20V18C20 18.5523 19.5523 19 19 19ZM20 14H21V10H20V14Z" fill="black"/></svg>
