<svg xmlns="http://www.w3.org/2000/svg" viewBox="0 0 24 24" fill="none"><path d="M12 2C11.4477 2 11 2.44772 11 3C11 3.55228 11.4477 4 12 4C16.4183 4 20 7.58172 20 12C20 12.5523 20.4477 13 21 13C21.5523 13 22 12.5523 22 12C22 6.47715 17.5228 2 12 2Z" fill="black"/><path d="M12 5C11.4477 5 11 5.44772 11 6C11 6.55228 11.4477 7 12 7C14.7614 7 17 9.23858 17 12C17 12.5523 17.4477 13 18 13C18.5523 13 19 12.5523 19 12C19 8.13401 15.866 5 12 5Z" fill="black"/><path d="M5.86248 5.44829C5.66542 5.25123 5.39507 5.14534 5.1166 5.15615C4.83813 5.16695 4.5768 5.29347 4.3956 5.5052C1.0327 9.43488 1.21031 15.3525 4.92891 19.0711C8.64752 22.7897 14.5651 22.9673 18.4948 19.6044C18.7065 19.4232 18.833 19.1619 18.8438 18.8834C18.8546 18.6049 18.7488 18.3346 18.5517 18.1375L12.9142 12.5L13.7071 11.7071C14.0976 11.3166 14.0976 10.6834 13.7071 10.2929C13.3166 9.90237 12.6834 9.90237 12.2929 10.2929L11.5 11.0858L5.86248 5.44829Z" fill="black"/></svg>
