<svg xmlns="http://www.w3.org/2000/svg" viewBox="0 0 24 24" fill="none"><path d="M9.17157 9.17146C9.5621 8.78094 9.5621 8.14777 9.17157 7.75725C8.78105 7.36672 8.14788 7.36672 7.75736 7.75725C6.67267 8.84194 6 10.3433 6 11.9999C6 13.6565 6.67267 15.1578 7.75736 16.2425C8.14788 16.6331 8.78105 16.6331 9.17157 16.2425C9.5621 15.852 9.5621 15.2188 9.17157 14.8283C8.44662 14.1034 8 13.1047 8 11.9999C8 10.895 8.44662 9.89641 9.17157 9.17146Z" fill="black"/><path d="M16.2426 7.75725C15.8521 7.36672 15.2189 7.36672 14.8284 7.75725C14.4379 8.14777 14.4379 8.78094 14.8284 9.17146C15.5534 9.89641 16 10.895 16 11.9999C16 13.1047 15.5534 14.1034 14.8284 14.8283C14.4379 15.2188 14.4379 15.852 14.8284 16.2425C15.2189 16.6331 15.8521 16.6331 16.2426 16.2425C17.3273 15.1578 18 13.6565 18 11.9999C18 10.3433 17.3273 8.84194 16.2426 7.75725Z" fill="black"/><path d="M9.87875 14.1215C9.48823 13.731 9.48823 13.0978 9.87875 12.7073L10.5857 12.0003L9.87846 11.293C9.48794 10.9025 9.48794 10.2694 9.87846 9.87883C10.269 9.48831 10.9022 9.48831 11.2927 9.87883L11.9999 10.5861L12.7072 9.87887C13.0977 9.48834 13.7309 9.48834 14.1214 9.87887C14.5119 10.2694 14.5119 10.9026 14.1214 11.2931L13.4142 12.0003L14.1211 12.7073C14.5116 13.0978 14.5116 13.7309 14.1211 14.1215C13.7306 14.512 13.0974 14.512 12.7069 14.1215L11.9999 13.4145L11.293 14.1215C10.9024 14.512 10.2693 14.512 9.87875 14.1215Z" fill="black"/></svg>
