<svg xmlns="http://www.w3.org/2000/svg" viewBox="0 0 24 24" fill="none"><path d="M12 13.9996C12.3037 13.9996 12.5915 14.1375 12.7813 14.3746L16.7813 19.3746C17.0214 19.6747 17.0678 20.0868 16.9014 20.4332C16.7348 20.7795 16.3843 20.9996 16 20.9996H8.00002C7.61575 20.9996 7.26523 20.7795 7.09866 20.4332C6.93225 20.0868 6.97868 19.6747 7.21877 19.3746L11.2188 14.3746L11.2949 14.2906C11.4812 14.1054 11.7343 13.9996 12 13.9996Z" fill="black"/><path d="M4.92873 4.92833C8.83393 1.0232 15.1661 1.02327 19.0713 4.92833C22.725 8.58205 22.9599 14.3586 19.7774 18.2867L19.709 18.3639C19.3518 18.7234 18.7724 18.7601 18.3701 18.4342C17.9416 18.0864 17.8752 17.4569 18.2227 17.0279L18.4541 16.7291C20.7538 13.5996 20.4881 9.17323 17.6573 6.3424C14.5331 3.21838 9.46694 3.21831 6.3428 6.3424C3.51199 9.1732 3.2463 13.5996 5.54592 16.7291L5.77737 17.0279L5.83694 17.111C6.11455 17.5348 6.03183 18.1082 5.62991 18.4342C5.22764 18.7601 4.64829 18.7234 4.29104 18.3639L4.22268 18.2867L3.93459 17.9137C1.05821 14.0002 1.3891 8.46797 4.92873 4.92833Z" fill="black"/><path d="M12 5.99962C15.3137 5.99962 17.9999 8.68602 18 11.9996C18 12.9664 17.7706 13.8827 17.3623 14.694C17.1141 15.1871 16.5128 15.3863 16.0196 15.1383C15.5266 14.89 15.3274 14.2887 15.5752 13.7955C15.8464 13.2568 16 12.6472 16 11.9996C15.9999 9.79059 14.2091 7.99962 12 7.99962C9.79101 7.99968 8.00014 9.79062 8.00002 11.9996C8.00002 12.5661 8.1173 13.1033 8.32815 13.5895L8.42483 13.7955L8.46584 13.8883C8.64704 14.3618 8.44308 14.9054 7.98049 15.1383C7.51796 15.3709 6.96081 15.2104 6.6885 14.7828L6.63772 14.694L6.49319 14.3854C6.17568 13.6532 6.00002 12.8457 6.00002 11.9996C6.00014 8.68605 8.68644 5.99968 12 5.99962Z" fill="black"/></svg>
