<svg xmlns="http://www.w3.org/2000/svg" viewBox="0 0 24 24" fill="none"><path fill-rule="evenodd" clip-rule="evenodd" d="M6.00001 4C6.00001 3.44772 6.44773 3 7.00001 3H17C17.5523 3 18 3.44772 18 4V20C18 20.5523 17.5523 21 17 21H7.00001C6.44773 21 6.00001 20.5523 6.00001 20V4ZM10 6C10 5.44772 10.4477 5 11 5H13C13.5523 5 14 5.44772 14 6C14 6.55228 13.5523 7 13 7H11C10.4477 7 10 6.55228 10 6ZM4.20712 7.29289C4.59764 7.68342 4.59764 8.31658 4.20712 8.70711L2.82039 10.0938L3.80001 11.4C4.06668 11.7556 4.06668 12.2444 3.80001 12.6L2.82039 13.9062L4.20712 15.2929C4.59764 15.6834 4.59764 16.3166 4.20712 16.7071C3.81659 17.0976 3.18343 17.0976 2.7929 16.7071L0.792904 14.7071C0.441012 14.3552 0.40142 13.7981 0.70001 13.4L1.75001 12L0.70001 10.6C0.40142 10.2019 0.441012 9.64479 0.792904 9.29289L2.7929 7.29289C3.18343 6.90237 3.81659 6.90237 4.20712 7.29289ZM19.7929 7.29289C20.1834 6.90237 20.8166 6.90237 21.2071 7.29289L23.2071 9.29289C23.559 9.64479 23.5986 10.2019 23.3 10.6L22.25 12L23.3 13.4C23.5986 13.7981 23.559 14.3552 23.2071 14.7071L21.2071 16.7071C20.8166 17.0976 20.1834 17.0976 19.7929 16.7071C19.4024 16.3166 19.4024 15.6834 19.7929 15.2929L21.1796 13.9062L20.2 12.6C19.9333 12.2444 19.9333 11.7556 20.2 11.4L21.1796 10.0938L19.7929 8.70711C19.4024 8.31658 19.4024 7.68342 19.7929 7.29289Z" fill="black"/></svg>
