<svg xmlns="http://www.w3.org/2000/svg" viewBox="0 0 24 24" fill="none"><path d="M3 4C2.44772 4 2 4.44772 2 5V15.5C2 16.0523 2.44772 16.5 3 16.5H21C21.5523 16.5 22 16.0523 22 15.5V5C22 4.44772 21.5523 4 21 4H3Z" fill="black"/><path d="M1 18.5C1 18.2239 1.22386 18 1.5 18H8.76393C8.91918 18 9.07229 18.0361 9.21115 18.1056L9.78885 18.3944C9.92771 18.4639 10.0808 18.5 10.2361 18.5H13.7639C13.9192 18.5 14.0723 18.4639 14.2111 18.3944L14.7889 18.1056C14.9277 18.0361 15.0808 18 15.2361 18H22.5C22.7761 18 23 18.2239 23 18.5V19C23 19.5523 22.5523 20 22 20H2C1.44772 20 1 19.5523 1 19V18.5Z" fill="black"/></svg>
