<svg xmlns="http://www.w3.org/2000/svg" viewBox="0 0 24 24" fill="none"><path fill-rule="evenodd" clip-rule="evenodd" d="M7.0062 1.88957C7.06247 1.38314 7.49054 1 8.00009 1H16.0001C16.5096 1 16.9377 1.38314 16.994 1.88957L17.4686 6.1611C19.0256 7.62005 20 9.69583 20 12C20 14.3036 19.0264 16.3798 17.4682 17.8395L16.9936 22.1104C16.9374 22.6169 16.5093 23 15.9997 23H7.99974C7.49019 23 7.06213 22.6169 7.00586 22.1104L6.53125 17.8389C4.97339 16.3793 4 14.3033 4 12C4 9.69573 4.97445 7.61987 6.53161 6.16091L7.0062 1.88957ZM8.70502 19.2921L8.89479 21H15.1047L15.2944 19.2923C14.2898 19.7469 13.1744 20 12 20C10.8253 20 9.70982 19.7468 8.70502 19.2921ZM15.105 3L15.2948 4.70812C14.2892 4.2531 13.1731 4 12 4C10.827 4 9.71094 4.25307 8.70535 4.70803L8.89513 3H15.105ZM13 9C13 8.44772 12.5523 8 12 8C11.4477 8 11 8.44772 11 9V12C11 12.2652 11.1054 12.5196 11.2929 12.7071L12.7929 14.2071C13.1834 14.5976 13.8166 14.5976 14.2071 14.2071C14.5976 13.8166 14.5976 13.1834 14.2071 12.7929L13 11.5858V9Z" fill="black"/></svg>
