<svg xmlns="http://www.w3.org/2000/svg" viewBox="0 0 24 24" fill="none"><path d="M2 15C2 14.4477 2.44772 14 3 14C3.55228 14 4 14.4477 4 15V18H7C7.55228 18 8 18.4477 8 19C8 19.5523 7.55228 20 7 20H3C2.44772 20 2 19.5523 2 19V15ZM20 15C20 14.4477 20.4477 14 21 14C21.5523 14 22 14.4477 22 15V19C22 19.5523 21.5523 20 21 20H17C16.4477 20 16 19.5523 16 19C16 18.4477 16.4477 18 17 18H20V15ZM2 9V5C2 4.44772 2.44772 4 3 4H7C7.55228 4 8 4.44772 8 5C8 5.55228 7.55228 6 7 6H4V9C4 9.55228 3.55228 10 3 10C2.44772 10 2 9.55228 2 9ZM20 9V6H17C16.4477 6 16 5.55228 16 5C16 4.44772 16.4477 4 17 4H21C21.5523 4 22 4.44772 22 5V9C22 9.55228 21.5523 10 21 10C20.4477 10 20 9.55228 20 9Z" fill="black"/></svg>
