<svg xmlns="http://www.w3.org/2000/svg" viewBox="0 0 24 24" fill="none"><path fill-rule="evenodd" clip-rule="evenodd" d="M2 5C1.44772 5 1 5.44772 1 6V18C1 18.5523 1.44772 19 2 19H19C19.5523 19 20 18.5523 20 18V16H22C22.5523 16 23 15.5523 23 15V9C23 8.44772 22.5523 8 22 8H20V6C20 5.44772 19.5523 5 19 5H2ZM20 10V14H21V10H20ZM6 9C6.55228 9 7 9.44772 7 10V14C7 14.5523 6.55228 15 6 15C5.44772 15 5 14.5523 5 14V10C5 9.44772 5.44772 9 6 9ZM11.5 10C11.5 9.44772 11.0523 9 10.5 9C9.94771 9 9.5 9.44772 9.5 10V14C9.5 14.5523 9.94771 15 10.5 15C11.0523 15 11.5 14.5523 11.5 14V10ZM15 9C15.5523 9 16 9.44772 16 10V14C16 14.5523 15.5523 15 15 15C14.4477 15 14 14.5523 14 14V10C14 9.44772 14.4477 9 15 9Z" fill="black"/></svg>
