<svg xmlns="http://www.w3.org/2000/svg" viewBox="0 0 24 24" fill="none"><path fill-rule="evenodd" clip-rule="evenodd" d="M8.16795 19.4453C8.4743 18.9858 9.09517 18.8616 9.5547 19.1679L12 20.7981L14.4453 19.1679C14.9048 18.8616 15.5257 18.9858 15.8321 19.4453C16.1384 19.9048 16.0142 20.5257 15.5547 20.8321L12.5547 22.8321C12.2188 23.056 11.7812 23.056 11.4453 22.8321L8.4453 20.8321C7.98577 20.5257 7.8616 19.9048 8.16795 19.4453Z" fill="black"/><path fill-rule="evenodd" clip-rule="evenodd" d="M6 7C6 3.68629 8.68629 1 12 1C15.3137 1 18 3.68629 18 7V12C18 15.3137 15.3137 18 12 18C8.68629 18 6 15.3137 6 12V7ZM13 6C13 5.44772 12.5523 5 12 5C11.4477 5 11 5.44772 11 6V8C11 8.55228 11.4477 9 12 9C12.5523 9 13 8.55228 13 8V6Z" fill="black"/></svg>
