<svg xmlns="http://www.w3.org/2000/svg" viewBox="0 0 24 24" fill="none"><path d="M16 17C15.4477 17 15 17.4477 15 18C15 18.5523 15.4477 19 16 19C16.5523 19 17 18.5523 17 18C17 17.4477 16.5523 17 16 17Z" fill="black"/><path d="M12 18C12 17.4477 12.4477 17 13 17C13.5523 17 14 17.4477 14 18C14 18.5523 13.5523 19 13 19C12.4477 19 12 18.5523 12 18Z" fill="black"/><path fill-rule="evenodd" clip-rule="evenodd" d="M5 2C4.44772 2 4 2.44772 4 3V21C4 21.5523 4.44772 22 5 22H19C19.5523 22 20 21.5523 20 21V3C20 2.44772 19.5523 2 19 2H5ZM6 16H18V20H6V16Z" fill="black"/></svg>
