<svg xmlns="http://www.w3.org/2000/svg" viewBox="0 0 24 24" fill="none"><path fill-rule="evenodd" clip-rule="evenodd" d="M7.05132 1.68377C7.18744 1.27543 7.56958 1 8.00001 1H16C16.4304 1 16.8126 1.27543 16.9487 1.68377L17.7208 4H19C19.5523 4 20 4.44772 20 5V19C20 19.5523 19.5523 20 19 20H17.7208L16.9487 22.3162C16.8126 22.7246 16.4304 23 16 23H8.00001C7.56958 23 7.18744 22.7246 7.05132 22.3162L6.27925 20H5C4.44772 20 4 19.5523 4 19V5C4 4.44772 4.44772 4 5 4H6.27925L7.05132 1.68377ZM8.38743 4H15.6126L15.2792 3H8.72077L8.38743 4ZM8.38743 20L8.72077 21H15.2792L15.6126 20H8.38743ZM12 8C12.5523 8 13 8.44772 13 9V11.5858L14.2071 12.7929C14.5976 13.1834 14.5976 13.8166 14.2071 14.2071C13.8166 14.5976 13.1834 14.5976 12.7929 14.2071L11.2929 12.7071C11.1054 12.5196 11 12.2652 11 12V9C11 8.44772 11.4477 8 12 8Z" fill="black"/></svg>
