<svg xmlns="http://www.w3.org/2000/svg" viewBox="0 0 24 24" fill="none"><path d="M7.5 9.5C8.05228 9.5 8.5 9.94772 8.5 10.5C8.5 11.0523 8.05228 11.5 7.5 11.5C6.94772 11.5 6.5 11.0523 6.5 10.5C6.5 9.94772 6.94772 9.5 7.5 9.5Z" fill="black"/><path d="M13.6738 9.5C13.5631 9.81306 13.5 10.149 13.5 10.5C13.5 10.851 13.5631 11.1869 13.6738 11.5H10.3262C10.4369 11.1869 10.5 10.851 10.5 10.5C10.5 10.149 10.4369 9.81306 10.3262 9.5H13.6738Z" fill="black"/><path d="M16.5 9.5C17.0523 9.5 17.5 9.94772 17.5 10.5C17.5 11.0523 17.0523 11.5 16.5 11.5C15.9477 11.5 15.5 11.0523 15.5 10.5C15.5 9.94772 15.9477 9.5 16.5 9.5Z" fill="black"/><path fill-rule="evenodd" clip-rule="evenodd" d="M21 4C21.5523 4 22 4.44772 22 5V19C22 19.5523 21.5523 20 21 20H3C2.44772 20 2 19.5523 2 19V5C2 4.44772 2.44772 4 3 4H21ZM8 16C7.66854 16 7.36169 16.1637 7.17676 16.4316L7.10547 16.5527L6.38184 18H17.6182L16.8945 16.5527C16.7251 16.214 16.3788 16 16 16H8ZM7.5 7.5C5.84315 7.5 4.5 8.84315 4.5 10.5C4.5 12.1569 5.84315 13.5 7.5 13.5H16.5C18.1569 13.5 19.5 12.1569 19.5 10.5C19.5 8.84315 18.1569 7.5 16.5 7.5H7.5Z" fill="black"/></svg>
