<svg xmlns="http://www.w3.org/2000/svg" viewBox="0 0 24 24" fill="none"><path fill-rule="evenodd" clip-rule="evenodd" d="M4 3C3.44772 3 3 3.44772 3 4V20C3 20.5523 3.44772 21 4 21H20C20.5523 21 21 20.5523 21 20V4C21 3.44772 20.5523 3 20 3H4ZM7.49699 8.20786C8.88269 7.40138 10.443 7 12 7C13.557 7 15.1173 7.40138 16.503 8.20786C16.9803 8.48567 17.1421 9.09782 16.8643 9.57515C16.5865 10.0525 15.9743 10.2142 15.497 9.93642C14.4265 9.31338 13.2149 9 12 9C10.7851 9 9.57353 9.31338 8.50301 9.93642C8.02568 10.2142 7.41353 10.0525 7.13572 9.57515C6.85791 9.09782 7.01966 8.48567 7.49699 8.20786ZM10.4302 13.102C10.9218 12.8681 11.4598 12.75 12 12.75C12.5403 12.75 13.0785 12.8681 13.5705 13.102C14.0693 13.3392 14.6659 13.1272 14.9031 12.6284C15.1403 12.1297 14.9282 11.5331 14.4295 11.2959C13.6627 10.9312 12.8302 10.75 12 10.75C11.1698 10.75 10.3375 10.9312 9.57094 11.2959C9.07222 11.5332 8.86027 12.1298 9.09753 12.6285C9.3348 13.1273 9.93143 13.3392 10.4302 13.102ZM10.7505 15.75C10.7505 16.4404 11.3101 17 12.0005 17C12.6908 17 13.2505 16.4404 13.2505 15.75C13.2505 15.0596 12.6908 14.5 12.0005 14.5C11.3101 14.5 10.7505 15.0596 10.7505 15.75Z" fill="black"/></svg>
