<svg xmlns="http://www.w3.org/2000/svg" viewBox="0 0 24 24" fill="none"><path fill-rule="evenodd" clip-rule="evenodd" d="M8.16795 4.5547C8.4743 5.01423 9.09517 5.1384 9.5547 4.83205L12 3.20185L14.4453 4.83205C14.9048 5.1384 15.5257 5.01423 15.8321 4.5547C16.1384 4.09517 16.0142 3.4743 15.5547 3.16795L12.5547 1.16795C12.2188 0.944017 11.7812 0.944017 11.4453 1.16795L8.4453 3.16795C7.98577 3.4743 7.8616 4.09517 8.16795 4.5547Z" fill="black"/><path fill-rule="evenodd" clip-rule="evenodd" d="M6 12C6 8.68629 8.68629 6 12 6C15.3137 6 18 8.68629 18 12V17C18 20.3137 15.3137 23 12 23C8.68629 23 6 20.3137 6 17V12ZM13 11C13 10.4477 12.5523 10 12 10C11.4477 10 11 10.4477 11 11V13C11 13.5523 11.4477 14 12 14C12.5523 14 13 13.5523 13 13V11Z" fill="black"/></svg>
