<svg xmlns="http://www.w3.org/2000/svg" viewBox="0 0 24 24" fill="none"><path fill-rule="evenodd" clip-rule="evenodd" d="M7 2C6.44772 2 6 2.44772 6 3V6H3C2.44772 6 2 6.44772 2 7V17C2 17.5523 2.44772 18 3 18H6V21C6 21.5523 6.44772 22 7 22H17C17.5523 22 18 21.5523 18 21V18H21C21.5523 18 22 17.5523 22 17V7C22 6.44772 21.5523 6 21 6H18V3C18 2.44772 17.5523 2 17 2H7ZM16 6V4H8V6H16ZM16 15H8V20H16V15ZM6 11C6 10.4477 6.44772 10 7 10H9C9.55228 10 10 10.4477 10 11C10 11.5523 9.55228 12 9 12H7C6.44772 12 6 11.5523 6 11Z" fill="black"/></svg>
