<svg xmlns="http://www.w3.org/2000/svg" viewBox="0 0 24 24" fill="none"><path fill-rule="evenodd" clip-rule="evenodd" d="M10.5759 2.09442C10.9273 1.92984 11.3421 1.98339 11.6402 2.23179L17.6402 7.23179C17.8694 7.42279 18.0014 7.70616 18 8.00452C17.9987 8.30287 17.8642 8.58504 17.6333 8.77397L13.6903 12L17.6333 15.2261C17.8642 15.415 17.9987 15.6972 18 15.9955C18.0014 16.2939 17.8694 16.5772 17.6402 16.7682L11.6402 21.7682C11.3421 22.0166 10.9273 22.0702 10.5759 21.9056C10.2245 21.741 10 21.388 10 21L10 15.0193L6.63327 17.774C6.20582 18.1237 5.5758 18.0607 5.22607 17.6333C4.87635 17.2058 4.93935 16.5758 5.36679 16.2261L10 12.4352V11.5648L5.36679 7.77397C4.93935 7.42424 4.87635 6.79422 5.22607 6.36677C5.5758 5.93933 6.20582 5.87633 6.63327 6.22606L10 8.98068V3.00001C10 2.61199 10.2245 2.259 10.5759 2.09442ZM12.1111 10.708L12 10.617L12 5.13505L15.4295 7.99294L12.1111 10.708ZM12.1111 13.2921L12 13.383L12 18.865L15.4295 16.0071L12.1111 13.2921Z" fill="black"/></svg>
