<svg xmlns="http://www.w3.org/2000/svg" viewBox="0 0 24 24" fill="none"><path d="M11 6C11 5.44772 10.5523 5 10 5C9.44771 5 9 5.44772 9 6V7C9 7.55228 9.44771 8 10 8C10.5523 8 11 7.55228 11 7V6Z" fill="black"/><path d="M14 5C14.5523 5 15 5.44772 15 6V7C15 7.55228 14.5523 8 14 8C13.4477 8 13 7.55228 13 7V6C13 5.44772 13.4477 5 14 5Z" fill="black"/><path fill-rule="evenodd" clip-rule="evenodd" d="M6 2C5.44772 2 5 2.44772 5 3V9H4C3.44772 9 3 9.44771 3 10V21C3 21.5523 3.44772 22 4 22H20C20.5523 22 21 21.5523 21 21V10C21 9.44771 20.5523 9 20 9H19V3C19 2.44772 18.5523 2 18 2H6ZM17 9V4H7V9H17Z" fill="black"/></svg>
