<svg xmlns="http://www.w3.org/2000/svg" viewBox="0 0 24 24" fill="none"><path fill-rule="evenodd" clip-rule="evenodd" d="M19.207 10.207C19.5975 9.81643 19.5975 9.18327 19.207 8.79274L15.207 4.79274C14.8165 4.40222 14.1833 4.40222 13.7928 4.79274L6.567 12.0185C5.43527 12.1163 4.33047 12.5982 3.46437 13.4643C3.07385 13.8548 3.07385 14.488 3.46437 14.8785L5.58567 16.9998L4.29274 18.2927C3.90222 18.6833 3.90222 19.3164 4.29274 19.707C4.68327 20.0975 5.31643 20.0975 5.70696 19.707L6.99988 18.414L9.12123 20.5354C9.30876 20.7229 9.56312 20.8283 9.82833 20.8283C10.0936 20.8283 10.3479 20.7229 10.5354 20.5354C11.4016 19.6693 11.8835 18.5644 11.9813 17.4327L19.207 10.207Z" fill="black"/><path d="M7.45696 1.45696C7.06643 1.06643 6.43327 1.06643 6.04274 1.45696L2.45696 5.04274C2.06643 5.43327 2.06643 6.06643 2.45696 6.45696L3.49985 7.49985L8.49985 2.49985L7.45696 1.45696Z" fill="black"/><path d="M9.49985 3.49985L4.49985 8.49985L6.24985 10.2498L11.2498 5.24985L9.49985 3.49985Z" fill="black"/><path d="M18.7498 12.7498L13.7498 17.7498L15.4998 19.4998L20.4998 14.4998L18.7498 12.7498Z" fill="black"/><path d="M21.4998 15.4998L16.4998 20.4998L17.5427 21.5427C17.9333 21.9333 18.5664 21.9333 18.957 21.5427L22.5427 17.957C22.9333 17.5664 22.9333 16.9333 22.5427 16.5427L21.4998 15.4998Z" fill="black"/></svg>
