<svg xmlns="http://www.w3.org/2000/svg" viewBox="0 0 24 24" fill="none"><path d="M15.5358 14.5353C15.1453 14.9259 14.5122 14.9259 14.1216 14.5353L12.0004 12.4141L9.87898 14.5354C9.48846 14.926 8.85529 14.926 8.46477 14.5354C8.07424 14.1449 8.07424 13.5118 8.46477 13.1212L10.5861 10.9999L8.46478 8.87849C8.07425 8.48797 8.07425 7.8548 8.46478 7.46428C8.8553 7.07376 9.48846 7.07376 9.87899 7.46428L12.0004 9.58564L14.1216 7.46437C14.5121 7.07385 15.1453 7.07385 15.5358 7.46437C15.9264 7.8549 15.9264 8.48806 15.5358 8.87859L13.4146 10.9999L15.5358 13.1211C15.9264 13.5117 15.9264 14.1448 15.5358 14.5353Z" fill="black"/><path d="M10.7508 18.7499C10.7508 19.4402 11.3104 19.9999 12.0008 19.9999C12.6911 19.9999 13.2508 19.4402 13.2508 18.7499C13.2508 18.0595 12.6911 17.4999 12.0008 17.4999C11.3104 17.4999 10.7508 18.0595 10.7508 18.7499Z" fill="black"/><path d="M12 18.75H12.01M12.25 18.75C12.25 18.8881 12.1381 19 12 19C11.8619 19 11.75 18.8881 11.75 18.75C11.75 18.6119 11.8619 18.5 12 18.5C12.1381 18.5 12.25 18.6119 12.25 18.75Z" stroke="black" stroke-width="2" stroke-linecap="round"/></svg>
