<svg xmlns="http://www.w3.org/2000/svg" viewBox="0 0 24 24" fill="none"><path d="M21.9998 9.5C21.9998 13.6421 18.642 17 14.4998 17C13.4667 17 12.4823 16.7911 11.5866 16.4132L6.20696 21.7929C5.81643 22.1834 5.18327 22.1834 4.79274 21.7929L2.20696 19.2071C1.81643 18.8166 1.81643 18.1834 2.20696 17.7929L7.58664 12.4132C7.20876 11.5176 6.99985 10.5332 6.99985 9.5C6.99985 5.35786 10.3577 2 14.4998 2C15.5618 2 16.5722 2.22072 17.4877 2.61878C17.7938 2.75186 17.8512 3.1486 17.6152 3.3846L13.9998 7C13.1714 7.82843 13.1714 9.17157 13.9998 10C14.8283 10.8284 16.1714 10.8284 16.9998 10L20.6152 6.3846C20.8512 6.1486 21.248 6.20606 21.3811 6.51213C21.7791 7.42763 21.9998 8.43804 21.9998 9.5Z" fill="black"/></svg>
