<svg xmlns="http://www.w3.org/2000/svg" viewBox="0 0 24 24" fill="none"><path d="M4 3C3.44772 3 3 3.44772 3 4V10C3 10.5523 3.44772 11 4 11H10C10.5523 11 11 10.5523 11 10V4C11 3.44772 10.5523 3 10 3H4Z" fill="black"/><path d="M18.7071 3.29289C18.3166 2.90237 17.6834 2.90237 17.2929 3.29289L14.2929 6.29289C13.9024 6.68342 13.9024 7.31658 14.2929 7.70711C14.6834 8.09763 15.3166 8.09763 15.7071 7.70711L17 6.41421V17.5858L15.7071 16.2929C15.3166 15.9024 14.6834 15.9024 14.2929 16.2929C13.9024 16.6834 13.9024 17.3166 14.2929 17.7071L17.2929 20.7071C17.6834 21.0976 18.3166 21.0976 18.7071 20.7071L21.7071 17.7071C22.0976 17.3166 22.0976 16.6834 21.7071 16.2929C21.3166 15.9024 20.6834 15.9024 20.2929 16.2929L19 17.5858V6.41421L20.2929 7.70711C20.6834 8.09763 21.3166 8.09763 21.7071 7.70711C22.0976 7.31658 22.0976 6.68342 21.7071 6.29289L18.7071 3.29289Z" fill="black"/><path d="M4 13C3.44772 13 3 13.4477 3 14V20C3 20.5523 3.44772 21 4 21H10C10.5523 21 11 20.5523 11 20V14C11 13.4477 10.5523 13 10 13H4Z" fill="black"/></svg>
