<svg xmlns="http://www.w3.org/2000/svg" viewBox="0 0 24 24" fill="none"><path fill-rule="evenodd" clip-rule="evenodd" d="M7 3C7.55228 3 8 3.44772 8 4V17.5858L9.29289 16.2929C9.68342 15.9024 10.3166 15.9024 10.7071 16.2929C11.0976 16.6834 11.0976 17.3166 10.7071 17.7071L7.70711 20.7071C7.31658 21.0976 6.68342 21.0976 6.29289 20.7071L3.29289 17.7071C2.90237 17.3166 2.90237 16.6834 3.29289 16.2929C3.68342 15.9024 4.31658 15.9024 4.70711 16.2929L6 17.5858V4C6 3.44772 6.44772 3 7 3Z" fill="black"/><path fill-rule="evenodd" clip-rule="evenodd" d="M15.9186 13.7078C16.0471 13.2872 16.4353 13 16.875 13H18.125C18.5647 13 18.9529 13.2872 19.0814 13.7078L20.4527 18.1957L20.9487 19.6838C21.1233 20.2077 20.8402 20.774 20.3162 20.9487C19.7923 21.1233 19.226 20.8402 19.0513 20.3162L18.7792 19.5H16.2208L15.9487 20.3162C15.774 20.8402 15.2077 21.1233 14.6838 20.9487C14.1598 20.774 13.8767 20.2077 14.0513 19.6838L14.5473 18.1957L15.9186 13.7078ZM16.8512 17.5H18.1488L17.5 15.3766L16.8512 17.5Z" fill="black"/><path fill-rule="evenodd" clip-rule="evenodd" d="M14 4C14 3.44772 14.4477 3 15 3H20C20.388 3 20.741 3.22446 20.9056 3.57584C21.0702 3.92723 21.0166 4.3421 20.7682 4.64018L17.135 9H20C20.5523 9 21 9.44772 21 10C21 10.5523 20.5523 11 20 11H15C14.612 11 14.259 10.7755 14.0944 10.4242C13.9298 10.0728 13.9834 9.6579 14.2318 9.35982L17.865 5H15C14.4477 5 14 4.55228 14 4Z" fill="black"/></svg>
