<svg xmlns="http://www.w3.org/2000/svg" viewBox="0 0 24 24" fill="none"><path d="M10 13C10.5523 13 11 13.4477 11 14V20C11 20.5523 10.5523 21 10 21H4C3.44772 21 3 20.5523 3 20V14C3 13.4477 3.44772 13 4 13H10Z" fill="black"/><path d="M17.3691 6.22461C17.7619 5.90426 18.3409 5.92685 18.707 6.29297L22.207 9.79297C22.5976 10.1835 22.5976 10.8165 22.207 11.207C21.8165 11.5976 21.1835 11.5976 20.793 11.207L19 9.41406V17C19 17.5523 18.5523 18 18 18C17.4477 18 17 17.5523 17 17V9.41406L15.207 11.207C14.8165 11.5976 14.1835 11.5976 13.793 11.207C13.4024 10.8165 13.4024 10.1835 13.793 9.79297L17.293 6.29297L17.3691 6.22461Z" fill="black"/><path d="M10 3C10.5523 3 11 3.44772 11 4V10C11 10.5523 10.5523 11 10 11H4C3.44772 11 3 10.5523 3 10V4C3 3.44772 3.44772 3 4 3H10Z" fill="black"/></svg>
