<svg xmlns="http://www.w3.org/2000/svg" viewBox="0 0 24 24" fill="none"><path d="M16 10.0039C17.1046 10.0139 18 10.9093 18 12.0039V14.5C17.9998 15.6044 17.1045 16.5 16 16.5H10.25C9.97386 16.5 9.75 16.7239 9.75 17C9.7498 17.2412 9.52631 17.4232 9.30859 17.3193C8.68275 17.0206 8.25013 16.3821 8.25 15.6426C8.25015 15.0116 8.76162 14.5002 9.39258 14.5H16V11.0039C16 10.7199 15.8816 10.4633 15.6914 10.2812C15.658 10.2492 15.6367 10.2055 15.6367 10.1592C15.6369 10.0735 15.7063 10.0041 15.792 10.0039H16Z" fill="black"/><path fill-rule="evenodd" clip-rule="evenodd" d="M17 3.5C17.5523 3.5 18 3.94772 18 4.5V7.81445C20.6111 8.65809 22.5 11.1081 22.5 14C22.5 17.5899 19.5899 20.5 16 20.5H11.5C8.79617 20.5 6.47866 18.8488 5.49902 16.5H2.5C1.94772 16.5 1.5 16.0523 1.5 15.5V4.5C1.5 3.94772 1.94772 3.5 2.5 3.5H17ZM11.5 9.5C9.01472 9.5 7 11.5147 7 14C7 16.4853 9.01472 18.5 11.5 18.5H16C18.4853 18.5 20.5 16.4853 20.5 14C20.5 11.5147 18.4853 9.5 16 9.5H11.5ZM3.5 14.5H5.02148C5.00892 14.3349 5 14.1683 5 14C5 10.4101 7.91015 7.5 11.5 7.5H16V5.5H3.5V14.5Z" fill="black"/></svg>
