<svg xmlns="http://www.w3.org/2000/svg" viewBox="0 0 24 24" fill="none"><path fill-rule="evenodd" clip-rule="evenodd" d="M3 4C3 3.44772 3.44772 3 4 3H20C20.5523 3 21 3.44772 21 4V20C21 20.5523 20.5523 21 20 21H4C3.44772 21 3 20.5523 3 20V4ZM12 7C9.23858 7 7 9.23858 7 12C7 14.7614 9.23858 17 12 17C13.0188 17 13.967 16.6948 14.7573 16.1715L12.2929 13.7071C11.9024 13.3166 11.9024 12.6834 12.2929 12.2929C12.6834 11.9024 13.3166 11.9024 13.7071 12.2929L16.1715 14.7573C16.6948 13.967 17 13.0188 17 12C17 9.23858 14.7614 7 12 7Z" fill="black"/></svg>
