<svg xmlns="http://www.w3.org/2000/svg" viewBox="0 0 24 24" fill="none"><path fill-rule="evenodd" clip-rule="evenodd" d="M3 7.49992C3 7.13864 3.19486 6.80546 3.50975 6.62834L11.5097 2.12842C11.8142 1.95719 12.1858 1.95719 12.4903 2.12842L20.4903 6.62837C20.8052 6.80549 21 7.13867 21 7.49995V16.4999C21 16.8612 20.8052 17.1944 20.4903 17.3715L12.4902 21.8714C12.1858 22.0427 11.8142 22.0427 11.5098 21.8714L3.50977 17.3718C3.19488 17.1947 3 16.8615 3 16.5002V7.49992ZM8.50003 12C8.50003 10.067 10.067 8.5 12 8.5C13.933 8.5 15.5 10.067 15.5 12C15.5 13.933 13.933 15.5 12 15.5C10.067 15.5 8.50003 13.933 8.50003 12Z" fill="black"/></svg>
