<svg xmlns="http://www.w3.org/2000/svg" viewBox="0 0 24 24" fill="none"><path d="M10 11C10.5523 11 11 10.5523 11 10V4C11 3.44772 10.5523 3 10 3H4C3.44772 3 3 3.44772 3 4V10C3 10.5523 3.44772 11 4 11H10Z" fill="black"/><path d="M17.3691 17.7754C17.7619 18.0957 18.3409 18.0731 18.707 17.707L22.207 14.207C22.5976 13.8165 22.5976 13.1835 22.207 12.793C21.8165 12.4024 21.1835 12.4024 20.793 12.793L19 14.5859V7C19 6.44772 18.5523 6 18 6C17.4477 6 17 6.44772 17 7V14.5859L15.207 12.793C14.8165 12.4024 14.1835 12.4024 13.793 12.793C13.4024 13.1835 13.4024 13.8165 13.793 14.207L17.293 17.707L17.3691 17.7754Z" fill="black"/><path d="M10 21C10.5523 21 11 20.5523 11 20V14C11 13.4477 10.5523 13 10 13H4C3.44772 13 3 13.4477 3 14V20C3 20.5523 3.44772 21 4 21H10Z" fill="black"/></svg>
