<svg xmlns="http://www.w3.org/2000/svg" viewBox="0 0 24 24" fill="none"><path d="M13.8824 8.71286C14.1017 8.54097 14.3852 8.46732 14.6637 8.51364L17.6637 9.01364C17.8691 9.04796 18.0593 9.14565 18.2066 9.29294L20.7066 11.7929C21.0969 12.1834 21.0969 12.8165 20.7066 13.207L12.2066 21.707C11.8162 22.0975 11.1831 22.0974 10.7926 21.707L8.29257 19.207C8.1452 19.0596 8.04754 18.8696 8.01328 18.664L7.51328 15.664C7.4603 15.3456 7.56429 15.0212 7.79257 14.7929L13.7926 8.79294L13.8824 8.71286Z" fill="black"/><path d="M6.733 2.0361C7.07999 1.94027 7.45206 2.03837 7.70663 2.29294L12.2066 6.79294C12.5969 7.1834 12.5969 7.81651 12.2066 8.207L7.20663 13.207C6.81617 13.5975 6.18311 13.5974 5.79257 13.207L4.29257 11.707C4.04425 11.4587 3.94479 11.0985 4.02988 10.7578L6.02988 2.75778L6.07089 2.62985C6.18567 2.34189 6.42937 2.1202 6.733 2.0361Z" fill="black"/></svg>
