<svg xmlns="http://www.w3.org/2000/svg" viewBox="0 0 24 24" fill="none"><path fill-rule="evenodd" clip-rule="evenodd" d="M11.2929 1.79289C11.6834 1.40237 12.3166 1.40237 12.7071 1.79289L22.2071 11.2929C22.3946 11.4804 22.5 11.7347 22.5 12C22.5 12.2652 22.3946 12.5195 22.2071 12.7071L12.7071 22.2071C12.5196 22.3946 12.2652 22.5 12 22.5C11.7348 22.5 11.4804 22.3946 11.2929 22.2071L1.79289 12.7071C1.60536 12.5195 1.5 12.2652 1.5 12C1.5 11.7347 1.60536 11.4804 1.79289 11.2929L11.2929 1.79289ZM9.5 11C8.94772 11 8.5 11.4477 8.5 12C8.5 12.5523 8.94772 13 9.5 13H14.5C15.0523 13 15.5 12.5523 15.5 12C15.5 11.4477 15.0523 11 14.5 11H9.5Z" fill="black"/></svg>
