<svg xmlns="http://www.w3.org/2000/svg" viewBox="0 0 24 24" fill="none"><path d="M17.7071 2.29289C17.3166 1.90237 16.6834 1.90237 16.2929 2.29289L2.29289 16.2929C2.10536 16.4804 2 16.7348 2 17V20C2 20.5523 2.44772 21 3 21H6C6.26522 21 6.51957 20.8946 6.70711 20.7071L20.7071 6.70711C21.0976 6.31658 21.0976 5.68342 20.7071 5.29289L17.7071 2.29289Z" fill="black"/><path d="M21.6709 18.7486C21.6219 18.8011 21.5529 18.8728 21.4662 18.9573C21.2939 19.1253 21.0459 19.3496 20.7409 19.5756C20.16 20.0061 19.2374 20.5444 18.1661 20.5444C17.1605 20.5444 16.2884 20.0806 15.6631 19.748L15.5973 19.713C14.874 19.3291 14.4294 19.115 13.9866 19.115C12.9302 19.115 12.2548 19.6725 11.7268 20.2312C11.3475 20.6326 10.7146 20.6506 10.3132 20.2712C9.91177 19.8919 9.89385 19.259 10.2732 18.8576C10.9266 18.1661 12.0974 17.115 13.9866 17.115C14.9734 17.115 15.8365 17.5746 16.4551 17.904L16.5349 17.9464C17.2522 18.3271 17.7074 18.5444 18.1661 18.5444C18.5947 18.5444 19.089 18.3105 19.5501 17.9688C19.7661 17.8087 19.9453 17.6469 20.07 17.5253C20.1568 17.4407 20.2035 17.3908 20.2444 17.345C20.6008 16.9336 21.2418 16.8875 21.6537 17.2432C22.1297 17.6544 22.0719 18.3188 21.6709 18.7486Z" fill="black"/></svg>
