<svg xmlns="http://www.w3.org/2000/svg" viewBox="0 0 24 24" fill="none"><path d="M4 3C3.44772 3 3 3.44772 3 4V8C3 8.55228 3.44772 9 4 9H5V15H4C3.44772 15 3 15.4477 3 16V20C3 20.5523 3.44772 21 4 21H8C8.55228 21 9 20.5523 9 20V19H10C10.5523 19 11 18.5523 11 18C11 17.4477 10.5523 17 10 17H9V16C9 15.4477 8.55228 15 8 15H7V9H8C8.55228 9 9 8.55228 9 8V7H15V8C15 8.55228 15.4477 9 16 9H17V10C17 10.5523 17.4477 11 18 11C18.5523 11 19 10.5523 19 10V9H20C20.5523 9 21 8.55228 21 8V4C21 3.44772 20.5523 3 20 3H16C15.4477 3 15 3.44772 15 4V5H9V4C9 3.44772 8.55228 3 8 3H4Z" fill="black"/><path fill-rule="evenodd" clip-rule="evenodd" d="M12.2929 12.2929C12.5497 12.0361 12.9255 11.9387 13.2747 12.0385L20.2747 14.0385C20.6659 14.1502 20.9504 14.4879 20.9942 14.8924C21.038 15.2969 20.8323 15.6876 20.4741 15.8805L17.4882 17.4882L15.8805 20.4741C15.6876 20.8323 15.2969 21.038 14.8924 20.9942C14.4879 20.9504 14.1502 20.6659 14.0385 20.2747L12.0385 13.2747C11.9387 12.9255 12.0361 12.5497 12.2929 12.2929ZM14.456 14.456L15.2857 17.3601L15.8695 16.2759C15.9623 16.1036 16.1036 15.9623 16.2759 15.8695L17.3601 15.2857L14.456 14.456Z" fill="black"/></svg>
