<svg xmlns="http://www.w3.org/2000/svg" viewBox="0 0 24 24" fill="none"><path d="M6 4C6 3.44772 6.44772 3 7 3H20C20.5523 3 21 3.44772 21 4V10C21 10.5523 20.5523 11 20 11H7C6.44772 11 6 10.5523 6 10V8H5V12H13C13.5523 12 14 12.4477 14 13V15.1707C15.1652 15.5825 16 16.6938 16 18V21C16 21.5523 15.5523 22 15 22C14.4477 22 14 21.5523 14 21V18C14 17.4477 13.5523 17 13 17C12.4477 17 12 17.4477 12 18V21C12 21.5523 11.5523 22 11 22C10.4477 22 10 21.5523 10 21V18C10 16.6938 10.8348 15.5825 12 15.1707V14H4C3.44772 14 3 13.5523 3 13V7C3 6.44772 3.44772 6 4 6H6V4Z" fill="black"/></svg>
