<svg xmlns="http://www.w3.org/2000/svg" viewBox="0 0 24 24" fill="none"><path d="M10 12C10 10.8954 10.8954 10 12 10C13.1046 10 14 10.8954 14 12C14 13.1046 13.1046 14 12 14C10.8954 14 10 13.1046 10 12Z" fill="black"/><path fill-rule="evenodd" clip-rule="evenodd" d="M11.2929 1.79289C11.6834 1.40237 12.3166 1.40237 12.7071 1.79289L22.2071 11.2929C22.3946 11.4804 22.5 11.7347 22.5 12C22.5 12.2652 22.3946 12.5195 22.2071 12.7071L12.7071 22.2071C12.5196 22.3946 12.2652 22.5 12 22.5C11.7348 22.5 11.4804 22.3946 11.2929 22.2071L1.79289 12.7071C1.60536 12.5195 1.5 12.2652 1.5 12C1.5 11.7347 1.60536 11.4804 1.79289 11.2929L11.2929 1.79289ZM12 8C9.79086 8 8 9.79086 8 12C8 14.2091 9.79086 16 12 16C14.2091 16 16 14.2091 16 12C16 9.79086 14.2091 8 12 8Z" fill="black"/></svg>
