<svg xmlns="http://www.w3.org/2000/svg" viewBox="0 0 24 24" fill="none"><path fill-rule="evenodd" clip-rule="evenodd" d="M19.7071 1.29289C19.3166 0.902369 18.6834 0.902369 18.2929 1.29289L12.2929 7.29289C12.1054 7.48043 12 7.73478 12 8V11C12 11.5523 12.4477 12 13 12H16C16.2652 12 16.5196 11.8946 16.7071 11.7071L22.7071 5.70711C23.0976 5.31658 23.0976 4.68342 22.7071 4.29289L19.7071 1.29289ZM14 10V8.41421L19 3.41421L20.5858 5L15.5858 10H14Z" fill="black"/><path d="M4 3H13.7574L10.8787 5.87868C10.3161 6.44129 10 7.20435 10 8V11C10 12.6569 11.3431 14 13 14H16C16.7957 14 17.5587 13.6839 18.1213 13.1213L21 10.2426V20C21 20.5523 20.5523 21 20 21H4C3.44772 21 3 20.5523 3 20V4C3 3.44772 3.44772 3 4 3Z" fill="black"/></svg>
