<svg xmlns="http://www.w3.org/2000/svg" viewBox="0 0 24 24" fill="none"><path fill-rule="evenodd" clip-rule="evenodd" d="M21.9969 2.99994C21.9969 2.44904 21.5504 2.00244 20.9994 2.00244H16.9994C16.4485 2.00244 16.0019 2.44904 16.0019 2.99994V6.99994C16.0019 7.55085 16.4485 7.99744 16.9994 7.99744H20.9994C21.5504 7.99744 21.9969 7.55085 21.9969 6.99994V2.99994ZM17.9969 3.99744L20.0019 3.99744V6.00244H17.9969V3.99744Z" fill="black"/><path fill-rule="evenodd" clip-rule="evenodd" d="M7.17278 6.9306C7.17346 6.92992 7.17413 6.92925 7.17481 6.92858L10.0012 4.10221C10.3908 3.71267 11.0224 3.71267 11.4119 4.10222L13.8868 6.57709C14.0738 6.76416 14.1789 7.01788 14.1789 7.28244C14.1789 7.54699 14.0738 7.80071 13.8868 7.98778L11.0584 10.8161C11.0577 10.8168 11.057 10.8175 11.0563 10.8182L8.93703 12.9375C8.35027 13.5243 8.35026 14.4756 8.93703 15.0624C9.52379 15.6491 10.4751 15.6491 11.0619 15.0624L13.1832 12.9411C13.1839 12.9404 13.1847 12.9396 13.1854 12.9389L16.0116 10.1126C16.1987 9.92556 16.4524 9.82047 16.717 9.82047C16.9815 9.82047 17.2352 9.92556 17.4223 10.1126L19.8972 12.5875C20.2867 12.977 20.2867 13.6086 19.8972 13.9982L17.0688 16.8266C17.0679 16.8275 17.0671 16.8283 17.0663 16.8291L14.9474 18.9479C13.5813 20.3141 11.7887 20.9974 9.99945 20.9974C8.21018 20.9974 6.41763 20.3141 5.05147 18.9479C2.31878 16.2152 2.31878 11.7847 5.05146 9.05197L7.17278 6.9306ZM9.28882 7.63594L10.353 8.70014L11.7707 7.28243L10.7066 6.21823L9.28882 7.63594ZM16.3634 14.7106L17.7812 13.2928L16.717 12.2287L15.2992 13.6464L16.3634 14.7106Z" fill="black"/></svg>
