<svg xmlns="http://www.w3.org/2000/svg" viewBox="0 0 24 24" fill="none"><path fill-rule="evenodd" clip-rule="evenodd" d="M2 3C2 2.44772 2.44772 2 3 2H12C12.5293 2 12.9626 2.41124 12.9977 2.93164L12.9993 2.93257L18.6458 6.19257C18.8755 6.32518 19.0431 6.54359 19.1117 6.79977C19.1744 7.0338 19.1499 7.28182 19.0441 7.49807L19.0452 7.5L22.3055 13.147C22.5816 13.6253 22.4177 14.2369 21.9395 14.513L11.5001 20.5402C10.2562 21.2584 9.0182 22 7.5 22C4.46243 22 2 19.5376 2 16.5V3ZM13.5253 17.0616L20.0734 13.281L17.8907 9.50041L13.5253 17.0616ZM16.7798 7.42462L13 5.24237V13.9714L16.7798 7.42462ZM6 16.5C6 15.6716 6.67157 15 7.5 15C8.32843 15 9 15.6716 9 16.5C9 17.3284 8.32843 18 7.5 18C6.67157 18 6 17.3284 6 16.5Z" fill="black"/></svg>
