<svg xmlns="http://www.w3.org/2000/svg" viewBox="0 0 24 24" fill="none"><path fill-rule="evenodd" clip-rule="evenodd" d="M3 4C3 3.44772 3.44772 3 4 3H11C11.5523 3 12 3.44772 12 4C12 4.55228 11.5523 5 11 5H5V19H19V13C19 12.4477 19.4477 12 20 12C20.5523 12 21 12.4477 21 13V20C21 20.5523 20.5523 21 20 21H4C3.44772 21 3 20.5523 3 20V4Z" fill="black"/><path d="M18.7071 2.29289C18.3166 1.90237 17.6834 1.90237 17.2929 2.29289L8.29289 11.2929C8.10536 11.4804 8 11.7348 8 12V15C8 15.5523 8.44772 16 9 16H12C12.2652 16 12.5196 15.8946 12.7071 15.7071L21.7071 6.70711C22.0976 6.31658 22.0976 5.68342 21.7071 5.29289L18.7071 2.29289Z" fill="black"/></svg>
