<svg xmlns="http://www.w3.org/2000/svg" viewBox="0 0 24 24" fill="none"><path d="M15.4936 16.6921L14.0537 19H20C20.5523 19 21 19.4477 21 20C21 20.5523 20.5523 21 20 21H4C3.44772 21 3 20.5523 3 20V17.9991C3 17.8225 3.04695 17.6488 3.13574 17.4961L6.61962 11.5544L15.4936 16.6921Z" fill="black"/><path d="M21.25 7.62345C21.7323 7.90179 21.8944 8.5205 21.6104 8.99952L18.1771 14.791C17.8975 15.2626 17.2903 15.4211 16.8158 15.1464L7.3255 9.65212C6.84426 9.37352 6.68274 8.75583 6.96599 8.27731L10.3878 2.49659C10.6669 2.02504 11.2736 1.86596 11.7482 2.13986L21.25 7.62345Z" fill="black"/></svg>
