<svg xmlns="http://www.w3.org/2000/svg" viewBox="0 0 24 24" fill="none"><path fill-rule="evenodd" clip-rule="evenodd" d="M6.22304 2.3753C6.41281 2.13809 6.70012 2 7.00391 2H8.00391C8.30769 2 8.595 2.13809 8.78477 2.3753L10.7848 4.87531C10.9266 5.05262 11.0039 5.27293 11.0039 5.5V10H12V3C12 2.44772 12.4477 2 13 2H19C19.5523 2 20 2.44772 20 3V10H21C21.5523 10 22 10.4477 22 11V20C22 20.5523 21.5523 21 21 21H3C2.44772 21 2 20.5523 2 20V11C2 10.4477 2.44772 10 3 10H4.00391V5.5C4.00391 5.27293 4.08119 5.05262 4.22304 4.87531L6.22304 2.3753ZM6.00391 10H9.00391V5.85078L7.52328 4H7.48453L6.00391 5.85078V10ZM18 10V4H14V6H15.0039C15.5562 6 16.0039 6.44772 16.0039 7C16.0039 7.55228 15.5562 8 15.0039 8H14V10H18Z" fill="black"/></svg>
