<svg xmlns="http://www.w3.org/2000/svg" viewBox="0 0 24 24" fill="none"><path d="M11.0224 4.61172L8.3153 2.4122C7.98854 2.14671 7.5 2.37924 7.5 2.80026V3.99978H3C2.44772 3.99978 2 4.44749 2 4.99978V18.9998C2 19.5521 2.44772 19.9998 3 19.9998H9C9.55228 19.9998 10 19.5521 10 18.9998C10 18.4475 9.55228 17.9998 9 17.9998H4V5.99978H7.5V7.19929C7.5 7.62031 7.98854 7.85284 8.3153 7.58735L11.0224 5.38783C11.2687 5.18774 11.2687 4.81182 11.0224 4.61172Z" fill="black"/><path d="M12.9776 18.6117L15.6847 16.4122C16.0115 16.1467 16.5 16.3792 16.5 16.8003V17.9998H20V11.9998C20 11.4475 20.4477 10.9998 21 10.9998C21.5523 10.9998 22 11.4475 22 11.9998V18.9998C22 19.5521 21.5523 19.9998 21 19.9998H16.5V21.1993C16.5 21.6203 16.0115 21.8528 15.6847 21.5873L12.9776 19.3878C12.7313 19.1877 12.7313 18.8118 12.9776 18.6117Z" fill="black"/><path d="M19.7071 2.70698C19.3166 2.31645 18.6834 2.31645 18.2929 2.70698L16.9571 4.04276L19.9571 7.04276L21.2929 5.70698C21.6834 5.31645 21.6834 4.68329 21.2929 4.29276L19.7071 2.70698Z" fill="black"/><path d="M9.29289 11.707L15.5429 5.45698L18.5429 8.45698L12.2929 14.707C12.1054 14.8945 11.851 14.9999 11.5858 14.9999H9.5C9.22386 14.9999 9 14.776 9 14.4999V12.4141C9 12.1489 9.10536 11.8945 9.29289 11.707Z" fill="black"/></svg>
