<svg xmlns="http://www.w3.org/2000/svg" viewBox="0 0 24 24" fill="none"><path fill-rule="evenodd" clip-rule="evenodd" d="M16.3903 1.20739C16.7884 0.901136 17.3519 0.937732 17.7071 1.2929L22.7071 6.2929C23.0623 6.64807 23.0989 7.2116 22.7926 7.60972L12.7926 20.6097C12.6172 20.8378 12.352 20.9793 12.0648 20.9979C11.7776 21.0166 11.4964 20.9106 11.2929 20.7071L10.4692 19.8834C10.3989 19.9206 10.3231 19.95 10.2425 19.9702C8.46408 20.4148 7.11696 21.2973 5.70711 22.7071C5.31658 23.0976 4.68342 23.0976 4.29289 22.7071L1.29289 19.7071C0.902369 19.3166 0.902369 18.6834 1.29289 18.2929C2.60527 16.9805 3.51546 15.214 3.99174 13.406L3.29289 12.7071C3.08941 12.5036 2.98345 12.2224 3.0021 11.9352C3.02075 11.648 3.1622 11.3828 3.39029 11.2074L16.3903 1.20739ZM5.5912 15.0054C5.09658 16.4124 4.36326 17.786 3.38136 18.9672L5.01934 20.6051C6.17324 19.576 7.39768 18.7934 8.87528 18.2895L5.5912 15.0054Z" fill="black"/></svg>
