<svg xmlns="http://www.w3.org/2000/svg" viewBox="0 0 24 24" fill="none"><path fill-rule="evenodd" clip-rule="evenodd" d="M2 14C2 14.5523 2.44772 15 3 15H4.58179C5.39363 17.0059 6.99418 18.6064 9.00003 19.4182L9.00003 21C9.00003 21.5523 9.44775 22 10 22H14C14.5523 22 15 21.5523 15 21V19.4182C17.0059 18.6063 18.6064 17.0058 19.4182 15H21C21.5523 15 22 14.5523 22 14V10C22 9.44771 21.5523 9 21 9H19.4182C18.6064 6.99416 17.0058 5.39363 15 4.5818V3C15 2.44772 14.5523 2 14 2H10C9.44772 2 9 2.44772 9 3V4.58179C6.99416 5.39363 5.39363 6.99416 4.58179 9H3C2.44772 9 2 9.44771 2 10V14ZM9.00003 17.1975C8.08928 16.6705 7.32952 15.9107 6.80252 15H7C7.55228 15 8 14.5523 8 14V10C8 9.44771 7.55228 9 7 9H6.80252C7.32951 8.08927 8.08927 7.32951 9 6.80252V7C9 7.55229 9.44772 8 10 8L14 8C14.5523 8 15 7.55228 15 7V6.80252C15.9107 7.32952 16.6705 8.08927 17.1975 9H17C16.4477 9 16 9.44771 16 10V14C16 14.5523 16.4477 15 17 15H17.1975C16.6705 15.9107 15.9107 16.6705 15 17.1975V17C15 16.4477 14.5523 16 14 16H10C9.44775 16 9.00003 16.4477 9.00003 17V17.1975Z" fill="black"/></svg>
