<svg xmlns="http://www.w3.org/2000/svg" viewBox="0 0 24 24" fill="none"><path fill-rule="evenodd" clip-rule="evenodd" d="M18.7934 13.8348C19.1839 14.2253 19.8171 14.2253 20.2076 13.8348L22.7076 11.3348C22.8951 11.1472 23.0005 10.8929 23.0005 10.6277C23.0005 10.3625 22.8951 10.1081 22.7076 9.92057L14.2223 1.43529C13.8318 1.04476 13.1986 1.04476 12.8081 1.43529L10.3081 3.93528C10.1206 4.12281 10.0152 4.37717 10.0152 4.64238C10.0152 4.9076 10.1206 5.16195 10.3081 5.34949L10.7076 5.74899L4.01082 8.83478C3.69699 8.97939 3.48006 9.27577 3.43708 9.61862L2.05078 20.678L8.06812 14.6607C8.02393 14.4954 8.00037 14.3218 8.00037 14.1426C8.00037 13.038 8.8958 12.1426 10.0004 12.1426C11.1049 12.1426 12.0004 13.038 12.0004 14.1426C12.0004 15.2472 11.1049 16.1426 10.0004 16.1426C9.82122 16.1426 9.64757 16.119 9.48236 16.0749L3.46793 22.0893L14.4601 20.6338C14.7964 20.5893 15.0872 20.3773 15.2325 20.0707L18.3823 13.4237L18.7934 13.8348ZM20.5863 10.6277L19.5005 11.7135L12.4294 4.64239L13.5152 3.55661L20.5863 10.6277Z" fill="black"/></svg>
