<svg xmlns="http://www.w3.org/2000/svg" viewBox="0 0 24 24" fill="none"><path d="M10 11C9.44772 11 9 11.4477 9 12C9 12.5523 9.44772 13 10 13H14C14.5523 13 15 12.5523 15 12C15 11.4477 14.5523 11 14 11H10Z" fill="black"/><path fill-rule="evenodd" clip-rule="evenodd" d="M3 4C3 3.44772 3.44772 3 4 3H8C8.55228 3 9 3.44772 9 4V5H15V4C15 3.44772 15.4477 3 16 3H20C20.5523 3 21 3.44772 21 4V8C21 8.55228 20.5523 9 20 9H19V15H20C20.5523 15 21 15.4477 21 16V20C21 20.5523 20.5523 21 20 21H16C15.4477 21 15 20.5523 15 20V19H9V20C9 20.5523 8.55228 21 8 21H4C3.44772 21 3 20.5523 3 20V16C3 15.4477 3.44772 15 4 15H5V9H4C3.44772 9 3 8.55228 3 8V4ZM7 9V15H8C8.55228 15 9 15.4477 9 16V17H15V16C15 15.4477 15.4477 15 16 15H17V9H16C15.4477 9 15 8.55228 15 8V7H9V8C9 8.55228 8.55228 9 8 9H7Z" fill="black"/></svg>
