<svg xmlns="http://www.w3.org/2000/svg" viewBox="0 0 24 24" fill="none"><path d="M10 4C9.44771 4 9 4.44772 9 5V6H4.73244C4.38663 5.4022 3.74028 5 3 5C1.89543 5 1 5.89543 1 7C1 8.10457 1.89543 9 3 9C3.74028 9 4.38663 8.5978 4.73244 8H6.34287C4.5476 9.45248 3.32218 11.5815 3.05491 14H2C1.44772 14 1 14.4477 1 15V19C1 19.5523 1.44772 20 2 20H6C6.55228 20 7 19.5523 7 19V15C7 14.4477 6.55228 14 6 14H5.0709C5.40839 11.6409 6.92234 9.66019 9 8.67322V9C9 9.55228 9.44771 10 10 10H14C14.5523 10 15 9.55228 15 9V8.67322C17.0777 9.66019 18.5916 11.6409 18.9291 14H18C17.4477 14 17 14.4477 17 15V19C17 19.5523 17.4477 20 18 20H22C22.5523 20 23 19.5523 23 19V15C23 14.4477 22.5523 14 22 14H20.9451C20.6778 11.5815 19.4524 9.45248 17.6571 8H19.2676C19.6134 8.5978 20.2597 9 21 9C22.1046 9 23 8.10457 23 7C23 5.89543 22.1046 5 21 5C20.2597 5 19.6134 5.4022 19.2676 6H15V5C15 4.44772 14.5523 4 14 4H10Z" fill="black"/></svg>
