<svg xmlns="http://www.w3.org/2000/svg" viewBox="0 0 24 24" fill="none"><path fill-rule="evenodd" clip-rule="evenodd" d="M16.7929 13.4596C17.8278 12.4247 19.5056 12.4247 20.5404 13.4596C21.5753 14.4944 21.5753 16.1722 20.5404 17.2071L17.0404 20.7071C16.8529 20.8946 16.5986 21 16.3333 21H14C13.4477 21 13 20.5523 13 20V17.6667C13 17.4014 13.1054 17.1471 13.2929 16.9596L16.7929 13.4596Z" fill="black"/><path d="M4 3C3.44772 3 3 3.44772 3 4V8C3 8.55228 3.44772 9 4 9H5V15H4C3.44772 15 3 15.4477 3 16V20C3 20.5523 3.44772 21 4 21H8C8.55228 21 9 20.5523 9 20V19H10C10.5523 19 11 18.5523 11 18C11 17.4477 10.5523 17 10 17H9V16C9 15.4477 8.55228 15 8 15H7V9H8C8.55228 9 9 8.55228 9 8V7H15V8C15 8.55228 15.4477 9 16 9H17V10C17 10.5523 17.4477 11 18 11C18.5523 11 19 10.5523 19 10V9H20C20.5523 9 21 8.55228 21 8V4C21 3.44772 20.5523 3 20 3H16C15.4477 3 15 3.44772 15 4V5H9V4C9 3.44772 8.55228 3 8 3H4Z" fill="black"/></svg>
