<svg xmlns="http://www.w3.org/2000/svg" viewBox="0 0 24 24" fill="none"><path d="M15.7929 2.29289C16.1834 1.90237 16.8166 1.90237 17.2071 2.29289L21.7071 6.79289C22.0976 7.18342 22.0976 7.81658 21.7071 8.20711L8.20711 21.7071C8.01957 21.8946 7.76522 22 7.5 22H3C2.44772 22 2 21.5523 2 21V16.5C2 16.2348 2.10536 15.9804 2.29289 15.7929L15.7929 2.29289Z" fill="black"/><path d="M14 20C13.4477 20 13 20.4477 13 21C13 21.5523 13.4477 22 14 22H21C21.5523 22 22 21.5523 22 21C22 20.4477 21.5523 20 21 20H14Z" fill="black"/></svg>
