<svg xmlns="http://www.w3.org/2000/svg" viewBox="0 0 24 24" fill="none"><path d="M8.99992 4C9.26506 4.00006 9.51947 4.10549 9.70696 4.29297L16.707 11.293C17.0973 11.6835 17.0973 12.3165 16.707 12.707L9.70696 19.707C9.51947 19.8945 9.26506 19.9999 8.99992 20C8.73476 20 8.48042 19.8945 8.29289 19.707L1.29289 12.707C0.902369 12.3165 0.902369 11.6835 1.29289 11.293L8.29289 4.29297L8.36614 4.22656C8.54407 4.0808 8.76789 4 8.99992 4Z" fill="black"/><path d="M14.9999 4C15.265 4.00008 15.5195 4.1055 15.707 4.29297L22.707 11.293C23.0973 11.6835 23.0973 12.3165 22.707 12.707L15.707 19.707C15.5195 19.8945 15.265 19.9999 14.9999 20C14.7348 20 14.4804 19.8945 14.2929 19.707L12.9999 18.4141L18.707 12.707C19.0973 12.3165 19.0973 11.6835 18.707 11.293L12.9999 5.58594L14.2929 4.29297L14.3661 4.22656C14.5441 4.08082 14.7679 4 14.9999 4Z" fill="black"/></svg>
