<svg xmlns="http://www.w3.org/2000/svg" viewBox="0 0 24 24" fill="none"><path d="M12.7071 1.54289C12.3166 1.15237 11.6834 1.15237 11.2929 1.54289L7.79289 5.04289C7.40237 5.43342 7.40237 6.06658 7.79289 6.45711L11.2929 9.95711C11.6834 10.3476 12.3166 10.3476 12.7071 9.95711L16.2071 6.45711C16.5976 6.06658 16.5976 5.43342 16.2071 5.04289L12.7071 1.54289Z" fill="black"/><path d="M6.45711 7.79289C6.06658 7.40237 5.43342 7.40237 5.04289 7.79289L1.54289 11.2929C1.15237 11.6834 1.15237 12.3166 1.54289 12.7071L5.04289 16.2071C5.43342 16.5976 6.06658 16.5976 6.45711 16.2071L9.95711 12.7071C10.3476 12.3166 10.3476 11.6834 9.95711 11.2929L6.45711 7.79289Z" fill="black"/><path d="M18.9571 7.79289C18.5666 7.40237 17.9334 7.40237 17.5429 7.79289L14.0429 11.2929C13.6524 11.6834 13.6524 12.3166 14.0429 12.7071L17.5429 16.2071C17.9334 16.5976 18.5666 16.5976 18.9571 16.2071L22.4571 12.7071C22.8476 12.3166 22.8476 11.6834 22.4571 11.2929L18.9571 7.79289Z" fill="black"/><path d="M12.7071 14.0429C12.3166 13.6524 11.6834 13.6524 11.2929 14.0429L7.79289 17.5429C7.40237 17.9334 7.40237 18.5666 7.79289 18.9571L11.2929 22.4571C11.6834 22.8476 12.3166 22.8476 12.7071 22.4571L16.2071 18.9571C16.5976 18.5666 16.5976 17.9334 16.2071 17.5429L12.7071 14.0429Z" fill="black"/></svg>
