<svg xmlns="http://www.w3.org/2000/svg" viewBox="0 0 24 24" fill="none"><path d="M19.9507 16.2625C20.1229 16.1043 20.3791 16.1042 20.5513 16.2625C21.1642 16.8257 22.5005 18.2131 22.5005 19.6004C22.5004 20.9257 21.4931 21.9998 20.2505 21.9998C19.0081 21.9996 18.0006 20.9256 18.0005 19.6004C18.0005 18.213 19.3379 16.8257 19.9507 16.2625Z" fill="black"/><path d="M10.5571 1.87283C10.8443 1.85418 11.1271 1.96035 11.3306 2.16384L21.23 12.0633C21.4333 12.2668 21.5387 12.5487 21.52 12.8357C21.501 13.1229 21.3587 13.3891 21.1304 13.5642L11.1958 21.1609C9.6034 22.3786 7.35466 22.2296 5.93702 20.8123L2.58156 17.4568C1.16394 16.0392 1.0151 13.7906 2.23292 12.198L3.7798 10.1736L10.2144 13.2224C10.7133 13.4587 11.3099 13.2457 11.5464 12.7469C11.7613 12.2922 11.6021 11.7574 11.1948 11.4871L2.57277 7.4031C2.07397 7.16657 1.86092 6.57101 2.09718 6.07205C2.33352 5.5731 2.92922 5.36043 3.42823 5.59646L6.25538 6.93533L9.82863 2.26345C10.0037 2.035 10.27 1.89201 10.5571 1.87283Z" fill="black"/></svg>
