<svg xmlns="http://www.w3.org/2000/svg" viewBox="0 0 24 24" fill="none"><path fill-rule="evenodd" clip-rule="evenodd" d="M22 12C22 17.5228 17.5228 22 12 22C6.47715 22 2 17.5228 2 12C2 6.47715 6.47715 2 12 2C17.5228 2 22 6.47715 22 12ZM6.50305 17.8124C7.05507 17.1064 7.4486 16.4514 7.75401 15.6927C7.91734 15.2869 8.29782 15 8.73521 15H15.2648C15.7022 15 16.0827 15.2869 16.246 15.6927C16.5514 16.4514 16.9449 17.1063 17.4969 17.8124C16.0636 19.1684 14.1289 20 12 20C9.87107 20 7.93641 19.1684 6.50305 17.8124ZM9 13V10.7808C9 10.3219 9.3123 9.92193 9.75746 9.81063L13.7575 8.81063C14.3886 8.65285 15 9.13021 15 9.78078V13H9Z" fill="black"/></svg>
