<svg xmlns="http://www.w3.org/2000/svg" viewBox="0 0 24 24" fill="none"><path fill-rule="evenodd" clip-rule="evenodd" d="M11.499 1.88397C11.8084 1.70534 12.1896 1.70534 12.499 1.88397L20.5098 6.50897C20.8192 6.68761 21.0098 7.01773 21.0098 7.375V16.625C21.0098 16.9823 20.8192 17.3124 20.5098 17.491L12.499 22.116C12.1896 22.2947 11.8084 22.2947 11.499 22.116L3.48828 17.491C3.17888 17.3124 2.98828 16.9823 2.98828 16.625V7.375C2.98828 7.01773 3.17888 6.68761 3.48828 6.50897L11.499 1.88397ZM11.999 14.5C13.3797 14.5 14.499 13.3807 14.499 12C14.499 10.6193 13.3797 9.5 11.999 9.5C10.6183 9.5 9.49902 10.6193 9.49902 12C9.49902 13.3807 10.6183 14.5 11.999 14.5Z" fill="black"/></svg>
