<svg xmlns="http://www.w3.org/2000/svg" viewBox="0 0 24 24" fill="none"><path d="M19.2071 3.79289C18.8166 3.40237 18.1834 3.40237 17.7929 3.79289L7.29289 14.2929C7.10536 14.4804 7 14.7348 7 15V19C7 19.5523 7.44772 20 8 20H12C12.2652 20 12.5196 19.8946 12.7071 19.7071L23.2071 9.20711C23.5976 8.81658 23.5976 8.18342 23.2071 7.79289L19.2071 3.79289Z" fill="black"/><path d="M2 5C1.44772 5 1 5.44772 1 6C1 6.55228 1.44772 7 2 7H9C9.55228 7 10 6.55228 10 6C10 5.44772 9.55228 5 9 5H2Z" fill="black"/><path d="M2 9C1.44772 9 1 9.44772 1 10C1 10.5523 1.44772 11 2 11H6C6.55228 11 7 10.5523 7 10C7 9.44772 6.55228 9 6 9H2Z" fill="black"/></svg>
