<svg xmlns="http://www.w3.org/2000/svg" viewBox="0 0 24 24" fill="none"><path d="M15.2929 1.29289C15.6834 0.902369 16.3166 0.902369 16.7071 1.29289L22.7071 7.29289C23.0976 7.68342 23.0976 8.31658 22.7071 8.70711L8.70711 22.7071C8.31658 23.0976 7.68342 23.0976 7.29289 22.7071L1.29289 16.7071C0.902369 16.3166 0.902369 15.6834 1.29289 15.2929L4.08579 12.5L6.04289 14.4571C6.43342 14.8476 7.06658 14.8476 7.45711 14.4571C7.84763 14.0666 7.84763 13.4334 7.45711 13.0429L5.5 11.0858L7.58579 9L10.5429 11.9571C10.9334 12.3476 11.5666 12.3476 11.9571 11.9571C12.3476 11.5666 12.3476 10.9334 11.9571 10.5429L9 7.58579L11.0858 5.5L13.0429 7.45711C13.4334 7.84763 14.0666 7.84763 14.4571 7.45711C14.8476 7.06658 14.8476 6.43342 14.4571 6.04289L12.5 4.08579L15.2929 1.29289Z" fill="black"/></svg>
