<svg xmlns="http://www.w3.org/2000/svg" viewBox="0 0 24 24" fill="none"><path fill-rule="evenodd" clip-rule="evenodd" d="M12.7927 1.79283C13.1833 1.40231 13.8164 1.40231 14.207 1.79283L18.207 5.79283C18.3945 5.98037 18.4999 6.23472 18.4999 6.49994L18.4999 7.49994L19.4999 7.49994C19.7651 7.49994 20.0194 7.60529 20.207 7.79283L22.207 9.79283C22.5975 10.1834 22.5975 10.8165 22.207 11.207L17.2071 16.207C17.2047 16.2094 17.2024 16.2117 17.2 16.214L14.2069 19.2072C14.0193 19.3948 13.7649 19.5001 13.4996 19.5001C13.2343 19.5 12.9799 19.3945 12.7924 19.2069L12.4149 18.829C11.6339 18.0473 10.367 18.047 9.58571 18.8284L6.20768 22.2066C5.81721 22.5971 5.18412 22.5972 4.79357 22.2068L1.79302 19.2073C1.60543 19.0198 1.50003 18.7654 1.5 18.5002C1.49997 18.235 1.60532 17.9806 1.79287 17.793L5.17152 14.4141C5.95281 13.6328 5.95246 12.3659 5.17075 11.585L4.79307 11.2077C4.60538 11.0202 4.49989 10.7658 4.49982 10.5005C4.49975 10.2352 4.6051 9.98078 4.7927 9.79318L7.78214 6.8036C7.78564 6.79999 7.78918 6.7964 7.79274 6.79283L12.7927 1.79283ZM15.0857 15.4999L8.49995 8.91424L6.89534 10.5189C8.13979 12.0889 8.03674 14.3772 6.58578 15.8283L3.91432 18.4999L5.50039 20.0854L8.17145 17.4142C9.62252 15.963 11.9111 15.8599 13.4811 17.1045L15.0857 15.4999Z" fill="black"/></svg>
