<svg xmlns="http://www.w3.org/2000/svg" viewBox="0 0 24 24" fill="none"><path d="M18.7067 2.29289C18.5192 2.10536 18.2648 2 17.9996 2C17.7344 2 17.48 2.10536 17.2925 2.2929L13.7854 5.79998C10.3895 3.79041 6.33541 3.44241 3.88873 5.88909C2.31808 7.45974 1.90595 9.73386 2.33048 11.998C2.75608 14.2678 4.03118 16.6381 6.01005 18.617C7.20752 19.8145 8.49446 20.6458 9.55254 21.18C10.0821 21.4473 10.5625 21.6444 10.9562 21.777C11.3068 21.8951 11.6967 22 11.9996 22C12.5519 22 12.9996 21.5523 12.9996 21C12.9996 20.4478 12.5519 20 11.9996 20C12.0179 20 12.0158 19.9996 11.991 19.9942C11.9443 19.9841 11.8169 19.9565 11.5946 19.8816C11.2978 19.7816 10.905 19.6223 10.4539 19.3946C9.5506 18.9386 8.4463 18.2248 7.42426 17.2028C5.69316 15.4717 4.63839 13.4543 4.29622 11.6294C3.95298 9.7988 4.33519 8.27106 5.30294 7.3033C6.72865 5.8776 9.46289 5.73499 12.3189 7.26652L10.2925 9.29291C10.105 9.48044 9.99964 9.73479 9.99964 10V13C9.99964 13.5523 10.4474 14 10.9996 14H14.017C14.2826 14 14.5374 13.8943 14.725 13.7062L16.9919 11.4337C18.0283 12.7604 18.718 14.0187 18.9981 15.0883C19.3215 16.3234 19.0807 17.1545 18.3749 17.7191C17.9278 18.0769 17.4104 18.1039 16.7273 17.8217C16.0153 17.5276 15.2921 16.9507 14.7117 16.3901C14.3145 16.0064 13.6814 16.0174 13.2977 16.4146C12.914 16.8119 12.925 17.4449 13.3222 17.8286C13.9666 18.4511 14.9054 19.233 15.9638 19.6702C17.0511 20.1194 18.4127 20.2502 19.6243 19.2809C21.1329 18.074 21.3883 16.3207 20.9328 14.5816C20.545 13.1007 19.631 11.5278 18.4141 10.0079L21.7076 6.70623C22.0973 6.31556 22.0969 5.68307 21.7067 5.29289L18.7067 2.29289Z" fill="black"/></svg>
