<svg xmlns="http://www.w3.org/2000/svg" viewBox="0 0 24 24" fill="none"><path d="M18.7071 2.29289C18.3166 1.90237 17.6834 1.90237 17.2929 2.29289L11.2929 8.29289C11.1054 8.48043 11 8.73478 11 9V12C11 12.2653 11.1054 12.5196 11.2929 12.7071C11.4804 12.8947 11.7348 13 12 13L15 13C15.2652 13 15.5196 12.8947 15.7071 12.7071L21.7071 6.70705C21.8946 6.51951 22 6.26515 22 5.99994C22 5.73472 21.8946 5.48037 21.7071 5.29283L18.7071 2.29289Z" fill="black"/><path d="M6 11C4.34315 11 3 12.3431 3 14C3 15.6569 4.34315 17 6 17H16C16.5523 17 17 17.4477 17 18C17 18.5523 16.5523 19 16 19H12C11.4477 19 11 19.4477 11 20C11 20.5523 11.4477 21 12 21H16C17.6569 21 19 19.6569 19 18C19 16.3431 17.6569 15 16 15H6C5.44772 15 5 14.5523 5 14C5 13.4477 5.44772 13 6 13H8C8.55228 13 9 12.5523 9 12C9 11.4477 8.55228 11 8 11H6Z" fill="black"/></svg>
