<svg xmlns="http://www.w3.org/2000/svg" viewBox="0 0 24 24" fill="none"><path fill-rule="evenodd" clip-rule="evenodd" d="M9 2C8.44772 2 8 2.44772 8 3V8H3C2.44772 8 2 8.44772 2 9V21C2 21.5523 2.44772 22 3 22H15C15.5523 22 16 21.5523 16 21V16H21C21.5523 16 22 15.5523 22 15V3C22 2.44772 21.5523 2 21 2H9ZM13 15C13 15.5523 12.5523 16 12 16H9C8.44772 16 8 15.5523 8 15V12C8 11.4477 8.44772 11 9 11C9.55228 11 10 11.4477 10 12V14H12C12.5523 14 13 14.4477 13 15ZM12 8C11.4477 8 11 8.44771 11 9C11 9.55229 11.4477 10 12 10H14V12C14 12.5523 14.4477 13 15 13C15.5523 13 16 12.5523 16 12V9C16 8.44771 15.5523 8 15 8H12Z" fill="black"/></svg>
