<svg xmlns="http://www.w3.org/2000/svg" viewBox="0 0 24 24" fill="none"><path d="M19.7071 1.29289C19.3166 0.902369 18.6834 0.902369 18.2929 1.29289L12.2929 7.29289C12.1054 7.48043 12 7.73478 12 8V11C12 11.5523 12.4477 12 13 12H16C16.2652 12 16.5196 11.8946 16.7071 11.7071L22.7071 5.70711C23.0976 5.31658 23.0976 4.68342 22.7071 4.29289L19.7071 1.29289Z" fill="black"/><path d="M3 4C3 3.44772 3.44772 3 4 3H11C11.5523 3 12 3.44772 12 4C12 4.55228 11.5523 5 11 5H5V19H19V13C19 12.4477 19.4477 12 20 12C20.5523 12 21 12.4477 21 13V20C21 20.5523 20.5523 21 20 21H4C3.44772 21 3 20.5523 3 20V4Z" fill="black"/></svg>
