<svg xmlns="http://www.w3.org/2000/svg" viewBox="0 0 24 24" fill="none"><path d="M9.52239 4.61172L6.8153 2.4122C6.48854 2.14671 6 2.37924 6 2.80026V3.99978H3C2.44772 3.99978 2 4.44749 2 4.99978V18.9998C2 19.5521 2.44772 19.9998 3 19.9998H11C11.5523 19.9998 12 19.5521 12 18.9998C12 18.4475 11.5523 17.9998 11 17.9998H4V5.99978H6V7.19929C6 7.62031 6.48854 7.85284 6.8153 7.58735L9.52239 5.38783C9.76866 5.18774 9.76866 4.81182 9.52239 4.61172Z" fill="black"/><path d="M13 3.99978C12.4477 3.99978 12 4.44749 12 4.99978C12 5.55206 12.4477 5.99978 13 5.99978H20V17.9998H18V16.8003C18 16.3792 17.5115 16.1467 17.1847 16.4122L14.4776 18.6117C14.2313 18.8118 14.2313 19.1877 14.4776 19.3878L17.1847 21.5873C17.5115 21.8528 18 21.6203 18 21.1993V19.9998H21C21.5523 19.9998 22 19.5521 22 18.9998V4.99978C22 4.44749 21.5523 3.99978 21 3.99978H13Z" fill="black"/><path d="M8 9.99978C8 9.44749 8.44772 8.99978 9 8.99978H15C15.5523 8.99978 16 9.44749 16 9.99978C16 10.5521 15.5523 10.9998 15 10.9998H9C8.44772 10.9998 8 10.5521 8 9.99978Z" fill="black"/><path d="M9 12.9998C8.44772 12.9998 8 13.4475 8 13.9998C8 14.5521 8.44772 14.9998 9 14.9998H13C13.5523 14.9998 14 14.5521 14 13.9998C14 13.4475 13.5523 12.9998 13 12.9998H9Z" fill="black"/></svg>
