<svg xmlns="http://www.w3.org/2000/svg" viewBox="0 0 24 24" fill="none"><path d="M12 4.58627L19.4144 12.0003L22.2074 9.20726C22.598 8.81673 22.598 8.18357 22.2074 7.79305L16.2074 1.79305C15.8169 1.40252 15.1838 1.40252 14.7932 1.79305L12 4.58627Z" fill="black"/><path d="M18.4029 13.8178L10.1819 5.5972L6.15798 7.06043C5.83247 7.1788 5.59139 7.45718 5.52074 7.79627L3.08203 19.5021L8.15387 14.4303C8.0427 14.1472 7.98166 13.8391 7.98166 13.5166C7.98166 12.1359 9.10095 11.0166 10.4817 11.0166C11.8624 11.0166 12.9817 12.1359 12.9817 13.5166C12.9817 14.8973 11.8624 16.0166 10.4817 16.0166C10.1592 16.0166 9.85109 15.9556 9.56811 15.8444L4.49378 20.9188L16.2037 18.4792C16.5428 18.4086 16.8211 18.1675 16.9395 17.842L18.4029 13.8178Z" fill="black"/></svg>
