<svg xmlns="http://www.w3.org/2000/svg" viewBox="0 0 24 24" fill="none"><path fill-rule="evenodd" clip-rule="evenodd" d="M16.2929 2.29289C16.6834 1.90237 17.3166 1.90237 17.7071 2.29289L21.7071 6.29289C22.0976 6.68342 22.0976 7.31658 21.7071 7.70711L16.9142 12.5L17.7071 13.2929C18.0976 13.6834 18.0976 14.3166 17.7071 14.7071C17.3166 15.0976 16.6834 15.0976 16.2929 14.7071L15.5 13.9142L8.70711 20.7071C8.51957 20.8946 8.26522 21 8 21H4C3.44772 21 3 20.5523 3 20V16C3 15.7348 3.10536 15.4804 3.29289 15.2929L10.0858 8.5L9.29289 7.70711C8.90237 7.31658 8.90237 6.68342 9.29289 6.29289C9.68342 5.90237 10.3166 5.90237 10.7071 6.29289L11.5 7.08579L16.2929 2.29289ZM14.0858 12.5L11.5 9.91421L6.41421 15H11.5858L14.0858 12.5Z" fill="black"/></svg>
