<svg xmlns="http://www.w3.org/2000/svg" viewBox="0 0 24 24" fill="none"><path d="M12 9C12 8.44772 12.4477 8 13 8H15C15.5523 8 16 8.44772 16 9V11C16 11.5523 15.5523 12 15 12C14.4477 12 14 11.5523 14 11V10H13C12.4477 10 12 9.55228 12 9Z" fill="black"/><path fill-rule="evenodd" clip-rule="evenodd" d="M8 3C8 2.44772 8.44772 2 9 2H21C21.5523 2 22 2.44772 22 3V15C22 15.5523 21.5523 16 21 16H16V21C16 21.5523 15.5523 22 15 22H3C2.44772 22 2 21.5523 2 21V9C2 8.44772 2.44772 8 3 8H8V3ZM10 14H20V4H10V14Z" fill="black"/></svg>
