<svg xmlns="http://www.w3.org/2000/svg" viewBox="0 0 24 24" fill="none"><path fill-rule="evenodd" clip-rule="evenodd" d="M3 4C2.44772 4 2 4.44772 2 5V19C2 19.5523 2.44772 20 3 20H21C21.5523 20 22 19.5523 22 19V5C22 4.44772 21.5523 4 21 4H3ZM7.66436 9.25259C7.37004 8.99097 6.94958 8.92644 6.59034 9.08776C6.23111 9.24908 6 9.60621 6 10V14C6 14.5523 6.44772 15 7 15C7.55228 15 8 14.5523 8 14V12.2268L8.58564 12.7474C8.96452 13.0842 9.53548 13.0842 9.91436 12.7474L10.5 12.2268V14C10.5 14.5523 10.9477 15 11.5 15C12.0523 15 12.5 14.5523 12.5 14V10C12.5 9.60621 12.2689 9.24908 11.9097 9.08776C11.5504 8.92644 11.13 8.99097 10.8356 9.25259L9.25 10.662L7.66436 9.25259ZM17 10C17 9.44771 16.5523 9 16 9C15.4477 9 15 9.44771 15 10V11.8838C14.5863 11.6443 14.0481 11.7302 13.7318 12.1098C13.3782 12.5341 13.4355 13.1647 13.8598 13.5182L15.3598 14.7682C15.7307 15.0773 16.2693 15.0773 16.6402 14.7682L18.1402 13.5182C18.5645 13.1647 18.6218 12.5341 18.2682 12.1098C17.9519 11.7302 17.4137 11.6443 17 11.8838V10Z" fill="black"/></svg>
