<svg xmlns="http://www.w3.org/2000/svg" viewBox="0 0 24 24" fill="none"><path fill-rule="evenodd" clip-rule="evenodd" d="M11.2929 1.79289C11.6834 1.40237 12.3166 1.40237 12.7071 1.79289L22.2071 11.2929C22.3946 11.4804 22.5 11.7347 22.5 12C22.5 12.2652 22.3946 12.5195 22.2071 12.7071L12.7071 22.2071C12.5196 22.3946 12.2652 22.5 12 22.5C11.7348 22.5 11.4804 22.3946 11.2929 22.2071L1.79289 12.7071C1.60536 12.5195 1.5 12.2652 1.5 12C1.5 11.7347 1.60536 11.4804 1.79289 11.2929L11.2929 1.79289ZM13 11V9C13 8.44771 12.5523 8 12 8C11.4477 8 11 8.44771 11 9V11H9C8.44772 11 8 11.4477 8 12C8 12.5523 8.44772 13 9 13H11V15C11 15.5523 11.4477 16 12 16C12.5523 16 13 15.5523 13 15V13H15C15.5523 13 16 12.5523 16 12C16 11.4477 15.5523 11 15 11H13Z" fill="black"/></svg>
