<svg xmlns="http://www.w3.org/2000/svg" viewBox="0 0 24 24" fill="none"><path fill-rule="evenodd" clip-rule="evenodd" d="M6.58221 2.43347C7.0952 1.6873 8.01628 1 9.5 1C10.9837 1 11.9048 1.6873 12.4178 2.43347C12.5521 2.62888 12.655 2.82253 12.7337 3H17C17.5523 3 18 3.44772 18 4V14H20.5V10.792C19.617 10.4062 19 9.52516 19 8.5C19 7.11929 20.1193 6 21.5 6C22.8807 6 24 7.11929 24 8.5C24 9.52516 23.383 10.4062 22.5 10.792V15C22.5 15.5523 22.0523 16 21.5 16H18V20C18 20.5523 17.5523 21 17 21H2C1.44772 21 1 20.5523 1 20V4C1 3.44772 1.44772 3 2 3H6.26631C6.34498 2.82253 6.44786 2.62888 6.58221 2.43347ZM16 9H13V15H16V9ZM3 15H6V9H3V15ZM8 9V15H11V9H8Z" fill="black"/><path d="M3.75 11.75C3.75 11.3358 4.08579 11 4.5 11C4.91421 11 5.25 11.3358 5.25 11.75V12.25C5.25 12.6642 4.91421 13 4.5 13C4.08579 13 3.75 12.6642 3.75 12.25V11.75Z" fill="black"/><path d="M8.75 11.75C8.75 11.3358 9.08579 11 9.5 11C9.91421 11 10.25 11.3358 10.25 11.75V12.25C10.25 12.6642 9.91421 13 9.5 13C9.08579 13 8.75 12.6642 8.75 12.25V11.75Z" fill="black"/><path d="M13.75 11.75C13.75 11.3358 14.0858 11 14.5 11C14.9142 11 15.25 11.3358 15.25 11.75V12.25C15.25 12.6642 14.9142 13 14.5 13C14.0858 13 13.75 12.6642 13.75 12.25V11.75Z" fill="black"/></svg>
