<svg xmlns="http://www.w3.org/2000/svg" viewBox="0 0 24 24" fill="none"><path fill-rule="evenodd" clip-rule="evenodd" d="M2 5C1.44772 5 1 5.44772 1 6V18C1 18.5523 1.44772 19 2 19H22C22.5523 19 23 18.5523 23 18V6C23 5.44772 22.5523 5 22 5H2ZM8 9C8.55228 9 9 9.44772 9 10V11H10C10.5523 11 11 11.4477 11 12C11 12.5523 10.5523 13 10 13H9V14C9 14.5523 8.55228 15 8 15C7.44772 15 7 14.5523 7 14V13H6C5.44772 13 5 12.5523 5 12C5 11.4477 5.44772 11 6 11H7V10C7 9.44772 7.44772 9 8 9ZM17.75 11.75C17.0596 11.75 16.5 11.1904 16.5 10.5C16.5 9.80964 17.0596 9.25 17.75 9.25C18.4404 9.25 19 9.80964 19 10.5C19 11.1904 18.4404 11.75 17.75 11.75ZM14.75 14.75C14.0596 14.75 13.5 14.1904 13.5 13.5C13.5 12.8096 14.0596 12.25 14.75 12.25C15.4404 12.25 16 12.8096 16 13.5C16 14.1904 15.4404 14.75 14.75 14.75Z" fill="black"/></svg>
