<svg xmlns="http://www.w3.org/2000/svg" viewBox="0 0 24 24" fill="none"><path d="M8 3C8 2.44772 8.44772 2 9 2H15C15.5523 2 16 2.44772 16 3V6.75C16 7.01522 15.8946 7.26957 15.7071 7.45711L12.7071 10.4571C12.3166 10.8476 11.6834 10.8476 11.2929 10.4571L8.29289 7.45711C8.10536 7.26957 8 7.01522 8 6.75V3Z" fill="black"/><path d="M21 8C21.5523 8 22 8.44772 22 9V15C22 15.5523 21.5523 16 21 16H17.25C16.9848 16 16.7304 15.8946 16.5429 15.7071L13.5429 12.7071C13.1524 12.3166 13.1524 11.6834 13.5429 11.2929L16.5429 8.29289C16.7304 8.10536 16.9848 8 17.25 8H21Z" fill="black"/><path d="M16 21C16 21.5523 15.5523 22 15 22H9C8.44772 22 8 21.5523 8 21V17.25C8 16.9848 8.10536 16.7304 8.29289 16.5429L11.2929 13.5429C11.6834 13.1524 12.3166 13.1524 12.7071 13.5429L15.7071 16.5429C15.8946 16.7304 16 16.9848 16 17.25V21Z" fill="black"/><path fill-rule="evenodd" clip-rule="evenodd" d="M2 15C2 15.2652 2.10536 15.5196 2.29289 15.7071C2.48043 15.8946 2.73478 16 3 16H6.75C7.01522 16 7.26957 15.8946 7.45711 15.7071L10.4571 12.7071C10.6446 12.5196 10.75 12.2652 10.75 12C10.75 11.7348 10.6446 11.4804 10.4571 11.2929L7.45711 8.29289C7.26957 8.10536 7.01522 8 6.75 8H3C2.44772 8 2 8.44772 2 9V15ZM6.33579 14H4L4 10H6.33579L8.33579 12L6.33579 14Z" fill="black"/></svg>
