<svg xmlns="http://www.w3.org/2000/svg" viewBox="0 0 24 24" fill="none"><path d="M14.0004 3C13.6722 3 13.365 3.16099 13.1782 3.43079L8.20312 10.617L13.3834 15.7972L20.5696 10.8222C20.8394 10.6354 21.0004 10.3281 21.0004 10V4C21.0004 3.44772 20.5527 3 20.0004 3H14.0004Z" fill="black"/><path d="M5.70711 10.2929C5.49526 10.0811 5.1996 9.97535 4.90146 10.0049C4.60333 10.0344 4.33413 10.196 4.16795 10.4453L3.16795 11.9453C2.93749 12.291 2.94478 12.7432 3.18627 13.0812L5.19388 15.8919L2.29289 18.7929C1.90237 19.1834 1.90237 19.8166 2.29289 20.2071L3.79289 21.7071C4.18342 22.0976 4.81658 22.0976 5.20711 21.7071L8.1081 18.8061L10.9188 20.8137C11.2568 21.0552 11.709 21.0625 12.0547 20.8321L13.5547 19.8321C13.804 19.6659 13.9656 19.3967 13.9951 19.0985C14.0247 18.8004 13.919 18.5047 13.7071 18.2929L5.70711 10.2929Z" fill="black"/></svg>
