<svg xmlns="http://www.w3.org/2000/svg" viewBox="0 0 24 24" fill="none"><path d="M8 3C8 2.44772 8.44772 2 9 2H15C15.5523 2 16 2.44772 16 3V6.75C16 7.01522 15.8946 7.26957 15.7071 7.45711L12.7071 10.4571C12.3166 10.8476 11.6834 10.8476 11.2929 10.4571L8.29289 7.45711C8.10536 7.26957 8 7.01522 8 6.75V3Z" fill="black"/><path d="M21 8C21.5523 8 22 8.44772 22 9V15C22 15.5523 21.5523 16 21 16H17.25C16.9848 16 16.7304 15.8946 16.5429 15.7071L13.5429 12.7071C13.1524 12.3166 13.1524 11.6834 13.5429 11.2929L16.5429 8.29289C16.7304 8.10536 16.9848 8 17.25 8H21Z" fill="black"/><path fill-rule="evenodd" clip-rule="evenodd" d="M15 22C15.5523 22 16 21.5523 16 21V17.25C16 16.9848 15.8946 16.7304 15.7071 16.5429L12.7071 13.5429C12.3166 13.1524 11.6834 13.1524 11.2929 13.5429L8.29289 16.5429C8.10536 16.7304 8 16.9848 8 17.25V21C8 21.5523 8.44772 22 9 22H15ZM14 17.6642V20H10V17.6642L12 15.6642L14 17.6642Z" fill="black"/><path d="M2 15C2 15.5523 2.44772 16 3 16H6.75C7.01522 16 7.26957 15.8946 7.45711 15.7071L10.4571 12.7071C10.8476 12.3166 10.8476 11.6834 10.4571 11.2929L7.45711 8.29289C7.26957 8.10536 7.01522 8 6.75 8H3C2.44772 8 2 8.44772 2 9V15Z" fill="black"/></svg>
