<svg xmlns="http://www.w3.org/2000/svg" viewBox="0 0 24 24" fill="none"><path fill-rule="evenodd" clip-rule="evenodd" d="M12.6696 10.5315C12.1506 10.3426 11.883 9.76875 12.0719 9.24977L14.4661 2.67192C14.655 2.15295 15.2288 1.88536 15.7478 2.07425L22.3256 4.46839C22.8446 4.65728 23.1122 5.23113 22.9233 5.75011L20.5292 12.328C20.3403 12.8469 19.7664 13.1145 19.2474 12.9256L12.6696 10.5315ZM17.1574 8.43972C17.6764 8.62861 18.2503 8.36103 18.4391 7.84205C18.628 7.32307 18.3605 6.74923 17.8415 6.56034C17.3225 6.37144 16.7487 6.63903 16.5598 7.15801C16.3709 7.67699 16.6385 8.25083 17.1574 8.43972Z" fill="black"/><path fill-rule="evenodd" clip-rule="evenodd" d="M1.09715 11.4172C0.596612 11.6506 0.380056 12.2455 0.613462 12.7461L4.41703 20.9028C4.65043 21.4034 5.24541 21.6199 5.74595 21.3865L13.9027 17.583C14.4033 17.3496 14.6198 16.7546 14.3864 16.254L10.5828 8.09728C10.3494 7.59674 9.75446 7.38018 9.25392 7.61359L1.09715 11.4172ZM6.41045 13.3519C6.64386 13.8524 6.4273 14.4474 5.92676 14.6808C5.42622 14.9142 4.83124 14.6977 4.59784 14.1971C4.36443 13.6966 4.58099 13.1016 5.08153 12.8682C5.58207 12.6348 6.17705 12.8514 6.41045 13.3519ZM9.91504 16.132C10.4156 15.8986 10.6321 15.3036 10.3987 14.8031C10.1653 14.3025 9.57035 14.086 9.06981 14.3194C8.56927 14.5528 8.35271 15.1478 8.58612 15.6483C8.81952 16.1488 9.4145 16.3654 9.91504 16.132Z" fill="black"/></svg>
