<svg xmlns="http://www.w3.org/2000/svg" viewBox="0 0 24 24" fill="none"><path fill-rule="evenodd" clip-rule="evenodd" d="M8 3C8 2.44772 7.55228 2 7 2C6.44772 2 6 2.44772 6 3V4H3C2.44772 4 2 4.44772 2 5V13C2 13.5523 2.44772 14 3 14H6V20C5.44772 20 5 20.4477 5 21C5 21.5523 5.44772 22 6 22H8C8.55228 22 9 21.5523 9 21C9 20.4477 8.55228 20 8 20V14H16V20C15.4477 20 15 20.4477 15 21C15 21.5523 15.4477 22 16 22H18C18.5523 22 19 21.5523 19 21C19 20.4477 18.5523 20 18 20V14H21C21.5523 14 22 13.5523 22 13V5C22 4.44772 21.5523 4 21 4H18V3C18 2.44772 17.5523 2 17 2C16.4477 2 16 2.44772 16 3V4H8V3ZM17.0274 12L20.2315 6H17.9725L14.7684 12H17.0274ZM3.76843 12L6.97254 6H9.23155L6.02744 12H3.76843ZM11.5274 12H9.26843L12.4725 6H14.7315L11.5274 12Z" fill="black"/></svg>
