<svg xmlns="http://www.w3.org/2000/svg" viewBox="0 0 24 24" fill="none"><path d="M20.5718 6.82878L18.0322 11.3921L20.1205 12.5457C20.6024 12.812 20.777 13.4187 20.5103 13.9004C20.2305 14.4056 19.9501 14.9104 19.6696 15.4149C19.4017 15.8966 18.7943 16.0704 18.312 15.8037L8.35217 10.2956C7.86796 10.0279 7.69325 9.41777 7.96231 8.93427L8.79916 7.43048C9.06713 6.94895 9.67415 6.77496 10.1565 7.04143L12.2764 8.21253L14.8821 3.64501C15.7662 2.0954 17.7365 1.54479 19.2997 2.40784C20.8756 3.27792 21.4464 5.25722 20.5718 6.82878Z" fill="black"/><path d="M7.36569 12.0303C6.91594 12.3955 6.46065 12.6432 5.99064 12.7972C5.21704 13.0506 4.31445 13.0792 3.19278 12.8411C2.51131 12.6965 1.89206 13.2763 1.9958 13.9652C2.57011 17.7791 6.07699 20.7662 9.47367 21.6911C11.1979 22.1606 13.0491 22.1454 14.5825 21.2982C15.9021 20.5691 16.8503 19.2998 17.2873 17.5172L7.36569 12.0303Z" fill="black"/></svg>
