<svg xmlns="http://www.w3.org/2000/svg" viewBox="0 0 24 24" fill="none"><path fill-rule="evenodd" clip-rule="evenodd" d="M11.9982 2C12.2878 2 12.5632 2.12553 12.7531 2.34412L14.7697 4.66514L17.8065 4.18341C18.0925 4.13805 18.3841 4.21888 18.606 4.40502C18.8278 4.59116 18.958 4.86432 18.963 5.15385L19.0159 8.22813L21.6519 9.8111C21.9001 9.96019 22.0716 10.2096 22.1219 10.4947C22.1722 10.7799 22.0964 11.0729 21.9141 11.2979L19.9785 13.687L20.9802 16.5939C21.0746 16.8677 21.0456 17.1689 20.9008 17.4197C20.756 17.6705 20.5096 17.8462 20.2254 17.9014L17.207 18.4874L16.1058 21.3581C16.0021 21.6285 15.7862 21.8407 15.5141 21.9397C15.242 22.0387 14.9403 22.015 14.6871 21.8745L11.9982 20.3832L9.30936 21.8745C9.05612 22.015 8.75443 22.0387 8.48232 21.9397C8.2102 21.8407 7.99438 21.6285 7.89067 21.3581L6.78947 18.4874L3.77109 17.9014C3.48682 17.8462 3.24043 17.6705 3.09564 17.4197C2.95085 17.1689 2.92188 16.8677 3.01622 16.5939L4.01796 13.687L2.08239 11.2979C1.9001 11.0729 1.82429 10.7799 1.87457 10.4947C1.92486 10.2096 2.0963 9.96019 2.34455 9.81111L4.98049 8.22813L5.03342 5.15385C5.0384 4.86432 5.16865 4.59116 5.39048 4.40502C5.61231 4.21888 5.90394 4.13805 6.18994 4.18341L9.22671 4.66514L11.2434 2.34412C11.4333 2.12553 11.7086 2 11.9982 2ZM15.2053 11.2071C15.5959 10.8166 15.5959 10.1834 15.2053 9.79289C14.8148 9.40237 14.1817 9.40237 13.7911 9.79289L10.9982 12.5858L10.2053 11.7929C9.81481 11.4024 9.18165 11.4024 8.79112 11.7929C8.4006 12.1834 8.4006 12.8166 8.79112 13.2071L10.2911 14.7071C10.4787 14.8946 10.733 15 10.9982 15C11.2635 15 11.5178 14.8946 11.7053 14.7071L15.2053 11.2071Z" fill="black"/></svg>
