<svg xmlns="http://www.w3.org/2000/svg" viewBox="0 0 24 24" fill="none"><path fill-rule="evenodd" clip-rule="evenodd" d="M9.50747 3.53561C9.15575 3.03713 8.50775 2.74107 7.95986 3.00941L1.50559 6.17051C1.07317 6.38229 0.853071 6.87217 0.981893 7.33612L1.72016 9.99498C1.87237 10.5432 2.45066 10.8541 2.9919 10.6788L4.99934 10.0284V20.0003C4.99934 20.5525 5.44705 21.0003 5.99934 21.0003H17.9993C18.5516 21.0003 18.9993 20.5525 18.9993 20.0003V10.0284L21.0067 10.6788C21.548 10.8541 22.1262 10.5432 22.2785 9.99499L23.0168 7.33613C23.1456 6.87218 22.9255 6.38229 22.4931 6.1705L16.0388 3.00941C15.4909 2.74107 14.8429 3.03713 14.4911 3.53561C13.2474 5.29835 10.7512 5.29835 9.50747 3.53561Z" fill="black"/></svg>
