<svg xmlns="http://www.w3.org/2000/svg" viewBox="0 0 24 24" fill="none"><path d="M8.00195 3C7.44967 3 7.00195 3.44772 7.00195 4V7H9V21H15V7H9.00195V5H15.002V7H17V21H21.0022C21.5545 21 22.0022 20.5523 22.0022 20V12C22.0022 11.9775 22.0015 11.9553 22 11.9332V8C22 7.44772 21.5523 7 21 7H17.002V4C17.002 3.44772 16.5542 3 16.002 3H8.00195Z" fill="black"/><path d="M7 7H3C2.44772 7 2 7.44772 2 8V12C2 12.0225 2.00074 12.0447 2.0022 12.0668V20C2.0022 20.5523 2.44991 21 3.0022 21H7V7Z" fill="black"/></svg>
