<svg xmlns="http://www.w3.org/2000/svg" viewBox="0 0 24 24" fill="none"><path d="M3.10322 9.04017C3.04549 8.49091 3.44395 7.99885 3.99321 7.94112L11.9494 7.10489C12.4986 7.04716 12.9907 7.44562 13.0484 7.99488L14.3061 19.9611C14.3639 20.5104 13.9654 21.0024 13.4161 21.0601L5.45997 21.8964C4.91071 21.9541 4.41864 21.5556 4.36091 21.0064L3.10322 9.04017Z" fill="black"/><path d="M12.1598 2.10516L20.1159 2.9411C20.665 2.99881 21.064 3.49066 21.0065 4.03973L19.7487 16.0065C19.6909 16.5557 19.1983 16.9539 18.6491 16.8962L15.6598 16.5817L14.7389 7.81708C14.5926 6.42693 13.4159 5.39422 12.0475 5.39911L11.7721 5.41473L10.7956 5.51727L11.0612 2.99481C11.119 2.44563 11.6106 2.04748 12.1598 2.10516Z" fill="black"/></svg>
