<svg xmlns="http://www.w3.org/2000/svg" viewBox="0 0 24 24" fill="none"><path d="M13.937 3H19C19.5523 3 20 3.44772 20 4C20 4.55228 19.5523 5 19 5V9.65287L5 7.31954V5C4.44772 5 4 4.55228 4 4C4 3.44772 4.44772 3 5 3H10.063C10.285 2.13739 11.0681 1.5 12 1.5C12.9319 1.5 13.715 2.13739 13.937 3Z" fill="black"/><path d="M10.063 20.9996H5C4.44772 20.9996 4 20.5518 4 19.9996C4 19.4473 4.44772 18.9996 5 18.9996V14.3467L19 16.68V18.9996C19.5523 18.9996 20 19.4473 20 19.9996C20 20.5518 19.5523 20.9996 19 20.9996H13.937C13.715 21.8622 12.9319 22.4996 12 22.4996C11.0681 22.4996 10.285 21.8622 10.063 20.9996Z" fill="black"/><path d="M5 12.3191V9.34668L19 11.68V14.6524L5 12.3191Z" fill="black"/></svg>
