<svg xmlns="http://www.w3.org/2000/svg" viewBox="0 0 24 24" fill="none"><path fill-rule="evenodd" clip-rule="evenodd" d="M2 3C2 2.44772 2.44772 2 3 2H12C12.2652 2 12.5196 2.10536 12.7071 2.29289L21.7071 11.2929C22.0976 11.6834 22.0976 12.3166 21.7071 12.7071L12.7071 21.7071C12.3166 22.0976 11.6834 22.0976 11.2929 21.7071L2.29289 12.7071C2.10536 12.5196 2 12.2652 2 12V3ZM7.5 9C8.32843 9 9 8.32843 9 7.5C9 6.67157 8.32843 6 7.5 6C6.67157 6 6 6.67157 6 7.5C6 8.32843 6.67157 9 7.5 9Z" fill="black"/></svg>
