<svg xmlns="http://www.w3.org/2000/svg" viewBox="0 0 24 24" fill="none"><path d="M10.0156 15.5335C10.0345 14.9684 9.58157 14.5 9.01618 14.5H5.0173C4.47803 14.5 4.0359 14.9276 4.01786 15.4665L4 16C4 17.6569 5.34315 19 7 19C8.65685 19 10 17.6569 10 16L10.0156 15.5335Z" fill="black"/><path d="M10.2101 12.4823C10.0641 12.8108 9.72786 13 9.36844 13H4.63162C4.27218 13 3.93591 12.8107 3.78993 12.4823C2.2249 8.96079 2.83211 2 6.99985 2C11.1676 2 11.7752 8.96082 10.2101 12.4823Z" fill="black"/><path d="M20.2101 15.4823C20.0641 15.8108 19.7279 16 19.3684 16H14.6316C14.2722 16 13.9359 15.8107 13.7899 15.4823C12.2249 11.9608 12.8321 5 16.9998 5C21.1676 5 21.7752 11.9608 20.2101 15.4823Z" fill="black"/><path d="M20 18.5C20 17.9477 19.5523 17.5 19 17.5H15C14.4477 17.5 14 17.9477 14 18.5V19C14 20.6569 15.3431 22 17 22C18.6569 22 20 20.6569 20 19V18.5Z" fill="black"/></svg>
