<svg xmlns="http://www.w3.org/2000/svg" viewBox="0 0 24 24" fill="none"><path fill-rule="evenodd" clip-rule="evenodd" d="M4 3C4 2.44772 4.44772 2 5 2H19C19.5523 2 20 2.44772 20 3V11H21C21.5523 11 22 11.4477 22 12C22 12.5523 21.5523 13 21 13H19.2938L13.8494 16.5L19.5409 20.1588C20.0054 20.4575 20.14 21.0762 19.8413 21.5408C19.5426 22.0053 18.9239 22.1398 18.4594 21.8412L12.0001 17.6888L5.54088 21.8412C5.07631 22.1398 4.4576 22.0053 4.15894 21.5408C3.86029 21.0762 3.99479 20.4575 4.45936 20.1588L10.1509 16.5L4.70642 13H3C2.44772 13 2 12.5523 2 12C2 11.4477 2.44772 11 3 11H4V3ZM8.40494 13L12.0001 15.3112L15.5953 13H8.40494Z" fill="black"/></svg>
