<svg xmlns="http://www.w3.org/2000/svg" viewBox="0 0 24 24" fill="none"><path fill-rule="evenodd" clip-rule="evenodd" d="M16.2909 2.29299C16.6816 1.90234 17.315 1.90234 17.7056 2.29299L21.707 6.29436C21.8946 6.48196 22 6.7364 22 7.00171C22 7.26701 21.8946 7.52145 21.707 7.70905L20.2065 9.20956C18.9556 10.4604 17.0547 10.6651 15.5911 9.8236L11.9107 13.5039L14.7046 16.2978C14.8922 16.4854 14.9976 16.7398 14.9976 17.0051C14.9976 17.2704 14.8922 17.5249 14.7046 17.7125C11.4003 21.0167 7.89496 23.0279 3.17739 21.4553C2.87868 21.3557 2.64429 21.1214 2.54472 20.8226C0.972169 16.1051 2.98318 12.5996 6.28748 9.29538C6.67814 8.90472 7.31152 8.90473 7.70218 9.29538L10.496 12.0892L14.1764 8.4089C13.3348 6.9453 13.5395 5.04439 14.7904 3.7935L16.2909 2.29299ZM16.9983 4.41504L16.2051 5.2082C15.4908 5.92249 15.4908 7.08058 16.2051 7.79487C16.9194 8.50916 18.0775 8.50916 18.7918 7.79487L19.585 7.00171L16.9983 4.41504Z" fill="black"/></svg>
