<svg xmlns="http://www.w3.org/2000/svg" viewBox="0 0 24 24" fill="none"><path d="M8.14371 2.76465C7.85957 2.29107 8.01313 1.67681 8.48671 1.39266C8.96029 1.10851 9.57455 1.26208 9.8587 1.73566L11.3587 4.23566C11.4166 4.33221 11.4564 4.4346 11.4789 4.53886C11.6493 4.51336 11.8237 4.50015 12.0012 4.50015C12.1787 4.50015 12.3531 4.51336 12.5235 4.53886C12.546 4.4346 12.5858 4.33221 12.6437 4.23566L14.1437 1.73566C14.4279 1.26208 15.0421 1.10851 15.5157 1.39266C15.9893 1.67681 16.1428 2.29107 15.8587 2.76465L14.3587 5.26465C14.3393 5.29704 14.3183 5.32794 14.2959 5.3573C15.0343 5.999 15.5012 6.94505 15.5012 8.00015C15.5012 8.00012 15.5012 8.00018 15.5012 8.00015C15.5012 8.97473 15.1028 9.85634 14.4601 10.4909C13.9239 11.0202 13.2178 11.3777 12.4309 11.474C12.4309 11.474 12.4309 11.4741 12.4309 11.474C12.2901 11.4913 12.1466 11.5002 12.0011 11.5002C11.8556 11.5002 11.7122 11.4913 11.5714 11.4741C11.5714 11.4741 11.5714 11.4741 11.5714 11.4741C10.7845 11.3777 10.0784 11.0202 9.54236 10.4909C9.54236 10.4909 9.54236 10.491 9.54236 10.4909C9.39151 10.342 9.25413 10.1797 9.13219 10.0055C9.13214 10.0055 9.13223 10.0055 9.13219 10.0055C8.73446 9.4376 8.50121 8.74613 8.50121 8.00015C8.50121 6.94505 8.96808 5.99899 9.7065 5.35729C9.68413 5.32793 9.66315 5.29704 9.64371 5.26465L8.14371 2.76465Z" fill="black"/><path d="M7.00079 10.294C3.65133 11.1721 2.21965 13.9679 2.02456 18.0004C1.99787 18.552 2.45107 19.0056 3.00152 18.9607C7.10058 18.6262 9.05941 16.1988 9.48461 12.892C8.39354 12.3296 7.5149 11.4129 7.00079 10.294Z" fill="black"/><path d="M11.3811 13.4657C11.1337 14.8551 10.6346 16.1679 9.80341 17.3053C9.30614 17.9857 8.71605 18.5686 8.03946 19.051C8.25318 19.4391 8.49724 19.7972 8.76911 20.1176C9.36799 20.8235 10.1273 21.3714 11.0011 21.6139V22.0002C11.0011 22.5525 11.4488 23.0002 12.0011 23.0002C12.5534 23.0002 13.0011 22.5525 13.0011 22.0002V21.6139C13.8749 21.3714 14.6342 20.8235 15.233 20.1176C15.5049 19.7971 15.749 19.4391 15.9627 19.0509C15.2862 18.5685 14.6961 17.9857 14.1988 17.3053C13.3677 16.1679 12.8686 14.8551 12.6211 13.4657C12.4176 13.4885 12.2107 13.5002 12.0011 13.5002C11.7915 13.5002 11.5846 13.4885 11.3811 13.4657Z" fill="black"/><path d="M14.5178 12.892C14.943 16.1988 16.9018 18.6262 21.0009 18.9607C21.5514 19.0056 22.0042 18.5516 21.9817 17.9998C21.8105 13.7873 20.4896 11.0815 17.0157 10.2628C16.5037 11.3958 15.6189 12.3243 14.5178 12.892Z" fill="black"/></svg>
