<svg xmlns="http://www.w3.org/2000/svg" viewBox="0 0 24 24" fill="none"><path fill-rule="evenodd" clip-rule="evenodd" d="M2 5C2 4.44772 2.44772 4 3 4H21C21.5523 4 22 4.44772 22 5V9.25C22 9.6589 21.751 10.0266 21.3714 10.1785C19.7095 10.8432 19.7095 13.1568 21.3714 13.8215C21.751 13.9734 22 14.3411 22 14.75V19C22 19.5523 21.5523 20 21 20H3C2.44772 20 2 19.5523 2 19V14.75C2 14.3411 2.24895 13.9734 2.62861 13.8215C4.29046 13.1568 4.29046 10.8432 2.62861 10.1785C2.24895 10.0266 2 9.6589 2 9.25V5ZM15 7C15.5523 7 16 7.44772 16 8V8.01C16 8.56229 15.5523 9.01 15 9.01C14.4477 9.01 14 8.56229 14 8.01V8C14 7.44772 14.4477 7 15 7ZM15 11C15.5523 11 16 11.4477 16 12V12.01C16 12.5623 15.5523 13.01 15 13.01C14.4477 13.01 14 12.5623 14 12.01V12C14 11.4477 14.4477 11 15 11ZM15 15C15.5523 15 16 15.4477 16 16V16.01C16 16.5623 15.5523 17.01 15 17.01C14.4477 17.01 14 16.5623 14 16.01V16C14 15.4477 14.4477 15 15 15Z" fill="black"/></svg>
