<svg xmlns="http://www.w3.org/2000/svg" viewBox="0 0 24 24" fill="none"><path fill-rule="evenodd" clip-rule="evenodd" d="M3 4C3 3.44772 3.44772 3 4 3H7C7.26522 3 7.51957 3.10536 7.70711 3.29289L8.29289 3.87868C8.68342 4.2692 9.31658 4.2692 9.70711 3.87868L10.2929 3.29289C10.4804 3.10536 10.7348 3 11 3H13C13.2652 3 13.5196 3.10536 13.7071 3.29289L14.2929 3.87868C14.6834 4.2692 15.3166 4.2692 15.7071 3.87868L16.2929 3.29289C16.4804 3.10536 16.7348 3 17 3H20C20.5523 3 21 3.44772 21 4V7C21 7.26522 20.8946 7.51957 20.7071 7.70711L20.1213 8.29289C19.7308 8.68342 19.7308 9.31658 20.1213 9.70711L20.7071 10.2929C20.8946 10.4804 21 10.7348 21 11V13C21 13.2652 20.8946 13.5196 20.7071 13.7071L20.1213 14.2929C19.7308 14.6834 19.7308 15.3166 20.1213 15.7071L20.7071 16.2929C20.8946 16.4804 21 16.7348 21 17V20C21 20.5523 20.5523 21 20 21H17C16.7348 21 16.4804 20.8946 16.2929 20.7071L15.7071 20.1213C15.3166 19.7308 14.6834 19.7308 14.2929 20.1213L13.7071 20.7071C13.5196 20.8946 13.2652 21 13 21H11C10.7348 21 10.4804 20.8946 10.2929 20.7071L9.70711 20.1213C9.31658 19.7308 8.68342 19.7308 8.29289 20.1213L7.70711 20.7071C7.51957 20.8946 7.26522 21 7 21H4C3.44772 21 3 20.5523 3 20V17C3 16.7348 3.10536 16.4804 3.29289 16.2929L3.87868 15.7071C4.2692 15.3166 4.2692 14.6834 3.87868 14.2929L3.29289 13.7071C3.10536 13.5196 3 13.2652 3 13V11C3 10.7348 3.10536 10.4804 3.29289 10.2929L3.87868 9.70711C4.2692 9.31658 4.2692 8.68342 3.87868 8.29289L3.29289 7.70711C3.10536 7.51957 3 7.26522 3 7V4ZM14.7599 14.1527C15.2236 13.559 15.5 12.8118 15.5 12C15.5 10.067 13.933 8.5 12 8.5C10.067 8.5 8.5 10.067 8.5 12C8.5 12.182 8.51389 12.3608 8.54067 12.5353C8.61877 12.5269 8.69662 12.52 8.77427 12.5146C9.88757 12.4375 10.8727 12.676 11.7642 12.9896C12.2065 13.1452 12.6391 13.3244 13.0497 13.4954L13.1107 13.5208C13.5065 13.6858 13.8836 13.8429 14.2701 13.9846C14.4325 14.0441 14.5956 14.1006 14.7599 14.1527ZM6.11112 15.6009C5.99777 16.158 5.72502 16.6892 5.29289 17.1213L5 17.4142V19H6.58579L6.87868 18.7071C8.05025 17.5355 9.94975 17.5355 11.1213 18.7071L11.4142 19H12.5858L12.8787 18.7071C14.0503 17.5355 15.9497 17.5355 17.1213 18.7071L17.4142 19H19V17.4142L18.7071 17.1213C18.4851 16.8993 18.3052 16.6512 18.1673 16.3869C16.3607 16.6904 14.8808 16.3386 13.5816 15.8623C13.153 15.7052 12.7388 15.5326 12.3519 15.3713L12.2806 15.3416C11.8657 15.1688 11.4823 15.0106 11.1005 14.8763C10.3439 14.6101 9.64899 14.4588 8.91243 14.5098C8.14663 14.5628 7.24177 14.8419 6.11112 15.6009Z" fill="black"/></svg>
