<svg xmlns="http://www.w3.org/2000/svg" viewBox="0 0 24 24" fill="none"><path fill-rule="evenodd" clip-rule="evenodd" d="M11.3037 1.28128C11.6914 0.906241 12.3067 0.906242 12.6943 1.28128L14.8151 3.33294L17.7368 2.91969C18.2709 2.84414 18.7687 3.20578 18.8619 3.73705L19.3717 6.64346L21.9783 8.02647C22.4548 8.27927 22.6449 8.86441 22.408 9.349L21.1121 12L22.408 14.651C22.6449 15.1356 22.4548 15.7207 21.9783 15.9735L19.3717 17.3565L18.8619 20.2629C18.7687 20.7942 18.2709 21.1559 17.7368 21.0803L14.8151 20.6671L12.6943 22.7187C12.3067 23.0938 11.6914 23.0938 11.3037 22.7187L9.18294 20.6671L6.26124 21.0803C5.72716 21.1559 5.22942 20.7942 5.13622 20.2629L4.6264 17.3565L2.01978 15.9735C1.54331 15.7207 1.35319 15.1356 1.59007 14.651L2.88595 12L1.59007 9.349C1.35319 8.86441 1.54331 8.27927 2.01978 8.02647L4.6264 6.64346L5.13622 3.73705C5.22942 3.20578 5.72716 2.84414 6.26124 2.91969L9.18294 3.33294L11.3037 1.28128ZM12.4474 7.90849C12.264 7.53687 11.7341 7.53687 11.5507 7.90849L10.6459 9.74174C10.5731 9.88931 10.4323 9.99159 10.2694 10.0153L8.24632 10.3092C7.83621 10.3688 7.67246 10.8728 7.96922 11.1621L9.43315 12.5891C9.55099 12.7039 9.60476 12.8694 9.57695 13.0316L9.23136 15.0466C9.1613 15.455 9.59002 15.7665 9.95683 15.5736L11.7664 14.6223C11.912 14.5457 12.086 14.5457 12.2317 14.6223L14.0412 15.5736C14.408 15.7665 14.8367 15.455 14.7667 15.0466L14.4211 13.0316C14.3933 12.8694 14.4471 12.7039 14.5649 12.5891L16.0288 11.1621C16.3256 10.8728 16.1618 10.3688 15.7517 10.3092L13.7286 10.0153C13.5658 9.99159 13.425 9.88931 13.3522 9.74174L12.4474 7.90849Z" fill="black"/></svg>
