<svg xmlns="http://www.w3.org/2000/svg" viewBox="0 0 24 24" fill="none"><path d="M12.889 2.54201C12.7175 2.20916 12.3744 2 12 2C11.6256 2 11.2825 2.20916 11.111 2.54201L9.50131 5.66649L4.40296 3.05718C4.01672 2.8595 3.54707 2.93346 3.24026 3.24026C2.93346 3.54707 2.8595 4.01672 3.05718 4.40296L5.66649 9.50131L2.54201 11.111C2.20916 11.2825 2 11.6256 2 12C2 12.3744 2.20916 12.7175 2.54201 12.889L5.8007 14.5678L4.6836 18.0592C4.5695 18.4158 4.66418 18.8063 4.92893 19.0711C5.19369 19.3358 5.58417 19.4305 5.94078 19.3164L9.43217 18.1993L11.111 21.458C11.2825 21.7908 11.6256 22 12 22C12.3744 22 12.7175 21.7908 12.889 21.458L14.4987 18.3335L19.597 20.9428C19.9833 21.1405 20.4529 21.0665 20.7597 20.7597C21.0665 20.4529 21.1405 19.9833 20.9428 19.597L18.3335 14.4987L21.458 12.889C21.7908 12.7175 22 12.3744 22 12C22 11.6256 21.7908 11.2825 21.458 11.111L18.1993 9.43217L19.3164 5.94078C19.4305 5.58417 19.3358 5.19369 19.0711 4.92893C18.8063 4.66418 18.4158 4.5695 18.0592 4.6836L14.5678 5.8007L12.889 2.54201Z" fill="black"/></svg>
