<svg xmlns="http://www.w3.org/2000/svg" viewBox="0 0 24 24" fill="none"><path fill-rule="evenodd" clip-rule="evenodd" d="M7.00024 3C6.54137 3 6.14139 3.3123 6.03009 3.75746L2.03009 19.7575C1.89615 20.2933 2.22191 20.8362 2.7577 20.9701C3.2935 21.1041 3.83643 20.7783 3.97038 20.2425L4.53101 18H12.4695L12.0301 19.7575C11.8962 20.2933 12.2219 20.8362 12.7577 20.9701C13.2935 21.1041 13.8364 20.7783 13.9704 20.2425L14.531 18H19.4695L20.0301 20.2425C20.164 20.7783 20.707 21.1041 21.2428 20.9701C21.7786 20.8362 22.1043 20.2933 21.9704 19.7575L17.9713 3.7612C17.9674 3.74523 17.9631 3.72934 17.9583 3.71357C17.8897 3.48357 17.7429 3.29218 17.5516 3.1657C17.3922 3.06031 17.2019 3 17.0002 3M15.031 16L17.0002 8.12312L18.9695 16H15.031Z" fill="black"/></svg>
