<svg xmlns="http://www.w3.org/2000/svg" viewBox="0 0 24 24" fill="none"><path d="M9.04186 2.71783C9.16703 2.29225 9.55762 2 10.0012 2H14.0012C14.4448 2 14.8354 2.29225 14.9606 2.71783L16.5142 8H7.48828L9.04186 2.71783Z" fill="black"/><path d="M6.89798 10L6.01562 13H17.9827L17.1003 10H6.89798Z" fill="black"/><path d="M18.5718 15H5.42823L4.25176 19H3C2.44772 19 2 19.4477 2 20C2 20.5523 2.44772 21 3 21H21C21.5523 21 22 20.5523 22 20C22 19.4477 21.5523 19 21 19H19.7482L18.5718 15Z" fill="black"/></svg>
