<svg xmlns="http://www.w3.org/2000/svg" viewBox="0 0 24 24" fill="none"><path d="M22 20C22 20.5523 21.5523 21 21 21H3C2.44772 21 2 20.5523 2 20V12.3467L11 13.8467V14C11 14.5523 11.4477 15 12 15C12.5523 15 13 14.5523 13 14V13.8018L22 11.8018V20Z" fill="black"/><path fill-rule="evenodd" clip-rule="evenodd" d="M16.0039 2C16.5562 2.00001 17.0039 2.44772 17.0039 3V6H21C21.5523 6 22 6.44772 22 7V9.75293L12.9688 11.7588C12.8607 11.3233 12.469 11 12 11C11.5084 11 11.1005 11.3548 11.0166 11.8223L2 10.3193V7C2 6.44772 2.44772 6 3 6H7.00391V3C7.00391 2.44772 7.45162 2 8.00391 2H16.0039ZM9.00391 6H15.0039V4H9.00391V6Z" fill="black"/></svg>
