<svg xmlns="http://www.w3.org/2000/svg" viewBox="0 0 24 24" fill="none"><path fill-rule="evenodd" clip-rule="evenodd" d="M8 2C7.44772 2 7 2.44772 7 3V6H3C2.44772 6 2 6.44772 2 7V20C2 20.5523 2.44772 21 3 21H21C21.5523 21 22 20.5523 22 20V7C22 6.44772 21.5523 6 21 6H17V3C17 2.44772 16.5523 2 16 2H8ZM15 6H9V4H15V6ZM6.80315 11.5214C6.28417 11.7102 6.01658 12.2841 6.20548 12.8031L6.58826 13.8548C6.77715 14.3737 7.351 14.6413 7.86998 14.4524L10.8555 13.3658C11.3744 13.1769 11.642 12.6031 11.4531 12.0841L11.0703 11.0324C10.8815 10.5134 10.3076 10.2458 9.78863 10.4347L6.80315 11.5214ZM17.9661 14.9125C17.7695 16.0969 16.7402 17 15.5 17C14.1193 17 13 15.8807 13 14.5C13 13.2598 13.9031 12.2305 15.0875 12.0339C15.3491 11.9904 15.6054 12.1054 15.7929 12.2929L17.7071 14.2071C17.8946 14.3947 18.0096 14.6509 17.9661 14.9125Z" fill="black"/></svg>
