<svg xmlns="http://www.w3.org/2000/svg" viewBox="0 0 24 24" fill="none"><path d="M13.8315 1.01446C14.3759 0.921402 14.8927 1.28728 14.9857 1.83167L14.986 1.83309L14.9863 1.83491L14.9871 1.83969C15.027 2.08517 15.0505 2.33364 15.065 2.58179C15.0896 3.00281 15.0926 3.5918 14.9833 4.18225C14.8556 4.87191 14.5356 5.49253 14.282 5.90849C14.1284 6.16042 13.9606 6.40577 13.7734 6.63414L13.7695 6.63878L13.7681 6.64056L13.7669 6.64197C13.4124 7.0655 12.7817 7.12149 12.3582 6.76702C11.9354 6.41314 11.8789 5.78395 12.2314 5.36044L12.2338 5.35754C12.3582 5.20218 12.4708 5.03715 12.5744 4.86729C12.7729 4.54173 12.953 4.16235 13.0167 3.81807C13.0852 3.44853 13.0882 3.03752 13.0684 2.69854C13.0581 2.5219 13.0415 2.3453 13.0146 2.17036L13.0142 2.16787L13.014 2.16674C12.9221 1.62305 13.2878 1.1074 13.8315 1.01446Z" fill="black"/><path d="M19.0887 2.55927C19.6084 2.74634 19.878 3.31924 19.6909 3.83888L19.2409 5.08888C19.0538 5.60852 18.4809 5.87812 17.9613 5.69105C17.4417 5.50398 17.1721 4.93108 17.3591 4.41144L17.8091 3.16144C17.9962 2.6418 18.5691 2.3722 19.0887 2.55927Z" fill="black"/><path d="M21.8945 7.05295C22.1414 7.54693 21.9412 8.1476 21.4472 8.39459L20.4472 8.89459C19.9533 9.14158 19.3526 8.94135 19.1056 8.44737C18.8586 7.9534 19.0588 7.35272 19.5528 7.10573L20.5528 6.60573C21.0468 6.35874 21.6475 6.55897 21.8945 7.05295Z" fill="black"/><path d="M17.2071 6.79305C17.5977 7.18358 17.5977 7.81674 17.2071 8.20727L16.2071 9.20727C15.8166 9.59779 15.1834 9.59779 14.7929 9.20727C14.4024 8.81674 14.4024 8.18358 14.7929 7.79305L15.7929 6.79305C16.1834 6.40253 16.8166 6.40253 17.2071 6.79305Z" fill="black"/><path d="M17.0009 10.9579C17.0242 10.4061 17.4905 9.97773 18.0422 10.0011L18.0435 10.0011L18.0449 10.0012L18.0488 10.0013C18.2343 10.0104 18.4196 10.0301 18.6037 10.0547C18.9202 10.0971 19.3577 10.1747 19.8048 10.3177C20.412 10.512 20.9817 10.8147 21.523 11.1478L21.526 11.1497L21.5271 11.1503C21.9962 11.4418 22.1409 12.0589 21.8494 12.528C21.558 12.9969 20.9417 13.1409 20.4727 12.8498L20.4676 12.8467C20.0673 12.603 19.6425 12.3657 19.1952 12.2226C18.7975 12.0953 18.3749 12.0229 17.9577 11.9993L17.9562 11.9992C17.4053 11.9749 16.9776 11.5091 17.0009 10.9579Z" fill="black"/><path d="M7.77027 5.02695C8.10758 4.94733 8.46207 5.04803 8.70713 5.2931L18.7071 15.2931C18.9522 15.5382 19.0529 15.8926 18.9733 16.23C18.8936 16.5673 18.645 16.8393 18.3163 16.9489L3.31625 21.9489C2.95692 22.0687 2.56075 21.9751 2.29292 21.7073C2.02509 21.4395 1.93157 21.0433 2.05134 20.684L7.05134 5.68398C7.16094 5.35518 7.43297 5.10658 7.77027 5.02695Z" fill="black"/></svg>
