<svg xmlns="http://www.w3.org/2000/svg" viewBox="0 0 24 24" fill="none"><path d="M9 3C9 2.44772 8.55228 2 8 2C7.44772 2 7 2.44798 7 3.00026L7 3.04364C7.00004 4.55115 7.00008 6.0879 6.58235 7.26341C6.38127 7.82923 6.10414 8.24303 5.73725 8.52031C5.37756 8.79216 4.84302 9 4 9C3.44772 9 3 9.44772 3 10V15H11V13H10C9.44772 13 9 12.5523 9 12C9 11.4477 9.44772 11 10 11H11V5.7274C10.5866 5.60582 10.2098 5.40826 9.90195 5.14355C9.37989 4.69469 9.00123 4.00874 9 3.00491L9 3Z" fill="black"/><path d="M13 5.7274V11H14C14.5523 11 15 11.4477 15 12C15 12.5523 14.5523 13 14 13H13V15H21V10C21 9.44772 20.5523 9 20 9C19.157 9 18.6224 8.79216 18.2627 8.52031C17.8959 8.24303 17.6187 7.82923 17.4177 7.26341C16.9999 6.0879 17 4.55115 17 3.04364V3C17 2.44772 16.5523 2 16 2C15.4477 2 15 2.44772 15 3L15 3.00495C14.9988 4.00875 14.6201 4.69469 14.0981 5.14355C13.7902 5.40826 13.4134 5.60582 13 5.7274Z" fill="black"/><path d="M21 17H13V21H20C20.5523 21 21 20.5523 21 20V17Z" fill="black"/><path d="M11 21V17H3V20C3 20.5523 3.44772 21 4 21H11Z" fill="black"/></svg>
