<svg xmlns="http://www.w3.org/2000/svg" viewBox="0 0 24 24" fill="none"><path fill-rule="evenodd" clip-rule="evenodd" d="M20.2436 13.048C17.7313 11.507 15.3421 10.6692 13 10.4841V16H14C14.5175 16 14.9433 16.3932 14.9948 16.8971L20.2436 13.048ZM15 19.3661C15.0312 19.3481 15.0617 19.3282 15.0914 19.3064L22.5914 13.8064C22.8482 13.618 23 13.3185 23 13C23 6.92487 18.0751 2 12 2C5.92487 2 1 6.92487 1 13C1 13.3185 1.15176 13.618 1.40864 13.8064L8.90864 19.3064C8.93834 19.3282 8.96884 19.3481 9 19.3661V21C9 21.5523 9.44772 22 10 22H14C14.5523 22 15 21.5523 15 21V19.3661ZM11 16V10.4841C8.65788 10.6692 6.26867 11.507 3.7564 13.048L9.00523 16.8971C9.05674 16.3932 9.48246 16 10 16H11Z" fill="black"/></svg>
