<svg xmlns="http://www.w3.org/2000/svg" viewBox="0 0 24 24" fill="none"><path d="M12.4138 3.08963C12.1509 2.97012 11.8491 2.97012 11.5862 3.08963L0.586197 8.08963C0.229203 8.2519 0 8.60786 0 9C0 9.39214 0.229203 9.7481 0.586197 9.91037L11.5862 14.9104C11.8491 15.0299 12.1509 15.0299 12.4138 14.9104L22 10.553V16C22 16.5523 22.4477 17 23 17C23.5523 17 24 16.5523 24 16V9C24 8.60786 23.7708 8.2519 23.4138 8.08963L12.4138 3.08963Z" fill="black"/><path fill-rule="evenodd" clip-rule="evenodd" d="M4.5 12.801V16.6871C4.5 17.0632 4.7111 17.4076 5.04632 17.5782L11.5463 20.8873C11.8313 21.0324 12.1686 21.0324 12.4536 20.8873L18.9537 17.5782C19.2889 17.4076 19.5 17.0632 19.5 16.6871V12.801L12.2269 16.5046C12.0843 16.5772 11.9157 16.5772 11.7731 16.5046L4.5 12.801Z" fill="black"/></svg>
