<svg xmlns="http://www.w3.org/2000/svg" viewBox="0 0 24 24" fill="none"><path fill-rule="evenodd" clip-rule="evenodd" d="M4 9C4 4.58172 7.58172 1 12 1C16.4183 1 20 4.58172 20 9C20 11.5264 18.8289 13.7793 17 15.2454V21.9988C17 22.3454 16.8205 22.6673 16.5257 22.8495C16.2309 23.0317 15.8628 23.0483 15.5528 22.8933L12 21.1169L8.44721 22.8933C8.13723 23.0483 7.76909 23.0317 7.47427 22.8495C7.17945 22.6673 7 22.3454 7 21.9988V15.2454C5.17108 13.7793 4 11.5264 4 9ZM9 16.4185V20.3808L11.5528 19.1044C11.8343 18.9636 12.1657 18.9636 12.4472 19.1044L15 20.3808V16.4185C14.0736 16.7935 13.0609 17 12 17C10.9391 17 9.92643 16.7935 9 16.4185Z" fill="black"/></svg>
