<svg xmlns="http://www.w3.org/2000/svg" viewBox="0 0 24 24" fill="none"><path fill-rule="evenodd" clip-rule="evenodd" d="M20 3C20.5523 3 21 3.44772 21 4V20C21 20.5523 20.5523 21 20 21H4C3.44772 21 3 20.5523 3 20V4C3 3.44772 3.44772 3 4 3H20ZM12 7C10.0885 7 8.30698 7.55887 6.81055 8.52148C6.34675 8.82025 6.27938 9.45385 6.62402 9.88477L8.375 12.0732C8.72011 12.5044 9.34666 12.563 9.83984 12.3145C10.4891 11.9869 11.2232 11.8018 12 11.8018C12.7768 11.8018 13.5109 11.9869 14.1602 12.3145C14.6533 12.563 15.2799 12.5044 15.625 12.0732L17.376 9.88477C17.7206 9.45385 17.6533 8.82025 17.1895 8.52148C15.693 7.55887 13.9115 7 12 7Z" fill="black"/></svg>
