<svg xmlns="http://www.w3.org/2000/svg" viewBox="0 0 24 24" fill="none"><path d="M20 3C20.5523 3 21 3.44772 21 4V9C21 9.55228 20.5523 10 20 10H15C14.4477 10 14 9.55228 14 9V7.5H9.94629C8.92383 7.5 8.56047 8.85293 9.44531 9.36523L15.5566 12.9033C18.2113 14.4402 17.1211 18.5 14.0537 18.5H10V20C10 20.5523 9.55228 21 9 21H4C3.44772 21 3 20.5523 3 20V15C3 14.4477 3.44772 14 4 14H9C9.55228 14 10 14.4477 10 15V16.5H14.0537C15.0762 16.5 15.4395 15.1471 14.5547 14.6348L8.44336 11.0967C5.78874 9.5598 6.87888 5.5 9.94629 5.5H14V4C14 3.44772 14.4477 3 15 3H20Z" fill="black"/></svg>
