<svg xmlns="http://www.w3.org/2000/svg" viewBox="0 0 24 24" fill="none"><path fill-rule="evenodd" clip-rule="evenodd" d="M3 5C3 4.44772 3.44772 4 4 4H20C20.5523 4 21 4.44772 21 5C21 5.55228 20.5523 6 20 6H4C3.44772 6 3 5.55228 3 5Z" fill="black"/><path d="M17 16.5C15.3431 16.5 14 17.8431 14 19.5C14 21.1569 15.3431 22.5 17 22.5C18.6569 22.5 20 21.1569 20 19.5C20 17.8431 18.6569 16.5 17 16.5Z" fill="black"/><path d="M7.0001 2C6.66575 2 6.35352 2.1671 6.16805 2.4453L3.97974 5.72778L3.99788 6H20.0051L20.0308 5.74322L17.8322 2.4453C17.6467 2.1671 17.3345 2 17.0001 2H7.0001Z" fill="black"/><path d="M19.8051 8H4.13122L5.00232 21.0665C5.03734 21.5918 5.47364 22 6.00011 22H12.6689C12.2435 21.2646 12 20.4107 12 19.5C12 16.7386 14.2386 14.5 17 14.5C17.7534 14.5 18.4679 14.6666 19.1086 14.965L19.8051 8Z" fill="black"/></svg>
