<svg xmlns="http://www.w3.org/2000/svg" viewBox="0 0 24 24" fill="none"><path d="M14.3999 2C12.7434 2 11.2456 2.68015 10.1685 3.77348C9.8027 3.69722 9.42424 3.65723 9.03725 3.65723C5.97491 3.65723 3.49976 6.14932 3.49976 9.21437C3.49976 10.9788 4.32 12.5519 5.59709 13.5692C5.90713 16.3405 8.24897 18.5 11.0998 18.5C12.5019 18.5 13.7825 17.9761 14.7569 17.1157C15.1738 17.2085 15.6066 17.2573 16.0499 17.2573C19.3401 17.2573 21.9999 14.5797 21.9999 11.2858C21.9999 9.65213 21.345 8.17007 20.2858 7.09235C19.8621 4.21386 17.3919 2 14.3999 2Z" fill="black"/><path d="M4 17C2.34315 17 1 18.3431 1 20C1 21.6569 2.34315 23 4 23C5.65685 23 7 21.6569 7 20C7 18.3431 5.65685 17 4 17Z" fill="black"/></svg>
