<svg xmlns="http://www.w3.org/2000/svg" viewBox="0 0 24 24" fill="none"><path fill-rule="evenodd" clip-rule="evenodd" d="M5.67635 3.25864C7.33264 1.77667 9.58091 1 12 1C14.4191 1 16.6674 1.77667 18.3237 3.25864C19.9923 4.75165 21 6.90902 21 9.52857C21 12.8115 19.6207 15.426 17.8313 17.2115C16.8761 18.1646 15.7786 18.9051 14.6816 19.3827L15.4487 21.6838C15.5503 21.9887 15.4992 22.3239 15.3112 22.5847C15.1233 22.8455 14.8214 23 14.5 23H9.5C9.17856 23 8.87671 22.8455 8.68876 22.5847C8.50081 22.3239 8.44967 21.9887 8.55132 21.6838L9.31835 19.3827C8.22137 18.9051 7.12393 18.1646 6.16867 17.2115C4.3793 15.426 3 12.8115 3 9.52857C3 6.90902 4.00771 4.75165 5.67635 3.25864ZM11.2393 19.9445L10.8874 21H13.1126L12.7607 19.9445C12.5012 19.9812 12.2469 20 12 20C11.7531 20 11.4988 19.9812 11.2393 19.9445ZM11.976 5.89014C12.0963 6.42916 11.7569 6.96366 11.2179 7.08398C10.1334 7.32606 9.32553 8.07133 9.07924 9.21119C8.96261 9.75102 8.43044 10.0941 7.89061 9.97745C7.35078 9.86081 7.00772 9.32864 7.12435 8.78881C7.54659 6.83459 8.98947 5.53219 10.7821 5.13202C11.3212 5.0117 11.8557 5.35112 11.976 5.89014Z" fill="black"/></svg>
