<svg xmlns="http://www.w3.org/2000/svg" viewBox="0 0 24 24" fill="none"><path d="M13.0007 3C13.0007 2.44772 12.553 2 12.0007 2C11.4484 2 11.0007 2.44772 11.0007 3V4C11.0007 4.55228 11.4484 5 12.0007 5C12.553 5 13.0007 4.55228 13.0007 4V3Z" fill="black"/><path d="M4.34383 3.92888C3.9533 3.53836 3.32014 3.53836 2.92961 3.92888C2.53909 4.3194 2.53909 4.95257 2.92961 5.34309L3.63672 6.0502C4.02724 6.44072 4.66041 6.44072 5.05093 6.0502C5.44146 5.65968 5.44146 5.02651 5.05093 4.63599L4.34383 3.92888Z" fill="black"/><path d="M21.0719 5.34309C21.4624 4.95257 21.4624 4.3194 21.0719 3.92888C20.6813 3.53836 20.0482 3.53836 19.6576 3.92888L18.9505 4.63599C18.56 5.02651 18.56 5.65968 18.9505 6.0502C19.3411 6.44072 19.9742 6.44072 20.3647 6.0502L21.0719 5.34309Z" fill="black"/><path d="M8.00064 7C7.69686 7 7.40955 7.13809 7.21978 7.37531L3.52002 12H20.4813L16.7815 7.37531C16.5917 7.13809 16.3044 7 16.0006 7H8.00064Z" fill="black"/><path d="M11.2935 21.7071L3.58643 14H20.4149L12.7078 21.7071C12.3172 22.0976 11.6841 22.0976 11.2935 21.7071Z" fill="black"/></svg>
