<svg xmlns="http://www.w3.org/2000/svg" viewBox="0 0 24 24" fill="none"><path fill-rule="evenodd" clip-rule="evenodd" d="M7.5 3C6.94772 3 6.5 3.44772 6.5 4V20C6.5 20.5523 6.94772 21 7.5 21H12.5C13.0523 21 13.5 20.5523 13.5 20V4C13.5 3.44772 13.0523 3 12.5 3H7.5ZM8 7.5C8 7.22386 8.22386 7 8.5 7H11.5C11.7761 7 12 7.22386 12 7.5V8.5C12 8.77614 11.7761 9 11.5 9H8.5C8.22386 9 8 8.77614 8 8.5V7.5ZM8.5 15C8.22386 15 8 15.2239 8 15.5V16.5C8 16.7761 8.22386 17 8.5 17H11.5C11.7761 17 12 16.7761 12 16.5V15.5C12 15.2239 11.7761 15 11.5 15H8.5Z" fill="black"/><path d="M3 5C2.44772 5 2 5.44772 2 6V20C2 20.5523 2.44772 21 3 21H4.5C5.05228 21 5.5 20.5523 5.5 20V6C5.5 5.44772 5.05228 5 4.5 5H3Z" fill="black"/><path fill-rule="evenodd" clip-rule="evenodd" d="M13.5256 7.63301C13.3734 7.10212 13.6804 6.54835 14.2113 6.39612L17.095 5.5692C17.6259 5.41697 18.1797 5.72394 18.3319 6.25483L21.9152 18.7512C22.0675 19.2821 21.7605 19.8359 21.2296 19.9881L18.3458 20.815C17.8149 20.9673 17.2612 20.6603 17.1089 20.1294L13.5256 7.63301Z" fill="black"/></svg>
