<svg xmlns="http://www.w3.org/2000/svg" viewBox="0 0 24 24" fill="none"><path fill-rule="evenodd" clip-rule="evenodd" d="M12.0061 2.9449C12.0667 2.39596 12.5609 2.00015 13.1099 2.06083C18.1109 2.61366 22 6.85189 22 11.9998C22 17.5227 17.5228 21.9998 12 21.9998C6.47715 21.9998 2 17.5227 2 11.9998C2 8.53176 3.76629 5.47661 6.44374 3.68439C6.90269 3.37717 7.5238 3.50018 7.83101 3.95914C8.13822 4.41809 8.01521 5.03919 7.55626 5.3464C5.40977 6.78322 4 9.2271 4 11.9998C4 16.4181 7.58172 19.9998 12 19.9998C16.4183 19.9998 20 16.4181 20 11.9998C20 7.88269 16.889 4.49078 12.8901 4.04872C12.3412 3.98804 11.9454 3.49384 12.0061 2.9449Z" fill="black"/><path fill-rule="evenodd" clip-rule="evenodd" d="M12.0165 6.40936C12.1162 5.86616 12.6375 5.5067 13.1807 5.60647C16.2069 6.16234 18.5 8.81199 18.5 11.9993C18.5 15.5892 15.5899 18.4993 12 18.4993C8.41015 18.4993 5.5 15.5892 5.5 11.9993C5.5 11.1673 5.65683 10.3695 5.94345 9.63556C6.14436 9.12111 6.72427 8.86694 7.23871 9.06784C7.75316 9.26875 8.00733 9.84866 7.80643 10.3631C7.6089 10.8689 7.5 11.4202 7.5 11.9993C7.5 14.4846 9.51472 16.4993 12 16.4993C14.4853 16.4993 16.5 14.4846 16.5 11.9993C16.5 9.79453 14.9134 7.95821 12.8193 7.57356C12.2761 7.47379 11.9167 6.95255 12.0165 6.40936Z" fill="black"/><path fill-rule="evenodd" clip-rule="evenodd" d="M12.1326 9.76702C12.4092 9.28896 13.0209 9.1256 13.499 9.40214C14.393 9.91934 14.9982 10.8885 14.9982 12.0002C14.9982 13.657 13.6551 15.0002 11.9982 15.0002C10.8865 15.0002 9.91739 14.395 9.40019 13.5009C9.12364 13.0228 9.287 12.4111 9.76507 12.1346C10.2431 11.858 10.8549 12.0214 11.1314 12.4995C11.3058 12.801 11.6293 13.0002 11.9982 13.0002C12.5505 13.0002 12.9982 12.5525 12.9982 12.0002C12.9982 11.6313 12.799 11.3078 12.4975 11.1334C12.0194 10.8568 11.8561 10.2451 12.1326 9.76702Z" fill="black"/></svg>
