<svg xmlns="http://www.w3.org/2000/svg" viewBox="0 0 24 24" fill="none"><path d="M17.2071 2.79289C16.8166 2.40237 16.1834 2.40237 15.7929 2.79289L9.29289 9.29289C8.90237 9.68342 8.90237 10.3166 9.29289 10.7071L11.7929 13.2071C12.1834 13.5976 12.8166 13.5976 13.2071 13.2071L15.75 10.6642L19.7929 14.7071C20.1834 15.0976 20.8166 15.0976 21.2071 14.7071C21.5976 14.3166 21.5976 13.6834 21.2071 13.2929L17.1642 9.25L19.7071 6.70711C20.0976 6.31658 20.0976 5.68342 19.7071 5.29289L17.2071 2.79289Z" fill="black"/><path d="M4.70711 7.29289C4.31658 6.90237 3.68342 6.90237 3.29289 7.29289C2.90237 7.68342 2.90237 8.31658 3.29289 8.70711L4.79289 10.2071C5.18342 10.5976 5.81658 10.5976 6.20711 10.2071C6.59763 9.81658 6.59763 9.18342 6.20711 8.79289L4.70711 7.29289Z" fill="black"/><path d="M2 12C1.44772 12 1 12.4477 1 13C1 13.5523 1.44772 14 2 14H4C4.55228 14 5 13.5523 5 13C5 12.4477 4.55228 12 4 12H2Z" fill="black"/><path d="M5 16C4.56957 16 4.18743 16.2754 4.05132 16.6838L3.27924 19H3C2.44772 19 2 19.4477 2 20C2 20.5523 2.44772 21 3 21H16C16.5523 21 17 20.5523 17 20C17 19.4477 16.5523 19 16 19H15.7208L14.9487 16.6838C14.8126 16.2754 14.4304 16 14 16H5Z" fill="black"/></svg>
