<svg xmlns="http://www.w3.org/2000/svg" viewBox="0 0 24 24" fill="none"><path fill-rule="evenodd" clip-rule="evenodd" d="M2 6C2 4.34315 3.34315 3 5 3C5.75711 3 6.44851 3.28097 6.97564 3.74248C8.46371 3.37239 10.3597 3 12 3C13.6403 3 15.5363 3.37239 17.0244 3.74248C17.5515 3.28097 18.2429 3 19 3C20.6569 3 22 4.34315 22 6C22 6.71255 21.751 7.36716 21.3369 7.88118C21.6775 9.12037 22 10.6433 22 12C22 13.3567 21.6775 14.8796 21.3369 16.1188C21.751 16.6328 22 17.2874 22 18C22 19.6569 20.6569 21 19 21C18.2458 21 17.5569 20.7212 17.0305 20.2629C15.5522 20.6316 13.6662 21 12 21C10.3338 21 8.44781 20.6316 6.96946 20.2629C6.44311 20.7212 5.75415 21 5 21C3.34315 21 2 19.6569 2 18C2 17.2874 2.249 16.6328 2.66312 16.1188C2.32248 14.8796 2 13.3567 2 12C2 10.6433 2.32248 9.12037 2.66311 7.88118C2.249 7.36716 2 6.71255 2 6ZM10 8.5C9.44772 8.5 9 8.94772 9 9.5C9 10.0523 9.44772 10.5 10 10.5H11.9194L9.21913 13.8753C8.979 14.1755 8.93218 14.5867 9.0987 14.9332C9.26522 15.2797 9.61559 15.5 10 15.5H14C14.5523 15.5 15 15.0523 15 14.5C15 13.9477 14.5523 13.5 14 13.5H12.0806L14.7809 10.1247C15.021 9.82452 15.0678 9.41328 14.9013 9.06681C14.7348 8.72035 14.3844 8.5 14 8.5H10Z" fill="black"/></svg>
