<svg xmlns="http://www.w3.org/2000/svg" viewBox="0 0 24 24" fill="none"><path d="M15.0344 4.278C13.9964 4.65579 13.4612 5.80347 13.839 6.84143L15.7201 12.0097C16.0979 13.0477 17.2456 13.5829 18.2836 13.2051L22.982 11.495C23.501 11.3061 23.7686 10.7322 23.5797 10.2133L21.0145 3.16558C20.8257 2.6466 20.2518 2.37901 19.7328 2.5679L15.0344 4.278Z" fill="black"/><path d="M6.96221 9.87647C6.67887 9.098 7.08025 8.23724 7.85872 7.9539L12.0873 6.41481L14.6525 13.4625L11.9992 14.4282V19.0001H13.9992C14.5515 19.0001 14.9992 19.4478 14.9992 20.0001C14.9992 20.5524 14.5515 21.0001 13.9992 21.0001H7.99923C7.44694 21.0001 6.99923 20.5524 6.99923 20.0001C6.99923 19.4478 7.44694 19.0001 7.99923 19.0001H9.99923V15.0898C9.35416 15.1282 8.73362 14.7434 8.5013 14.1051L6.96221 9.87647Z" fill="black"/><path d="M1.19634 13.0391C0.912999 12.2606 1.31438 11.3998 2.09285 11.1165L5.38177 9.91942L7.26288 15.0877L3.97396 16.2848C3.19549 16.5681 2.33473 16.1668 2.05139 15.3883L1.19634 13.0391Z" fill="black"/></svg>
