<svg xmlns="http://www.w3.org/2000/svg" viewBox="0 0 24 24" fill="none"><path fill-rule="evenodd" clip-rule="evenodd" d="M10 7C10.5523 7 11 7.44772 11 8V13H16C16.5523 13 17 13.4477 17 14V20C17 20.5523 16.5523 21 16 21H4C3.44772 21 3 20.5523 3 20V8C3 7.44772 3.44772 7 4 7H10ZM11 19H15V15H11V19ZM5 13H9V9H5V13Z" fill="black"/><path fill-rule="evenodd" clip-rule="evenodd" d="M20 3C20.5523 3 21 3.44772 21 4V10C21 10.5523 20.5523 11 20 11H14C13.4477 11 13 10.5523 13 10V4C13 3.44772 13.4477 3 14 3H20Z" fill="black"/></svg>
