<svg xmlns="http://www.w3.org/2000/svg" viewBox="0 0 24 24" fill="none"><path fill-rule="evenodd" clip-rule="evenodd" d="M18.5334 2C18.8211 2 19.0861 2.15758 19.2239 2.41016L21.5862 6.74023C21.824 7.17632 21.7062 7.72143 21.3088 8.01953L20.4953 8.62891C20.1923 8.85617 19.7863 8.89302 19.4475 8.72363L18.0002 8L17.0002 10L19.3635 18.0352C19.734 17.8375 20.1055 17.6256 20.4768 17.3975C20.9473 17.1086 21.5637 17.2562 21.8528 17.7266C22.1417 18.1971 21.9942 18.8135 21.5237 19.1025C18.4078 21.0167 15.2207 22 12.0002 22C8.77985 21.9999 5.59268 21.0167 2.47679 19.1025C2.00657 18.8135 1.85898 18.197 2.14769 17.7266C2.43668 17.2562 3.05316 17.1088 3.52367 17.3975C3.88705 17.6207 4.25091 17.8284 4.61351 18.0225L6.52367 10H6.00023C4.89591 10.0002 4.00023 10.8956 4.00023 12C4.00017 12.5522 3.55248 13 3.00023 13C2.44817 12.9998 2.0003 12.5521 2.00023 12C2.00023 9.79106 3.79134 8.00021 6.00023 8H12.0002L12.5666 6.30078C13.4227 3.73262 15.8264 2.0002 18.5334 2ZM10.7444 15C10.3029 15.0001 9.91323 15.29 9.78637 15.7129L8.62426 19.584C9.7548 19.8605 10.8799 20 12.0002 20C13.1202 20 14.2451 19.8603 15.3752 19.584L14.2141 15.7129C14.0872 15.2901 13.6985 15.0002 13.2571 15H10.7444Z" fill="black"/></svg>
