<svg xmlns="http://www.w3.org/2000/svg" viewBox="0 0 24 24" fill="none"><path fill-rule="evenodd" clip-rule="evenodd" d="M8.0022 3C7.44991 3 7.0022 3.44772 7.0022 4V7H3C2.44772 7 2 7.44772 2 8V12H22.0022C22.0022 11.9775 22.0015 11.9553 22 11.9332V8C22 7.44772 21.5523 7 21 7H17.0022V4C17.0022 3.44772 16.5545 3 16.0022 3H8.0022ZM15.0022 7V5H9.0022V7H15.0022Z" fill="black"/><path d="M22.0022 14V20C22.0022 20.5523 21.5545 21 21.0022 21H3.0022C2.44991 21 2.0022 20.5523 2.0022 20V14H11.0007L11.0022 16.0007C11.0026 16.553 11.4506 17.0004 12.0029 17C12.5552 16.9996 13.0026 16.5516 13.0022 15.9993L13.0007 14L22.0022 14Z" fill="black"/></svg>
