<svg xmlns="http://www.w3.org/2000/svg" viewBox="0 0 24 24" fill="none"><path d="M11.7277 15.9625C9.66439 15.3786 7.92507 14.9119 6 15.6511V21.0003C6 21.5526 5.55228 22.0003 5 22.0003C4.44772 22.0003 4 21.5526 4 21.0003V4.00028C4 3.62089 4.2147 3.27416 4.55434 3.10508C7.43846 1.66927 10.001 2.39492 12.1859 3.01361L12.2723 3.03807C14.5317 3.67746 16.4026 4.17628 18.5543 3.10508C18.8643 2.95076 19.2321 2.96779 19.5265 3.15009C19.8209 3.33239 20 3.65402 20 4.00028V15.0003C20 15.3797 19.7853 15.7264 19.4457 15.8955C16.5615 17.3313 13.999 16.6057 11.8141 15.987L11.7277 15.9625Z" fill="black"/></svg>
