<svg xmlns="http://www.w3.org/2000/svg" viewBox="0 0 24 24" fill="none"><path fill-rule="evenodd" clip-rule="evenodd" d="M6.79289 3.29289C6.98043 3.10536 7.23478 3 7.5 3H16.5C16.7652 3 17.0196 3.10536 17.2071 3.29289L23.2071 9.29289C23.5976 9.68342 23.5976 10.3166 23.2071 10.7071L12.7071 21.2071C12.3166 21.5976 11.6834 21.5976 11.2929 21.2071L0.792893 10.7071C0.402369 10.3166 0.402369 9.68342 0.792893 9.29289L6.79289 3.29289ZM10.2071 8.70711C10.5976 8.31658 10.5976 7.68342 10.2071 7.29289C9.81658 6.90237 9.18342 6.90237 8.79289 7.29289L6.79289 9.29289C6.40237 9.68342 6.40237 10.3166 6.79289 10.7071L8.79289 12.7071C9.18342 13.0976 9.81658 13.0976 10.2071 12.7071C10.5976 12.3166 10.5976 11.6834 10.2071 11.2929L8.91421 10L10.2071 8.70711Z" fill="black"/></svg>
