<svg xmlns="http://www.w3.org/2000/svg" viewBox="0 0 24 24" fill="none"><path d="M15 3H20C20.5523 3 21 3.44772 21 4V20C21 20.5523 20.5523 21 20 21H15V12.8293C16.1652 12.4175 17 11.3062 17 10C17 8.69378 16.1652 7.58254 15 7.17071V3Z" fill="black"/><path d="M13 21.0001V12.8291C12.8997 12.7936 12.8018 12.753 12.7068 12.7075L9.70711 15.7072C9.31658 16.0977 8.68342 16.0977 8.29289 15.7072L7 14.4143L3 18.4143V20.0001C3 20.5524 3.44772 21.0001 4 21.0001H13Z" fill="black"/><path d="M3 15.5858V4C3 3.44772 3.44772 3 4 3H13V7.17071C11.8348 7.58254 11 8.69378 11 10C11 10.4628 11.1052 10.9016 11.2926 11.2932L9 13.5858L7.70711 12.2929C7.31658 11.9024 6.68342 11.9024 6.29289 12.2929L3 15.5858Z" fill="black"/><path d="M13 10C13 9.44772 13.4477 9 14 9C14.5523 9 15 9.44772 15 10C15 10.5523 14.5523 11 14 11C13.7236 11 13.475 10.8892 13.2929 10.7071C13.1108 10.525 13 10.2764 13 10Z" fill="black"/></svg>
