<svg xmlns="http://www.w3.org/2000/svg" viewBox="0 0 24 24" fill="none"><path fill-rule="evenodd" clip-rule="evenodd" d="M8.9089 4.00009C8.90016 3.99997 8.89139 3.99997 8.88261 4.00009H3C2.44772 4.00009 2 4.4478 2 5.00009V19.0001C2 19.5524 2.44772 20.0001 3 20.0001H8C8.54519 20.0001 8.98991 19.5634 8.99983 19.0183C8.99995 19.0122 9.00005 19.0062 9.00014 19.0001H14.9999C15 19.0062 15.0001 19.0122 15.0002 19.0183C15.0101 19.5634 15.4548 20.0001 16 20.0001H21C21.5523 20.0001 22 19.5524 22 19.0001V5.00009C22 4.4478 21.5523 4.00009 21 4.00009H15.1174C15.1086 3.99997 15.0998 3.99997 15.0911 4.00009H8.9089ZM16.0239 6.00009C15.9129 7.90884 16.1888 9.28648 16.8386 10.3166C17.4317 11.2569 18.4147 12.0298 20 12.6295V6.00009H16.0239ZM20 14.9928V18.0001H17.0794C17.2288 17.1936 17.5788 16.4906 18.0664 15.9713C18.556 15.45 19.2052 15.0889 20 14.9928ZM6.92056 18.0001C6.77118 17.1936 6.42121 16.4906 5.93359 15.9713C5.444 15.45 4.79484 15.0889 4 14.9928V18.0001H6.92056ZM4 12.6295C5.58534 12.0298 6.5683 11.2569 7.16142 10.3166C7.81117 9.28648 8.0871 7.90884 7.97611 6.00009H4V12.6295Z" fill="black"/></svg>
