<svg xmlns="http://www.w3.org/2000/svg" viewBox="0 0 24 24" fill="none"><path fill-rule="evenodd" clip-rule="evenodd" d="M2 7C2 4.79086 3.79086 3 6 3C8.20914 3 10 4.79086 10 7C10 8.04963 9.59571 9.00484 8.93436 9.7184L10.9995 10.573V8.50001C10.9995 8.10996 11.2263 7.75551 11.5805 7.59205L18.0805 4.59205C18.4309 4.4303 18.8432 4.48469 19.1397 4.73179L22.1397 7.23179C22.4087 7.45595 22.5409 7.80448 22.4881 8.15064C22.4354 8.49679 22.2054 8.79015 21.8819 8.92403L14.4483 12L21.8819 15.076C22.2054 15.2099 22.4354 15.5032 22.4881 15.8494C22.5409 16.1955 22.4087 16.5441 22.1397 16.7682L19.1397 19.2682C18.8432 19.5153 18.4309 19.5697 18.0805 19.408L11.5805 16.408C11.2263 16.2445 10.9995 15.8901 10.9995 15.5V13.4271L8.93438 14.2816C9.59572 14.9952 10 15.9504 10 17C10 19.2091 8.20914 21 6 21C3.79086 21 2 19.2091 2 17C2 14.7909 3.79086 13 6 13C6.22727 13 6.45012 13.019 6.66704 13.0554L9.21748 12L6.667 10.9446C6.45009 10.981 6.22726 11 6 11C3.79086 11 2 9.20914 2 7ZM6 5C4.89543 5 4 5.89543 4 7C4 8.10457 4.89543 9 6 9C7.10457 9 8 8.10457 8 7C8 5.89543 7.10457 5 6 5ZM6 15C4.89543 15 4 15.8954 4 17C4 18.1046 4.89543 19 6 19C7.10457 19 8 18.1046 8 17C8 15.8954 7.10457 15 6 15Z" fill="black"/></svg>
