<svg xmlns="http://www.w3.org/2000/svg" viewBox="0 0 24 24" fill="none"><path d="M8 4H16V10H13C13 9.44772 12.5523 9 12 9C11.4477 9 11 9.44772 11 10H8V4Z" fill="black"/><path d="M11 12H8V20H16V12H13C13 12.5523 12.5523 13 12 13C11.4477 13 11 12.5523 11 12Z" fill="black"/><path d="M18 12V20H21C21.5523 20 22 19.5523 22 19V12H18Z" fill="black"/><path d="M18 4V10H22V8C22 5.79086 20.2091 4 18 4Z" fill="black"/><path d="M6 4C3.79086 4 2 5.79086 2 8V10H6V4Z" fill="black"/><path d="M6 12H2V19C2 19.5523 2.44772 20 3 20H6V12Z" fill="black"/></svg>
