<svg xmlns="http://www.w3.org/2000/svg" viewBox="0 0 24 24" fill="none"><path d="M21 9.50041C21 9.95931 20.6877 10.3593 20.2425 10.4706L18.1826 10.9854C17.4876 11.1592 17 11.7835 17 12.5C17 13.2165 17.4876 13.8408 18.1826 14.0146L20.2425 14.5294C20.6877 14.6407 21 15.0407 21 15.4996V19C21 19.5523 20.5523 20 20 20H5C4.44772 20 4 19.5523 4 19V15.4996C4 15.0407 4.31234 14.6407 4.75755 14.5294L6.65332 14.0557C7.44458 13.8578 8 13.1467 8 12.3311C7.99985 11.6487 7.60922 11.0297 7 10.7334V4H20C20.5523 4 21 4.44772 21 5V9.50041Z" fill="black"/><path d="M5 9.87305L1.60616 8.4189C1.23844 8.26134 1 7.89978 1 7.49972V5C1 4.44772 1.44772 4 2 4H5V9.87305Z" fill="black"/></svg>
