<svg xmlns="http://www.w3.org/2000/svg" viewBox="0 0 24 24" fill="none"><path d="M17.2929 2.29273C17.659 1.92662 18.238 1.90402 18.6307 2.22437L18.7069 2.29273L21.7069 5.29273L21.7753 5.36891C22.0955 5.76168 22.073 6.34074 21.7069 6.7068C21.3408 7.07279 20.7618 7.09535 20.369 6.77516L20.2929 6.7068L19.4999 5.91383L17.9139 7.49977L20.7069 10.2927L20.7753 10.3689C21.0955 10.7617 21.073 11.3407 20.7069 11.7068C20.3408 12.0728 19.7618 12.0953 19.369 11.7752L19.2929 11.7068L18.4999 10.9138L10.2069 19.2068C9.81644 19.5972 9.18336 19.5971 8.79285 19.2068L7.49988 17.9138L3.70692 21.7068C3.31644 22.0972 2.68336 22.0971 2.29285 21.7068C1.90236 21.3163 1.90241 20.6833 2.29285 20.2927L6.08582 16.4998L4.79285 15.2068C4.40236 14.8163 4.40241 14.1833 4.79285 13.7927L13.0858 5.49977L12.2929 4.7068L12.2245 4.63063C11.9042 4.23788 11.9268 3.65885 12.2929 3.29273C12.659 2.92662 13.238 2.90402 13.6307 3.22438L13.7069 3.29273L16.4999 6.0857L18.0858 4.49977L17.2929 3.7068L17.2245 3.63063C16.9042 3.23788 16.9268 2.65885 17.2929 2.29273Z" fill="black"/></svg>
