<svg xmlns="http://www.w3.org/2000/svg" viewBox="0 0 24 24" fill="none"><path d="M14.9524 2.78408C14.6962 2.71543 14.4232 2.75137 14.1935 2.88398C13.9639 3.01659 13.7963 3.235 13.7276 3.49118L12.1747 9.28674C12.1061 9.54292 12.142 9.81587 12.2746 10.0456C12.4072 10.2752 12.6256 10.4428 12.8818 10.5115L18.6774 12.0644C18.9335 12.133 19.2065 12.0971 19.4362 11.9645C19.6659 11.8319 19.8335 11.6135 19.9021 11.3573L21.455 5.56174C21.598 5.02827 21.2814 4.47993 20.7479 4.33699L14.9524 2.78408Z" fill="black"/><path d="M5.34588 6.36593C5.0722 6.13628 4.69679 6.07009 4.36107 6.19228C4.02535 6.31447 3.78032 6.60649 3.71828 6.95832L2.51521 13.7813C2.45318 14.1331 2.58355 14.4913 2.85723 14.721C3.13092 14.9506 3.50632 15.0168 3.84204 14.8946L10.3524 12.525C10.6881 12.4028 10.9332 12.1108 10.9952 11.759C11.0573 11.4071 10.9269 11.0489 10.6532 10.8193L5.34588 6.36593Z" fill="black"/><path d="M14.4453 13C12.2362 13 10.4453 14.7909 10.4453 17C10.4453 19.2091 12.2362 21 14.4453 21C16.6545 21 18.4453 19.2091 18.4453 17C18.4453 14.7909 16.6545 13 14.4453 13Z" fill="black"/></svg>
