<svg xmlns="http://www.w3.org/2000/svg" viewBox="0 0 24 24" fill="none"><path fill-rule="evenodd" clip-rule="evenodd" d="M3 4C3 3.44772 3.44772 3 4 3H20C20.5523 3 21 3.44772 21 4V20C21 20.5523 20.5523 21 20 21H4C3.44772 21 3 20.5523 3 20V4ZM7 16C7 15.4477 7.44772 15 8 15H16C16.5523 15 17 15.4477 17 16C17 16.5523 16.5523 17 16 17H8C7.44772 17 7 16.5523 7 16ZM8 7C7.44772 7 7 7.44772 7 8V10C7 10.5523 7.44772 11 8 11H10C10.5523 11 11 10.5523 11 10V8C11 7.44772 10.5523 7 10 7H8Z" fill="black"/></svg>
