<svg xmlns="http://www.w3.org/2000/svg" viewBox="0 0 24 24" fill="none"><path fill-rule="evenodd" clip-rule="evenodd" d="M3.11732 21.4239C2.74364 21.2691 2.5 20.9045 2.5 20.5V12C2.5 6.75332 6.75329 2.50003 12 2.50003C14.2627 2.50003 16.3419 3.29209 17.9733 4.61254L19.7929 2.79292C20.0789 2.50692 20.509 2.42137 20.8827 2.57615C21.2564 2.73093 21.5 3.09557 21.5 3.50003V12C21.5 17.2467 17.2467 21.5 12 21.5C9.73726 21.5 7.6581 20.708 6.02673 19.3875L4.20711 21.2071C3.92111 21.4931 3.49099 21.5787 3.11732 21.4239ZM12 15.5C13.933 15.5 15.5 13.933 15.5 12C15.5 10.067 13.933 8.5 12 8.5C10.067 8.5 8.5 10.067 8.5 12C8.5 13.933 10.067 15.5 12 15.5Z" fill="black"/></svg>
