<svg xmlns="http://www.w3.org/2000/svg" viewBox="0 0 24 24" fill="none"><path d="M10.1121 13.4942C9.83968 13.7237 9.56313 13.9721 9.29949 14.2312C8.23359 12.0613 7.44796 9.60503 7.05182 7.49879C6.81403 6.23445 6.72604 5.14516 6.7818 4.34752C6.80978 3.94731 6.87122 3.66409 6.94085 3.48312C6.96597 3.41782 6.98789 3.37644 7.00314 3.35176C7.03214 3.35089 7.07893 3.35261 7.14805 3.3635C7.33958 3.39368 7.61558 3.48209 7.97616 3.65796C8.69481 4.00849 9.59418 4.62933 10.5702 5.46744C12.1962 6.86362 13.9306 8.77213 15.2768 10.7802C14.9206 10.8789 14.5673 10.9943 14.2322 11.1154C13.3983 11.4171 12.6021 11.7828 12.0536 12.0995C11.5052 12.4161 10.7903 12.9228 10.1121 13.4942Z" fill="black"/><path d="M4.76941 5.08691C1.77398 8.21571 1.0626 13.0606 3.33751 17.0009C3.7092 17.6447 4.62845 17.6722 5.03805 17.0519C5.73704 15.9932 6.57339 15.3094 7.43963 14.978C6.31937 12.663 5.50497 10.0893 5.08725 7.8683C4.90063 6.87609 4.78812 5.92805 4.76941 5.08691Z" fill="black"/><path d="M9.625 2.28377C10.3441 2.72054 11.1089 3.292 11.8748 3.94972C13.5894 5.422 15.4111 7.41411 16.8558 9.54179C17.5759 8.95728 18.5863 8.57489 19.8526 8.4989C20.5947 8.45437 21.0304 7.64448 20.6587 7.00069C18.3838 3.06044 13.8323 1.25405 9.625 2.28377Z" fill="black"/><path d="M13.9508 13.3838C13.5962 13.5416 13.2869 13.6974 13.0546 13.8315C12.8224 13.9656 12.5328 14.1556 12.2188 14.3838L15.6318 20.2953C15.9079 20.7736 16.5195 20.9375 16.9978 20.6613C17.4761 20.3852 17.64 19.7736 17.3638 19.2953L13.9508 13.3838Z" fill="black"/></svg>
