<svg xmlns="http://www.w3.org/2000/svg" viewBox="0 0 24 24" fill="none"><path d="M2.3154 4.05105C2.01051 3.94971 1.6755 4.00104 1.41494 4.18902C1.15437 4.37699 1 4.67872 1 5.00001V19C1 19.3221 1.15518 19.6245 1.41687 19.8124C1.67857 20.0002 2.01473 20.0505 2.31993 19.9474C8.97266 17.701 15.0273 17.701 21.6801 19.9474C21.9853 20.0505 22.3214 20.0002 22.5831 19.8124C22.8448 19.6245 23 19.3221 23 19V5.00001C23 4.67872 22.8456 4.37699 22.5851 4.18902C22.3245 4.00104 21.9895 3.94971 21.6846 4.05105C14.9915 6.27563 9.00853 6.27563 2.3154 4.05105Z" fill="black"/></svg>
