<svg xmlns="http://www.w3.org/2000/svg" viewBox="0 0 24 24" fill="none"><path fill-rule="evenodd" clip-rule="evenodd" d="M11.5097 2.12842C11.8142 1.95719 12.1858 1.95719 12.4903 2.12842L14.6693 3.35415C15.1507 3.62492 15.3214 4.23463 15.0506 4.71599C14.7799 5.19735 14.1702 5.36807 13.6888 5.0973L13 4.70985V6C13 6.55228 12.5523 7 12 7C11.4477 7 11 6.55228 11 6V4.70985L10.3112 5.0973C9.82983 5.36807 9.22012 5.19735 8.94935 4.71599C8.67859 4.23463 8.84931 3.62492 9.33067 3.35415L11.5097 2.12842ZM16.871 5.73994C17.1418 5.25858 17.7515 5.08786 18.2328 5.35863L20.4903 6.62842C20.8051 6.80554 21 7.13873 21 7.5V10C21 10.5523 20.5523 11 20 11C19.4477 11 19 10.5523 19 10V9.23205L17.9019 9.86603C17.4236 10.1422 16.812 9.97829 16.5359 9.5C16.2598 9.02171 16.4236 8.41012 16.9019 8.13397L17.9804 7.51132L17.2523 7.10178C16.771 6.83101 16.6002 6.2213 16.871 5.73994ZM7.12899 5.73994C7.39975 6.2213 7.22903 6.83102 6.74768 7.10178L6.01961 7.51132L7.09808 8.13397C7.57637 8.41012 7.74024 9.02171 7.4641 9.5C7.18796 9.97829 6.57637 10.1422 6.09808 9.86603L5 9.23205L5 10C5 10.5523 4.55228 11 4 11C3.44771 11 3 10.5523 3 10L3 7.5C3 7.13873 3.19486 6.80554 3.50974 6.62843L5.76715 5.35863C6.24851 5.08787 6.85823 5.25859 7.12899 5.73994ZM4 13C4.55228 13 5 13.4477 5 14V14.768L6.09808 14.134C6.57637 13.8578 7.18796 14.0217 7.4641 14.5C7.74024 14.9783 7.57637 15.5899 7.09808 15.866L6.0196 16.4887L6.74768 16.8982C7.22903 17.169 7.39975 17.7787 7.12899 18.2601C6.85823 18.7414 6.24851 18.9121 5.76715 18.6414L3.50974 17.3716C3.19486 17.1945 3 16.8613 3 16.5V14C3 13.4477 3.44772 13 4 13ZM20 13C20.5523 13 21 13.4477 21 14V16.5C21 16.8613 20.8051 17.1945 20.4903 17.3716L18.2328 18.6414C17.7515 18.9121 17.1418 18.7414 16.871 18.2601C16.6002 17.7787 16.771 17.169 17.2523 16.8982L17.9804 16.4887L16.9019 15.866C16.4236 15.5899 16.2598 14.9783 16.5359 14.5C16.812 14.0217 17.4236 13.8578 17.9019 14.134L19 14.7679V14C19 13.4477 19.4477 13 20 13ZM12 17C12.5523 17 13 17.4477 13 18V19.2902L13.6888 18.9027C14.1702 18.6319 14.7799 18.8026 15.0507 19.284C15.3214 19.7654 15.1507 20.3751 14.6693 20.6458L12.4903 21.8716C12.1858 22.0428 11.8142 22.0428 11.5097 21.8716L9.33066 20.6458C8.8493 20.3751 8.67858 19.7654 8.94934 19.284C9.22011 18.8026 9.82982 18.6319 10.3112 18.9027L11 19.2902V18C11 17.4477 11.4477 17 12 17Z" fill="black"/><path fill-rule="evenodd" clip-rule="evenodd" d="M14.5981 10.5C14.8742 10.9783 14.7104 11.5899 14.2321 11.866L13 12.5774V14C13 14.5523 12.5523 15 12 15C11.4477 15 11 14.5523 11 14V12.5774L9.76794 11.866C9.28965 11.5899 9.12578 10.9783 9.40192 10.5C9.67806 10.0217 10.2897 9.85783 10.7679 10.134L12 10.8453L13.2321 10.134C13.7103 9.85783 14.3219 10.0217 14.5981 10.5Z" fill="black"/></svg>
