<svg xmlns="http://www.w3.org/2000/svg" viewBox="0 0 24 24" fill="none"><path d="M11.5001 1.13385C11.8095 0.95522 12.1907 0.95522 12.5001 1.13385L16.6605 3.53585L9.0001 7.95858V2.57723L11.5001 1.13385Z" fill="black"/><path d="M7.0001 3.73193L2.83984 6.13385C2.53044 6.31249 2.33984 6.64261 2.33984 6.99988V9.88671L7.0001 12.5773V3.73193Z" fill="black"/><path d="M2.33984 12.1961V16.9999C2.33984 17.3571 2.53044 17.6873 2.83984 17.8659L5.33997 19.3094L10.0002 16.6188L2.33984 12.1961Z" fill="black"/><path d="M7.33997 20.4641L11.5001 22.8659C11.8095 23.0445 12.1907 23.0445 12.5001 22.8659L15.0001 21.4225V16.0415L7.33997 20.4641Z" fill="black"/><path d="M17.0001 20.2678L21.1604 17.8659C21.4698 17.6873 21.6604 17.3571 21.6604 16.9999V14.1132L17.0001 11.4226V20.2678Z" fill="black"/><path d="M21.6604 11.8038V6.99988C21.6604 6.64261 21.4698 6.31249 21.1604 6.13385L18.6605 4.69055L14.0002 7.38119L21.6604 11.8038Z" fill="black"/><path d="M12.0002 15.4641L9.0001 13.732V10.268L12.0002 8.53589L15.0001 10.2679V13.7321L12.0002 15.4641Z" fill="black"/></svg>
