<svg xmlns="http://www.w3.org/2000/svg" viewBox="0 0 24 24" fill="none"><path d="M3 20C3 20.5523 3.44772 21 4 21H8C8.55228 21 9 20.5523 9 20C9 19.4477 8.55228 19 8 19H5V16C5 15.4477 4.55228 15 4 15C3.44772 15 3 15.4477 3 16V20Z" fill="black"/><path d="M3 8C3 8.55229 3.44772 9 4 9C4.55228 9 5 8.55229 5 8V5H8C8.55228 5 9 4.55229 9 4C9 3.44772 8.55228 3 8 3H4C3.44772 3 3 3.44772 3 4V8Z" fill="black"/><path d="M16 19C15.4477 19 15 19.4477 15 20C15 20.5523 15.4477 21 16 21H20C20.5523 21 21 20.5523 21 20V16C21 15.4477 20.5523 15 20 15C19.4477 15 19 15.4477 19 16V19H16Z" fill="black"/><path d="M16 3C15.4477 3 15 3.44772 15 4C15 4.55229 15.4477 5 16 5H19V8C19 8.55229 19.4477 9 20 9C20.5523 9 21 8.55229 21 8V4C21 3.44772 20.5523 3 20 3H16Z" fill="black"/><path d="M12.4961 7.13176C12.1887 6.95608 11.8113 6.95608 11.5039 7.13176L8.5 8.84825L12 10.8482L15.5 8.84825L12.4961 7.13176Z" fill="black"/><path d="M7.5 14V10.5803L11 12.5803V16.5803L8.00386 14.8682C7.69229 14.6902 7.5 14.3589 7.5 14Z" fill="black"/><path d="M15.9961 14.8682L13 16.5803V12.5803L16.5 10.5803V14C16.5 14.3589 16.3077 14.6902 15.9961 14.8682Z" fill="black"/></svg>
