<svg xmlns="http://www.w3.org/2000/svg" viewBox="0 0 24 24" fill="none"><path d="M10.75 11.5675C10.9047 11.4782 11 11.3132 11 11.1345V2.29011C11 1.90523 10.5834 1.66467 10.25 1.85708L2.83991 6.13453C2.53047 6.31315 2.33984 6.6433 2.33984 7.0006V15.5572C2.33984 15.9421 2.75651 16.1826 3.08985 15.9902L10.75 11.5675Z" fill="black"/><path d="M21.6602 7.0006C21.6602 6.6433 21.4695 6.31315 21.1601 6.13453L13.75 1.85708C13.4166 1.66467 13 1.90523 13 2.29011V11.1345C13 11.3132 13.0953 11.4782 13.25 11.5675L20.9102 15.9902C21.2435 16.1826 21.6602 15.9421 21.6602 15.5572V7.0006Z" fill="black"/><path d="M19.9092 18.5886C20.2425 18.3962 20.2425 17.915 19.9092 17.7226L12.25 13.3C12.0953 13.2106 11.9047 13.2106 11.75 13.3L4.08991 17.7226C3.75656 17.915 3.75658 18.3962 4.08994 18.5886L11.5 22.866C11.8094 23.0446 12.1906 23.0446 12.4999 22.866L19.9092 18.5886Z" fill="black"/></svg>
