<svg xmlns="http://www.w3.org/2000/svg" viewBox="0 0 24 24" fill="none"><path d="M2.75 4C2.75 4.69036 3.30964 5.25 4 5.25C4.69036 5.25 5.25 4.69036 5.25 4C5.25 3.30964 4.69036 2.75 4 2.75C3.30964 2.75 2.75 3.30964 2.75 4Z" fill="black"/><path d="M18.75 4C18.75 4.69036 19.3096 5.25 20 5.25C20.6904 5.25 21.25 4.69036 21.25 4C21.25 3.30964 20.6904 2.75 20 2.75C19.3096 2.75 18.75 3.30964 18.75 4Z" fill="black"/><path d="M11.5039 5.41752C11.8113 5.24185 12.1887 5.24185 12.4961 5.41752L16.9999 7.99108L11.9998 10.8482L6.99995 7.99119L11.5039 5.41752Z" fill="black"/><path d="M6 9.72329V14.8572C6 15.2161 6.19229 15.5474 6.50386 15.7254L10.9998 18.2945V12.5803L6 9.72329Z" fill="black"/><path d="M12.9998 18.2948L17.4961 15.7254C17.8077 15.5474 18 15.2161 18 14.8572V9.72307L12.9998 12.5803V18.2948Z" fill="black"/><path d="M18.75 20C18.75 20.6904 19.3096 21.25 20 21.25C20.6904 21.25 21.25 20.6904 21.25 20C21.25 19.3096 20.6904 18.75 20 18.75C19.3096 18.75 18.75 19.3096 18.75 20Z" fill="black"/><path d="M2.75 20C2.75 20.6904 3.30964 21.25 4 21.25C4.69036 21.25 5.25 20.6904 5.25 20C5.25 19.3096 4.69036 18.75 4 18.75C3.30964 18.75 2.75 19.3096 2.75 20Z" fill="black"/></svg>
