<svg xmlns="http://www.w3.org/2000/svg" viewBox="0 0 24 24" fill="none"><path d="M10.75 12.4328C10.9047 12.5221 11 12.6872 11 12.8658V21.7102C11 22.0951 10.5834 22.3357 10.25 22.1433L2.83991 17.8658C2.53047 17.6872 2.33984 17.357 2.33984 16.9997V8.44318C2.33984 8.05828 2.75651 7.81771 3.08985 8.01017L10.75 12.4328Z" fill="black"/><path d="M21.6602 16.9997C21.6602 17.357 21.4695 17.6872 21.1601 17.8658L13.75 22.1433C13.4166 22.3357 13 22.0951 13 21.7102V12.8658C13 12.6872 13.0953 12.5221 13.25 12.4328L20.9102 8.01017C21.2435 7.81771 21.6602 8.05828 21.6602 8.44318V16.9997Z" fill="black"/><path d="M19.9092 5.41175C20.2425 5.60419 20.2425 6.0853 19.9092 6.27777L12.25 10.7004C12.0953 10.7897 11.9047 10.7897 11.75 10.7004L4.08991 6.27778C3.75656 6.08532 3.75658 5.60417 4.08994 5.41174L11.5 1.1343C11.8094 0.955713 12.1906 0.955722 12.4999 1.13433L19.9092 5.41175Z" fill="black"/></svg>
