<svg xmlns="http://www.w3.org/2000/svg" viewBox="0 0 24 24" fill="none"><path d="M21 3.00001C21 2.6839 20.8505 2.38641 20.5969 2.19772C20.3433 2.00902 20.0154 1.95135 19.7127 2.04218L9.71265 5.04218C9.28967 5.16908 9 5.5584 9 6.00001V15.4714C8.39273 15.1669 7.70001 15 7 15C4.96932 15 3 16.404 3 18.5C3 20.596 4.96932 22 7 22C9.03068 22 11 20.596 11 18.5V6.74404L19 4.34404V12.4714C18.3927 12.1668 17.7 12 17 12C14.9693 12 13 13.404 13 15.5C13 17.596 14.9693 19 17 19C19.0307 19 21 17.596 21 15.5V3.00001Z" fill="black"/></svg>
