<svg xmlns="http://www.w3.org/2000/svg" viewBox="0 0 24 24" fill="none"><path fill-rule="evenodd" clip-rule="evenodd" d="M11.3614 3.2305C11.5903 3.04051 11.8919 2.96231 12.1843 3.01714L20.1843 4.51714C20.6573 4.60582 21 5.01879 21 5.50001V18.5C21 18.9812 20.6573 19.3942 20.1843 19.4829L12.1843 20.9829C11.8919 21.0377 11.5903 20.9595 11.3614 20.7695C11.1324 20.5795 11 20.2975 11 20V4.00001C11 3.70252 11.1324 3.42048 11.3614 3.2305ZM13 5.20493V18.7951L19 17.6701V6.32993L13 5.20493ZM8 4.00001C8.55228 4.00001 9 4.44772 9 5.00001V19C9 19.5523 8.55228 20 8 20C7.44772 20 7 19.5523 7 19V5.00001C7 4.44772 7.44772 4.00001 8 4.00001ZM4 5.00001C4.55228 5.00001 5 5.44772 5 6.00001V18C5 18.5523 4.55228 19 4 19C3.44772 19 3 18.5523 3 18V6.00001C3 5.44772 3.44772 5.00001 4 5.00001Z" fill="black"/></svg>
