<svg xmlns="http://www.w3.org/2000/svg" viewBox="0 0 24 24" fill="none"><path d="M12.4719 3.11833C12.797 3.29235 13 3.63121 13 4V20C13 20.3688 12.797 20.7077 12.4719 20.8817C12.1467 21.0557 11.7522 21.0366 11.4453 20.8321L5.69722 17H2C1.44772 17 1 16.5523 1 16V8C1 7.44772 1.44772 7 2 7H5.69722L11.4453 3.16795C11.7522 2.96338 12.1467 2.94431 12.4719 3.11833Z" fill="black"/><path d="M17.0991 13.7902C17.2264 13.4033 17.7736 13.4033 17.9009 13.7902L18.282 14.949C18.3239 15.0763 18.4237 15.1761 18.551 15.218L19.7098 15.5991C20.0967 15.7264 20.0967 16.2736 19.7098 16.4009L18.551 16.782C18.4237 16.8239 18.3239 16.9237 18.282 17.051L17.9009 18.2098C17.7736 18.5967 17.2264 18.5967 17.0991 18.2098L16.718 17.051C16.6761 16.9237 16.5763 16.8239 16.449 16.782L15.2902 16.4009C14.9033 16.2736 14.9033 15.7264 15.2902 15.5991L16.449 15.218C16.5763 15.1761 16.6761 15.0763 16.718 14.949L17.0991 13.7902Z" fill="black"/><path d="M18.9388 5.90622C19.1169 5.36459 19.8831 5.36459 20.0612 5.90622L20.5948 7.52857C20.6534 7.7068 20.7932 7.8466 20.9714 7.90521L22.5938 8.43877C23.1354 8.61691 23.1354 9.3831 22.5938 9.56123L20.9714 10.0948C20.7932 10.1534 20.6534 10.2932 20.5948 10.4714L20.0612 12.0938C19.8831 12.6354 19.1169 12.6354 18.9388 12.0938L18.4052 10.4714C18.3466 10.2932 18.2068 10.1534 18.0286 10.0948L16.4062 9.56123C15.8646 9.38309 15.8646 8.6169 16.4062 8.43877L18.0286 7.90521C18.2068 7.8466 18.3466 7.7068 18.4052 7.52856L18.9388 5.90622Z" fill="black"/></svg>
