<svg xmlns="http://www.w3.org/2000/svg" viewBox="0 0 24 24" fill="none"><path d="M4.55279 5.10558C4.89157 4.93619 5.29698 4.97274 5.6 5.20001L12 10V6.00001C12 5.62123 12.214 5.27497 12.5528 5.10558C12.8916 4.93619 13.297 4.97274 13.6 5.20001L21.6 11.2C21.8518 11.3889 22 11.6852 22 12C22 12.3148 21.8518 12.6112 21.6 12.8L13.6 18.8C13.297 19.0273 12.8916 19.0638 12.5528 18.8944C12.214 18.725 12 18.3788 12 18V14L5.6 18.8C5.29698 19.0273 4.89157 19.0638 4.55279 18.8944C4.214 18.725 4 18.3788 4 18V6.00001C4 5.62123 4.214 5.27497 4.55279 5.10558Z" fill="black"/></svg>
