<svg xmlns="http://www.w3.org/2000/svg" viewBox="0 0 24 24" fill="none"><path d="M19.4472 18.8944C19.1084 19.0638 18.703 19.0273 18.4 18.8L12 14V18C12 18.3788 11.786 18.725 11.4472 18.8944C11.1084 19.0638 10.703 19.0273 10.4 18.8L2.4 12.8C2.14819 12.6112 2 12.3148 2 12C2 11.6852 2.14819 11.3889 2.4 11.2L10.4 5.20001C10.703 4.97274 11.1084 4.93619 11.4472 5.10558C11.786 5.27497 12 5.62123 12 6.00001V10L18.4 5.20001C18.703 4.97274 19.1084 4.93619 19.4472 5.10558C19.786 5.27497 20 5.62123 20 6.00001V18C20 18.3788 19.786 18.725 19.4472 18.8944Z" fill="black"/></svg>
