<svg xmlns="http://www.w3.org/2000/svg" viewBox="0 0 24 24" fill="none"><path fill-rule="evenodd" clip-rule="evenodd" d="M2 4C2 3.44772 2.44772 3 3 3H21C21.5523 3 22 3.44772 22 4V18C22 18.5523 21.5523 19 21 19H14.4142L15.7071 20.2929C16.0976 20.6834 16.0976 21.3166 15.7071 21.7071C15.3166 22.0976 14.6834 22.0976 14.2929 21.7071L11.2929 18.7071C10.9024 18.3166 10.9024 17.6834 11.2929 17.2929L14.2929 14.2929C14.6834 13.9024 15.3166 13.9024 15.7071 14.2929C16.0976 14.6834 16.0976 15.3166 15.7071 15.7071L14.4142 17H20V5H4V17H7C7.55228 17 8 17.4477 8 18C8 18.5523 7.55228 19 7 19H3C2.44772 19 2 18.5523 2 18V4Z" fill="black"/></svg>
