<svg xmlns="http://www.w3.org/2000/svg" viewBox="0 0 24 24" fill="none"><path d="M21.9983 11C21.9983 9.13998 20.7183 7.58997 18.9983 7.13997V2.99997C18.9983 2.67997 18.8483 2.37997 18.5883 2.18997C18.3283 1.99997 17.9983 1.94997 17.6983 2.03997L6.69828 5.54997C6.69828 5.54997 6.66828 5.56997 6.64828 5.57997C6.62828 5.57997 6.59828 5.58997 6.56828 5.59997L2.68828 6.83997C2.27828 6.96997 1.98828 7.35997 1.98828 7.78997V14.22C1.98828 14.66 2.26828 15.04 2.68828 15.17L5.98828 16.22V17C5.98828 19.21 7.77828 21 9.98828 21C11.5583 21 12.9683 20.07 13.6183 18.66L17.6883 19.95C17.7883 19.98 17.8883 20 17.9883 20C18.1983 20 18.4083 19.93 18.5783 19.81C18.8383 19.62 18.9883 19.32 18.9883 19V14.86C20.7083 14.41 21.9883 12.86 21.9883 11H21.9983ZM3.99828 8.51997L5.99828 7.87997V14.12L3.99828 13.48V8.50997V8.51997ZM9.99828 19C8.89828 19 7.99828 18.1 7.99828 17V16.87L11.6783 18.04C11.3183 18.62 10.6983 19 9.99828 19ZM18.9983 12.72V9.27997C19.5883 9.62997 19.9983 10.26 19.9983 11C19.9983 11.74 19.5883 12.38 18.9983 12.72Z" fill="black"/></svg>
