<svg xmlns="http://www.w3.org/2000/svg" viewBox="0 0 24 24" fill="none"><path fill-rule="evenodd" clip-rule="evenodd" d="M9.59646 8.50879C9.89779 8.54881 10.1685 8.72462 10.326 8.99023L11.2381 10.5303L13.0428 10.5449L13.1736 10.5547C13.4744 10.5972 13.743 10.7753 13.8982 11.042L14.864 12.7021C15.0432 13.0103 15.0446 13.3916 14.8679 13.7012L13.9832 15.25L14.8679 16.7988C15.0446 17.1084 15.0432 17.4897 14.864 17.7979L13.8982 19.458C13.7208 19.7628 13.3954 19.9518 13.0428 19.9551L11.2381 19.9688L10.326 21.5098C10.146 21.8133 9.81844 21.9997 9.4656 22H7.53396C7.18097 21.9999 6.85368 21.8134 6.67361 21.5098L5.76053 19.9688L3.95681 19.9551C3.60403 19.9521 3.27896 19.7628 3.10135 19.458L2.13553 17.7979C1.95618 17.4895 1.95479 17.1086 2.13162 16.7988L3.01541 15.25L2.13162 13.7012C1.95479 13.3914 1.95618 13.0105 2.13553 12.7021L3.10135 11.042L3.17459 10.9336C3.36062 10.6932 3.64807 10.5476 3.95681 10.5449L5.76053 10.5303L6.67361 8.99023C6.85368 8.68663 7.18097 8.50008 7.53396 8.5H9.4656L9.59646 8.50879ZM8.49978 13.5C7.53329 13.5 6.74978 14.2835 6.74978 15.25C6.74978 16.2165 7.53329 17 8.49978 17C9.46598 16.9996 10.2498 16.2163 10.2498 15.25C10.2498 14.2837 9.46598 13.5004 8.49978 13.5Z" fill="black"/><path d="M17.9998 2C18.552 2.00012 18.9998 2.44779 18.9998 3V15C18.9998 15.5522 18.552 15.9999 17.9998 16C17.4475 16 16.9998 15.5523 16.9998 15V3C16.9998 2.44772 17.4475 2 17.9998 2Z" fill="black"/><path d="M21.4998 7C22.052 7.00012 22.4998 7.44779 22.4998 8V10C22.4998 10.5522 22.052 10.9999 21.4998 11C20.9475 11 20.4998 10.5523 20.4998 10V8C20.4998 7.44772 20.9475 7 21.4998 7Z" fill="black"/><path d="M14.4998 5C15.052 5.00012 15.4998 5.44779 15.4998 6V8.25C15.4998 8.80221 15.052 9.24988 14.4998 9.25C13.9475 9.25 13.4998 8.80228 13.4998 8.25V6C13.4998 5.44772 13.9475 5 14.4998 5Z" fill="black"/><path d="M10.9998 3C11.552 3.00012 11.9998 3.44779 11.9998 4V5.5C11.9998 6.05221 11.552 6.49988 10.9998 6.5C10.4475 6.5 9.99978 6.05228 9.99978 5.5V4C9.99978 3.44772 10.4475 3 10.9998 3Z" fill="black"/></svg>
