<svg xmlns="http://www.w3.org/2000/svg" viewBox="0 0 24 24" fill="none"><path d="M6 13C4.48433 13 3.12618 12.3256 2.20924 11.2605C2.06788 11.0963 2 10.8833 2 10.6667V5.33331C2 5.11665 2.06788 4.90368 2.20924 4.73948C3.12618 3.67439 4.48433 3 6 3C8.76142 3 11 5.23858 11 8L11 20C11 20.5523 10.5523 21 10 21H8C7.44772 21 7 20.5523 7 20V12.9C6.67689 12.9656 6.34247 13 6 13Z" fill="black"/><path d="M18 13C19.5157 13 20.8738 12.3256 21.7908 11.2605C21.9321 11.0963 22 10.8833 22 10.6667V5.33331C22 5.11665 21.9321 4.90368 21.7908 4.73948C20.8738 3.67439 19.5157 3 18 3C15.2386 3 13 5.23858 13 8L13 20C13 20.5523 13.4477 21 14 21H16C16.5523 21 17 20.5523 17 20V12.9C17.3231 12.9656 17.6575 13 18 13Z" fill="black"/></svg>
