<svg xmlns="http://www.w3.org/2000/svg" viewBox="0 0 24 24" fill="none"><path d="M9 3C10.5157 3 11.8741 3.67417 12.791 4.73926C12.9323 4.90337 12.9999 5.11645 13 5.33301V10.667C12.9999 10.8835 12.9323 11.0966 12.791 11.2607C11.8741 12.3258 10.5157 13 9 13C8.65756 13 8.32308 12.966 8 12.9004V20C8 20.5523 7.55228 21 7 21H5C4.44772 21 4 20.5523 4 20V8C4 5.23858 6.23858 3 9 3Z" fill="black"/><path d="M16 13C16.5523 13 17 13.4477 17 14V19H19C19.5523 19 20 19.4477 20 20C20 20.5523 19.5523 21 19 21H16C15.4477 21 15 20.5523 15 20V14C15 13.4477 15.4477 13 16 13Z" fill="black"/></svg>
