<svg xmlns="http://www.w3.org/2000/svg" viewBox="0 0 24 24" fill="none"><path d="M1.04289 11.9571C0.652369 11.5666 0.652369 10.9334 1.04289 10.5429L9.29288 2.29289C9.48041 2.10536 9.73477 2 9.99998 2H14.5C14.7652 2 15.0196 2.10536 15.2071 2.29289L17.2071 4.29286C17.5976 4.68338 17.5976 5.31655 17.2071 5.70707L6.70709 16.2071C6.31656 16.5976 5.6834 16.5976 5.29287 16.2071L1.04289 11.9571Z" fill="black"/><path fill-rule="evenodd" clip-rule="evenodd" d="M19.6161 21.3841C19.2256 21.7746 18.5924 21.7746 18.2019 21.3841L11.159 14.3412L14.341 11.1592L21.3839 18.2021C21.7744 18.5926 21.7744 19.2258 21.3839 19.6163L19.6161 21.3841Z" fill="black"/></svg>
