<svg xmlns="http://www.w3.org/2000/svg" viewBox="0 0 24 24" fill="none"><path fill-rule="evenodd" clip-rule="evenodd" d="M7.70711 7.29289C8.09763 7.68342 8.09763 8.31658 7.70711 8.70711L4.41421 12L7.70711 15.2929C8.09763 15.6834 8.09763 16.3166 7.70711 16.7071C7.31658 17.0976 6.68342 17.0976 6.29289 16.7071L2.29289 12.7071C2.10536 12.5196 2 12.2652 2 12C2 11.7348 2.10536 11.4804 2.29289 11.2929L6.29289 7.29289C6.68342 6.90237 7.31658 6.90237 7.70711 7.29289ZM16.2929 7.29289C16.6834 6.90237 17.3166 6.90237 17.7071 7.29289L21.7071 11.2929C21.8946 11.4804 22 11.7348 22 12C22 12.2652 21.8946 12.5196 21.7071 12.7071L17.7071 16.7071C17.3166 17.0976 16.6834 17.0976 16.2929 16.7071C15.9024 16.3166 15.9024 15.6834 16.2929 15.2929L19.5858 12L16.2929 8.70711C15.9024 8.31658 15.9024 7.68342 16.2929 7.29289Z" fill="black"/></svg>
