<svg xmlns="http://www.w3.org/2000/svg" viewBox="0 0 24 24" fill="none"><path fill-rule="evenodd" clip-rule="evenodd" d="M3 4C3 3.44772 3.44772 3 4 3H20C20.5523 3 21 3.44772 21 4V20C21 20.5523 20.5523 21 20 21H4C3.44772 21 3 20.5523 3 20V4ZM10.7071 8.79289C11.0976 9.18342 11.0976 9.81658 10.7071 10.2071L8.91421 12L10.7071 13.7929C11.0976 14.1834 11.0976 14.8166 10.7071 15.2071C10.3166 15.5976 9.68342 15.5976 9.29289 15.2071L6.79289 12.7071C6.60536 12.5196 6.5 12.2652 6.5 12C6.5 11.7348 6.60536 11.4804 6.79289 11.2929L9.29289 8.79289C9.68342 8.40237 10.3166 8.40237 10.7071 8.79289ZM14.7071 8.79289C14.3166 8.40237 13.6834 8.40237 13.2929 8.79289C12.9024 9.18342 12.9024 9.81658 13.2929 10.2071L15.0858 12L13.2929 13.7929C12.9024 14.1834 12.9024 14.8166 13.2929 15.2071C13.6834 15.5976 14.3166 15.5976 14.7071 15.2071L17.2071 12.7071C17.3946 12.5196 17.5 12.2652 17.5 12C17.5 11.7348 17.3946 11.4804 17.2071 11.2929L14.7071 8.79289Z" fill="black"/></svg>
