<svg xmlns="http://www.w3.org/2000/svg" viewBox="0 0 24 24" fill="none"><path fill-rule="evenodd" clip-rule="evenodd" d="M3 4C3 3.44772 3.44772 3 4 3H20C20.5523 3 21 3.44772 21 4V20C21 20.5523 20.5523 21 20 21H4C3.44772 21 3 20.5523 3 20V4ZM6.79289 7.29289C7.18342 6.90237 7.81658 6.90237 8.20711 7.29289L9.95711 9.04289C10.3476 9.43342 10.3476 10.0666 9.95711 10.4571L8.20711 12.2071C7.81658 12.5976 7.18342 12.5976 6.79289 12.2071C6.40237 11.8166 6.40237 11.1834 6.79289 10.7929L7.83579 9.75L6.79289 8.70711C6.40237 8.31658 6.40237 7.68342 6.79289 7.29289Z" fill="black"/></svg>
