<svg xmlns="http://www.w3.org/2000/svg" viewBox="0 0 24 24" fill="none"><path fill-rule="evenodd" clip-rule="evenodd" d="M14.1952 2.55907C14.272 2.01216 14.7777 1.63111 15.3246 1.70798L20.2759 2.40384C20.5386 2.44075 20.7758 2.58048 20.9354 2.7923C21.095 3.00411 21.1639 3.27065 21.127 3.53328L20.7095 6.50409C20.6526 6.90901 20.3549 7.2385 19.9578 7.33604L18.0004 7.81687L17.4472 11.7535L20.8966 14.9999H21C21.5523 14.9999 22 15.4477 22 15.9999V19.9999C22 20.5522 21.5523 20.9999 21 20.9999H3C2.44772 20.9999 2 20.5522 2 19.9999V15.9999C2 15.4477 2.44772 14.9999 3 14.9999H3.03756L4.54073 13.2315L3.31476 7.72631C3.25411 7.45396 3.31 7.16866 3.46893 6.93934C3.62786 6.71001 3.87537 6.55751 4.15168 6.51867L4.64681 6.44909C4.41622 4.80836 5.55936 3.29135 7.20009 3.06076C8.84082 2.83017 10.3578 3.97332 10.5884 5.61405L11.0836 5.54446C11.3594 5.50569 11.6389 5.58374 11.8548 5.7598C12.0706 5.93585 12.2033 6.19397 12.2208 6.47197L12.5584 11.8413L15.5129 11.1461L16.0199 7.53852L14.2709 6.5368C13.9161 6.33358 13.7207 5.9348 13.7776 5.52988L14.1952 2.55907ZM17.2543 5.9407L18.8232 5.5553L19.0073 4.24521L16.0365 3.82769L15.8524 5.13778L17.2543 5.9407ZM15.956 13.0964L12.229 13.9734C12.0093 14.0251 11.7785 14.0009 11.5742 13.9048L8.01645 12.2305L5.66244 14.9999H17.9784L15.956 13.0964ZM6.62735 6.17074L8.60788 5.89239C8.53102 5.34548 8.02535 4.96444 7.47844 5.0413C6.93153 5.11816 6.55048 5.62383 6.62735 6.17074Z" fill="black"/></svg>
