<svg xmlns="http://www.w3.org/2000/svg" viewBox="0 0 24 24" fill="none"><path d="M12.2428 11.0299C12.0835 10.99 11.9169 10.99 11.7577 11.0299L3.75768 13.0299C3.26702 13.1525 2.94519 13.6222 3.00794 14.1241C3.26446 16.1756 3.72171 16.8105 4.78004 18.5801L2.78328 19.0238C2.24415 19.1436 1.90422 19.6778 2.02403 20.2169C2.14383 20.7561 2.67801 21.096 3.21714 20.9762L7.50021 20.0244L11.7833 20.9762C11.9262 21.0079 12.0743 21.0079 12.2171 20.9762L16.5002 20.0244L20.7833 20.9762C21.3224 21.096 21.8566 20.7561 21.9764 20.2169C22.0962 19.6778 21.7563 19.1436 21.2171 19.0238L19.2204 18.5801C20.2787 16.8105 20.736 16.1756 20.9925 14.1241C21.0552 13.6222 20.7334 13.1525 20.2428 13.0299L12.2428 11.0299Z" fill="black"/><path d="M9 3C9 2.44772 9.44772 2 10 2H14C14.5523 2 15 2.44772 15 3V6H18C18.5523 6 19 6.44772 19 7V10.6575L12.7283 9.08957C12.2505 8.97014 11.7508 8.97014 11.273 9.08957L5 10.6578V7C5 6.44772 5.44772 6 6 6H9V3Z" fill="black"/></svg>
