<svg xmlns="http://www.w3.org/2000/svg" viewBox="0 0 24 24" fill="none"><path fill-rule="evenodd" clip-rule="evenodd" d="M3 4C3 3.44772 3.44772 3 4 3H20C20.5523 3 21 3.44772 21 4V20C21 20.5523 20.5523 21 20 21H4C3.44772 21 3 20.5523 3 20V4ZM14.4472 7.10557C14.9412 7.35256 15.1414 7.95324 14.8944 8.44721L10.8944 16.4472C10.6474 16.9412 10.0468 17.1414 9.55279 16.8944C9.05881 16.6474 8.85858 16.0468 9.10557 15.5528L13.1056 7.55279C13.3526 7.05881 13.9532 6.85858 14.4472 7.10557Z" fill="black"/></svg>
