<svg xmlns="http://www.w3.org/2000/svg" viewBox="0 0 24 24" fill="none"><path fill-rule="evenodd" clip-rule="evenodd" d="M21.0713 2.00242C17.4486 1.74366 14.7331 2.25172 12.632 3.44236C10.7114 4.53072 9.406 6.13185 8.39327 7.99988H6.00001C5.70809 7.99988 5.43074 8.12744 5.24076 8.34909L2.24076 11.8491C2.02444 12.1015 1.94766 12.4448 2.03588 12.7653C2.12407 13.0857 2.36657 13.3416 2.68147 13.4478L2.6875 13.4498L2.71507 13.4593C2.74016 13.468 2.77841 13.4814 2.8284 13.4993C2.92845 13.5351 3.07526 13.5889 3.25764 13.6589C3.62311 13.7992 4.12771 14.0037 4.68288 14.2594C5.82504 14.7855 7.06104 15.4751 7.79291 16.207C8.52477 16.9389 9.21439 18.1749 9.7405 19.317C9.99622 19.8722 10.2007 20.3768 10.341 20.7423C10.411 20.9246 10.4647 21.0714 10.5006 21.1715C10.5184 21.2215 10.5318 21.2597 10.5405 21.2848L10.55 21.3124L10.5524 21.3194C10.6586 21.6343 10.9142 21.8758 11.2346 21.964C11.5551 22.0522 11.8984 21.9755 12.1508 21.7591L15.6508 18.7591C15.8725 18.5692 16 18.2918 16 17.9999V15.6066C17.868 14.5939 19.4692 13.2885 20.5575 11.3679C21.7482 9.26676 22.2562 6.55133 21.9975 2.92863C21.962 2.43252 21.5674 2.03786 21.0713 2.00242ZM15.5 10.4999C16.6046 10.4999 17.5 9.60445 17.5 8.49988C17.5 7.39531 16.6046 6.49988 15.5 6.49988C14.3954 6.49988 13.5 7.39531 13.5 8.49988C13.5 9.60445 14.3954 10.4999 15.5 10.4999Z" fill="black"/><path fill-rule="evenodd" clip-rule="evenodd" d="M5.20711 16.7928C5.59763 17.1833 5.59763 17.8165 5.20711 18.207L2.70711 20.707C2.31658 21.0975 1.68342 21.0975 1.29289 20.707C0.902369 20.3165 0.902369 19.6833 1.29289 19.2928L3.79289 16.7928C4.18342 16.4022 4.81658 16.4022 5.20711 16.7928Z" fill="black"/><path fill-rule="evenodd" clip-rule="evenodd" d="M7.20711 18.7928C7.59763 19.1833 7.59763 19.8165 7.20711 20.207L5.70711 21.707C5.31658 22.0975 4.68342 22.0975 4.29289 21.707C3.90237 21.3165 3.90237 20.6833 4.29289 20.2928L5.79289 18.7928C6.18342 18.4022 6.81658 18.4022 7.20711 18.7928Z" fill="black"/></svg>
