<svg xmlns="http://www.w3.org/2000/svg" viewBox="0 0 24 24" fill="none"><path fill-rule="evenodd" clip-rule="evenodd" d="M4 3C3.44772 3 3 3.44772 3 4V20C3 20.5523 3.44772 21 4 21H20C20.5523 21 21 20.5523 21 20V4C21 3.44772 20.5523 3 20 3H4ZM15.9498 7.00005C14.5703 7.00039 13.5758 7.72909 12.8458 8.61419C12.1543 9.45267 11.6123 10.5382 11.134 11.4963L11.1053 11.5536C10.592 12.5816 10.1431 13.4692 9.6113 14.1139C9.10416 14.7287 8.62312 15.0001 8.05 15.0001H8C7.44772 15.0001 7 15.4478 7 16.0001C7 16.5523 7.44772 17.0001 8 17.0001H8.05C9.4295 17.0001 10.4241 16.2715 11.1542 15.3865C11.8458 14.548 12.3878 13.4624 12.8661 12.5043L12.8947 12.4472C13.408 11.4192 13.8569 10.5315 14.3888 9.88671C14.8959 9.27182 15.3769 9.00027 15.95 9.00005H16C16.5523 9.00005 17 8.55234 17 8.00005C17 7.44777 16.5523 7.00005 16 7.00005H15.9498Z" fill="black"/></svg>
