<svg xmlns="http://www.w3.org/2000/svg" viewBox="0 0 24 24" fill="none"><path d="M7.29289 5.29305C7.68342 4.90252 8.31643 4.90252 8.70696 5.29305C9.0974 5.68358 9.09746 6.31661 8.70696 6.70711L3.41399 12.0001L8.70696 17.293C9.0974 17.6836 9.09746 18.3166 8.70696 18.7071C8.31646 19.0976 7.68342 19.0976 7.29289 18.7071L1.29289 12.7071C0.902369 12.3166 0.902369 11.6836 1.29289 11.293L7.29289 5.29305Z" fill="black"/><path d="M15.2929 5.29305C15.6834 4.90252 16.3164 4.90252 16.707 5.29305L22.707 11.293C23.0974 11.6836 23.0975 12.3166 22.707 12.7071L16.707 18.7071C16.3165 19.0976 15.6834 19.0976 15.2929 18.7071C14.9024 18.3166 14.9024 17.6836 15.2929 17.293L20.5859 12.0001L15.2929 6.70711C14.9024 6.31658 14.9024 5.68357 15.2929 5.29305Z" fill="black"/></svg>
