<svg xmlns="http://www.w3.org/2000/svg" viewBox="0 0 24 24" fill="none"><path fill-rule="evenodd" clip-rule="evenodd" d="M9.24774 1.34128C9.43762 1.12439 9.71186 1 10.0001 1H14.0001C14.2884 1 14.5626 1.12439 14.7525 1.34128C14.9424 1.55816 15.0294 1.84643 14.9914 2.13216L14.0536 9.16539C14.8384 9.73493 15.3775 10.6225 15.4817 11.6388L22.0416 14.3433C22.3081 14.4532 22.5142 14.6727 22.6071 14.9456C22.7 15.2185 22.6706 15.5182 22.5264 15.7678L20.5264 19.2319C20.3823 19.4816 20.1375 19.6569 19.8547 19.7129C19.5719 19.7689 19.2787 19.7001 19.0503 19.5243L13.4289 15.196C12.9926 15.3914 12.5091 15.5 12.0001 15.5C11.4912 15.5 11.0076 15.3914 10.5713 15.196L4.94992 19.5243C4.72151 19.7001 4.42833 19.7689 4.14557 19.7129C3.8628 19.6569 3.61795 19.4816 3.47382 19.2319L1.47382 15.7678C1.32969 15.5182 1.3003 15.2185 1.39318 14.9456C1.48607 14.6727 1.69219 14.4532 1.95869 14.3433L8.51853 11.6388C8.62272 10.6225 9.16182 9.73493 9.94666 9.16539L9.0089 2.13216C8.9708 1.84643 9.05786 1.55816 9.24774 1.34128ZM17.0907 4.50806C17.4496 4.08831 18.0809 4.03901 18.5006 4.39794C19.3421 5.11749 20.0767 5.98933 20.6602 6.99998C21.2437 8.01063 21.6314 9.08279 21.8339 10.1713C21.9348 10.7143 21.5765 11.2363 21.0335 11.3373C20.4906 11.4382 19.9685 11.0799 19.8676 10.5369C19.7061 9.66854 19.3966 8.81128 18.9282 7.99998C18.4598 7.18867 17.8721 6.49202 17.2008 5.91798C16.7811 5.55905 16.7318 4.92781 17.0907 4.50806ZM6.90956 4.50817C7.26849 4.92791 7.21919 5.55916 6.79944 5.91809C6.12813 6.49213 5.54047 7.18878 5.07206 8.00008C4.60365 8.81139 4.29417 9.66864 4.13268 10.537C4.03172 11.08 3.50969 11.4383 2.96672 11.3374C2.42374 11.2364 2.06542 10.7144 2.16639 10.1714C2.3688 9.08289 2.75651 8.01073 3.34001 7.00008C3.92351 5.98944 4.65817 5.11759 5.49964 4.39805C5.91939 4.03912 6.55063 4.08842 6.90956 4.50817ZM12.0001 10.5C11.1717 10.5 10.5001 11.1716 10.5001 12C10.5001 12.8284 11.1717 13.5 12.0001 13.5C12.8286 13.5 13.5001 12.8284 13.5001 12C13.5001 11.1716 12.8286 10.5 12.0001 10.5ZM8.05728 20.1547C8.24133 19.6339 8.81265 19.361 9.33337 19.5451C10.1662 19.8394 11.0633 20 12.0001 20C12.9369 20 13.8341 19.8394 14.6669 19.5451C15.1876 19.361 15.7589 19.6339 15.943 20.1547C16.127 20.6754 15.8541 21.2467 15.3334 21.4307C14.2895 21.7997 13.1671 22 12.0001 22C10.8331 22 9.71076 21.7997 8.66688 21.4307C8.14616 21.2467 7.87324 20.6754 8.05728 20.1547Z" fill="black"/></svg>
