<svg xmlns="http://www.w3.org/2000/svg" viewBox="0 0 24 24" fill="none"><path d="M5.21799 6.37461C5.56289 5.94354 6.193 5.87375 6.62424 6.21836C7.05548 6.56336 7.12545 7.19335 6.78049 7.62461L3.28049 11.9996L6.78049 16.3746C7.12549 16.8059 7.0555 17.4359 6.62424 17.7809C6.19298 18.1258 5.56298 18.0559 5.21799 17.6246L1.21799 12.6246C0.926149 12.2594 0.925923 11.7397 1.21799 11.3746L5.21799 6.37461Z" fill="black"/><path d="M17.3742 6.21836C17.8054 5.87347 18.4354 5.94373 18.7805 6.37461L22.7805 11.3746C23.0726 11.7398 23.0726 12.2594 22.7805 12.6246L18.7805 17.6246C18.4355 18.0559 17.8055 18.1259 17.3742 17.7809C16.9433 17.4358 16.8731 16.8057 17.218 16.3746L20.718 11.9996L17.218 7.62461C16.8734 7.19338 16.9432 6.56327 17.3742 6.21836Z" fill="black"/><path d="M10.4992 9.99961C10.7101 9.99961 10.8991 10.13 10.9748 10.3268L11.5647 11.86C11.6662 12.1241 11.8758 12.3326 12.1399 12.4342L13.6731 13.024C13.8698 13.0997 13.9991 13.2889 13.9992 13.4996C13.9992 13.7104 13.8697 13.8994 13.6731 13.9752L12.1399 14.565C11.8758 14.6666 11.6662 14.8761 11.5647 15.1402L10.9748 16.6734C10.8991 16.8701 10.71 16.9996 10.4992 16.9996C10.2885 16.9995 10.0993 16.8701 10.0236 16.6734L9.43381 15.1402C9.33223 14.8761 9.12368 14.6666 8.85959 14.565L7.32638 13.9752C7.12961 13.8995 6.99924 13.7105 6.99924 13.4996C6.99939 13.2889 7.1297 13.0997 7.32638 13.024L8.85959 12.4342C9.12368 12.3326 9.33223 12.1241 9.43381 11.86L10.0236 10.3268C10.0993 10.1301 10.2885 9.99977 10.4992 9.99961Z" fill="black"/><path d="M13.4992 5.99961C13.6497 5.99961 13.7849 6.09265 13.8391 6.23301L14.2151 7.21055C14.3167 7.47447 14.5253 7.68323 14.7893 7.78477L15.7658 8.15977C15.9063 8.21379 15.9991 8.34915 15.9992 8.49961C15.9992 8.65023 15.9064 8.78539 15.7658 8.83946L14.7893 9.21543C14.5253 9.31701 14.3166 9.52567 14.2151 9.78965L13.8391 10.7662C13.785 10.9068 13.6499 10.9996 13.4992 10.9996C13.3488 10.9995 13.2134 10.9067 13.1594 10.7662L12.7844 9.78965C12.6828 9.5257 12.4741 9.31704 12.2102 9.21543L11.2326 8.83946C11.0923 8.78529 10.9992 8.65009 10.9992 8.49961C10.9994 8.34919 11.0922 8.21382 11.2326 8.15977L12.2102 7.78477C12.4741 7.68319 12.6828 7.47444 12.7844 7.21055L13.1594 6.23301C13.2134 6.09262 13.3488 5.99977 13.4992 5.99961Z" fill="black"/></svg>
