<svg xmlns="http://www.w3.org/2000/svg" viewBox="0 0 24 24" fill="none"><path d="M17.5 5C17.5 5.55228 17.0523 6 16.5 6C15.9477 6 15.5 5.55228 15.5 5C15.5 4.44772 15.9477 4 16.5 4C17.0523 4 17.5 4.44772 17.5 5Z" fill="black"/><path d="M22.5 5C22.5 5.55228 22.0523 6 21.5 6C20.9477 6 20.5 5.55228 20.5 5C20.5 4.44772 20.9477 4 21.5 4C22.0523 4 22.5 4.44772 22.5 5Z" fill="black"/><path d="M20 3.75C20 4.30228 19.5523 4.75 19 4.75C18.4477 4.75 18 4.30228 18 3.75C18 3.19772 18.4477 2.75 19 2.75C19.5523 2.75 20 3.19772 20 3.75Z" fill="black"/><path d="M20 6.25C20 6.80228 19.5523 7.25 19 7.25C18.4477 7.25 18 6.80228 18 6.25C18 5.69772 18.4477 5.25 19 5.25C19.5523 5.25 20 5.69772 20 6.25Z" fill="black"/><path d="M22.5 2.5C22.5 3.05228 22.0523 3.5 21.5 3.5C20.9477 3.5 20.5 3.05228 20.5 2.5C20.5 1.94772 20.9477 1.5 21.5 1.5C22.0523 1.5 22.5 1.94772 22.5 2.5Z" fill="black"/><path d="M22.5 7.5C22.5 8.05228 22.0523 8.5 21.5 8.5C20.9477 8.5 20.5 8.05228 20.5 7.5C20.5 6.94772 20.9477 6.5 21.5 6.5C22.0523 6.5 22.5 6.94772 22.5 7.5Z" fill="black"/><path fill-rule="evenodd" clip-rule="evenodd" d="M8.83298 2.66585C8.9478 2.12563 9.47882 1.78079 10.019 1.89561L13.9316 2.72726C14.4718 2.84208 14.8167 3.3731 14.7019 3.91332L14.0781 6.84776L16.0344 7.26358C16.5746 7.37841 16.9195 7.90943 16.8047 8.44964L14.1018 21.1656C13.987 21.7058 13.456 22.0506 12.9157 21.9358L3.13427 19.8567C2.59405 19.7419 2.24921 19.2108 2.36403 18.6706L5.06689 5.9547C5.18171 5.41449 5.71273 5.06964 6.25295 5.18447L8.20924 5.60029L8.83298 2.66585ZM10.1655 6.01611L12.1218 6.43194L12.5377 4.47564L10.5814 4.05982L10.1655 6.01611ZM7.88435 10.9424C8.34754 10.6416 8.96687 10.7732 9.26766 11.2364L9.87838 12.1768L10.8188 11.5661C11.282 11.2653 11.9013 11.397 12.2021 11.8601C12.5029 12.3233 12.3713 12.9427 11.9081 13.2434L10.9677 13.8542L11.5784 14.7946C11.8792 15.2578 11.7475 15.8771 11.2843 16.1779C10.8212 16.4787 10.2018 16.347 9.90103 15.8839L9.29032 14.9434L8.3499 15.5542C7.88671 15.855 7.26738 15.7233 6.96659 15.2601C6.66579 14.7969 6.79743 14.1776 7.26062 13.8768L8.20104 13.2661L7.59032 12.3257C7.28953 11.8625 7.42117 11.2432 7.88435 10.9424Z" fill="black"/></svg>
