<svg xmlns="http://www.w3.org/2000/svg" viewBox="0 0 24 24" fill="none"><path fill-rule="evenodd" clip-rule="evenodd" d="M14.2425 3.02985C14.7783 3.1638 15.1041 3.70673 14.9701 4.24253L10.9701 20.2426C10.8362 20.7784 10.2933 21.1041 9.75747 20.9702C9.22167 20.8362 8.89591 20.2933 9.02986 19.7575L13.0299 3.75746C13.1638 3.22166 13.7067 2.8959 14.2425 3.02985ZM6.70711 7.29293C7.09763 7.68345 7.09763 8.31662 6.70711 8.70714L3.41421 12L6.70711 15.2929C7.09763 15.6834 7.09763 16.3166 6.70711 16.7071C6.31658 17.0977 5.68342 17.0977 5.29289 16.7071L1.29289 12.7071C1.10536 12.5196 1 12.2652 1 12C1 11.7348 1.10536 11.4805 1.29289 11.2929L5.29289 7.29293C5.68342 6.9024 6.31658 6.9024 6.70711 7.29293ZM17.2929 7.29293C17.6834 6.9024 18.3166 6.9024 18.7071 7.29293L22.7071 11.2929C22.8946 11.4805 23 11.7348 23 12C23 12.2652 22.8946 12.5196 22.7071 12.7071L18.7071 16.7071C18.3166 17.0977 17.6834 17.0977 17.2929 16.7071C16.9024 16.3166 16.9024 15.6834 17.2929 15.2929L20.5858 12L17.2929 8.70714C16.9024 8.31662 16.9024 7.68345 17.2929 7.29293Z" fill="black"/></svg>
