<svg xmlns="http://www.w3.org/2000/svg" viewBox="0 0 24 24" fill="none"><path fill-rule="evenodd" clip-rule="evenodd" d="M21.7071 2.29292C21.9639 2.54972 22.0613 2.92555 21.9615 3.27475L17.9615 17.2747C17.8666 17.607 17.607 17.8666 17.2747 17.9615L3.27475 21.9615C2.92555 22.0613 2.54972 21.9639 2.29292 21.7071C2.03612 21.4503 1.93873 21.0745 2.0385 20.7253L6.0385 6.7253C6.13342 6.3931 6.3931 6.13342 6.7253 6.0385L20.7253 2.0385C21.0745 1.93873 21.4503 2.03612 21.7071 2.29292ZM9.50003 12C9.50003 10.6193 10.6193 9.5 12 9.5C13.3807 9.5 14.5 10.6193 14.5 12C14.5 13.3807 13.3807 14.5 12 14.5C10.6193 14.5 9.50003 13.3807 9.50003 12Z" fill="black"/></svg>
