<svg xmlns="http://www.w3.org/2000/svg" viewBox="0 0 24 24" fill="none"><path d="M21 14V20C21 20.55 20.55 21 20 21H5.5C3.57 21 2 19.43 2 17.5V6.5C2 4.57 3.57 3 5.5 3H7C7.55 3 8 3.45 8 4V6H10C10.55 6 11 6.45 11 7C11 7.55 10.55 8 10 8H8V15C8 15.55 7.55 16 7 16H5.5C4.67 16 4 16.67 4 17.5C4 18.33 4.67 19 5.5 19H19V14C19 13.45 19.45 13 20 13C20.55 13 21 13.45 21 14Z" fill="black"/><path d="M17 12C16.84 12 16.69 11.96 16.55 11.89C16.41 11.82 13 10.08 13 7C13 4.79 14.79 3 17 3C19.21 3 21 4.79 21 7C21 10.08 17.59 11.82 17.45 11.89C17.31 11.96 17.16 12 17 12Z" fill="black"/></svg>
