<svg xmlns="http://www.w3.org/2000/svg" viewBox="0 0 24 24" fill="none"><path fill-rule="evenodd" clip-rule="evenodd" d="M12 4C7.58172 4 4 7.58172 4 12C4 12.9254 4.1567 13.812 4.4442 14.6361C4.62611 15.1576 4.35085 15.7278 3.82938 15.9097C3.30792 16.0916 2.73772 15.8163 2.5558 15.2949C2.19544 14.2619 2 13.1527 2 12C2 6.47715 6.47715 2 12 2C17.5228 2 22 6.47715 22 12C22 13.1527 21.8046 14.2619 21.4442 15.2949C21.2623 15.8163 20.6921 16.0916 20.1706 15.9097C19.6492 15.7278 19.3739 15.1576 19.5558 14.6361C19.8433 13.812 20 12.9254 20 12C20 7.58172 16.4183 4 12 4ZM12 9.5C12.3713 9.5 12.712 9.7057 12.8849 10.0343L17.8849 19.5343C18.0872 19.9185 18.0183 20.3895 17.7144 20.6997C17.4106 21.01 16.9412 21.0886 16.5528 20.8944L12 18.618L7.44721 20.8944C7.05879 21.0886 6.58943 21.01 6.28557 20.6997C5.98171 20.3895 5.91282 19.9185 6.11508 19.5343L11.1151 10.0343C11.288 9.7057 11.6287 9.5 12 9.5Z" fill="black"/></svg>
