<svg xmlns="http://www.w3.org/2000/svg" viewBox="0 0 24 24" fill="none"><path d="M11.5147 2.12548C11.3854 2.19707 11.2706 2.29812 11.1813 2.42572C11.2681 2.30219 11.3821 2.1992 11.5147 2.12548Z" fill="black"/><path d="M11.1813 2.42572C11.1194 2.51381 11.0713 2.61235 11.0403 2.71816C11.0627 2.64217 11.0945 2.56764 11.1362 2.49614C11.1504 2.47184 11.1654 2.44836 11.1813 2.42572Z" fill="black"/><path d="M11.8892 2.0061C11.7545 2.02095 11.6278 2.06255 11.5147 2.12548C11.6306 2.06132 11.7581 2.02082 11.8892 2.0061Z" fill="black"/><path d="M12.5039 2.13623C12.4292 2.0927 12.3513 2.05992 12.2718 2.03742C12.3595 2.06212 12.4422 2.09845 12.5183 2.14465L12.5039 2.13623Z" fill="black"/><path d="M12.5039 10.8638L13 10.5744V17C13 17.5523 12.5523 18 12 18C11.4477 18 11 17.5523 11 17V10.0201C11.0032 10.1849 11.0472 10.3513 11.1362 10.5039C11.4145 10.9809 12.0268 11.1421 12.5039 10.8638Z" fill="black"/><path d="M11.4961 9.13623C11.1834 9.31863 11.0065 9.64455 11 9.98182V3.0182C11.0065 3.35547 11.1834 3.68139 11.4961 3.86379L16.0153 6.50001L11.4961 9.13623Z" fill="black"/><path d="M8.18975 15.3461C8.732 15.2413 9.08663 14.7168 8.98183 14.1745C8.87704 13.6323 8.3525 13.2777 7.81025 13.3825C6.25844 13.6824 4.88197 14.1548 3.86503 14.7799C2.89011 15.3792 2 16.2821 2 17.5005C2 18.3581 2.45088 19.0661 3.03043 19.599C3.60913 20.1311 4.39133 20.5643 5.27359 20.9074C7.04448 21.596 9.42296 22.0005 12 22.0005C14.577 22.0005 16.9555 21.596 18.7264 20.9074C19.6087 20.5643 20.3909 20.1311 20.9696 19.599C21.5491 19.0661 22 18.3581 22 17.5005C22 16.2821 21.1099 15.3792 20.135 14.7799C19.118 14.1548 17.7416 13.6824 16.1897 13.3825C15.6475 13.2777 15.123 13.6323 15.0182 14.1745C14.9134 14.7168 15.268 15.2413 15.8103 15.3461C17.2219 15.6189 18.3454 16.0275 19.0876 16.4837C19.8718 16.9658 20 17.3446 20 17.5005C20 17.6094 19.9472 17.8221 19.6159 18.1267C19.2838 18.4321 18.7479 18.7531 18.0015 19.0433C16.515 19.6214 14.3935 20.0005 12 20.0005C9.60648 20.0005 7.48496 19.6214 5.99849 19.0433C5.25207 18.7531 4.71624 18.4321 4.3841 18.1267C4.0528 17.8221 4 17.6094 4 17.5005C4 17.3446 4.12817 16.9658 4.91239 16.4837C5.65459 16.0275 6.77813 15.6189 8.18975 15.3461Z" fill="black"/></svg>
