<svg xmlns="http://www.w3.org/2000/svg" viewBox="0 0 24 24" fill="none"><path d="M14 4.86258L10 3.52925V18.6374L14 19.9708V4.86258Z" fill="black"/><path d="M16 19.9708L21.3162 18.1987C21.7246 18.0626 22 17.6804 22 17.25V4.25001C22 3.92856 21.8455 3.62672 21.5847 3.43877C21.3239 3.25081 20.9887 3.19967 20.6838 3.30132L16 4.86258V19.9708Z" fill="black"/><path d="M2.68377 5.30132L8 3.52925V18.6374L3.31623 20.1987C3.01128 20.3003 2.67606 20.2492 2.41529 20.0612C2.15452 19.8733 2 19.5715 2 19.25V6.25001C2 5.81958 2.27543 5.43744 2.68377 5.30132Z" fill="black"/></svg>
