<svg xmlns="http://www.w3.org/2000/svg" viewBox="0 0 24 24" fill="none"><path fill-rule="evenodd" clip-rule="evenodd" d="M11 4C11 3.44772 11.4477 3 12 3H19C19.3148 3 19.6111 3.14819 19.8 3.4L22.8 7.4C23.0667 7.75556 23.0667 8.24444 22.8 8.6L19.8 12.6C19.6111 12.8518 19.3148 13 19 13H13V20C13 20.5523 12.5523 21 12 21C11.4477 21 11 20.5523 11 20V17H5C4.68524 17 4.38885 16.8518 4.2 16.6L1.2 12.6C0.933333 12.2444 0.933333 11.7556 1.2 11.4L4.2 7.4C4.38885 7.14819 4.68524 7 5 7H11V4ZM13 11H18.5L20.75 8L18.5 5H13V11Z" fill="black"/></svg>
