<svg xmlns="http://www.w3.org/2000/svg" viewBox="0 0 24 24" fill="none"><path d="M12 3C11.4477 3 11 3.44772 11 4V8H5C4.69622 8 4.4089 8.13809 4.21913 8.37531L2.21913 10.8753C1.92696 11.2405 1.92696 11.7595 2.21913 12.1247L4.21913 14.6247C4.4089 14.8619 4.69622 15 5 15H11V19H8C7.44772 19 7 19.4477 7 20C7 20.5523 7.44772 21 8 21H16C16.5523 21 17 20.5523 17 20C17 19.4477 16.5523 19 16 19H13V10H19C19.3038 10 19.5911 9.86191 19.7809 9.62469L21.7809 7.12469C22.073 6.75948 22.073 6.24052 21.7809 5.8753L19.7809 3.3753C19.5911 3.13809 19.3038 3 19 3H12Z" fill="black"/></svg>
