<svg xmlns="http://www.w3.org/2000/svg" viewBox="0 0 24 24" fill="none"><path d="M12.2983 2.04552C12.1041 1.98483 11.8959 1.98483 11.7017 2.04552L3.70173 4.54552C3.28425 4.67598 3 5.06261 3 5.5V9C3 9.55228 3.44772 10 4 10H5L5 17C5 17.5523 5.44772 18 6 18C6.55228 18 7 17.5523 7 17L7 10H9L9 17C9 17.5523 9.44772 18 10 18C10.5523 18 11 17.5523 11 17L11 10H13L13 17C13 17.5523 13.4477 18 14 18C14.5523 18 15 17.5523 15 17L15 10H17L17 17C17 17.5523 17.4477 18 18 18C18.5523 18 19 17.5523 19 17L19 10H20C20.5523 10 21 9.55228 21 9V5.5C21 5.06261 20.7157 4.67598 20.2983 4.54552L12.2983 2.04552Z" fill="black"/><path d="M3 20C3 19.4477 3.44772 19 4 19H20C20.5523 19 21 19.4477 21 20C21 20.5523 20.5523 21 20 21H4C3.44772 21 3 20.5523 3 20Z" fill="black"/></svg>
