<svg xmlns="http://www.w3.org/2000/svg" viewBox="0 0 24 24" fill="none"><path fill-rule="evenodd" clip-rule="evenodd" d="M11.5097 1.62842C11.8142 1.45719 12.1858 1.45719 12.4903 1.62842L20.4903 6.12842C20.8051 6.30554 21 6.63873 21 7V20C21 20.5523 20.5523 21 20 21H4C3.44772 21 3 20.5523 3 20V7C3 6.63873 3.19486 6.30554 3.50974 6.12842L11.5097 1.62842ZM8.5 12C8.5 10.067 10.067 8.5 12 8.5C13.933 8.5 15.5 10.067 15.5 12C15.5 13.933 13.933 15.5 12 15.5C10.067 15.5 8.5 13.933 8.5 12Z" fill="black"/></svg>
