<svg xmlns="http://www.w3.org/2000/svg" viewBox="0 0 24 24" fill="none"><path d="M14.2497 3H9.74967L9.4456 7.25699C9.33973 8.73922 10.5137 10 11.9997 10C13.4857 10 14.6596 8.73922 14.5537 7.25699L14.2497 3Z" fill="black"/><path d="M21.1224 3.85858C21.052 3.36593 20.6301 3 20.1325 3H16.2498L16.5826 7.66044C16.6768 8.97866 17.7737 10 19.0953 10C20.6282 10 21.8058 8.64227 21.589 7.12472L21.1224 3.85858Z" fill="black"/><path d="M2.87715 3.85858C2.94753 3.36593 3.36945 3 3.8671 3H7.7498L7.41691 7.66044C7.32275 8.97866 6.22586 10 4.90428 10C3.37132 10 2.19376 8.64227 2.41056 7.12472L2.87715 3.85858Z" fill="black"/><path d="M2.99976 11.5814V20C2.99976 20.5523 3.44747 21 3.99976 21H19.9998C20.552 21 20.9998 20.5523 20.9998 20V11.5813C20.4234 11.8494 19.779 12 19.0952 12C17.6685 12 16.3879 11.3366 15.5573 10.293C14.7241 11.3306 13.4447 12 11.9996 12C10.5545 12 9.2751 11.3306 8.44196 10.2931C7.61134 11.3367 6.33072 12 4.90417 12C4.2204 12 3.57604 11.8495 2.99976 11.5814Z" fill="black"/></svg>
