<svg xmlns="http://www.w3.org/2000/svg" viewBox="0 0 24 24" fill="none"><path fill-rule="evenodd" clip-rule="evenodd" d="M3.54544 3.70173C3.6759 3.28425 4.06254 3 4.49992 3H19.4999C19.9373 3 20.3239 3.28425 20.4544 3.70173L21.7787 7.9394C22.2061 9.30721 21.8438 10.6871 20.9999 11.6597V20C20.9999 20.5523 20.5522 21 19.9999 21H3.99992C3.44764 21 2.99992 20.5523 2.99992 20V11.6597C2.15607 10.6871 1.79373 9.30721 2.22117 7.9394L3.54544 3.70173ZM14.0735 8.65106L13.6171 5H10.3827L9.92632 8.65106C9.77041 9.89833 10.7429 11 11.9999 11C13.2568 11 14.2292 9.89818 14.0735 8.65106ZM8.36714 5H5.23511L4.13013 8.53595C3.74821 9.75809 4.66125 11 5.94167 11C6.89885 11 7.70623 10.2873 7.82496 9.33747L8.36714 5ZM15.6327 5L16.0581 8.40299L16.1749 9.33747C16.2936 10.2873 17.101 11 18.0582 11C19.3386 11 20.2516 9.75809 19.8697 8.53595L18.7647 5H15.6327Z" fill="black"/></svg>
