<svg xmlns="http://www.w3.org/2000/svg" viewBox="0 0 24 24" fill="none"><path d="M14.2497 3H9.74967L9.4456 7.25699C9.33973 8.73922 10.5137 10 11.9997 10C13.4857 10 14.6596 8.73922 14.5537 7.25699L14.2497 3Z" fill="black"/><path d="M21.1224 3.85858C21.052 3.36593 20.6301 3 20.1325 3H16.2498L16.5826 7.66044C16.6768 8.97866 17.7737 10 19.0953 10C20.6282 10 21.8058 8.64227 21.589 7.12472L21.1224 3.85858Z" fill="black"/><path d="M2.87715 3.85858C2.94753 3.36593 3.36945 3 3.8671 3H7.7498L7.41691 7.66044C7.32275 8.97866 6.22586 10 4.90428 10C3.37132 10 2.19376 8.64227 2.41056 7.12472L2.87715 3.85858Z" fill="black"/><path d="M2.99976 20V11.5814C3.57604 11.8495 4.2204 12 4.90417 12C6.33072 12 7.61134 11.3367 8.44196 10.2931C9.2751 11.3306 10.5545 12 11.9996 12C13.4447 12 14.7241 11.3306 15.5573 10.293C16.3879 11.3366 17.6685 12 19.0952 12C19.779 12 20.4234 11.8494 20.9998 11.5813V20C20.9998 20.5523 20.552 21 19.9998 21H14.9998C14.4475 21 13.9998 20.5523 13.9998 20V16.5C13.9998 15.9477 13.552 15.5 12.9998 15.5H10.9998C10.4475 15.5 9.99976 15.9477 9.99976 16.5V20C9.99976 20.5523 9.55204 21 8.99976 21H3.99976C3.44747 21 2.99976 20.5523 2.99976 20Z" fill="black"/></svg>
