<svg xmlns="http://www.w3.org/2000/svg" viewBox="0 0 24 24" fill="none"><path fill-rule="evenodd" clip-rule="evenodd" d="M2.07169 9.62861C2.22356 9.24895 2.59127 9 3.00017 9H13.0002C13.4091 9 13.7768 9.24895 13.9286 9.62861L14.8665 11.9733C15.3705 13.2333 14.9391 14.5655 14.0002 15.3379V20C14.0002 20.5523 13.5525 21 13.0002 21H3.00017C2.44789 21 2.00017 20.5523 2.00017 20V15.3379C1.06126 14.5655 0.629815 13.2333 1.1338 11.9733L2.07169 9.62861ZM6.89756 12.6984C6.784 13.3798 7.30943 14 8.00017 14C8.69077 14 9.21612 13.38 9.10285 12.6988L8.81971 11H7.18063L6.89756 12.6984ZM5.15304 11L4.78342 13.2177C4.70819 13.6691 4.31762 14 3.85998 14C3.19766 14 2.74477 13.3311 2.99075 12.7161L3.6772 11H5.15304ZM10.8473 11L11.2169 13.2177C11.2922 13.6691 11.6827 14 12.1404 14C12.8027 14 13.2556 13.3311 13.0096 12.7161L12.3231 11H10.8473Z" fill="black"/><path fill-rule="evenodd" clip-rule="evenodd" d="M10.0716 3.62861C10.2235 3.24895 10.5912 3 11.0001 3H21.0001C21.409 3 21.7767 3.24895 21.9286 3.62861L22.8665 5.97334C23.3705 7.23328 22.939 8.56548 22.0002 9.33783V14C22.0002 14.5523 21.5525 15 21.0002 15H18.0002C17.4479 15 17.0002 14.5523 17.0002 14V9.75026C16.644 9.74995 16.2994 9.55887 16.1191 9.22305C15.8579 8.73645 16.0406 8.13022 16.5272 7.86899C16.9345 7.65034 17.1814 7.19295 17.1042 6.70712L16.8197 5H15.1806L14.9865 6.1644C14.8957 6.70917 14.3805 7.07719 13.8357 6.98639C13.291 6.8956 12.9229 6.38037 13.0137 5.8356L13.153 5H11.6772L11.1286 6.37139C10.9235 6.88417 10.3415 7.13359 9.82873 6.92848C9.31595 6.72336 9.06653 6.14139 9.27164 5.62861L10.0716 3.62861ZM19.0784 6.38673L19.2169 7.21773C19.2921 7.66913 19.6827 8 20.1403 8C20.8026 8 21.2555 7.33107 21.0095 6.71613L20.3231 5H18.8473L19.0755 6.36942L19.0784 6.38673Z" fill="black"/></svg>
