<svg xmlns="http://www.w3.org/2000/svg" viewBox="0 0 24 24" fill="none"><path fill-rule="evenodd" clip-rule="evenodd" d="M4 3C3.44772 3 3 3.44772 3 4V18H2C1.44772 18 1 18.4477 1 19C1 19.5523 1.44772 20 2 20H22C22.5523 20 23 19.5523 23 19C23 18.4477 22.5523 18 22 18H21V8C21 7.44772 20.5523 7 20 7C18.6667 7 17.3333 7 16 7V18H15V4C15 3.44772 14.5523 3 14 3H4ZM8 8C7.44772 8 7 8.44772 7 9C7 9.55228 7.44772 10 8 10H10C10.5523 10 11 9.55228 11 9C11 8.44772 10.5523 8 10 8H8ZM8 12C7.44772 12 7 12.4477 7 13C7 13.5523 7.44772 14 8 14H10C10.5523 14 11 13.5523 11 13C11 12.4477 10.5523 12 10 12H8Z" fill="black"/></svg>
