<svg xmlns="http://www.w3.org/2000/svg" viewBox="0 0 24 24" fill="none"><path fill-rule="evenodd" clip-rule="evenodd" d="M11.3694 1.47389C11.7368 1.17537 12.2632 1.17537 12.6306 1.47389L20.6306 7.97389C20.8643 8.16378 21 8.44887 21 8.75V20C21 20.5523 20.5523 21 20 21H4C3.44772 21 3 20.5523 3 20V8.75C3 8.44887 3.1357 8.16378 3.36941 7.97389L11.3694 1.47389ZM8 15C7.44772 15 7 15.4477 7 16C7 16.5523 7.44772 17 8 17H16C16.5523 17 17 16.5523 17 16C17 15.4477 16.5523 15 16 15H8Z" fill="black"/></svg>
