<svg xmlns="http://www.w3.org/2000/svg" viewBox="0 0 24 24" fill="none"><path fill-rule="evenodd" clip-rule="evenodd" d="M21 18.9998C21.5522 18.9998 21.9999 19.4476 22 19.9998C22 20.552 21.5523 20.9998 21 20.9998H3C2.44772 20.9998 2 20.552 2 19.9998C2.00013 19.4476 2.44779 18.9998 3 18.9998V10.9998H21V18.9998ZM9.5 13.4998C8.94779 13.4998 8.50013 13.9476 8.5 14.4998V18.9998H10.5V14.4998C10.4999 13.9476 10.0522 13.4998 9.5 13.4998ZM14.5 13.4998C13.9478 13.4998 13.5001 13.9476 13.5 14.4998V18.9998H15.5V14.4998C15.4999 13.9476 15.0522 13.4998 14.5 13.4998Z" fill="black"/><path fill-rule="evenodd" clip-rule="evenodd" d="M11.5938 2.08668C11.8523 1.97176 12.1477 1.97176 12.4062 2.08668L21.4062 6.08668C21.7671 6.24719 21.9999 6.60479 22 6.99976V8.49976C22 9.05205 21.5523 9.49976 21 9.49976H3C2.44772 9.49976 2 9.05205 2 8.49976V6.99976C2.00012 6.60479 2.23286 6.24719 2.59375 6.08668L11.5938 2.08668ZM12 5.49976C11.4478 5.49976 11.0001 5.94759 11 6.49976C11 7.05205 11.4477 7.49976 12 7.49976C12.5523 7.49976 13 7.05205 13 6.49976C12.9999 5.94759 12.5522 5.49976 12 5.49976Z" fill="black"/></svg>
