<svg xmlns="http://www.w3.org/2000/svg" viewBox="0 0 24 24" fill="none"><path d="M13.1181 2.04792C12.6817 1.94211 12.2504 2.20028 12.0773 2.61462C11 6.50002 8 8.55501 8 11.2699V17.7252C8 18.8717 8.66361 20.0005 9.83559 20.4273C12.4864 21.3926 14.2335 21.589 16.9595 21.3527C19.0504 21.1715 20.6221 19.5685 21.0577 17.6326L21.9024 13.8781C22.4651 11.3773 20.5633 9.00007 18 9.00007L15 9.00002C15.4693 6.18434 16.615 2.89587 13.1181 2.04792Z" fill="black"/><path d="M2 10.5C2 9.94773 2.44772 9.50002 3 9.50002H6C6.55228 9.50002 7 9.94773 7 10.5V19.5C7 20.0523 6.55228 20.5 6 20.5H3C2.44772 20.5 2 20.0523 2 19.5V10.5Z" fill="black"/></svg>
