<svg xmlns="http://www.w3.org/2000/svg" viewBox="0 0 24 24" fill="none"><path fill-rule="evenodd" clip-rule="evenodd" d="M13.0619 3.00192C13.4758 3.02756 13.8309 3.30596 13.9546 3.70174L18.2148 17.3345L20.1057 13.5528C20.3527 13.0588 20.9533 12.8586 21.4473 13.1056C21.9413 13.3526 22.1415 13.9532 21.8945 14.4472L18.8945 20.4472C18.7121 20.8121 18.3264 21.0295 17.9198 20.9968C17.5132 20.964 17.1673 20.6876 17.0456 20.2983L12.8268 6.79795L8.91047 15.4138C8.75669 15.7521 8.42799 15.9773 8.05697 15.9984C7.68595 16.0195 7.33381 15.8332 7.14261 15.5145L4.95562 11.8695L3.83216 13.5547C3.5258 14.0142 2.90493 14.1384 2.44541 13.8321C1.98588 13.5257 1.8617 12.9048 2.16806 12.4453L4.16806 9.44531C4.3582 9.16009 4.6812 8.99214 5.0239 9.00029C5.36659 9.00845 5.68123 9.19157 5.8576 9.48552L7.87779 12.8525L12.0897 3.58621C12.2613 3.20872 12.6481 2.97629 13.0619 3.00192Z" fill="black"/></svg>
