<svg xmlns="http://www.w3.org/2000/svg" viewBox="0 0 24 24" fill="none"><path d="M16.6699 3C16.1176 3 15.6699 3.44772 15.6699 4V20C15.6699 20.5523 16.1176 21 16.6699 21H19.9999C20.5522 21 20.9999 20.5523 20.9999 20V4C20.9999 3.44772 20.5522 3 19.9999 3H16.6699Z" fill="black"/><path d="M10.3301 8.33398C9.77779 8.33398 9.33008 8.7817 9.33008 9.33398V20.0007C9.33008 20.5529 9.77779 21.0007 10.3301 21.0007H13.6601C14.2124 21.0007 14.6601 20.5529 14.6601 20.0007V9.33398C14.6601 8.7817 14.2124 8.33398 13.6601 8.33398H10.3301Z" fill="black"/><path d="M4 12.7773C3.44772 12.7773 3 13.2251 3 13.7773V19.9996C3 20.5519 3.44772 20.9996 4 20.9996H7.33C7.88228 20.9996 8.33 20.5519 8.33 19.9996V13.7773C8.33 13.2251 7.88228 12.7773 7.33 12.7773H4Z" fill="black"/></svg>
