<svg xmlns="http://www.w3.org/2000/svg" viewBox="0 0 24 24" fill="none"><path fill-rule="evenodd" clip-rule="evenodd" d="M3 4C3.55228 4 4 4.44772 4 5V18H21C21.5523 18 22 18.4477 22 19C22 19.5523 21.5523 20 21 20H3C2.44772 20 2 19.5523 2 19V5C2 4.44772 2.44772 4 3 4ZM15 8C14.4477 8 14 7.55228 14 7C14 6.44772 14.4477 6 15 6H19C19.5523 6 20 6.44772 20 7V11C20 11.5523 19.5523 12 19 12C18.4477 12 18 11.5523 18 11V9.41421L13.7071 13.7071C13.3166 14.0976 12.6834 14.0976 12.2929 13.7071L11 12.4142L7.70711 15.7071C7.31658 16.0976 6.68342 16.0976 6.29289 15.7071C5.90237 15.3166 5.90237 14.6834 6.29289 14.2929L10.2929 10.2929C10.6834 9.90237 11.3166 9.90237 11.7071 10.2929L13 11.5858L16.5858 8H15Z" fill="black"/></svg>
