<svg xmlns="http://www.w3.org/2000/svg" viewBox="0 0 24 24" fill="none"><path fill-rule="evenodd" clip-rule="evenodd" d="M13.0619 20.9981C13.4758 20.9724 13.8309 20.694 13.9546 20.2983L18.2148 6.6655L20.1057 10.4472C20.3527 10.9412 20.9533 11.1414 21.4473 10.8944C21.9413 10.6474 22.1415 10.0468 21.8945 9.55278L18.8945 3.55277C18.7121 3.18794 18.3264 2.97046 17.9198 3.00322C17.5132 3.03597 17.1673 3.31238 17.0456 3.70171L12.8268 17.202L8.91047 8.58619C8.75669 8.24787 8.42799 8.02274 8.05697 8.00161C7.68595 7.98047 7.33381 8.16683 7.14261 8.48549L4.95562 12.1305L3.83216 10.4453C3.5258 9.98576 2.90493 9.86159 2.44541 10.1679C1.98588 10.4743 1.8617 11.0952 2.16806 11.5547L4.16806 14.5547C4.3582 14.8399 4.6812 15.0079 5.0239 14.9997C5.36659 14.9916 5.68123 14.8084 5.8576 14.5145L7.87779 11.1475L12.0897 20.4138C12.2613 20.7913 12.6481 21.0237 13.0619 20.9981Z" fill="black"/></svg>
