<svg xmlns="http://www.w3.org/2000/svg" viewBox="0 0 24 24" fill="none"><path d="M15.1416 2.08137C14.8546 2.04032 14.5639 2.12585 14.3449 2.31578C14.1258 2.50572 14 2.78137 14 3.0713V9.00041C14 9.55269 14.4477 10.0004 15 10.0004H20.9291C21.219 10.0004 21.4947 9.87458 21.6846 9.65554C21.8746 9.4365 21.9601 9.14581 21.919 8.85881C21.4176 5.35328 18.6471 2.5828 15.1416 2.08137Z" fill="black"/><path d="M11 4C6.02944 4 2 8.02944 2 13C2 17.9706 6.02944 22 11 22C15.9706 22 20 17.9706 20 13C20 12.4477 19.5523 12 19 12H12V5C12 4.44772 11.5523 4 11 4Z" fill="black"/></svg>
