<svg xmlns="http://www.w3.org/2000/svg" viewBox="0 0 24 24" fill="none"><path d="M16.3398 4.00098C16.3398 3.44869 16.7876 3.00098 17.3398 3.00098H20.0098C20.5621 3.00098 21.0098 3.44869 21.0098 4.00098V20.001C21.0098 20.5533 20.5621 21.001 20.0098 21.001H17.3398C16.7876 21.001 16.3398 20.5533 16.3398 20.001V4.00098Z" fill="black"/><path d="M10.6699 8.50098C10.1176 8.50098 9.66992 8.94869 9.66992 9.50098V20.001C9.66992 20.5533 10.1176 21.001 10.6699 21.001H13.3399C13.8922 21.001 14.3399 20.5533 14.3399 20.001V9.50098C14.3399 8.94869 13.8922 8.50098 13.3399 8.50098H10.6699Z" fill="black"/><path d="M4 14.001C3.44772 14.001 3 14.4487 3 15.001V20.001C3 20.5533 3.44772 21.001 4 21.001H6.67C7.22228 21.001 7.67 20.5533 7.67 20.001V15.001C7.67 14.4487 7.22228 14.001 6.67 14.001H4Z" fill="black"/></svg>
