<svg xmlns="http://www.w3.org/2000/svg" viewBox="0 0 24 24" fill="none"><path d="M5.00098 2.00098C5.00098 1.44869 4.55326 1.00098 4.00098 1.00098C3.44869 1.00098 3.00098 1.44869 3.00098 2.00098L3.00098 3.95636C3.00033 3.97115 3 3.98603 3 4.00098V6.67098C3 6.68593 3.00033 6.7008 3.00098 6.71559L3.00098 10.6263C3.00033 10.6411 3 10.656 3 10.6709V13.3409C3 13.3558 3.00033 13.3707 3.00098 13.3855L3.00098 17.2962C3.00033 17.311 3 17.3259 3 17.3408V20.0108C3 20.0258 3.00033 20.0406 3.00098 20.0554L3.00098 22.001C3.00098 22.5533 3.44869 23.001 4.00098 23.001C4.55326 23.001 5.00098 22.5533 5.00098 22.001V21.0108H20C20.5523 21.0108 21 20.5631 21 20.0108V17.3408C21 16.7885 20.5523 16.3408 20 16.3408L5.00098 16.3408L5.00098 14.3409H14.5C15.0523 14.3409 15.5 13.8932 15.5 13.3409V10.6709C15.5 10.1186 15.0523 9.6709 14.5 9.6709H5.00098L5.00098 7.67098H9C9.55228 7.67098 10 7.22326 10 6.67098V4.00098C10 3.44869 9.55228 3.00098 9 3.00098L5.00098 3.00098V2.00098Z" fill="black"/></svg>
