<svg xmlns="http://www.w3.org/2000/svg" viewBox="0 0 24 24" fill="none"><path fill-rule="evenodd" clip-rule="evenodd" d="M4 3C4.55228 3 5 3.44772 5 4V14.5858L8.79289 10.7929C9.18342 10.4024 9.81658 10.4024 10.2071 10.7929L12 12.5858L16.2929 8.29289C16.6834 7.90237 17.3166 7.90237 17.7071 8.29289L19.7071 10.2929C20.0976 10.6834 20.0976 11.3166 19.7071 11.7071C19.3166 12.0976 18.6834 12.0976 18.2929 11.7071L17 10.4142L12.7071 14.7071C12.3166 15.0976 11.6834 15.0976 11.2929 14.7071L9.5 12.9142L5 17.4142V19H20C20.5523 19 21 19.4477 21 20C21 20.5523 20.5523 21 20 21H4C3.44772 21 3 20.5523 3 20V4C3 3.44772 3.44772 3 4 3Z" fill="black"/></svg>
