<svg xmlns="http://www.w3.org/2000/svg" viewBox="0 0 24 24" fill="none"><path d="M20 8.00005C21.1046 8.00005 22 8.89548 22 10C22 11.1046 21.1046 12 20 12C19.8843 12 19.7714 11.9876 19.6611 11.9688L16.875 15.3116C16.954 15.5265 17 15.7577 17 16C17 17.1046 16.1046 18 15 18C13.8954 18 13 17.1046 13 16C13 15.8844 13.0114 15.7714 13.0303 15.6612L9.6875 12.875C9.47279 12.9538 9.24201 13 9 13C8.93472 13 8.87032 12.9954 8.80664 12.9893L5.81836 17.1719C5.93359 17.4245 6 17.7043 6 18C6 19.1046 5.10457 20 4 20C2.89543 20 2 19.1046 2 18C2 16.8955 2.89543 16 4 16C4.06492 16 4.12905 16.0038 4.19238 16.0098L7.18066 11.8262C7.06601 11.5741 7 11.295 7 11C7 9.89548 7.89543 9.00005 9 9.00005C10.1046 9.00005 11 9.89548 11 11C11 11.1154 10.9875 11.228 10.9688 11.3379L14.3105 14.1241C14.5257 14.045 14.7575 14 15 14C15.1149 14 15.2273 14.0117 15.3369 14.0303L18.123 10.6875C18.0444 10.473 18 10.2418 18 10C18 8.89548 18.8954 8.00005 20 8.00005Z" fill="black"/><path d="M4.5 7.00005C5.32843 7.00005 6 7.67162 6 8.50005C6 9.32847 5.32843 10 4.5 10C3.67157 10 3 9.32847 3 8.50005C3 7.67162 3.67157 7.00005 4.5 7.00005Z" fill="black"/><path d="M16.6464 6.14649C16.8417 6.34176 16.8417 6.65834 16.6464 6.8536L14.8536 8.64649C14.6583 8.84176 14.3417 8.84176 14.1464 8.64649L12.3536 6.8536C12.1583 6.65834 12.1583 6.34176 12.3536 6.14649L14.1464 4.3536C14.3417 4.15834 14.6583 4.15834 14.8536 4.3536L16.6464 6.14649Z" fill="black"/></svg>
