<svg xmlns="http://www.w3.org/2000/svg" viewBox="0 0 24 24" fill="none"><path d="M4 3C3.44772 3 3 3.44772 3 4V11H8C8.37877 11 8.72504 11.214 8.89443 11.5528L10 13.7639L13.1056 7.55279C13.275 7.214 13.6212 7 14 7C14.3788 7 14.725 7.214 14.8944 7.55279L16.618 11H21V4C21 3.44772 20.5523 3 20 3H4Z" fill="black"/><path d="M21 13H16C15.6212 13 15.275 12.786 15.1056 12.4472L14 10.2361L10.8944 16.4472C10.725 16.786 10.3788 17 10 17C9.62123 17 9.27496 16.786 9.10557 16.4472L7.38197 13H3V20C3 20.5523 3.44772 21 4 21H20C20.5523 21 21 20.5523 21 20V13Z" fill="black"/></svg>
