<svg xmlns="http://www.w3.org/2000/svg" viewBox="0 0 24 24" fill="none"><path d="M13 3C13 2.44772 12.5523 2 12 2C11.4477 2 11 2.44772 11 3V4H3C2.44772 4 2 4.44772 2 5V18C2 18.5523 2.44772 19 3 19H6.61257L6.05132 20.6838C5.87667 21.2077 6.15983 21.774 6.68377 21.9487C7.20772 22.1233 7.77404 21.8402 7.94868 21.3162L8.72076 19H11V20C11 20.5523 11.4477 21 12 21C12.5523 21 13 20.5523 13 20V19H15.2792L16.0513 21.3162C16.226 21.8402 16.7923 22.1233 17.3162 21.9487C17.8402 21.774 18.1233 21.2077 17.9487 20.6838L17.3874 19H21C21.5523 19 22 18.5523 22 18V5C22 4.44772 21.5523 4 21 4H13V3Z" fill="black"/></svg>
