<svg xmlns="http://www.w3.org/2000/svg" viewBox="0 0 24 24" fill="none"><path d="M17.3398 3.00098C16.7876 3.00098 16.3398 3.44869 16.3398 4.00098V19H14.3399V9.50098C14.3399 8.94869 13.8922 8.50098 13.3399 8.50098H10.6699C10.1176 8.50098 9.66992 8.94869 9.66992 9.50098V19H7.67V15.001C7.67 14.4487 7.22228 14.001 6.67 14.001H4C3.44772 14.001 3 14.4487 3 15.001V19H2C1.44772 19 1 19.4477 1 20C1 20.5523 1.44772 21 2 21H3.95541C3.97019 21.0006 3.98506 21.001 4 21.001H6.67C6.68494 21.001 6.69981 21.0006 6.71459 21H10.6253C10.6401 21.0006 10.655 21.001 10.6699 21.001H13.3399C13.3549 21.001 13.3697 21.0006 13.3845 21H17.2952C17.31 21.0006 17.3249 21.001 17.3398 21.001H20.0098C20.0248 21.001 20.0397 21.0006 20.0544 21H22C22.5523 21 23 20.5523 23 20C23 19.4477 22.5523 19 22 19H21.0098V4.00098C21.0098 3.44869 20.5621 3.00098 20.0098 3.00098H17.3398Z" fill="black"/></svg>
