<svg xmlns="http://www.w3.org/2000/svg" viewBox="0 0 24 24" fill="none"><path fill-rule="evenodd" clip-rule="evenodd" d="M15 7C15 6.44772 15.4477 6 16 6H21C21.5523 6 22 6.44772 22 7V12C22 12.5523 21.5523 13 21 13C20.4477 13 20 12.5523 20 12V9.41421L13.7071 15.7071C13.3166 16.0976 12.6834 16.0976 12.2929 15.7071L9 12.4142L3.70711 17.7071C3.31658 18.0976 2.68342 18.0976 2.29289 17.7071C1.90237 17.3166 1.90237 16.6834 2.29289 16.2929L8.29289 10.2929C8.68342 9.90237 9.31658 9.90237 9.70711 10.2929L13 13.5858L18.5858 8H16C15.4477 8 15 7.55228 15 7Z" fill="black"/></svg>
