<svg xmlns="http://www.w3.org/2000/svg" viewBox="0 0 24 24" fill="none"><path d="M10 7C9.44772 7 9 7.44772 9 8C9 8.55228 9.44772 9 10 9H14C14.5523 9 15 8.55228 15 8C15 7.44772 14.5523 7 14 7H10Z" fill="black"/><path fill-rule="evenodd" clip-rule="evenodd" d="M5 2C4.44772 2 4 2.44772 4 3V10.2792L3.31623 10.0513C3.01128 9.94967 2.67606 10.0008 2.41529 10.1888C2.15452 10.3767 2 10.6786 2 11V20C2 20.5523 2.44772 21 3 21H21C21.5523 21 22 20.5523 22 20V11C22 10.6786 21.8455 10.3767 21.5847 10.1888C21.3239 10.0008 20.9887 9.94967 20.6838 10.0513L20 10.2792V3C20 2.44772 19.5523 2 19 2H5ZM18 10.9459V4H6V10.9459L12 12.9459L18 10.9459Z" fill="black"/></svg>
