<svg xmlns="http://www.w3.org/2000/svg" viewBox="0 0 24 24" fill="none"><path fill-rule="evenodd" clip-rule="evenodd" d="M21.002 3C21.5542 3 22.002 3.44772 22.002 4V14C22.002 14.5523 21.5542 15 21.002 15H18.002V18C18.002 18.5523 17.5542 19 17.002 19H10.7611L6.4876 21.3742C6.17787 21.5462 5.8002 21.5416 5.49483 21.3619C5.18945 21.1822 5.00195 20.8543 5.00195 20.5V19H3.00195C2.44967 19 2.00195 18.5523 2.00195 18V8C2.00195 7.44772 2.44967 7 3.00195 7H6.00195V4C6.00195 3.44772 6.44967 3 7.00195 3H21.002ZM8.00195 7H17.002C17.5542 7 18.002 7.44772 18.002 8V13H20.002V5H8.00195V7Z" fill="black"/></svg>
