<svg xmlns="http://www.w3.org/2000/svg" viewBox="0 0 24 24" fill="none"><path fill-rule="evenodd" clip-rule="evenodd" d="M4.00195 3.00003L20.002 3C20.2672 3 20.5215 3.10536 20.7091 3.29289C20.8966 3.48043 21.002 3.73478 21.002 4V18.0357C21.002 18.588 20.5542 19.0357 20.002 19.0357L15.3757 19.0358L12.6357 21.3058C12.2639 21.6138 11.7252 21.6123 11.3553 21.3021L8.65157 19.0358H4.00195C3.73674 19.0358 3.48238 18.9304 3.29485 18.7429C3.10731 18.5553 3.00195 18.301 3.00195 18.0358V4.00003C3.00195 3.44774 3.44967 3.00003 4.00195 3.00003ZM6.49976 11.25C6.49976 11.9404 7.0594 12.5 7.74976 12.5C8.44011 12.5 8.99976 11.9404 8.99976 11.25C8.99976 10.5596 8.44011 10 7.74976 10C7.0594 10 6.49976 10.5596 6.49976 11.25ZM10.7498 11.25C10.7498 11.9404 11.3094 12.5 11.9998 12.5C12.6901 12.5 13.2498 11.9404 13.2498 11.25C13.2498 10.5596 12.6901 10 11.9998 10C11.3094 10 10.7498 10.5596 10.7498 11.25ZM16.2498 12.5C15.5594 12.5 14.9998 11.9404 14.9998 11.25C14.9998 10.5596 15.5594 10 16.2498 10C16.9401 10 17.4998 10.5596 17.4998 11.25C17.4998 11.9404 16.9401 12.5 16.2498 12.5Z" fill="black"/></svg>
