<svg xmlns="http://www.w3.org/2000/svg" viewBox="0 0 24 24" fill="none"><path d="M4.70711 20.7071L20.7071 4.70711C21.0976 4.31658 21.0976 3.68342 20.7071 3.29289C20.3166 2.90237 19.6834 2.90237 19.2929 3.29289L10.8369 11.7489C10.3467 11.1698 9.91043 10.5438 9.5358 9.87842L10.7071 8.70711C10.9672 8.44697 11.0635 8.06502 10.9578 7.71265L9.75783 3.71265C9.63093 3.28967 9.24161 3 8.8 3H4C3.44772 3 3 3.44772 3 4C3 8.33458 4.62226 12.2903 7.29276 15.293L3.29289 19.2929C2.90237 19.6834 2.90237 20.3166 3.29289 20.7071C3.68342 21.0976 4.31658 21.0976 4.70711 20.7071Z" fill="black"/><path d="M20 21C16.3893 21 13.0415 19.8743 10.2884 17.9548L13.9043 14.3388C13.9762 14.3814 14.0487 14.4232 14.1216 14.4642L15.2929 13.2929C15.553 13.0328 15.935 12.9365 16.2873 13.0422L20.2873 14.2422C20.7103 14.3691 21 14.7584 21 15.2V20C21 20.5523 20.5523 21 20 21Z" fill="black"/></svg>
