<svg xmlns="http://www.w3.org/2000/svg" viewBox="0 0 24 24" fill="none"><path fill-rule="evenodd" clip-rule="evenodd" d="M20.002 3L4.00195 3.00003C3.44967 3.00003 3.00195 3.44774 3.00195 4.00003V18.0358C3.00195 18.301 3.10731 18.5553 3.29485 18.7429C3.48238 18.9304 3.73674 19.0358 4.00195 19.0358H8.65157L11.3553 21.3021C11.7252 21.6123 12.2639 21.6138 12.6357 21.3058L15.3757 19.0358L20.002 19.0357C20.5542 19.0357 21.002 18.588 21.002 18.0357V4C21.002 3.73478 20.8966 3.48043 20.7091 3.29289C20.5215 3.10536 20.2672 3 20.002 3ZM7.99976 9C7.99976 8.44772 8.44747 8 8.99976 8H14.9998C15.552 8 15.9998 8.44772 15.9998 9C15.9998 9.55228 15.552 10 14.9998 10H8.99976C8.44747 10 7.99976 9.55228 7.99976 9ZM8.99976 12C8.44747 12 7.99976 12.4477 7.99976 13C7.99976 13.5523 8.44747 14 8.99976 14H14.9998C15.552 14 15.9998 13.5523 15.9998 13C15.9998 12.4477 15.552 12 14.9998 12H8.99976Z" fill="black"/></svg>
