<svg xmlns="http://www.w3.org/2000/svg" viewBox="0 0 24 24" fill="none"><path fill-rule="evenodd" clip-rule="evenodd" d="M2 5C2 4.44772 2.44772 4 3 4H21C21.5523 4 22 4.44772 22 5V19C22 19.5523 21.5523 20 21 20H3C2.44772 20 2 19.5523 2 19V5ZM6 10C6 9.44772 6.44772 9 7 9H11C11.5523 9 12 9.44772 12 10C12 10.5523 11.5523 11 11 11H7C6.44772 11 6 10.5523 6 10ZM14 10C14 9.44772 14.4477 9 15 9H17C17.5523 9 18 9.44772 18 10V13C18 13.5523 17.5523 14 17 14H15C14.4477 14 14 13.5523 14 13V10ZM6 13.5C6 12.9477 6.44772 12.5 7 12.5H9C9.55228 12.5 10 12.9477 10 13.5C10 14.0523 9.55228 14.5 9 14.5H7C6.44772 14.5 6 14.0523 6 13.5Z" fill="black"/></svg>
