<svg xmlns="http://www.w3.org/2000/svg" viewBox="0 0 24 24" fill="none"><path d="M1.07436 3.62266C1.22802 3.24667 1.59385 3.00098 2.00003 3.00098H22C22.3596 3.00098 22.6914 3.19398 22.8692 3.50647C23.047 3.81896 23.0433 4.20284 22.8597 4.5119L12.5577 21.8449C12.3499 22.1944 11.9512 22.3834 11.5492 22.3228C11.1471 22.2623 10.8217 21.9643 10.7261 21.5691L8.55475 12.5949L14.4847 9.3084C14.9678 9.04068 15.1424 8.43206 14.8747 7.949C14.6069 7.46594 13.9983 7.29137 13.5153 7.55909L7.56103 10.859L1.29963 4.71473C1.00972 4.43024 0.92069 3.99865 1.07436 3.62266Z" fill="black"/></svg>
