<svg xmlns="http://www.w3.org/2000/svg" viewBox="0 0 24 24" fill="none"><path fill-rule="evenodd" clip-rule="evenodd" d="M4.00195 3.00003L20.002 3C20.2672 3 20.5215 3.10536 20.7091 3.29289C20.8966 3.48043 21.002 3.73478 21.002 4V18.0357C21.002 18.588 20.5542 19.0357 20.002 19.0357L15.3757 19.0358L12.6357 21.3058C12.2639 21.6138 11.7252 21.6123 11.3553 21.3021L8.65157 19.0358H4.00195C3.73674 19.0358 3.48238 18.9304 3.29485 18.7429C3.10731 18.5553 3.00195 18.301 3.00195 18.0358V4.00003C3.00195 3.44774 3.44967 3.00003 4.00195 3.00003ZM14.7069 9.70711C15.0974 9.31658 15.0974 8.68342 14.7069 8.29289C14.3163 7.90237 13.6832 7.90237 13.2926 8.29289L11.9998 9.58579L10.7069 8.29289C10.3163 7.90237 9.68317 7.90237 9.29265 8.29289C8.90212 8.68342 8.90212 9.31658 9.29265 9.70711L10.5855 11L9.29265 12.2929C8.90212 12.6834 8.90212 13.3166 9.29265 13.7071C9.68317 14.0976 10.3163 14.0976 10.7069 13.7071L11.9998 12.4142L13.2926 13.7071C13.6832 14.0976 14.3163 14.0976 14.7069 13.7071C15.0974 13.3166 15.0974 12.6834 14.7069 12.2929L13.414 11L14.7069 9.70711Z" fill="black"/></svg>
