<svg xmlns="http://www.w3.org/2000/svg" viewBox="0 0 24 24" fill="none"><path fill-rule="evenodd" clip-rule="evenodd" d="M4.00195 3.00003L20.002 3C20.2672 3 20.5215 3.10536 20.7091 3.29289C20.8966 3.48043 21.002 3.73478 21.002 4V18.0357C21.002 18.588 20.5542 19.0357 20.002 19.0357L15.3757 19.0358L12.6357 21.3058C12.2639 21.6138 11.7252 21.6123 11.3553 21.3021L8.65157 19.0358H4.00195C3.73674 19.0358 3.48238 18.9304 3.29485 18.7429C3.10731 18.5553 3.00195 18.301 3.00195 18.0358V4.00003C3.00195 3.44774 3.44967 3.00003 4.00195 3.00003ZM11.9998 7C12.3153 7 12.5712 7.25584 12.5712 7.57143C12.5712 8.69215 12.8194 9.36869 13.2252 9.77451C13.6311 10.1803 14.3076 10.4286 15.4283 10.4286C15.7439 10.4286 15.9998 10.6844 15.9998 11C15.9998 11.3156 15.7439 11.5714 15.4283 11.5714C14.3076 11.5714 13.6311 11.8197 13.2252 12.2255C12.8194 12.6313 12.5712 13.3078 12.5712 14.4286C12.5712 14.7442 12.3153 15 11.9998 15C11.6842 15 11.4283 14.7442 11.4283 14.4286C11.4283 13.3078 11.1801 12.6313 10.7743 12.2255C10.3684 11.8197 9.69191 11.5714 8.57118 11.5714C8.25559 11.5714 7.99976 11.3156 7.99976 11C7.99976 10.6844 8.25559 10.4286 8.57118 10.4286C9.69191 10.4286 10.3684 10.1803 10.7743 9.77451C11.1801 9.36869 11.4283 8.69215 11.4283 7.57143C11.4283 7.25584 11.6842 7 11.9998 7Z" fill="black"/></svg>
