<svg xmlns="http://www.w3.org/2000/svg" viewBox="0 0 24 24" fill="none"><path fill-rule="evenodd" clip-rule="evenodd" d="M19 2C16.7909 2 15 3.79086 15 6C15 8.20914 16.7909 10 19 10C21.2091 10 23 8.20914 23 6C23 3.79086 21.2091 2 19 2ZM17 6C17 4.89543 17.8954 4 19 4C20.1046 4 21 4.89543 21 6C21 7.10457 20.1046 8 19 8C17.8954 8 17 7.10457 17 6Z" fill="black"/><path d="M13 5.99999C13 4.90713 13.2922 3.88252 13.8027 3L3.00195 3.00002C2.44967 3.00002 2.00195 3.44773 2.00195 4.00002V18.0358C2.00195 18.301 2.10731 18.5553 2.29485 18.7429C2.48238 18.9304 2.73674 19.0358 3.00195 19.0358H8.65157L11.3553 21.3021C11.7252 21.6122 12.2639 21.6138 12.6357 21.3058L15.3757 19.0358L21.002 19.0357C21.5542 19.0357 22.002 18.588 22.002 18.0357V11.1962C21.119 11.7074 20.0937 12 19 12C15.6863 12 13 9.3137 13 5.99999Z" fill="black"/></svg>
