<svg xmlns="http://www.w3.org/2000/svg" viewBox="0 0 24 24" fill="none"><path d="M4 3C3.44772 3 3 3.44772 3 4C3 13.3888 10.6112 21 20 21C20.5523 21 21 20.5523 21 20V15.2C21 14.7584 20.7103 14.3691 20.2873 14.2422L16.2873 13.0422C15.935 12.9365 15.553 13.0328 15.2929 13.2929L14.1216 14.4642C12.2053 13.3852 10.6148 11.7947 9.5358 9.87842L10.7071 8.70711C10.9672 8.44697 11.0635 8.06502 10.9578 7.71265L9.75783 3.71265C9.63093 3.28967 9.24161 3 8.8 3H4Z" fill="black"/><path fill-rule="evenodd" clip-rule="evenodd" d="M15 4C15 3.44772 15.4477 3 16 3H20C20.5523 3 21 3.44772 21 4V8C21 8.55228 20.5523 9 20 9C19.4477 9 19 8.55228 19 8V6.41421L15.7071 9.70711C15.3166 10.0976 14.6834 10.0976 14.2929 9.70711C13.9024 9.31658 13.9024 8.68342 14.2929 8.29289L17.5858 5H16C15.4477 5 15 4.55228 15 4Z" fill="black"/></svg>
