<svg xmlns="http://www.w3.org/2000/svg" viewBox="0 0 24 24" fill="none"><path fill-rule="evenodd" clip-rule="evenodd" d="M4.00195 3.00003L20.002 3C20.2672 3 20.5215 3.10536 20.7091 3.29289C20.8966 3.48043 21.002 3.73478 21.002 4V18.0357C21.002 18.588 20.5542 19.0357 20.002 19.0357L15.3757 19.0358L12.6357 21.3058C12.2639 21.6138 11.7252 21.6123 11.3553 21.3021L8.65157 19.0358H4.00195C3.73674 19.0358 3.48238 18.9304 3.29485 18.7429C3.10731 18.5553 3.00195 18.301 3.00195 18.0358V4.00003C3.00195 3.44774 3.44967 3.00003 4.00195 3.00003ZM12.9998 8C12.9998 7.44771 12.552 7 11.9998 7C11.4475 7 10.9998 7.44771 10.9998 8L10.9998 9.99997H8.99976C8.44747 9.99997 7.99976 10.4477 7.99976 11C7.99976 11.5523 8.44747 12 8.99976 12H10.9998V14C10.9998 14.5523 11.4475 15 11.9998 15C12.552 15 12.9998 14.5523 12.9998 14V12H14.9998C15.552 12 15.9998 11.5523 15.9998 11C15.9998 10.4477 15.552 9.99997 14.9998 9.99997H12.9998V8Z" fill="black"/></svg>
