<svg xmlns="http://www.w3.org/2000/svg" viewBox="0 0 24 24" fill="none"><path d="M7 4C4.79086 4 3 5.79086 3 8V13C3 15.2091 4.79086 17 7 17C9.20914 17 11 15.2091 11 13V8C11 5.79086 9.20914 4 7 4Z" fill="black"/><path d="M14 5C13.4477 5 13 5.44772 13 6C13 6.55228 13.4477 7 14 7H18V17C17.4477 17 15 17.4477 15 18C15 18.5523 15.4477 19 16 19H19C19.5523 19 20 18.5523 20 18V15.443L22.6489 16.4363C22.956 16.5515 23.3 16.5087 23.5696 16.3219C23.8392 16.1351 24 15.828 24 15.5V8.5C24 8.17202 23.8392 7.86489 23.5696 7.67807C23.3 7.49126 22.956 7.44851 22.6489 7.56367L20 8.557V6C20 5.44772 19.5523 5 19 5H14Z" fill="black"/><path d="M2 13C2 12.4477 1.55228 12 1 12C0.447715 12 0 12.4477 0 13C0 16.866 3.13401 20 7 20C10.866 20 14 16.866 14 13C14 12.4477 13.5523 12 13 12C12.4477 12 12 12.4477 12 13C12 15.7614 9.76142 18 7 18C4.23858 18 2 15.7614 2 13Z" fill="black"/></svg>
