<svg xmlns="http://www.w3.org/2000/svg" viewBox="0 0 24 24" fill="none"><path fill-rule="evenodd" clip-rule="evenodd" d="M20.002 3L4.00195 3.00003C3.44967 3.00003 3.00195 3.44774 3.00195 4.00003V18.0358C3.00195 18.301 3.10731 18.5553 3.29485 18.7429C3.48238 18.9304 3.73674 19.0358 4.00195 19.0358H8.65157L11.3553 21.3021C11.7252 21.6123 12.2639 21.6138 12.6357 21.3058L15.3757 19.0358L20.002 19.0357C20.5542 19.0357 21.002 18.588 21.002 18.0357V4C21.002 3.73478 20.8966 3.48043 20.7091 3.29289C20.5215 3.10536 20.2672 3 20.002 3ZM11.9994 14.2801C12.2703 14.2801 15.2507 12.7448 15.2507 10.6675C15.2507 9.22252 14.3475 8.5 13.4444 8.5C12.5412 8.5 11.9994 9.04189 11.9994 9.04189C11.9994 9.04189 11.4575 8.5 10.5543 8.5C9.65119 8.5 8.74805 9.22252 8.74805 10.6675C8.74805 12.7448 11.7284 14.2801 11.9994 14.2801Z" fill="black"/></svg>
