<svg xmlns="http://www.w3.org/2000/svg" viewBox="0 0 24 24" fill="none"><path fill-rule="evenodd" clip-rule="evenodd" d="M4.00195 3.00003L20.002 3C20.2672 3 20.5215 3.10536 20.7091 3.29289C20.8966 3.48043 21.002 3.73478 21.002 4V18.0357C21.002 18.588 20.5542 19.0357 20.002 19.0357L15.3757 19.0358L12.6357 21.3058C12.2639 21.6138 11.7252 21.6123 11.3553 21.3021L8.65157 19.0358H4.00195C3.73674 19.0358 3.48238 18.9304 3.29485 18.7429C3.10731 18.5553 3.00195 18.301 3.00195 18.0358V4.00003C3.00195 3.44774 3.44967 3.00003 4.00195 3.00003ZM15.4569 9.95711C15.8474 9.56658 15.8474 8.93342 15.4569 8.54289C15.0663 8.15237 14.4332 8.15237 14.0427 8.54289L11.2498 11.3358L10.4569 10.5429C10.0663 10.1524 9.43317 10.1524 9.04265 10.5429C8.65212 10.9334 8.65212 11.5666 9.04265 11.9571L10.5427 13.4571C10.7302 13.6446 10.9845 13.75 11.2498 13.75C11.515 13.75 11.7693 13.6446 11.9569 13.4571L15.4569 9.95711Z" fill="black"/></svg>
