<svg xmlns="http://www.w3.org/2000/svg" viewBox="0 0 24 24" fill="none"><path fill-rule="evenodd" clip-rule="evenodd" d="M20.002 3L4.00195 3.00003C3.44967 3.00003 3.00195 3.44774 3.00195 4.00003V18.0358C3.00195 18.301 3.10731 18.5553 3.29485 18.7429C3.48238 18.9304 3.73674 19.0358 4.00195 19.0358H8.65157L11.3553 21.3021C11.7252 21.6123 12.2639 21.6138 12.6357 21.3058L15.3757 19.0358L20.002 19.0357C20.5542 19.0357 21.002 18.588 21.002 18.0357V4C21.002 3.73478 20.8966 3.48043 20.7091 3.29289C20.5215 3.10536 20.2672 3 20.002 3ZM11.9998 14.75C12.552 14.75 12.9998 14.3023 12.9998 13.75V11.75C12.9998 11.1977 12.552 10.75 11.9998 10.75C11.4475 10.75 10.9998 11.1977 10.9998 11.75V13.75C10.9998 14.3023 11.4475 14.75 11.9998 14.75ZM11.9998 10C11.3094 10 10.7498 9.44036 10.7498 8.75C10.7498 8.05964 11.3094 7.5 11.9998 7.5C12.6901 7.5 13.2498 8.05964 13.2498 8.75C13.2498 9.44036 12.6901 10 11.9998 10Z" fill="black"/></svg>
