<svg xmlns="http://www.w3.org/2000/svg" viewBox="0 0 24 24" fill="none"><path d="M12 9.83588L2.46629 4.15418C2.62073 4.05652 2.80376 4 3 4H21C21.1962 4 21.3793 4.05652 21.5337 4.15418L12 9.83588Z" fill="black"/><path d="M2 19V6.20452L12 12.1641L22 6.20452V14C22 12.3431 20.6569 11 19 11C17.3431 11 16 12.3431 16 14C14.3431 14 13 15.3431 13 17C13 18.6552 14.3405 19.9974 15.9952 20H3C2.44772 20 2 19.5523 2 19Z" fill="black"/><path d="M19 13C19.5523 13 20 13.4477 20 14V16H22C22.5523 16 23 16.4477 23 17C23 17.5523 22.5523 18 22 18H20V20C20 20.5523 19.5523 21 19 21C18.4477 21 18 20.5523 18 20V18H16C15.4477 18 15 17.5523 15 17C15 16.4477 15.4477 16 16 16H18V14C18 13.4477 18.4477 13 19 13Z" fill="black"/></svg>
