<svg xmlns="http://www.w3.org/2000/svg" viewBox="0 0 24 24" fill="none"><path fill-rule="evenodd" clip-rule="evenodd" d="M2.00002 12C2.00002 6.47715 6.47717 2 12 2C17.5229 2 22 6.47715 22 12C22 17.5228 17.5229 22 12 22C10.5269 22 9.12591 21.6808 7.86444 21.1072L3.18393 21.9829C2.85657 22.0442 2.5202 21.9385 2.28677 21.7009C2.05334 21.4634 1.95348 21.1252 2.02043 20.799L2.95147 16.2622C2.34101 14.9682 2.00002 13.5227 2.00002 12ZM6.25 12C6.25 12.6904 6.80964 13.25 7.5 13.25C8.19036 13.25 8.75 12.6904 8.75 12C8.75 11.3096 8.19036 10.75 7.5 10.75C6.80964 10.75 6.25 11.3096 6.25 12ZM10.75 12C10.75 12.6904 11.3096 13.25 12 13.25C12.6904 13.25 13.25 12.6904 13.25 12C13.25 11.3096 12.6904 10.75 12 10.75C11.3096 10.75 10.75 11.3096 10.75 12ZM16.5 13.25C15.8096 13.25 15.25 12.6904 15.25 12C15.25 11.3096 15.8096 10.75 16.5 10.75C17.1904 10.75 17.75 11.3096 17.75 12C17.75 12.6904 17.1904 13.25 16.5 13.25Z" fill="black"/></svg>
