<svg xmlns="http://www.w3.org/2000/svg" viewBox="0 0 24 24" fill="none"><path d="M8 9V11H11V9H8Z" fill="black"/><path fill-rule="evenodd" clip-rule="evenodd" d="M3 3C2.44772 3 2 3.44772 2 4V17.5C2 19.433 3.567 21 5.5 21H18.5C20.433 21 22 19.433 22 17.5V12C22 11.4477 21.5523 11 21 11H17V4C17 3.44772 16.5523 3 16 3H3ZM17 13V17.5C17 18.3284 17.6716 19 18.5 19C19.3284 19 20 18.3284 20 17.5V13H17ZM7 15C6.44772 15 6 15.4477 6 16C6 16.5523 6.44772 17 7 17H12C12.5523 17 13 16.5523 13 16C13 15.4477 12.5523 15 12 15H7ZM6 8C6 7.44772 6.44772 7 7 7H12C12.5523 7 13 7.44772 13 8V12C13 12.5523 12.5523 13 12 13H7C6.44772 13 6 12.5523 6 12V8Z" fill="black"/></svg>
