<svg xmlns="http://www.w3.org/2000/svg" viewBox="0 0 24 24" fill="none"><path d="M3.37431 3.21997C3.67894 2.9756 4.09795 2.93093 4.44725 3.10558L20.4473 11.1056C20.786 11.275 21 11.6212 21 12C21 12.3788 20.786 12.725 20.4473 12.8944L4.44725 20.8944C4.09795 21.0691 3.67894 21.0244 3.37431 20.7801C3.06968 20.5357 2.93518 20.1363 3.0299 19.7575L4.71927 13H9.00004C9.55233 13 10 12.5523 10 12C10 11.4477 9.55233 11 9.00004 11H4.71926L3.0299 4.24254C2.93518 3.86368 3.06968 3.46433 3.37431 3.21997Z" fill="black"/></svg>
