<svg xmlns="http://www.w3.org/2000/svg" viewBox="0 0 24 24" fill="none"><path d="M4 3C3.44772 3 3 3.44772 3 4C3 13.3888 10.6112 21 20 21C20.5523 21 21 20.5523 21 20V15.2C21 14.7584 20.7103 14.3691 20.2873 14.2422L16.2873 13.0422C15.935 12.9365 15.553 13.0328 15.2929 13.2929L14.1216 14.4642C12.2053 13.3852 10.6148 11.7947 9.5358 9.87842L10.7071 8.70711C10.9672 8.44697 11.0635 8.06502 10.9578 7.71265L9.75783 3.71265C9.63093 3.28967 9.24161 3 8.8 3H4Z" fill="black"/><path d="M20 9C20 9.55228 19.5523 10 19 10H15C14.4477 10 14 9.55228 14 9V5C14 4.44772 14.4477 4 15 4C15.5523 4 16 4.44772 16 5V6.58579L19.2929 3.29289C19.6834 2.90237 20.3166 2.90237 20.7071 3.29289C21.0976 3.68342 21.0976 4.31658 20.7071 4.70711L17.4142 8H19C19.5523 8 20 8.44772 20 9Z" fill="black"/></svg>
