<svg xmlns="http://www.w3.org/2000/svg" viewBox="0 0 24 24" fill="none"><path fill-rule="evenodd" clip-rule="evenodd" d="M2 5C2 4.44772 2.44772 4 3 4H21C21.5523 4 22 4.44772 22 5V19C22 19.5523 21.5523 20 21 20H3C2.44772 20 2 19.5523 2 19V5ZM13 9C12.4477 9 12 9.44771 12 10V14C12 14.5523 12.4477 15 13 15H17C17.5523 15 18 14.5523 18 14V10C18 9.44771 17.5523 9 17 9H13ZM7 9.25C6.44772 9.25 6 9.69771 6 10.25C6 10.8023 6.44772 11.25 7 11.25H9C9.55228 11.25 10 10.8023 10 10.25C10 9.69771 9.55228 9.25 9 9.25H7ZM7 12.75C6.44772 12.75 6 13.1977 6 13.75C6 14.3023 6.44772 14.75 7 14.75H9C9.55228 14.75 10 14.3023 10 13.75C10 13.1977 9.55228 12.75 9 12.75H7Z" fill="black"/></svg>
