<svg xmlns="http://www.w3.org/2000/svg" viewBox="0 0 24 24" fill="none"><path fill-rule="evenodd" clip-rule="evenodd" d="M22.002 4C22.002 3.44772 21.5542 3 21.002 3H3.00195C2.44967 3 2.00195 3.44772 2.00195 4V18C2.00195 18.5523 2.44967 19 3.00195 19H6.00195V21C6.00195 21.3603 6.19575 21.6927 6.50925 21.8702C6.82276 22.0477 7.20752 22.0429 7.51645 21.8575L12.2789 19H21.002C21.5542 19 22.002 18.5523 22.002 18V4ZM6.24976 11C6.24976 11.6904 6.8094 12.25 7.49976 12.25C8.19011 12.25 8.74976 11.6904 8.74976 11C8.74976 10.3096 8.19011 9.75 7.49976 9.75C6.8094 9.75 6.24976 10.3096 6.24976 11ZM10.7498 11C10.7498 11.6904 11.3094 12.25 11.9998 12.25C12.6901 12.25 13.2498 11.6904 13.2498 11C13.2498 10.3096 12.6901 9.75 11.9998 9.75C11.3094 9.75 10.7498 10.3096 10.7498 11ZM16.4998 12.25C15.8094 12.25 15.2498 11.6904 15.2498 11C15.2498 10.3096 15.8094 9.75 16.4998 9.75C17.1901 9.75 17.7498 10.3096 17.7498 11C17.7498 11.6904 17.1901 12.25 16.4998 12.25Z" fill="black"/></svg>
