<svg xmlns="http://www.w3.org/2000/svg" viewBox="0 0 24 24" fill="none"><path d="M4 2C2.34315 2 1 3.34315 1 5C1 6.30622 1.83481 7.41746 3 7.82929V19C3 19.5523 3.44772 20 4 20H13C13.5523 20 14 19.5523 14 19C14 18.4477 13.5523 18 13 18H5V7.82929C6.16519 7.41746 7 6.30622 7 5C7 3.34315 5.65685 2 4 2Z" fill="black"/><path d="M11 4C10.4477 4 10 4.44772 10 5C10 5.55228 10.4477 6 11 6H19V16.1707C17.8348 16.5825 17 17.6938 17 19C17 20.6569 18.3431 22 20 22C21.6569 22 23 20.6569 23 19C23 17.6938 22.1652 16.5825 21 16.1707V5C21 4.44772 20.5523 4 20 4H11Z" fill="black"/><path d="M9 9C8.44772 9 8 9.44772 8 10C8 10.5523 8.44772 11 9 11H15C15.5523 11 16 10.5523 16 10C16 9.44772 15.5523 9 15 9H9Z" fill="black"/><path d="M9 13C8.44772 13 8 13.4477 8 14C8 14.5523 8.44772 15 9 15H13C13.5523 15 14 14.5523 14 14C14 13.4477 13.5523 13 13 13H9Z" fill="black"/></svg>
