<svg xmlns="http://www.w3.org/2000/svg" viewBox="0 0 24 24" fill="none"><path fill-rule="evenodd" clip-rule="evenodd" d="M12 4C8.41015 4 5.5 6.91015 5.5 10.5C5.5 13.4882 7.51725 16.0078 10.2661 16.7664C10.6997 16.8861 11 17.2806 11 17.7304V21C11 21.5523 10.5523 22 10 22H4C3.44772 22 3 21.5523 3 21V19C3 18.4477 3.44772 18 4 18C4.55228 18 5 18.4477 5 19V20H9V18.4551C5.78656 17.2426 3.5 14.1394 3.5 10.5C3.5 5.80558 7.30558 2 12 2C16.6944 2 20.5 5.80558 20.5 10.5C20.5 14.1394 18.2134 17.2426 15 18.4551L15 20H19V19C19 18.4477 19.4477 18 20 18C20.5523 18 21 18.4477 21 19V21C21 21.5523 20.5523 22 20 22H14C13.4477 22 13 21.5523 13 21L13 17.7304C13 17.2806 13.3003 16.8861 13.7339 16.7664C16.4828 16.0078 18.5 13.4882 18.5 10.5C18.5 6.91015 15.5899 4 12 4Z" fill="black"/></svg>
