<svg xmlns="http://www.w3.org/2000/svg" viewBox="0 0 24 24" fill="none"><path d="M4 4C3.44772 4 3 4.44772 3 5V9C3 9.55228 3.44772 10 4 10H8C8.55228 10 9 9.55228 9 9V5C9 4.44772 8.55228 4 8 4H4Z" fill="black"/><path d="M13 4.5C12.4477 4.5 12 4.94772 12 5.5C12 6.05228 12.4477 6.5 13 6.5H20C20.5523 6.5 21 6.05228 21 5.5C21 4.94772 20.5523 4.5 20 4.5H13Z" fill="black"/><path d="M13 7.5C12.4477 7.5 12 7.94772 12 8.5C12 9.05228 12.4477 9.5 13 9.5H17C17.5523 9.5 18 9.05228 18 8.5C18 7.94772 17.5523 7.5 17 7.5H13Z" fill="black"/><path d="M4 14C3.44772 14 3 14.4477 3 15V19C3 19.5523 3.44772 20 4 20H8C8.55228 20 9 19.5523 9 19V15C9 14.4477 8.55228 14 8 14H4Z" fill="black"/><path d="M13 14.5C12.4477 14.5 12 14.9477 12 15.5C12 16.0523 12.4477 16.5 13 16.5H20C20.5523 16.5 21 16.0523 21 15.5C21 14.9477 20.5523 14.5 20 14.5H13Z" fill="black"/><path d="M13 17.5C12.4477 17.5 12 17.9477 12 18.5C12 19.0523 12.4477 19.5 13 19.5H17C17.5523 19.5 18 19.0523 18 18.5C18 17.9477 17.5523 17.5 17 17.5H13Z" fill="black"/></svg>
