<svg xmlns="http://www.w3.org/2000/svg" viewBox="0 0 24 24" fill="none"><path fill-rule="evenodd" clip-rule="evenodd" d="M19.4639 19H20C20.5523 19 21 19.4477 21 20C21 20.5523 20.5523 21 20 21H14.5C13.9477 21 13.5 20.5523 13.5 20C13.5 19.4477 13.9477 19 14.5 19H15.2578L13.9551 15H8.15625L6.85449 19H7.5C8.05228 19 8.5 19.4477 8.5 20C8.5 20.5523 8.05228 21 7.5 21H4.5C3.94772 21 3.5 20.5523 3.5 20C3.5 19.4477 3.94772 19 4.5 19H4.75L9.73421 3.69043C9.86825 3.27869 10.2521 3 10.6851 3H13.5278C13.9608 3 14.3446 3.27866 14.4787 3.69038L19.4639 19ZM8.80762 13H13.3037L11.0557 6.09473L8.80762 13Z" fill="black"/></svg>
