<svg xmlns="http://www.w3.org/2000/svg" viewBox="0 0 24 24" fill="none"><path fill-rule="evenodd" clip-rule="evenodd" d="M3 4C3.55228 4 4 4.44772 4 5V11H12V5C12 4.44772 12.4477 4 13 4C13.5523 4 14 4.44772 14 5V19C14 19.5523 13.5523 20 13 20C12.4477 20 12 19.5523 12 19V13H4V19C4 19.5523 3.55228 20 3 20C2.44772 20 2 19.5523 2 19V5C2 4.44772 2.44772 4 3 4Z" fill="black"/><path fill-rule="evenodd" clip-rule="evenodd" d="M19.9982 12C19.6293 12 19.3058 12.1992 19.1314 12.5007C18.8549 12.9788 18.2431 13.1421 17.7651 12.8656C17.287 12.5891 17.1236 11.9773 17.4002 11.4993C17.9174 10.6052 18.8865 10 19.9982 10C21.6551 10 22.9982 11.3431 22.9982 13C22.9982 13.7684 22.7094 14.4692 22.2343 15C22.7094 15.5308 22.9982 16.2316 22.9982 17C22.9982 18.6569 21.6551 20 19.9982 20C18.8865 20 17.9174 19.3948 17.4002 18.5007C17.1236 18.0227 17.287 17.4109 17.7651 17.1344C18.2431 16.8579 18.8549 17.0212 19.1314 17.4993C19.3058 17.8008 19.6293 18 19.9982 18C20.5505 18 20.9982 17.5523 20.9982 17C20.9982 16.4477 20.5505 16 19.9982 16C19.4459 16 18.9982 15.5523 18.9982 15C18.9982 14.4477 19.4459 14 19.9982 14C20.5505 14 20.9982 13.5523 20.9982 13C20.9982 12.4477 20.5505 12 19.9982 12Z" fill="black"/></svg>
