<svg xmlns="http://www.w3.org/2000/svg" viewBox="0 0 24 24" fill="none"><path d="M8 5.00021C8 4.67223 7.83917 4.3651 7.56959 4.17829C7.00011 3.78364 6.39378 4.14699 5.88474 4.43333C5.45666 4.67412 4.88734 5.0476 4.31606 5.58318C3.16181 6.66528 2 8.41492 2 11.0002V19.0002C2 19.5525 2.44772 20.0002 3 20.0002H10C10.5523 20.0002 11 19.5525 11 19.0002V11.0002C11 10.4479 10.5523 10.0002 10 10.0002H8V5.00021Z" fill="black"/><path d="M19 5.00021C19 4.67223 18.8392 4.3651 18.5696 4.17829C18.0001 3.78364 17.3938 4.14699 16.8847 4.43333C16.4567 4.67412 15.8873 5.0476 15.3161 5.58318C14.1618 6.66528 13 8.41492 13 11.0002V19.0002C13 19.5525 13.4477 20.0002 14 20.0002H21C21.5523 20.0002 22 19.5525 22 19.0002V11.0002C22 10.4479 21.5523 10.0002 21 10.0002H19V5.00021Z" fill="black"/></svg>
