<svg xmlns="http://www.w3.org/2000/svg" viewBox="0 0 24 24" fill="none"><path fill-rule="evenodd" clip-rule="evenodd" d="M8.00026 3C8.55255 3 9.00026 3.44772 9.00026 4V5H12.0003C12.5525 5 13.0003 5.44772 13.0003 6C13.0003 6.55228 12.5525 7 12.0003 7H11.3727C11.0603 8.91166 10.444 10.5244 9.43746 11.8188C10.1884 12.3437 11.1113 12.7471 12.2428 13.0299C12.7786 13.1639 13.1044 13.7068 12.9704 14.2426C12.8365 14.7784 12.2936 15.1042 11.7578 14.9702C10.2969 14.605 9.04102 14.0424 8.0002 13.245C6.9594 14.0424 5.70353 14.6049 4.24277 14.9701C3.70698 15.1041 3.16404 14.7783 3.03009 14.2425C2.89615 13.7067 3.22191 13.1638 3.7577 13.0299C4.88916 12.747 5.81207 12.3436 6.56298 11.8188C5.55648 10.5244 4.94023 8.91163 4.62781 7H4.00026C3.44798 7 3.00026 6.55228 3.00026 6C3.00026 5.44772 3.44798 5 4.00026 5H7.00026V4C7.00026 3.44772 7.44798 3 8.00026 3ZM6.65822 7C6.92421 8.41424 7.37395 9.52718 8.00023 10.4013C8.62654 9.52718 9.07629 8.41425 9.34229 7H6.65822ZM17.0003 10C17.379 10 17.7253 10.214 17.8947 10.5528L21.8947 18.5528C22.1417 19.0468 21.9415 19.6474 21.4475 19.8944C20.9535 20.1414 20.3528 19.9412 20.1058 19.4472L19.3822 18H14.6183L13.8947 19.4472C13.6477 19.9412 13.047 20.1414 12.553 19.8944C12.0591 19.6474 11.8588 19.0468 12.1058 18.5528L16.1058 10.5528C16.2752 10.214 16.6215 10 17.0003 10ZM15.6183 16H18.3822L17.0003 13.2361L15.6183 16Z" fill="black"/></svg>
