<svg xmlns="http://www.w3.org/2000/svg" viewBox="0 0 24 24" fill="none"><path d="M6.5 5C4.01472 5 2 7.01472 2 9.5C2 11.9853 4.01472 14 6.5 14C7.12094 14 7.7125 13.8742 8.25061 13.6468C8.14336 13.8428 8.02685 14.0278 7.90233 14.2038C7.11656 15.3147 5.95463 16.1617 4.4453 17.1679C3.98577 17.4743 3.8616 18.0952 4.16795 18.5547C4.4743 19.0142 5.09517 19.1384 5.5547 18.8321C7.04537 17.8383 8.50844 16.8103 9.53517 15.3587C10.5905 13.8667 11.1296 12.0164 10.9999 9.47254C10.9851 6.99989 8.97612 5 6.5 5Z" fill="black"/><path d="M17.5 5C15.0147 5 13 7.01472 13 9.5C13 11.9853 15.0147 14 17.5 14C18.1209 14 18.7125 13.8742 19.2506 13.6468C19.1434 13.8428 19.0268 14.0278 18.9023 14.2038C18.1166 15.3147 16.9546 16.1617 15.4453 17.1679C14.9858 17.4743 14.8616 18.0952 15.1679 18.5547C15.4743 19.0142 16.0952 19.1384 16.5547 18.8321C18.0454 17.8383 19.5084 16.8103 20.5352 15.3587C21.5905 13.8667 22.1296 12.0164 21.9999 9.47254C21.9851 6.99989 19.9761 5 17.5 5Z" fill="black"/></svg>
