<svg xmlns="http://www.w3.org/2000/svg" viewBox="0 0 24 24" fill="none"><path d="M21 4C21 3.44772 20.5523 3 20 3C19.4477 3 19 3.44772 19 4V20C19 20.5523 19.4477 21 20 21C20.5523 21 21 20.5523 21 20V4Z" fill="black"/><path d="M4 6C3.44772 6 3 6.44772 3 7V10C3 10.5523 3.44772 11 4 11H16C16.5523 11 17 10.5523 17 10V7C17 6.44772 16.5523 6 16 6H4Z" fill="black"/><path d="M8 13C7.44772 13 7 13.4477 7 14V17C7 17.5523 7.44772 18 8 18H16C16.5523 18 17 17.5523 17 17V14C17 13.4477 16.5523 13 16 13H8Z" fill="black"/></svg>
