<svg xmlns="http://www.w3.org/2000/svg" viewBox="0 0 24 24" fill="none"><path d="M3 4C3 3.44772 3.44772 3 4 3H20C20.5523 3 21 3.44772 21 4C21 4.55228 20.5523 5 20 5H4C3.44772 5 3 4.55228 3 4Z" fill="black"/><path d="M3 8C3 7.44772 3.44772 7 4 7H10.5C11.0523 7 11.5 7.44772 11.5 8C11.5 8.55228 11.0523 9 10.5 9H4C3.44772 9 3 8.55228 3 8Z" fill="black"/><path d="M4 11C3.44772 11 3 11.4477 3 12C3 12.5523 3.44772 13 4 13H7.0022C7.55448 13 8.0022 12.5523 8.0022 12C8.0022 11.4477 7.55448 11 7.0022 11H4Z" fill="black"/><path d="M17.8422 7.29289C17.4517 6.90237 16.8186 6.90237 16.428 7.29289L7.29289 16.428C7.10536 16.6156 7 16.8699 7 17.1351V21C7 21.5523 7.44772 22 8 22H11.8649C12.1301 22 12.3844 21.8946 12.572 21.7071L21.7071 12.572C21.8946 12.3844 22 12.1301 22 11.8649C22 11.5996 21.8946 11.3453 21.7071 11.1578L17.8422 7.29289Z" fill="black"/></svg>
