<svg xmlns="http://www.w3.org/2000/svg" viewBox="0 0 24 24" fill="none"><path d="M4 3C3.44772 3 3 3.44772 3 4C3 4.55228 3.44772 5 4 5H20C20.5523 5 21 4.55228 21 4C21 3.44772 20.5523 3 20 3H4Z" fill="black"/><path d="M7 7C6.44772 7 6 7.44772 6 8V20C6 20.5523 6.44772 21 7 21H10C10.5523 21 11 20.5523 11 20V8C11 7.44772 10.5523 7 10 7H7Z" fill="black"/><path d="M14 7C13.4477 7 13 7.44772 13 8V16C13 16.5523 13.4477 17 14 17H17C17.5523 17 18 16.5523 18 16V8C18 7.44772 17.5523 7 17 7H14Z" fill="black"/></svg>
