<svg xmlns="http://www.w3.org/2000/svg" viewBox="0 0 24 24" fill="none"><path d="M7 3C6.44772 3 6 3.44772 6 4V16C6 16.5523 6.44772 17 7 17H10C10.5523 17 11 16.5523 11 16V4C11 3.44772 10.5523 3 10 3H7Z" fill="black"/><path d="M14 7C13.4477 7 13 7.44772 13 8V16C13 16.5523 13.4477 17 14 17H17C17.5523 17 18 16.5523 18 16V8C18 7.44772 17.5523 7 17 7H14Z" fill="black"/><path d="M4 19C3.44772 19 3 19.4477 3 20C3 20.5523 3.44772 21 4 21H20C20.5523 21 21 20.5523 21 20C21 19.4477 20.5523 19 20 19H4Z" fill="black"/></svg>
