<svg xmlns="http://www.w3.org/2000/svg" viewBox="0 0 24 24" fill="none"><path d="M5 4C5 3.44772 4.55228 3 4 3C3.44772 3 3 3.44772 3 4V20C3 20.5523 3.44772 21 4 21C4.55228 21 5 20.5523 5 20V4Z" fill="black"/><path d="M8 6C7.44772 6 7 6.44772 7 7V10C7 10.5523 7.44772 11 8 11H20C20.5523 11 21 10.5523 21 10V7C21 6.44772 20.5523 6 20 6H8Z" fill="black"/><path d="M8 13C7.44772 13 7 13.4477 7 14V17C7 17.5523 7.44772 18 8 18H16C16.5523 18 17 17.5523 17 17V14C17 13.4477 16.5523 13 16 13H8Z" fill="black"/></svg>
