<svg xmlns="http://www.w3.org/2000/svg" viewBox="0 0 24 24" fill="none"><path fill-rule="evenodd" clip-rule="evenodd" d="M5 5C5 3.89543 5.89543 3 7 3H12.8333C15.8697 3 18.1667 5.55551 18.1667 8.5C18.1667 9.58312 17.8559 10.6136 17.3118 11.4836C18.3611 12.5023 19 13.9471 19 15.5C19 18.4445 16.703 21 13.6667 21H7C5.89543 21 5 20.1046 5 19V5Z" fill="black"/><path fill-rule="evenodd" clip-rule="evenodd" d="M12.8333 10C13.4789 10 14.1667 9.4215 14.1667 8.5C14.1667 7.5785 13.4789 7 12.8333 7H9V10H12.8333Z" fill="black"/><path fill-rule="evenodd" clip-rule="evenodd" d="M9 14H13.6667C14.3122 14 15 14.5785 15 15.5C15 16.4215 14.3122 17 13.6667 17H9V14Z" fill="black"/></svg>
