<svg xmlns="http://www.w3.org/2000/svg" viewBox="0 0 24 24" fill="none"><path d="M3 4C2.44772 4 2 4.44772 2 5V13C2 13.5523 2.44772 14 3 14H5V19C5 19.328 5.16083 19.6351 5.43041 19.8219C5.99988 20.2166 6.60622 19.8532 7.11526 19.5669C7.54334 19.3261 8.11266 18.9526 8.68394 18.417C9.83819 17.3349 11 15.5853 11 13V5C11 4.44772 10.5523 4 10 4H3Z" fill="black"/><path d="M14 4C13.4477 4 13 4.44772 13 5V13C13 13.5523 13.4477 14 14 14H16V19C16 19.328 16.1608 19.6351 16.4304 19.8219C16.9999 20.2166 17.6062 19.8532 18.1153 19.5669C18.5433 19.3261 19.1127 18.9526 19.6839 18.417C20.8382 17.3349 22 15.5853 22 13V5C22 4.44772 21.5523 4 21 4H14Z" fill="black"/></svg>
