<svg xmlns="http://www.w3.org/2000/svg" viewBox="0 0 24 24" fill="none"><path d="M19.1569 2C17.8308 2 16.559 2.52678 15.6213 3.46446L13.2385 5.84726L5.33284 3.05701C4.96969 2.92884 4.56522 3.02059 4.29291 3.29289L2.29291 5.29289C2.08943 5.49637 1.98347 5.77765 2.00212 6.06481C2.02077 6.35196 2.16222 6.61717 2.39031 6.79262L7.98758 11.0982L7.0858 12H5.50002C5.2348 12 4.98045 12.1054 4.79291 12.2929L2.29291 14.7929C2.0525 15.0333 1.95071 15.3794 2.02268 15.7117C2.09466 16.044 2.33054 16.3169 2.64889 16.4363L6.22329 17.7767L7.56369 21.3511C7.68307 21.6695 7.95603 21.9054 8.28832 21.9773C8.62061 22.0493 8.96671 21.9475 9.20712 21.7071L11.7071 19.2071C11.8947 19.0196 12 18.7652 12 18.5V16.9142L12.9018 16.0124L17.2074 21.6097C17.3828 21.8378 17.6481 21.9792 17.9352 21.9979C18.2224 22.0165 18.5036 21.9106 18.7071 21.7071L20.7071 19.7071C20.9794 19.4348 21.0712 19.0303 20.943 18.6672L18.1528 10.7615L20.5356 8.37868C21.4732 7.441 22 6.16923 22 4.84315V3C22 2.44772 21.5523 2 21 2H19.1569Z" fill="black"/></svg>
