<svg xmlns="http://www.w3.org/2000/svg" viewBox="0 0 24 24" fill="none"><path fill-rule="evenodd" clip-rule="evenodd" d="M7 4C6.66565 4 6.35342 4.1671 6.16795 4.4453L4.27889 7.27889L1.4453 9.16795C1.1671 9.35342 1 9.66565 1 10V17C1 17.5523 1.44772 18 2 18H3.83682C4.39855 19.1825 5.6038 20 7 20C8.3962 20 9.60145 19.1825 10.1632 18H13.8368C14.3985 19.1825 15.6038 20 17 20C18.3962 20 19.6015 19.1825 20.1632 18H22C22.5523 18 23 17.5523 23 17V10C23 9.52332 22.6635 9.1129 22.1961 9.01942L17.5708 8.09435L14.8 4.4C14.6111 4.14819 14.3148 4 14 4H7ZM8.5 16.5C8.5 17.3284 7.82843 18 7 18C6.17157 18 5.5 17.3284 5.5 16.5C5.5 15.6716 6.17157 15 7 15C7.82843 15 8.5 15.6716 8.5 16.5ZM17 18C17.8284 18 18.5 17.3284 18.5 16.5C18.5 15.6716 17.8284 15 17 15C16.1716 15 15.5 15.6716 15.5 16.5C15.5 17.3284 16.1716 18 17 18Z" fill="black"/></svg>
