<svg xmlns="http://www.w3.org/2000/svg" viewBox="0 0 24 24" fill="none"><path fill-rule="evenodd" clip-rule="evenodd" d="M2.89496 6.09115C4.11615 4.73472 5.8193 4 7.71208 4H14C14.3148 4 14.6111 4.14819 14.8 4.4L17.5803 8.10712C20.7537 8.92247 23 11.7895 23 15.099V17C23 17.5523 22.5523 18 22 18H20.1632C19.6015 19.1825 18.3962 20 17 20C15.6038 20 14.3985 19.1825 13.8368 18H10.1632C9.60145 19.1825 8.3962 20 7 20C5.6038 20 4.39855 19.1825 3.83682 18H2C1.44772 18 1 17.5523 1 17V11.5819C1 9.34005 1.67907 7.44169 2.89496 6.09115ZM7 15C6.17157 15 5.5 15.6716 5.5 16.5C5.5 17.3284 6.17157 18 7 18C7.82843 18 8.5 17.3284 8.5 16.5C8.5 15.6716 7.82843 15 7 15ZM17 15C16.1716 15 15.5 15.6716 15.5 16.5C15.5 17.3284 16.1716 18 17 18C17.8284 18 18.5 17.3284 18.5 16.5C18.5 15.6716 17.8284 15 17 15Z" fill="black"/></svg>
