<svg xmlns="http://www.w3.org/2000/svg" viewBox="0 0 24 24" fill="none"><path d="M18.092 4.17827C17.5051 4.03266 16.8885 4.06733 16.3212 4.27892C14.7119 4.8792 10.1928 6.56286 8.26027 7.26297C7.98049 7.36432 7.66992 7.33661 7.41313 7.18788L4.84902 5.70286C4.59327 5.55474 4.28511 5.52734 4.00724 5.628L1.6594 6.47854C1.36927 6.58364 1.14391 6.81681 1.04875 7.11035C0.953582 7.40389 0.999268 7.72493 1.17254 7.98027L3.15954 10.9083L2.80355 11.6682C2.69154 11.9072 2.67862 12.1809 2.76762 12.4295L3.11999 13.4137C3.68684 14.9969 5.44412 15.805 7.01502 15.2049L9.34618 14.3143L9.43502 15.5899C9.45681 15.9028 9.62424 16.1875 9.88721 16.3586C10.1502 16.5297 10.4782 16.5675 10.7732 16.4606L13.5906 15.4399C13.785 15.3695 13.9528 15.2406 14.0709 15.0708L16.3894 11.7381L20.3305 10.3103C21.5008 9.88639 22.2803 8.77499 22.2803 7.53031C22.2803 6.17157 21.3543 4.98773 20.0355 4.66051L18.092 4.17827Z" fill="black"/><path d="M3.00001 17.9996C2.44772 17.9996 2.00001 18.4473 2.00001 18.9996C2.00001 19.5519 2.44772 19.9996 3.00001 19.9996H21C21.5523 19.9996 22 19.5519 22 18.9996C22 18.4473 21.5523 17.9996 21 17.9996H3.00001Z" fill="black"/></svg>
