<svg xmlns="http://www.w3.org/2000/svg" viewBox="0 0 24 24" fill="none"><path fill-rule="evenodd" clip-rule="evenodd" d="M12 15V5C12 4.44771 11.5523 4 11 4H2C1.48232 4 1.05621 4.39333 1.00488 4.89746L1 5V17C1 17.5523 1.44772 18 2 18H3.83682C4.39855 19.1825 5.6038 20 7 20C8.3962 20 9.60145 19.1825 10.1632 18H13.8368C14.3985 19.1825 15.6038 20 17 20C18.3962 20 19.6015 19.1825 20.1632 18H22C22.5523 18 23 17.5523 23 17V12C23 11.7949 22.9369 11.5948 22.8193 11.4268L19.3193 6.42676C19.1322 6.15943 18.8263 6 18.5 6H15C14.4477 6 14 6.44772 14 7V15H12ZM7 15C7.82843 15 8.5 15.6716 8.5 16.5C8.5 17.3284 7.82843 18 7 18C6.17157 18 5.5 17.3284 5.5 16.5C5.5 15.6716 6.17157 15 7 15ZM17 15C17.8284 15 18.5 15.6716 18.5 16.5C18.5 17.3284 17.8284 18 17 18C16.1716 18 15.5 17.3284 15.5 16.5C15.5 15.6716 16.1716 15 17 15Z" fill="black"/></svg>
