<svg xmlns="http://www.w3.org/2000/svg" viewBox="0 0 24 24" fill="none"><path fill-rule="evenodd" clip-rule="evenodd" d="M16.5 4C16.9124 4 17.2822 4.25332 17.4316 4.6377L19.0234 8.73242L22.3711 10.0713C22.7508 10.2232 23 10.5911 23 11V17C23 17.5523 22.5523 18 22 18H20.1632C19.6015 19.1825 18.3962 20 17 20C15.6038 20 14.3985 19.1825 13.8368 18H10.1632C9.60145 19.1825 8.3962 20 7 20C5.6038 20 4.39855 19.1825 3.83682 18H2C1.44772 18 1 17.5523 1 17V5L1.00488 4.89746C1.05621 4.39333 1.48232 4 2 4H16.5ZM8.5 16.5C8.5 15.6716 7.82843 15 7 15C6.17157 15 5.5 15.6716 5.5 16.5C5.5 17.3284 6.17157 18 7 18C7.82843 18 8.5 17.3284 8.5 16.5ZM18.5 16.5C18.5 15.6716 17.8284 15 17 15C16.1716 15 15.5 15.6716 15.5 16.5C15.5 17.3284 16.1716 18 17 18C17.8284 18 18.5 17.3284 18.5 16.5Z" fill="black"/></svg>
