<svg xmlns="http://www.w3.org/2000/svg" viewBox="0 0 24 24" fill="none"><path d="M7.5 15C8.88071 15 10 16.1193 10 17.5C10 18.8807 8.88071 20 7.5 20C6.11929 20 5 18.8807 5 17.5C5 16.1193 6.11929 15 7.5 15Z" fill="black"/><path d="M16.5 15C17.8807 15 19 16.1193 19 17.5C19 18.8807 17.8807 20 16.5 20C15.1193 20 14 18.8807 14 17.5C14 16.1193 15.1193 15 16.5 15Z" fill="black"/><path d="M13.5 4C14.0523 4 14.5 4.44772 14.5 5V14.0361C13.4414 14.6487 12.6904 15.7319 12.5322 17H11.4678C11.2217 15.0269 9.53975 13.5 7.5 13.5C5.46025 13.5 3.77835 15.0269 3.53223 17H3C2.44772 17 2 16.5523 2 16V5C2 4.44772 2.44772 4 3 4H13.5Z" fill="black"/><path d="M18.5898 6.00391C19.2107 6.04272 19.7812 6.36906 20.1289 6.89062L21.6641 9.19336C21.8831 9.52188 22 9.9079 22 10.3027V15C22 15.946 21.3424 16.7353 20.46 16.9434C20.189 14.9978 18.5202 13.5 16.5 13.5C16.3307 13.5 16.1638 13.5108 16 13.5312V6H18.4648L18.5898 6.00391Z" fill="black"/></svg>
