<svg xmlns="http://www.w3.org/2000/svg" viewBox="0 0 24 24" fill="none"><path fill-rule="evenodd" clip-rule="evenodd" d="M6.16795 4.4453C6.35342 4.1671 6.66565 4 7 4H14C14.3148 4 14.6111 4.14819 14.8 4.4L17.5708 8.09435L22.1961 9.01942C22.6635 9.1129 23 9.52332 23 10V17C23 17.5523 22.5523 18 22 18H20.1632C19.6015 19.1825 18.3962 20 17 20C15.6038 20 14.3985 19.1825 13.8368 18H10.1632C9.60145 19.1825 8.3962 20 7 20C5.6038 20 4.39855 19.1825 3.83682 18H2C1.44772 18 1 17.5523 1 17V10C1 9.66565 1.1671 9.35342 1.4453 9.16795L4.27889 7.27889L6.16795 4.4453ZM7 18C7.82843 18 8.5 17.3284 8.5 16.5C8.5 15.6716 7.82843 15 7 15C6.17157 15 5.5 15.6716 5.5 16.5C5.5 17.3284 6.17157 18 7 18ZM18.5 16.5C18.5 17.3284 17.8284 18 17 18C16.1716 18 15.5 17.3284 15.5 16.5C15.5 15.6716 16.1716 15 17 15C17.8284 15 18.5 15.6716 18.5 16.5ZM11.9167 10H13.9933C14.2006 10 14.3178 10.2376 14.1917 10.4021L11.243 14.2483C11.0868 14.452 10.7617 14.3161 10.797 14.0618L11.0833 12H9.00669C8.79945 12 8.6822 11.7624 8.80828 11.5979L11.757 7.75174C11.9132 7.54796 12.2384 7.68391 12.203 7.93824L11.9167 10Z" fill="black"/></svg>
