<svg xmlns="http://www.w3.org/2000/svg" viewBox="0 0 24 24" fill="none"><path d="M14.418 4C15.0006 4 15.4598 4.49635 15.4151 5.07715L14.7354 13.9082C13.5525 14.4898 12.7001 15.6388 12.5303 17H11.4659C11.2198 15.0269 9.53788 13.5 7.49812 13.5C5.45837 13.5 3.77647 15.0269 3.53035 17H3.0782C2.49569 17 2.03645 16.5036 2.08113 15.9229L2.38289 12H4.99812C5.55041 12 5.99812 11.5523 5.99812 11C5.99812 10.4477 5.55041 10 4.99812 10H2.53621L2.6905 8H6.99812C7.55041 8 7.99812 7.55228 7.99812 7C7.99812 6.44772 7.55041 6 6.99812 6H2.84383L2.92683 4.92285C2.96711 4.40215 3.40162 4.00013 3.9239 4H14.418Z" fill="black"/><path d="M19.7481 6C20.0825 6 20.3947 6.16711 20.5802 6.44531L22.5802 9.44531C22.7133 9.645 22.7701 9.88588 22.7403 10.124L21.9903 16.124C21.9278 16.6245 21.5024 17 20.9981 17H20.4659C20.2198 15.0269 18.5379 13.5 16.4981 13.5C16.3986 13.5 16.2999 13.5046 16.2022 13.5117L16.8282 6H19.7481Z" fill="black"/><path d="M5 17.5C5 18.8807 6.11929 20 7.5 20C8.88071 20 10 18.8807 10 17.5C10 16.1193 8.88071 15 7.5 15C6.11929 15 5 16.1193 5 17.5Z" fill="black"/><path d="M14 17.5C14 18.8807 15.1193 20 16.5 20C17.8807 20 19 18.8807 19 17.5C19 16.1193 17.8807 15 16.5 15C15.1193 15 14 16.1193 14 17.5Z" fill="black"/></svg>
