<svg xmlns="http://www.w3.org/2000/svg" viewBox="0 0 24 24" fill="none"><path fill-rule="evenodd" clip-rule="evenodd" d="M7 4C6.73478 4 6.48043 4.10536 6.29289 4.29289L1.29289 9.29289C1.10536 9.48043 1 9.73478 1 10V17C1 17.5523 1.44772 18 2 18H3.83682C4.39855 19.1825 5.6038 20 7 20C8.3962 20 9.60145 19.1825 10.1632 18H13.8368C14.3985 19.1825 15.6038 20 17 20C18.3962 20 19.6015 19.1825 20.1632 18H22C22.5523 18 23 17.5523 23 17V10C23 9.52332 22.6635 9.1129 22.1961 9.01942L17.5708 8.09435L14.8 4.4C14.6111 4.14819 14.3148 4 14 4H7ZM5.5 16.5C5.5 15.6716 6.17157 15 7 15C7.82843 15 8.5 15.6716 8.5 16.5C8.5 17.3284 7.82843 18 7 18C6.17157 18 5.5 17.3284 5.5 16.5ZM15.5 16.5C15.5 15.6716 16.1716 15 17 15C17.8284 15 18.5 15.6716 18.5 16.5C18.5 17.3284 17.8284 18 17 18C16.1716 18 15.5 17.3284 15.5 16.5ZM11.9168 9.99996H13.9935C14.2007 9.99996 14.3179 10.2376 14.1919 10.4021L11.2431 14.2482C11.0869 14.452 10.7618 14.3161 10.7971 14.0617L11.0835 12H9.00681C8.79957 12 8.68232 11.7623 8.80841 11.5979L11.7571 7.7517C11.9134 7.54792 12.2385 7.68387 12.2032 7.9382L11.9168 9.99996Z" fill="black"/></svg>
