<svg xmlns="http://www.w3.org/2000/svg" viewBox="0 0 24 24" fill="none"><path fill-rule="evenodd" clip-rule="evenodd" d="M13 4L4.00001 4C3.51117 4.00001 3.09398 4.35342 3.01361 4.83561L1.01361 16.8356C0.965288 17.1256 1.04698 17.4221 1.23699 17.6464C1.42699 17.8707 1.70606 18 2.00001 18H3.83682C4.39855 19.1825 5.6038 20 7 20C8.3962 20 9.60145 19.1825 10.1632 18H13.8368C14.3985 19.1825 15.6038 20 17 20C18.3962 20 19.6015 19.1825 20.1632 18H22C22.5523 18 23 17.5523 23 17V10C23 9.51116 22.6466 9.09397 22.1644 9.01361L16.5596 8.07947L13.8 4.4C13.6112 4.14819 13.3148 4 13 4ZM7 15C6.17157 15 5.5 15.6716 5.5 16.5C5.5 17.3284 6.17157 18 7 18C7.82843 18 8.5 17.3284 8.5 16.5C8.5 15.6716 7.82843 15 7 15ZM15.5 16.5C15.5 15.6716 16.1716 15 17 15C17.8284 15 18.5 15.6716 18.5 16.5C18.5 17.3284 17.8284 18 17 18C16.1716 18 15.5 17.3284 15.5 16.5Z" fill="black"/></svg>
