<svg xmlns="http://www.w3.org/2000/svg" viewBox="0 0 24 24" fill="none"><path fill-rule="evenodd" clip-rule="evenodd" d="M13 5C13 4.44772 13.4477 4 14 4H16C16.4416 4 16.8309 4.28967 16.9578 4.71265L18.55 10.02C18.6982 10.0068 18.8483 10 19 10C21.7614 10 24 12.2386 24 15C24 17.7614 21.7614 20 19 20C16.2386 20 14 17.7614 14 15C14 13.0944 15.066 11.4378 16.6342 10.594L16.3561 9.66709L13.2474 13.1644C13.1742 13.2467 13.0905 13.3141 13 13.3663V15C13 15.5523 12.5523 16 12 16H9.89998C9.43671 18.2822 7.41896 20 5 20C2.23858 20 0 17.7614 0 15C0 12.2386 2.23858 10 5 10C7.41896 10 9.43671 11.7178 9.89998 14H11V13.3252L7.19126 8.08817C7.17039 8.05948 7.15127 8.03004 7.13388 8H7C6.44772 8 6 7.55228 6 7C6 6.44772 6.44772 6 7 6H10C10.5523 6 11 6.44772 11 7C11 7.55228 10.5523 8 10 8H9.60013L12.103 11.4414L15.6809 7.41633L15.256 6H14C13.4477 6 13 5.55228 13 5ZM7.82929 14C7.41746 12.8348 6.30622 12 5 12C3.34315 12 2 13.3431 2 15C2 16.6569 3.34315 18 5 18C6.30622 18 7.41746 17.1652 7.82929 16H5C4.44772 16 4 15.5523 4 15C4 14.4477 4.44772 14 5 14H7.82929ZM17.2294 12.578C16.484 13.1238 16 14.0054 16 15C16 16.6569 17.3431 18 19 18C20.6569 18 22 16.6569 22 15C22 13.3918 20.7345 12.0791 19.1451 12.0034L19.9578 14.7127C20.1165 15.2416 19.8163 15.7991 19.2873 15.9578C18.7584 16.1165 18.2009 15.8163 18.0422 15.2873L17.2294 12.578Z" fill="black"/></svg>
