<svg xmlns="http://www.w3.org/2000/svg" viewBox="0 0 24 24" fill="none"><path fill-rule="evenodd" clip-rule="evenodd" d="M3.01361 4.8356C3.09398 4.35341 3.51117 4 4.00001 4H13.7557C15.1461 4 16.4736 4.57891 17.4197 5.59774L21.664 10.1685C22.5227 11.0933 23 12.3087 23 13.5708V17C23 17.5523 22.5523 18 22 18H20.1632C19.6015 19.1825 18.3962 20 17 20C15.6038 20 14.3985 19.1825 13.8368 18H10.1632C9.60146 19.1825 8.3962 20 7 20C5.6038 20 4.39854 19.1825 3.83681 18H2.00001C1.70606 18 1.42699 17.8707 1.23699 17.6464C1.04698 17.4221 0.965288 17.1255 1.01361 16.8356L3.01361 4.8356ZM7 15C6.17157 15 5.5 15.6716 5.5 16.5C5.5 17.3284 6.17157 18 7 18C7.82843 18 8.5 17.3284 8.5 16.5C8.5 15.6716 7.82843 15 7 15ZM17 15C16.1716 15 15.5 15.6716 15.5 16.5C15.5 17.3284 16.1716 18 17 18C17.8284 18 18.5 17.3284 18.5 16.5C18.5 15.6716 17.8284 15 17 15Z" fill="black"/></svg>
