<svg xmlns="http://www.w3.org/2000/svg" viewBox="0 0 24 24" fill="none"><path d="M4.2525 2.01541C3.9487 1.96147 3.63701 2.05078 3.40789 2.25745C3.17877 2.46411 3.05788 2.76496 3.08031 3.0727L3.3373 6.59879L2.64855 7.07836C2.43174 7.22934 2.28348 7.45997 2.23616 7.7199L2.04902 8.74777C1.7476 10.4034 2.86827 11.9802 4.52867 12.2454L6.99565 12.6395L6.43495 13.7863C6.29707 14.0683 6.29961 14.3987 6.44182 14.6786C6.58403 14.9584 6.84941 15.1553 7.15849 15.2101L10.1121 15.7346C10.3153 15.7707 10.5248 15.743 10.7117 15.6553L14.3908 13.9291L18.5232 14.6629C19.7485 14.8804 20.9801 14.309 21.6033 13.2313C22.284 12.0545 22.0733 10.5662 21.0936 9.62388L19.6499 8.23534C19.2141 7.81612 18.6624 7.53826 18.0653 7.43803C16.3695 7.15339 11.6088 6.35246 9.58276 5.9927C9.28858 5.94046 9.03306 5.76087 8.88503 5.50412L7.4053 2.93759C7.25776 2.68169 7.00464 2.50412 6.71381 2.45247L4.2525 2.01541Z" fill="black"/><path d="M3.00021 18C2.44792 18 2.00021 18.4477 2.00021 19C2.00021 19.5523 2.44792 20 3.00021 20H21.0002C21.5525 20 22.0002 19.5523 22.0002 19C22.0002 18.4477 21.5525 18 21.0002 18H3.00021Z" fill="black"/></svg>
