<svg xmlns="http://www.w3.org/2000/svg" viewBox="0 0 24 24" fill="none"><path fill-rule="evenodd" clip-rule="evenodd" d="M12 5C12 4.44772 12.4477 4 13 4H15C15.4089 4 15.7766 4.24895 15.9285 4.62861L17.7235 9.11609C18.1374 9.03984 18.564 9 19 9C19.5523 9 20 9.44772 20 10C20 10.5523 19.5523 11 19 11C16.5235 11 14.4658 12.8015 14.0692 15.1655C13.9884 15.6472 13.5714 16 13.083 16H10C10 18.2091 8.20914 20 6 20C3.79086 20 2 18.2091 2 16C1.44772 16 1 15.5523 1 15V9C1 8.44772 1.44772 8 2 8H10C10.5523 8 11 8.44772 11 9V14H12.2901C12.8409 12.1501 14.1351 10.6207 15.8265 9.75893L14.323 6H13C12.4477 6 12 5.55228 12 5ZM4 16C4 17.1046 4.89543 18 6 18C7.10457 18 8 17.1046 8 16H4ZM19 14C17.8954 14 17 14.8954 17 16C17 17.1046 17.8954 18 19 18C20.1046 18 21 17.1046 21 16C21 14.8954 20.1046 14 19 14ZM15 16C15 13.7909 16.7909 12 19 12C21.2091 12 23 13.7909 23 16C23 18.2091 21.2091 20 19 20C16.7909 20 15 18.2091 15 16Z" fill="black"/></svg>
