<svg xmlns="http://www.w3.org/2000/svg" viewBox="0 0 24 24" fill="none"><path fill-rule="evenodd" clip-rule="evenodd" d="M9 4C8.44772 4 8 4.44772 8 5V9H2C1.44772 9 1 9.44772 1 10V17C1 17.5523 1.44772 18 2 18H3.83682C4.39855 19.1825 5.6038 20 7 20C8.3962 20 9.60145 19.1825 10.1632 18H13.8368C14.3985 19.1825 15.6038 20 17 20C18.3962 20 19.6015 19.1825 20.1632 18H22C22.5523 18 23 17.5523 23 17V10C23 9.54113 22.6877 9.14115 22.2425 9.02986L18.587 8.11597L15.8 4.4C15.6111 4.14819 15.3148 4 15 4H9ZM5.5 16.5C5.5 15.6716 6.17157 15 7 15C7.82843 15 8.5 15.6716 8.5 16.5C8.5 17.3284 7.82843 18 7 18C6.17157 18 5.5 17.3284 5.5 16.5ZM15.5 16.5C15.5 15.6716 16.1716 15 17 15C17.8284 15 18.5 15.6716 18.5 16.5C18.5 17.3284 17.8284 18 17 18C16.1716 18 15.5 17.3284 15.5 16.5ZM13.8797 10.1037H15.7718C15.9606 10.1037 16.0675 10.3167 15.9526 10.4641L13.2658 13.9115C13.1235 14.0941 12.8273 13.9723 12.8594 13.7443L13.1203 11.8963H11.2282C11.0394 11.8963 10.9325 11.6833 11.0474 11.5359L13.7342 8.08851C13.8765 7.90586 14.1728 8.02771 14.1406 8.25567L13.8797 10.1037Z" fill="black"/></svg>
