<svg xmlns="http://www.w3.org/2000/svg" viewBox="0 0 24 24" fill="none"><path fill-rule="evenodd" clip-rule="evenodd" d="M4.00001 4C3.51117 4 3.09398 4.35341 3.01361 4.8356L1.01361 16.8356C0.965288 17.1255 1.04698 17.4221 1.23699 17.6464C1.42699 17.8707 1.70606 18 2.00001 18H3.83681C4.39854 19.1825 5.6038 20 7 20C8.3962 20 9.60146 19.1825 10.1632 18H13.8368C14.3985 19.1825 15.6038 20 17 20C18.3962 20 19.6015 19.1825 20.1632 18H22C22.5523 18 23 17.5523 23 17V13.5708C23 12.3087 22.5227 11.0933 21.664 10.1685L17.4197 5.59774C16.4736 4.57891 15.1461 4 13.7557 4H4.00001ZM5.5 16.5C5.5 15.6716 6.17157 15 7 15C7.82843 15 8.5 15.6716 8.5 16.5C8.5 17.3284 7.82843 18 7 18C6.17157 18 5.5 17.3284 5.5 16.5ZM15.5 16.5C15.5 15.6716 16.1716 15 17 15C17.8284 15 18.5 15.6716 18.5 16.5C18.5 17.3284 17.8284 18 17 18C16.1716 18 15.5 17.3284 15.5 16.5ZM11.9168 9.99984H13.9935C14.2007 9.99984 14.3179 10.2375 14.1919 10.4019L11.2431 14.2481C11.0869 14.4519 10.7618 14.3159 10.7971 14.0616L11.0835 11.9998H9.00681C8.79957 11.9998 8.68232 11.7622 8.80841 11.5977L11.7571 7.75157C11.9134 7.5478 12.2385 7.68374 12.2032 7.93808L11.9168 9.99984Z" fill="black"/></svg>
