<svg xmlns="http://www.w3.org/2000/svg" viewBox="0 0 24 24" fill="none"><path d="M14 4C13.4477 4 13 4.44772 13 5C13 5.55228 13.4477 6 14 6H15.6802L17.1354 13.276C16.1814 13.6803 15.4438 14.4957 15.1449 15.5H8.85506C8.42479 14.0543 7.08551 13 5.5 13C3.567 13 2 14.567 2 16.5C2 18.433 3.567 20 5.5 20C7.08551 20 8.42479 18.9457 8.85506 17.5H15.1449C15.5752 18.9457 16.9145 20 18.5 20C20.433 20 22 18.433 22 16.5C22 14.7825 20.7629 13.3539 19.1312 13.0568L17.4806 4.80388C17.3871 4.33646 16.9767 4 16.5 4H14Z" fill="black"/></svg>
