<svg xmlns="http://www.w3.org/2000/svg" viewBox="0 0 24 24" fill="none"><path d="M7 2C6.76606 2 6.53953 2.08202 6.35982 2.23178L3.35982 4.73178C3.13182 4.92177 3 5.20322 3 5.5V10H21V5.5C21 5.20322 20.8682 4.92177 20.6402 4.73178L17.6402 2.23178C17.4605 2.08202 17.2339 2 17 2H7Z" fill="black"/><path fill-rule="evenodd" clip-rule="evenodd" d="M3 17V12H21V17C21 17.5523 20.5523 18 20 18H17.6179L19.2561 21.2764C19.4224 21.6088 19.1806 22 18.8089 22H17.6909C17.5015 22 17.3284 21.893 17.2437 21.7236L15.3819 18H8.61788L6.75608 21.7236C6.67138 21.893 6.49825 22 6.30886 22H5.19083C4.81914 22 4.57739 21.6088 4.74362 21.2764L6.38181 18H4C3.44772 18 3 17.5523 3 17ZM8 16C8.55228 16 9 15.5523 9 15C9 14.4477 8.55228 14 8 14C7.44772 14 7 14.4477 7 15C7 15.5523 7.44772 16 8 16ZM17 15C17 15.5523 16.5523 16 16 16C15.4477 16 15 15.5523 15 15C15 14.4477 15.4477 14 16 14C16.5523 14 17 14.4477 17 15Z" fill="black"/></svg>
