<svg xmlns="http://www.w3.org/2000/svg" viewBox="0 0 24 24" fill="none"><path fill-rule="evenodd" clip-rule="evenodd" d="M2 4C1.44772 4 1 4.44772 1 5V17C1 17.5523 1.44772 18 2 18H3.83682C4.39855 19.1825 5.6038 20 7 20C8.3962 20 9.60145 19.1825 10.1632 18H13.8368C14.3985 19.1825 15.6038 20 17 20C18.3962 20 19.6015 19.1825 20.1632 18H22C22.5523 18 23 17.5523 23 17V10C23 9.71826 22.8811 9.44958 22.6727 9.26006L17.1727 4.26006C16.9886 4.09272 16.7488 4 16.5 4H2ZM5.5 16.5C5.5 15.6716 6.17157 15 7 15C7.82843 15 8.5 15.6716 8.5 16.5C8.5 17.3284 7.82843 18 7 18C6.17157 18 5.5 17.3284 5.5 16.5ZM15.5 16.5C15.5 15.6716 16.1716 15 17 15C17.8284 15 18.5 15.6716 18.5 16.5C18.5 17.3284 17.8284 18 17 18C16.1716 18 15.5 17.3284 15.5 16.5ZM11.9168 9.99984H13.9935C14.2007 9.99984 14.3179 10.2375 14.1919 10.4019L11.2431 14.2481C11.0869 14.4519 10.7618 14.3159 10.7971 14.0616L11.0835 11.9998H9.00681C8.79957 11.9998 8.68232 11.7622 8.80841 11.5977L11.7571 7.75157C11.9134 7.5478 12.2385 7.68374 12.2032 7.93808L11.9168 9.99984Z" fill="black"/></svg>
