<svg xmlns="http://www.w3.org/2000/svg" viewBox="0 0 24 24" fill="none"><path fill-rule="evenodd" clip-rule="evenodd" d="M9 4C8.44772 4 8 4.44772 8 5V6H5C4.66565 6 4.35342 6.1671 4.16795 6.4453L2.16795 9.4453C2.05844 9.60957 2 9.80258 2 10V16C2 16.5523 2.44772 17 3 17H4.03544C4.27806 18.6961 5.73676 20 7.5 20C9.26324 20 10.7219 18.6961 10.9646 17H13.0354C13.2781 18.6961 14.7368 20 16.5 20C18.2632 20 19.7219 18.6961 19.9646 17H21C21.5523 17 22 16.5523 22 16V5C22 4.44772 21.5523 4 21 4H9ZM16.5 15C15.6716 15 15 15.6716 15 16.5C15 17.3284 15.6716 18 16.5 18C17.3284 18 18 17.3284 18 16.5C18 15.6716 17.3284 15 16.5 15ZM8 13.0354V8H5.53518L4 10.3028V15H4.33682C4.89855 13.8175 6.1038 13 7.5 13C7.66976 13 7.8367 13.0121 8 13.0354ZM6 16.5C6 15.6716 6.67157 15 7.5 15C8.32843 15 9 15.6716 9 16.5C9 17.3284 8.32843 18 7.5 18C6.67157 18 6 17.3284 6 16.5Z" fill="black"/></svg>
