<svg xmlns="http://www.w3.org/2000/svg" viewBox="0 0 24 24" fill="none"><path fill-rule="evenodd" clip-rule="evenodd" d="M6.16795 4.4453C6.35342 4.1671 6.66565 4 7 4H17C17.3344 4 17.6466 4.1671 17.8321 4.4453L20.8685 9H22C22.5523 9 23 9.44772 23 10C23 10.5523 22.5523 11 22 11V19C22 19.5523 21.5523 20 21 20H18C17.4477 20 17 19.5523 17 19V18H7V19C7 19.5523 6.55228 20 6 20H3C2.44772 20 2 19.5523 2 19V11C1.44772 11 1 10.5523 1 10C1 9.44772 1.44772 9 2 9H3.13148L6.16795 4.4453ZM5 13C5 12.4477 5.44772 12 6 12H7C7.55228 12 8 12.4477 8 13C8 13.5523 7.55228 14 7 14H6C5.44772 14 5 13.5523 5 13ZM16 13C16 12.4477 16.4477 12 17 12H18C18.5523 12 19 12.4477 19 13C19 13.5523 18.5523 14 18 14H17C16.4477 14 16 13.5523 16 13Z" fill="black"/></svg>
