<svg xmlns="http://www.w3.org/2000/svg" viewBox="0 0 24 24" fill="none"><path fill-rule="evenodd" clip-rule="evenodd" d="M12 5V15H14V7C14 6.44772 14.4477 6 15 6H18.5C18.8263 6 19.1322 6.15943 19.3193 6.42676L22.8193 11.4268C22.9369 11.5948 23 11.7949 23 12V17C23 17.5523 22.5523 18 22 18H20.1632C19.6015 19.1825 18.3962 20 17 20C15.6038 20 14.3985 19.1825 13.8368 18H10.1632C9.60145 19.1825 8.3962 20 7 20C5.6038 20 4.39855 19.1825 3.83682 18H2C1.44772 18 1 17.5523 1 17V5L1.00488 4.89746C1.05621 4.39333 1.48232 4 2 4H11C11.5523 4 12 4.44771 12 5ZM8.5 16.5C8.5 15.6716 7.82843 15 7 15C6.17157 15 5.5 15.6716 5.5 16.5C5.5 17.3284 6.17157 18 7 18C7.82843 18 8.5 17.3284 8.5 16.5ZM18.5 16.5C18.5 15.6716 17.8284 15 17 15C16.1716 15 15.5 15.6716 15.5 16.5C15.5 17.3284 16.1716 18 17 18C17.8284 18 18.5 17.3284 18.5 16.5ZM6.87965 9.10367H8.77179C8.96061 9.10367 9.06745 9.31668 8.95257 9.46409L6.26584 12.9115C6.12349 13.0941 5.82726 12.9723 5.85944 12.7443L6.12034 10.8963H4.22821C4.03939 10.8963 3.93255 10.6833 4.04743 10.5359L6.73417 7.08851C6.87652 6.90586 7.17275 7.02771 7.14057 7.25567L6.87965 9.10367Z" fill="black"/></svg>
