<svg xmlns="http://www.w3.org/2000/svg" viewBox="0 0 24 24" fill="none"><path d="M16.2929 18.2929C15.9024 18.6834 15.9024 19.3166 16.2929 19.7071C16.6834 20.0976 17.3166 20.0976 17.7071 19.7071L21.7071 15.7071C22.0976 15.3166 22.0976 14.6834 21.7071 14.2929L17.7071 10.2929C17.3166 9.90237 16.6834 9.90237 16.2929 10.2929C15.9024 10.6834 15.9024 11.3166 16.2929 11.7071L18.5858 14H4V7H12C12.5523 7 13 6.55229 13 6C13 5.44771 12.5523 5 12 5H3C2.44772 5 2 5.44771 2 6V15C2 15.5523 2.44772 16 3 16H18.5858L16.2929 18.2929Z" fill="black"/></svg>
