<svg xmlns="http://www.w3.org/2000/svg" viewBox="0 0 24 24" fill="none"><path fill-rule="evenodd" clip-rule="evenodd" d="M14 5C13.4477 5 13 4.55228 13 4C13 3.44772 13.4477 3 14 3H20C20.5523 3 21 3.44772 21 4V10C21 10.5523 20.5523 11 20 11C19.4477 11 19 10.5523 19 10V6.41421L11.7071 13.7071C11.3166 14.0976 10.6834 14.0976 10.2929 13.7071C9.90237 13.3166 9.90237 12.6834 10.2929 12.2929L17.5858 5H14ZM3 6C3 5.44772 3.44772 5 4 5H9C9.55228 5 10 5.44772 10 6C10 6.55228 9.55228 7 9 7H5V19H17V15C17 14.4477 17.4477 14 18 14C18.5523 14 19 14.4477 19 15V20C19 20.5523 18.5523 21 18 21H4C3.44772 21 3 20.5523 3 20V6Z" fill="black"/></svg>
