<svg xmlns="http://www.w3.org/2000/svg" viewBox="0 0 24 24" fill="none"><path fill-rule="evenodd" clip-rule="evenodd" d="M3 4C3.55228 4 4 4.44772 4 5V19C4 19.5523 3.55228 20 3 20C2.44772 20 2 19.5523 2 19V5C2 4.44772 2.44772 4 3 4ZM11.9571 7.04289C12.3476 7.43342 12.3476 8.06659 11.9571 8.45711L9.41422 11H21C21.5523 11 22 11.4477 22 12C22 12.5523 21.5523 13 21 13H9.41421L11.9571 15.5429C12.3476 15.9334 12.3476 16.5666 11.9571 16.9571C11.5666 17.3476 10.9334 17.3476 10.5429 16.9571L6.29289 12.7071C6.10536 12.5196 6 12.2652 6 12C6 11.7348 6.10536 11.4804 6.29289 11.2929L10.5429 7.04289C10.9334 6.65237 11.5666 6.65237 11.9571 7.04289Z" fill="black"/></svg>
