<svg xmlns="http://www.w3.org/2000/svg" viewBox="0 0 24 24" fill="none"><path fill-rule="evenodd" clip-rule="evenodd" d="M3.29289 3.29289C3.48043 3.10536 3.73478 3 4 3L10 3C10.5523 3 11 3.44772 11 4C11 4.55229 10.5523 5 10 5L6.41421 5L10.9571 9.54289C11.3476 9.93342 11.3476 10.5666 10.9571 10.9571C10.5666 11.3476 9.93342 11.3476 9.54289 10.9571L5 6.41421L5 10C5 10.5523 4.55228 11 4 11C3.44772 11 3 10.5523 3 10L3 4C3 3.73478 3.10536 3.48043 3.29289 3.29289ZM13 7C13 6.44772 13.4477 6 14 6H21C21.5523 6 22 6.44772 22 7V21C22 21.5523 21.5523 22 21 22H7C6.44772 22 6 21.5523 6 21V14C6 13.4477 6.44772 13 7 13C7.55229 13 8 13.4477 8 14V20H20V8H14C13.4477 8 13 7.55229 13 7Z" fill="black"/></svg>
