<svg xmlns="http://www.w3.org/2000/svg" viewBox="0 0 24 24" fill="none"><path d="M12 4.00002C12 3.60623 11.7689 3.2491 11.4097 3.08778C11.0504 2.92646 10.63 2.99099 10.3356 3.25261L1.33564 11.2526C1.12215 11.4424 1 11.7144 1 12C1 12.2857 1.12215 12.5577 1.33564 12.7474L10.3356 20.7474C10.63 21.009 11.0504 21.0736 11.4097 20.9123C11.7689 20.7509 12 20.3938 12 20V16.5076C15.5895 16.5644 17.5098 16.9354 18.6778 17.5194C19.8575 18.1093 20.3598 18.9557 21.1056 20.4472C21.313 20.862 21.7784 21.0798 22.2298 20.9733C22.6811 20.8667 23 20.4638 23 20C23 15.7157 22.3856 12.4929 20.4194 10.3811C18.5912 8.41752 15.7995 7.627 12 7.51436V4.00002Z" fill="black"/></svg>
