<svg xmlns="http://www.w3.org/2000/svg" viewBox="0 0 24 24" fill="none"><path fill-rule="evenodd" clip-rule="evenodd" d="M4 4C4 3.44772 4.44772 3 5 3H19C19.5523 3 20 3.44772 20 4C20 4.55228 19.5523 5 19 5H12H5C4.44772 5 4 4.55228 4 4ZM13 8.41421L15.5429 10.9571C15.9334 11.3476 16.5666 11.3476 16.9571 10.9571C17.3476 10.5666 17.3476 9.93341 16.9571 9.54289L12.7071 5.29289C12.5196 5.10536 12.2652 5 12 5C11.7348 5 11.4804 5.10536 11.2929 5.29289L7.04289 9.54289C6.65237 9.93342 6.65237 10.5666 7.04289 10.9571C7.43342 11.3476 8.06659 11.3476 8.45711 10.9571L11 8.41422V20C11 20.5523 11.4477 21 12 21C12.5523 21 13 20.5523 13 20V8.41421Z" fill="black"/></svg>
