<svg xmlns="http://www.w3.org/2000/svg" viewBox="0 0 24 24" fill="none"><path fill-rule="evenodd" clip-rule="evenodd" d="M4 3C4 2.44772 4.44772 2 5 2H19C19.5523 2 20 2.44772 20 3C20 3.55228 19.5523 4 19 4H5C4.44772 4 4 3.55228 4 3ZM12 6C12.2652 6 12.5196 6.10536 12.7071 6.29289L16.9571 10.5429C17.3476 10.9334 17.3476 11.5666 16.9571 11.9571C16.5666 12.3476 15.9334 12.3476 15.5429 11.9571L13 9.41422V21C13 21.5523 12.5523 22 12 22C11.4477 22 11 21.5523 11 21V9.41421L8.45711 11.9571C8.06658 12.3476 7.43342 12.3476 7.04289 11.9571C6.65237 11.5666 6.65237 10.9334 7.04289 10.5429L11.2929 6.29289C11.4804 6.10536 11.7348 6 12 6Z" fill="black"/></svg>
