<svg xmlns="http://www.w3.org/2000/svg" viewBox="0 0 24 24" fill="none"><path fill-rule="evenodd" clip-rule="evenodd" d="M3.29289 3.29289C3.48043 3.10536 3.73478 3 4 3L20 3C20.5523 3 21 3.44772 21 4V13C21 13.5523 20.5523 14 20 14C19.4477 14 19 13.5523 19 13V5L5 5L5 19H13C13.5523 19 14 19.4477 14 20C14 20.5523 13.5523 21 13 21H4C3.73478 21 3.48043 20.8946 3.29289 20.7071C3.10536 20.5196 3 20.2652 3 20L3 4C3 3.73478 3.10536 3.48043 3.29289 3.29289ZM9.29289 9.29289C9.48043 9.10536 9.73478 9 10 9L15 9C15.5523 9 16 9.44772 16 10C16 10.5523 15.5523 11 15 11L12.4142 11L18.7071 17.2929C19.0976 17.6834 19.0976 18.3166 18.7071 18.7071C18.3166 19.0976 17.6834 19.0976 17.2929 18.7071L11 12.4142V15C11 15.5523 10.5523 16 10 16C9.44772 16 9 15.5523 9 15V10C9 9.73478 9.10536 9.48043 9.29289 9.29289Z" fill="black"/></svg>
