<svg xmlns="http://www.w3.org/2000/svg" viewBox="0 0 24 24" fill="none"><path fill-rule="evenodd" clip-rule="evenodd" d="M20 3C20.5523 3 21 3.44772 21 4V20C21 20.5523 20.5523 21 20 21H4C3.44772 21 3 20.5523 3 20V4C3 3.44772 3.44772 3 4 3H20ZM11.707 8.29297C11.3165 7.90244 10.6835 7.90244 10.293 8.29297L7.29297 11.293C6.90244 11.6835 6.90244 12.3165 7.29297 12.707L10.293 15.707C10.6835 16.0976 11.3165 16.0976 11.707 15.707C12.0976 15.3165 12.0976 14.6835 11.707 14.293L10.4141 13H16C16.5523 13 17 12.5523 17 12C17 11.4477 16.5523 11 16 11H10.4141L11.707 9.70703C12.0976 9.31651 12.0976 8.68349 11.707 8.29297Z" fill="black"/></svg>
