<svg xmlns="http://www.w3.org/2000/svg" viewBox="0 0 24 24" fill="none"><path fill-rule="evenodd" clip-rule="evenodd" d="M3.29289 3.29289C3.68342 2.90237 4.31658 2.90237 4.70711 3.29289L9 7.58579V4C9 3.44772 9.44772 3 10 3C10.5523 3 11 3.44772 11 4V10C11 10.5523 10.5523 11 10 11L4 11C3.44772 11 3 10.5523 3 10C3 9.44772 3.44772 9 4 9L7.58579 9L3.29289 4.70711C2.90237 4.31658 2.90237 3.68342 3.29289 3.29289ZM13 7C13 6.44772 13.4477 6 14 6H21C21.5523 6 22 6.44772 22 7V21C22 21.5523 21.5523 22 21 22H7C6.44772 22 6 21.5523 6 21V14C6 13.4477 6.44772 13 7 13C7.55229 13 8 13.4477 8 14V20H20V8H14C13.4477 8 13 7.55228 13 7Z" fill="black"/></svg>
