<svg xmlns="http://www.w3.org/2000/svg" viewBox="0 0 24 24" fill="none"><path fill-rule="evenodd" clip-rule="evenodd" d="M10.7071 7.29289C11.0976 7.68342 11.0976 8.31658 10.7071 8.70711L7.41421 12L10.7071 15.2929C11.0976 15.6834 11.0976 16.3166 10.7071 16.7071C10.3166 17.0976 9.68342 17.0976 9.29289 16.7071L5.29289 12.7071C4.90237 12.3166 4.90237 11.6834 5.29289 11.2929L9.29289 7.29289C9.68342 6.90237 10.3166 6.90237 10.7071 7.29289ZM17.7071 7.29289C18.0976 7.68342 18.0976 8.31658 17.7071 8.70711L14.4142 12L17.7071 15.2929C18.0976 15.6834 18.0976 16.3166 17.7071 16.7071C17.3166 17.0976 16.6834 17.0976 16.2929 16.7071L12.2929 12.7071C11.9024 12.3166 11.9024 11.6834 12.2929 11.2929L16.2929 7.29289C16.6834 6.90237 17.3166 6.90237 17.7071 7.29289Z" fill="black"/></svg>
