<svg xmlns="http://www.w3.org/2000/svg" viewBox="0 0 24 24" fill="none"><path fill-rule="evenodd" clip-rule="evenodd" d="M12 2C12.5523 2 13 2.44772 13 3V14.5858L15.5429 12.0429C15.9334 11.6524 16.5666 11.6524 16.9571 12.0429C17.3476 12.4334 17.3476 13.0666 16.9571 13.4571L12.7071 17.7071C12.5196 17.8946 12.2652 18 12 18C11.7348 18 11.4804 17.8946 11.2929 17.7071L7.04289 13.4571C6.65237 13.0666 6.65237 12.4334 7.04289 12.0429C7.43342 11.6524 8.06658 11.6524 8.45711 12.0429L11 14.5858V3C11 2.44772 11.4477 2 12 2ZM4 21C4 20.4477 4.44772 20 5 20H19C19.5523 20 20 20.4477 20 21C20 21.5523 19.5523 22 19 22H5C4.44772 22 4 21.5523 4 21Z" fill="black"/></svg>
