<svg xmlns="http://www.w3.org/2000/svg" viewBox="0 0 24 24" fill="none"><path d="M12 4.00002C12 3.60623 12.2311 3.2491 12.5903 3.08778C12.9496 2.92646 13.37 2.99099 13.6644 3.25261L22.6644 11.2526C22.8779 11.4424 23 11.7144 23 12C23 12.2857 22.8779 12.5577 22.6644 12.7474L13.6644 20.7474C13.37 21.009 12.9496 21.0736 12.5903 20.9123C12.2311 20.7509 12 20.3938 12 20V16.5076C8.41054 16.5644 6.49021 16.9354 5.32221 17.5194C4.14254 18.1093 3.64018 18.9557 2.89443 20.4472C2.68702 20.862 2.22162 21.0798 1.77025 20.9733C1.31888 20.8667 1 20.4638 1 20C1 15.7157 1.61445 12.4929 3.58061 10.3811C5.40877 8.41752 8.20052 7.627 12 7.51436V4.00002Z" fill="black"/></svg>
