<svg xmlns="http://www.w3.org/2000/svg" viewBox="0 0 24 24" fill="none"><path d="M22 5C22 4.44772 21.5523 4 21 4C20.4477 4 20 4.44772 20 5V19C20 19.5523 20.4477 20 21 20C21.5523 20 22 19.5523 22 19V5Z" fill="black"/><path d="M13.4571 7.04289C13.0666 6.65237 12.4334 6.65237 12.0429 7.04289C11.6524 7.43342 11.6524 8.06658 12.0429 8.45711L14.5858 11H3C2.44772 11 2 11.4477 2 12C2 12.5523 2.44772 13 3 13H14.5858L12.0429 15.5429C11.6524 15.9334 11.6524 16.5666 12.0429 16.9571C12.4334 17.3476 13.0666 17.3476 13.4571 16.9571L17.7071 12.7071C17.8946 12.5196 18 12.2652 18 12C18 11.7348 17.8946 11.4804 17.7071 11.2929L13.4571 7.04289Z" fill="black"/></svg>
