<svg xmlns="http://www.w3.org/2000/svg" viewBox="0 0 24 24" fill="none"><path fill-rule="evenodd" clip-rule="evenodd" d="M4 4C4 4.55228 4.44772 5 5 5H14V17.5858L11.7071 15.2929C11.3166 14.9024 10.6834 14.9024 10.2929 15.2929C9.90237 15.6834 9.90237 16.3166 10.2929 16.7071L14.2929 20.7071C14.6834 21.0976 15.3166 21.0976 15.7071 20.7071L19.7071 16.7071C20.0976 16.3166 20.0976 15.6834 19.7071 15.2929C19.3166 14.9024 18.6834 14.9024 18.2929 15.2929L16 17.5858V4C16 3.44772 15.5523 3 15 3H5C4.44772 3 4 3.44772 4 4Z" fill="black"/></svg>
