<svg xmlns="http://www.w3.org/2000/svg" viewBox="0 0 24 24" fill="none"><path fill-rule="evenodd" clip-rule="evenodd" d="M12 3C12.5523 3 13 3.44772 13 4V15.5858L15.5429 13.0429C15.9334 12.6524 16.5666 12.6524 16.9571 13.0429C17.3476 13.4334 17.3476 14.0666 16.9571 14.4571L12.7071 18.7071C12.5196 18.8946 12.2652 19 12 19C11.7348 19 11.4804 18.8946 11.2929 18.7071L7.04289 14.4571C6.65237 14.0666 6.65237 13.4334 7.04289 13.0429C7.43342 12.6524 8.06659 12.6524 8.45711 13.0429L11 15.5858V4C11 3.44772 11.4477 3 12 3ZM12 19H5C4.44772 19 4 19.4477 4 20C4 20.5523 4.44772 21 5 21H19C19.5523 21 20 20.5523 20 20C20 19.4477 19.5523 19 19 19H12Z" fill="black"/></svg>
