<svg xmlns="http://www.w3.org/2000/svg" viewBox="0 0 24 24" fill="none"><path d="M21 5C21 4.44772 20.5523 4 20 4C19.4477 4 19 4.44772 19 5V12C19 11.7348 18.8946 11.4804 18.7071 11.2929L14.4571 7.04289C14.0666 6.65237 13.4334 6.65237 13.0429 7.04289C12.6524 7.43342 12.6524 8.06658 13.0429 8.45711L15.5858 11H4C3.44772 11 3 11.4477 3 12C3 12.5523 3.44772 13 4 13H15.5858L13.0429 15.5429C12.6524 15.9334 12.6524 16.5666 13.0429 16.9571C13.4334 17.3476 14.0666 17.3476 14.4571 16.9571L18.7071 12.7071C18.8946 12.5196 19 12.2652 19 12V19C19 19.5523 19.4477 20 20 20C20.5523 20 21 19.5523 21 19V5Z" fill="black"/></svg>
