<svg xmlns="http://www.w3.org/2000/svg" viewBox="0 0 24 24" fill="none"><path fill-rule="evenodd" clip-rule="evenodd" d="M20 3C20.5523 3 21 3.44772 21 4V9C21 9.55229 20.5523 10 20 10C19.4477 10 19 9.55229 19 9V5L5 5L5 19H9C9.55229 19 10 19.4477 10 20C10 20.5523 9.55229 21 9 21H4C3.44772 21 3 20.5523 3 20L3 4C3 3.44772 3.44772 3 4 3L20 3ZM19 14C19 13.4477 19.4477 13 20 13C20.5523 13 21 13.4477 21 14V20C21 20.5523 20.5523 21 20 21H14C13.4477 21 13 20.5523 13 20C13 19.4477 13.4477 19 14 19H17.5858L10.2929 11.7071C9.90237 11.3166 9.90237 10.6834 10.2929 10.2929C10.6834 9.90237 11.3166 9.90237 11.7071 10.2929L19 17.5858V14Z" fill="black"/></svg>
