<svg xmlns="http://www.w3.org/2000/svg" viewBox="0 0 24 24" fill="none"><path fill-rule="evenodd" clip-rule="evenodd" d="M5.00014 3C5.55242 3 6.00014 3.44772 6.00014 4V5.42327C6.49765 4.96268 7.01974 4.55425 7.58021 4.21024C8.86314 3.42278 10.3023 3 12.0285 3C16.999 3 21.0285 7.02944 21.0285 12C21.0285 16.9706 16.999 21 12.0285 21C8.10824 21 4.77586 18.4941 3.54083 14.9999C3.35678 14.4792 3.62971 13.9079 4.15042 13.7238C4.67114 13.5398 5.24246 13.8127 5.42651 14.3334C6.38794 17.0536 8.98217 19 12.0285 19C15.8945 19 19.0285 15.866 19.0285 12C19.0285 8.13401 15.8945 5 12.0285 5C10.6586 5 9.58367 5.32722 8.62643 5.91476C8.15226 6.20581 7.69673 6.56697 7.24272 7H9.00014C9.55242 7 10.0001 7.44772 10.0001 8C10.0001 8.55228 9.55242 9 9.00014 9H5.00014C4.44785 9 4.00014 8.55228 4.00014 8V4C4.00014 3.44772 4.44785 3 5.00014 3Z" fill="black"/></svg>
