<svg xmlns="http://www.w3.org/2000/svg" viewBox="0 0 24 24" fill="none"><path d="M18.9998 12C18.9998 11.45 19.4498 11 19.9998 11H20.0098C20.5598 11 21.0098 11.45 21.0098 12C21.0098 16.97 16.9798 21 12.0098 21C9.72977 21 7.61977 20.14 6.00977 18.73V20C6.00977 20.55 5.55977 21 5.00977 21C4.45977 21 4.00977 20.55 4.00977 20V16C4.00977 15.98 4.01477 15.96 4.01977 15.94C4.02477 15.92 4.02977 15.9 4.02977 15.88C4.03977 15.81 4.04977 15.75 4.06977 15.68C4.08466 15.6353 4.10509 15.5962 4.12694 15.5544C4.13444 15.54 4.1421 15.5253 4.14977 15.51C4.1601 15.4945 4.16976 15.4797 4.1791 15.4653C4.20593 15.4242 4.2301 15.3871 4.25977 15.35C4.29977 15.29 4.34977 15.25 4.40977 15.21C4.4225 15.2015 4.43343 15.1894 4.44485 15.1768C4.46034 15.1596 4.47674 15.1415 4.49977 15.13C4.51977 15.11 4.53977 15.11 4.55977 15.11C4.60351 15.0881 4.64726 15.0769 4.69488 15.0646C4.71257 15.0601 4.7308 15.0554 4.74977 15.05C4.80977 15.03 4.86977 15.01 4.93977 15.01C4.95977 15.01 4.99977 15 4.99977 15H8.99977C9.54977 15 9.99977 15.45 9.99977 16C9.99977 16.55 9.54977 17 8.99977 17H7.04977C8.32977 18.23 10.0898 19 11.9998 19C15.8698 19 18.9998 15.87 18.9998 12Z" fill="black"/><path d="M12 5C8.13 5 5 8.13 5 12C5 12.55 4.55 13 4 13C3.45 13 3 12.55 3 12C3 7.03 7.03 3 11.99 3C14.28 3 16.39 3.87 18 5.28V4C18 3.45 18.45 3 19 3C19.55 3 20 3.45 20 4V8.01C20 8.08 19.98 8.15 19.96 8.22C19.95 8.24 19.95 8.27 19.95 8.29C19.92 8.39 19.88 8.48 19.82 8.56C19.81 8.57 19.8025 8.5825 19.795 8.595C19.7875 8.6075 19.78 8.62 19.77 8.63C19.71 8.7 19.63 8.76 19.55 8.82C19.5429 8.82709 19.5371 8.83417 19.5316 8.84081C19.5217 8.85292 19.5129 8.86354 19.5 8.87C19.49 8.88 19.48 8.88 19.47 8.88C19.4 8.92 19.32 8.94 19.24 8.96C19.2186 8.96356 19.1985 8.9684 19.1788 8.97314C19.1431 8.98171 19.1086 8.99 19.07 8.99C19.05 8.99 19.01 9 19.01 9H15.01C14.46 9 14.01 8.55 14.01 8C14.01 7.45 14.46 7 15.01 7H16.95C15.67 5.77 13.91 5 12 5Z" fill="black"/></svg>
