<svg xmlns="http://www.w3.org/2000/svg" viewBox="0 0 24 24" fill="none"><path fill-rule="evenodd" clip-rule="evenodd" d="M4 4C4.55228 4 5 4.44772 5 5V12V19C5 19.5523 4.55228 20 4 20C3.44772 20 3 19.5523 3 19V5C3 4.44772 3.44772 4 4 4ZM8.41422 11L10.9571 8.45711C11.3476 8.06659 11.3476 7.43342 10.9571 7.04289C10.5666 6.65237 9.93342 6.65237 9.54289 7.04289L5.29289 11.2929C5.10536 11.4804 5 11.7348 5 12C5 12.2652 5.10536 12.5196 5.29289 12.7071L9.54289 16.9571C9.93341 17.3476 10.5666 17.3476 10.9571 16.9571C11.3476 16.5666 11.3476 15.9334 10.9571 15.5429L8.41421 13H20C20.5523 13 21 12.5523 21 12C21 11.4477 20.5523 11 20 11H8.41422Z" fill="black"/></svg>
