<svg width="132" height="133" viewBox="0 0 132 133" fill="none" xmlns="http://www.w3.org/2000/svg">
<path d="M131.737 95.2057L0 132.115V36.9088L131.737 0V95.2057Z" fill="#1D1D1B"/>
<path d="M87.2126 52.6134L108.492 46.7812V61.1251L87.2126 66.9572V95.645L73.0263 99.5462V27.8662L115.624 16.202V30.5459L87.2126 38.3089V52.6528V52.6134Z" fill="white"/>
<path d="M9.29343 96.33L23.4797 92.4287V99.6007L44.7591 93.7686V79.4247L16.3472 87.1877V80.0158L9.25403 81.9467V53.2589L16.3472 51.328V44.1561L51.8522 34.4228V41.5947L58.9453 39.6638V54.0077L44.7591 57.9089V50.7369L23.4797 56.5691V70.9129L51.8916 63.1499V70.3218L58.9847 68.3909V97.0787L51.8916 99.0096V106.182L16.3866 115.915V108.743L9.29343 110.674V96.33Z" fill="white"/>
</svg>
