<svg width="471" height="335" viewBox="0 0 471 335" fill="none" xmlns="http://www.w3.org/2000/svg">
<rect width="470.76" height="334.508" fill="#FFED00"/>
<g clip-path="url(#clip0_17_93)">
<path d="M50 176.364L64.0144 172.51V179.595L85.0361 173.833V159.663L56.9683 167.332V160.247L49.9611 162.155V133.814L56.9683 131.907V124.822L92.0433 115.206V122.291L99.0506 120.384V134.554L85.0361 138.408V131.323L64.0144 137.084V151.254L92.0823 143.585V150.67L99.0895 148.763V177.103L92.0823 179.011V186.096L57.0072 195.711V188.626L50 190.534V176.364Z" fill="#1D1D1B"/>
<path d="M120.111 121.746L106.097 125.6V111.43L148.179 99.907V114.077L134.165 117.931V174.573L120.15 178.427V121.785L120.111 121.746Z" fill="#1D1D1B"/>
<path d="M183.254 139.887L190.261 137.98V88.423L204.276 84.569V148.296L197.269 150.203V157.288L162.194 166.904V159.819L155.186 161.726V97.9995L169.201 94.1455V143.702L176.208 141.795V148.88L183.215 146.972V139.887H183.254Z" fill="#1D1D1B"/>
<path d="M211.283 82.6226L253.365 71.0996V78.1847L260.372 76.2771V132.919L253.365 134.826V141.911L211.283 153.434V82.6226ZM239.351 124.51L246.358 122.603V94.2623L239.351 96.1699V89.0848L225.336 92.9388V135.41L239.351 131.556V124.471V124.51Z" fill="#1D1D1B"/>
<path d="M267.38 67.2845L281.394 63.4306V134.242L267.38 138.096V67.2845Z" fill="#1D1D1B"/>
<path d="M288.44 68.6081L295.448 66.7006V59.6155L330.523 50V57.0851L337.53 55.1776V111.819L330.523 113.727V120.812L295.448 130.427V123.342L288.44 125.25V68.6081ZM316.469 103.411L323.476 101.503V73.1628L316.469 75.0703V67.9852L309.462 69.8927V76.9778L302.455 78.8853V107.226L309.462 105.318V112.403L316.469 110.496V103.411Z" fill="#1D1D1B"/>
</g>
<g clip-path="url(#clip1_17_93)">
<path d="M135.644 196.373L412.974 118.671V196.568L135.644 274.27V196.373Z" fill="#1D1D1B"/>
<path d="M405.188 128.909V190.612L143.43 263.993V202.29L405.188 128.909ZM420.76 108.394L127.858 190.456V284.508L420.76 202.446V108.394Z" fill="#1D1D1B"/>
<path d="M157.133 220.859L178.154 215.098V229.268L157.133 235.029V263.37L143.118 267.224V196.412L185.2 184.889V199.059L157.133 206.728V220.898V220.859Z" fill="white"/>
<path d="M192.208 204.198L199.215 202.29V195.205L206.222 193.298V186.213L213.229 184.305V177.22L220.237 175.313V182.398L227.244 180.49V187.575L234.251 185.668V192.753L241.258 190.845V240.402L227.244 244.256V230.086L206.222 235.847V250.017L192.208 253.871V204.315V204.198ZM206.222 221.599L227.244 215.838V201.667L220.237 203.575V196.49L213.229 198.397V205.483L206.222 207.39V221.56V221.599Z" fill="white"/>
<path d="M283.341 207.546L297.355 203.692V217.862L290.348 219.769V226.854L255.273 236.47V229.385L248.266 231.292V174.651L255.273 172.743V165.658L290.348 156.043V163.128L297.355 161.22V175.39L283.341 179.244V172.159L269.326 176.013V183.098L262.319 185.006V213.346L269.326 211.439V218.524L283.341 214.67V207.585V207.546Z" fill="white"/>
<path d="M304.401 152.228L318.416 148.374V219.185L304.401 223.039V152.228Z" fill="white"/>
<path d="M339.437 199.293L360.459 193.531V207.701L325.384 217.317V146.466L339.398 142.612V199.254L339.437 199.293Z" fill="white"/>
<path d="M381.52 187.77L409.587 180.101V194.271L367.505 205.794V134.943L409.587 123.42V137.59L381.52 145.259V159.429L402.541 153.668V167.838L381.52 173.6V187.77Z" fill="white"/>
</g>
<defs>
<clipPath id="clip0_17_93">
<rect width="287.491" height="145.672" fill="white" transform="translate(50 50)"/>
</clipPath>
<clipPath id="clip1_17_93">
<rect width="292.902" height="176.115" fill="white" transform="translate(127.858 108.394)"/>
</clipPath>
</defs>
</svg>
