<svg xmlns="http://www.w3.org/2000/svg" viewBox="0 0 24 24" fill="none"><path d="M9 3C9 2.44772 8.55228 2 8 2C7.44772 2 7 2.44772 7 3V4H4C3.44772 4 3 4.44772 3 5V20C3 20.5523 3.44772 21 4 21H11C11.5523 21 12 20.5523 12 20C12 19.4477 11.5523 19 11 19H5V10H19V12C19 12.5523 19.4477 13 20 13C20.5523 13 21 12.5523 21 12V5C21 4.44772 20.5523 4 20 4H17V3C17 2.44772 16.5523 2 16 2C15.4477 2 15 2.44772 15 3V4H9V3Z" fill="black"/><path d="M21.7809 16.6247C22.1259 16.1934 22.056 15.5641 21.6247 15.2191C21.1934 14.8741 20.5641 14.944 20.2191 15.3753L16.9171 19.5028L15.7071 18.2929C15.3166 17.9023 14.6834 17.9023 14.2929 18.2929C13.9024 18.6834 13.9024 19.3166 14.2929 19.7071L16.2929 21.7071C16.494 21.9082 16.7713 22.0142 17.0553 21.9984C17.3393 21.9827 17.6032 21.8468 17.7809 21.6247L21.7809 16.6247Z" fill="black"/></svg>
