<svg xmlns="http://www.w3.org/2000/svg" viewBox="0 0 24 24" fill="none"><path d="M9 3C9 2.44772 8.55228 2 8 2C7.44772 2 7 2.44772 7 3V4H4C3.44772 4 3 4.44772 3 5V20C3 20.5523 3.44772 21 4 21H11C11.5523 21 12 20.5523 12 20C12 19.4477 11.5523 19 11 19H5V10H19C19 10.5523 19.4477 11 20 11C20.5523 11 21 10.5523 21 10V5C21 4.44772 20.5523 4 20 4H17V3C17 2.44772 16.5523 2 16 2C15.4477 2 15 2.44772 15 3V4H9V3Z" fill="black"/><path fill-rule="evenodd" clip-rule="evenodd" d="M20.7071 13.2929C20.3166 12.9024 19.6834 12.9024 19.2929 13.2929L14.2929 18.2929C14.1054 18.4804 14 18.7348 14 19V21C14 21.5523 14.4477 22 15 22H17C17.2652 22 17.5196 21.8946 17.7071 21.7071L22.7071 16.7071C23.0976 16.3166 23.0976 15.6834 22.7071 15.2929L20.7071 13.2929Z" fill="black"/></svg>
