<svg xmlns="http://www.w3.org/2000/svg" viewBox="0 0 24 24" fill="none"><path d="M8 2C8.55228 2 9 2.44772 9 3V4H15V3C15 2.44772 15.4477 2 16 2C16.5523 2 17 2.44772 17 3V4H20C20.5523 4 21 4.44772 21 5V7.71922L17.9475 8.48235L14.6414 8.01005C14.3298 7.96554 14.0155 8.07033 13.7929 8.29289L13.2592 8.82663L11.3714 8.07152C11.1518 7.98368 10.9082 7.97652 10.6838 8.05132L7.97726 8.95349L3 7.53141V5C3 4.44772 3.44772 4 4 4H7V3C7 2.44772 7.44772 2 8 2Z" fill="black"/><path d="M3 9.61145V20C3 20.5523 3.44772 21 4 21H20C20.5523 21 21 20.5523 21 20V9.78078L18.2425 10.4701C18.117 10.5015 17.9866 10.5082 17.8586 10.49L14.8536 10.0607L14.2071 10.7071C13.9242 10.99 13.5 11.077 13.1286 10.9285L10.9687 10.0645L8.31623 10.9487C8.12504 11.0124 7.91906 11.0169 7.72528 10.9615L3 9.61145Z" fill="black"/></svg>
