<svg xmlns="http://www.w3.org/2000/svg" viewBox="0 0 24 24" fill="none"><path fill-rule="evenodd" clip-rule="evenodd" d="M12 1C12.5523 1 13 1.44772 13 2V6C13 6.55228 12.5523 7 12 7C11.4477 7 11 6.55228 11 6V2C11 1.44772 11.4477 1 12 1Z" fill="black"/><path fill-rule="evenodd" clip-rule="evenodd" d="M17.7065 5.29285C18.0971 5.68334 18.0971 6.31651 17.7066 6.70706L16.2423 8.17157C15.8518 8.56213 15.2186 8.56217 14.8281 8.17167C14.4375 7.78117 14.4375 7.14801 14.828 6.75746L16.2923 5.29294C16.6828 4.90239 17.316 4.90235 17.7065 5.29285Z" fill="black"/><path fill-rule="evenodd" clip-rule="evenodd" d="M6.29288 5.29291C6.68339 4.90238 7.31656 4.90236 7.70709 5.29288L9.17165 6.75737C9.56218 7.14789 9.5622 7.78105 9.17168 8.17159C8.78117 8.56212 8.148 8.56213 7.75747 8.17162L6.29291 6.70712C5.90238 6.31661 5.90236 5.68344 6.29288 5.29291Z" fill="black"/><path fill-rule="evenodd" clip-rule="evenodd" d="M10 11C10 9.89543 10.8954 9 12 9C13.1046 9 14 9.89543 14 11C14 12.1046 13.1046 13 12 13C10.8954 13 10 12.1046 10 11Z" fill="black"/><path fill-rule="evenodd" clip-rule="evenodd" d="M2 11C2 10.4477 2.44772 10 3 10H7C7.55228 10 8 10.4477 8 11C8 11.5523 7.55228 12 7 12H3C2.44772 12 2 11.5523 2 11Z" fill="black"/><path fill-rule="evenodd" clip-rule="evenodd" d="M16 11C16 10.4477 16.4477 10 17 10H21C21.5523 10 22 10.4477 22 11C22 11.5523 21.5523 12 21 12H17C16.4477 12 16 11.5523 16 11Z" fill="black"/><path fill-rule="evenodd" clip-rule="evenodd" d="M9.22595 13.8872C9.58411 14.3076 9.53365 14.9387 9.11324 15.2969C6.95579 17.1349 5.72514 19.4192 4.96634 22.2583C4.82374 22.7919 4.2756 23.1088 3.74205 22.9662C3.20849 22.8236 2.89156 22.2754 3.03416 21.7419C3.86991 18.6148 5.27697 15.9377 7.81624 13.7745C8.23664 13.4163 8.86779 13.4668 9.22595 13.8872Z" fill="black"/><path fill-rule="evenodd" clip-rule="evenodd" d="M14.9179 13.9181C15.3084 13.5276 15.9416 13.5276 16.3321 13.9182L17.7067 15.2928C18.0972 15.6833 18.0972 16.3165 17.7066 16.707C17.3161 17.0975 16.6829 17.0975 16.2924 16.7069L14.9179 15.3323C14.5274 14.9418 14.5274 14.3086 14.9179 13.9181Z" fill="black"/><path fill-rule="evenodd" clip-rule="evenodd" d="M12 15.127C12.5523 15.127 13 15.5747 13 16.127V19.9999C13 20.5522 12.5523 20.9999 12 20.9999C11.4477 20.9999 11 20.5522 11 19.9999V16.127C11 15.5747 11.4477 15.127 12 15.127Z" fill="black"/></svg>
