<svg xmlns="http://www.w3.org/2000/svg" viewBox="0 0 24 24" fill="none"><path fill-rule="evenodd" clip-rule="evenodd" d="M8 2C8.55228 2 9 2.44772 9 3V4H15V3C15 2.44772 15.4477 2 16 2C16.5523 2 17 2.44772 17 3V4H20C20.5523 4 21 4.44772 21 5V20C21 20.5523 20.5523 21 20 21H4C3.44772 21 3 20.5523 3 20V5C3 4.44772 3.44772 4 4 4H7V3C7 2.44772 7.44772 2 8 2ZM10.4551 9.54289C10.0646 9.15237 9.43145 9.15237 9.04093 9.54289C8.6504 9.93342 8.6504 10.5666 9.04093 10.9571L10.5856 12.5018L9.04289 14.0446C8.65237 14.4351 8.65237 15.0682 9.04289 15.4588C9.43342 15.8493 10.0666 15.8493 10.4571 15.4588L11.9998 13.916L13.5426 15.4588C13.9331 15.8493 14.5663 15.8493 14.9568 15.4588C15.3473 15.0682 15.3473 14.4351 14.9568 14.0446L13.4141 12.5018L14.9588 10.9571C15.3493 10.5666 15.3493 9.93342 14.9588 9.54289C14.5682 9.15237 13.9351 9.15237 13.5446 9.54289L11.9998 11.0876L10.4551 9.54289Z" fill="black"/></svg>
