<svg xmlns="http://www.w3.org/2000/svg" viewBox="0 0 24 24" fill="none"><path fill-rule="evenodd" clip-rule="evenodd" d="M5 4H4C3.44772 4 3 3.55228 3 3C3 2.44772 3.44772 2 4 2H20C20.5523 2 21 2.44772 21 3C21 3.55228 20.5523 4 20 4H19V8C19 8.33435 18.8329 8.64658 18.5547 8.83205L13.8028 12L18.5547 15.1679C18.8329 15.3534 19 15.6656 19 16V20H20C20.5523 20 21 20.4477 21 21C21 21.5523 20.5523 22 20 22H4C3.44772 22 3 21.5523 3 21C3 20.4477 3.44772 20 4 20H5V16C5 15.6656 5.1671 15.3534 5.4453 15.1679L10.1972 12L5.4453 8.83205C5.1671 8.64658 5 8.33435 5 8V4ZM7 4V7H17V4H7ZM17 18V16.5352L12 13.2019L7 16.5352V18H17Z" fill="black"/></svg>
