<svg xmlns="http://www.w3.org/2000/svg" viewBox="0 0 24 24" fill="none"><path fill-rule="evenodd" clip-rule="evenodd" d="M3 4C3 3.44772 3.44772 3 4 3H20C20.5523 3 21 3.44772 21 4V20C21 20.5523 20.5523 21 20 21H4C3.44772 21 3 20.5523 3 20V4ZM19 9H5V19H19V9ZM8.29289 11.7929C8.68342 11.4024 9.31658 11.4024 9.70711 11.7929L11.2071 13.2929C11.5976 13.6834 11.5976 14.3166 11.2071 14.7071L9.70711 16.2071C9.31658 16.5976 8.68342 16.5976 8.29289 16.2071C7.90237 15.8166 7.90237 15.1834 8.29289 14.7929L9.08579 14L8.29289 13.2071C7.90237 12.8166 7.90237 12.1834 8.29289 11.7929ZM13.0429 11.7929C13.4334 11.4024 14.0666 11.4024 14.4571 11.7929L15.9571 13.2929C16.3476 13.6834 16.3476 14.3166 15.9571 14.7071L14.4571 16.2071C14.0666 16.5976 13.4334 16.5976 13.0429 16.2071C12.6524 15.8166 12.6524 15.1834 13.0429 14.7929L13.8358 14L13.0429 13.2071C12.6524 12.8166 12.6524 12.1834 13.0429 11.7929Z" fill="black"/></svg>
