<svg xmlns="http://www.w3.org/2000/svg" viewBox="0 0 24 24" fill="none"><path d="M9 3C9 2.44772 8.55228 2 8 2C7.44772 2 7 2.44772 7 3V4H4C3.44772 4 3 4.44772 3 5V20C3 20.5523 3.44772 21 4 21H10C10.5523 21 11 20.5523 11 20C11 19.4477 10.5523 19 10 19H5V10H19C19 10.5523 19.4477 11 20 11C20.5523 11 21 10.5523 21 10V5C21 4.44772 20.5523 4 20 4H17V3C17 2.44772 16.5523 2 16 2C15.4477 2 15 2.44772 15 3V4H9V3Z" fill="black"/><path fill-rule="evenodd" clip-rule="evenodd" d="M14.1716 19.8285C12.6095 18.2664 12.6095 15.7337 14.1716 14.1716C15.7337 12.6095 18.2663 12.6095 19.8284 14.1716C21.1464 15.4896 21.3524 17.4984 20.4464 19.0323L21.7071 20.293C22.0976 20.6835 22.0976 21.3166 21.7071 21.7072C21.3166 22.0977 20.6834 22.0977 20.2929 21.7072L19.0322 20.4465C17.4983 21.3524 15.4895 21.1464 14.1716 19.8285ZM15.5858 15.5858C14.8047 16.3669 14.8047 17.6332 15.5858 18.4143C16.3668 19.1953 17.6332 19.1953 18.4142 18.4143C19.1953 17.6332 19.1953 16.3669 18.4142 15.5858C17.6332 14.8048 16.3668 14.8048 15.5858 15.5858Z" fill="black"/></svg>
