<svg xmlns="http://www.w3.org/2000/svg" viewBox="0 0 24 24" fill="none"><path d="M12 9C12.5523 9 13 9.44772 13 10V11.5855L14.2072 12.793C14.5977 13.1836 14.5976 13.8167 14.207 14.2072C13.8164 14.5977 13.1833 14.5976 12.7928 14.207L11.2928 12.7066C11.1053 12.5191 11 12.2648 11 11.9996V10C11 9.44772 11.4477 9 12 9Z" fill="black"/><path fill-rule="evenodd" clip-rule="evenodd" d="M3 4C3 3.44772 3.44772 3 4 3H20C20.5523 3 21 3.44772 21 4V20C21 20.5523 20.5523 21 20 21H4C3.44772 21 3 20.5523 3 20V4ZM12 6.5C8.96243 6.5 6.5 8.96243 6.5 12C6.5 15.0376 8.96243 17.5 12 17.5C15.0376 17.5 17.5 15.0376 17.5 12C17.5 8.96243 15.0376 6.5 12 6.5Z" fill="black"/></svg>
