<svg xmlns="http://www.w3.org/2000/svg" viewBox="0 0 24 24" fill="none"><path fill-rule="evenodd" clip-rule="evenodd" d="M3 4C3 3.44772 3.44772 3 4 3H20C20.5523 3 21 3.44772 21 4V20C21 20.5523 20.5523 21 20 21H4C3.44772 21 3 20.5523 3 20V4ZM19 9H5V19H19V9ZM10.5429 11.5429C10.9334 11.1524 11.5666 11.1524 11.9571 11.5429L13.7071 13.2929C14.0976 13.6834 14.0976 14.3166 13.7071 14.7071L11.9571 16.4571C11.5666 16.8476 10.9334 16.8476 10.5429 16.4571C10.1524 16.0666 10.1524 15.4334 10.5429 15.0429L11.5858 14L10.5429 12.9571C10.1524 12.5666 10.1524 11.9334 10.5429 11.5429Z" fill="black"/></svg>
