<svg xmlns="http://www.w3.org/2000/svg" viewBox="0 0 24 24" fill="none"><path fill-rule="evenodd" clip-rule="evenodd" d="M8 2C8.55228 2 9 2.44772 9 3V4H15V3C15 2.44772 15.4477 2 16 2C16.5523 2 17 2.44772 17 3V4H20C20.5523 4 21 4.44772 21 5V20C21 20.5523 20.5523 21 20 21H4C3.44772 21 3 20.5523 3 20V5C3 4.44772 3.44772 4 4 4H7V3C7 2.44772 7.44772 2 8 2ZM12.9991 10C12.9991 9.44772 12.5514 9 11.9991 9C11.4469 9 10.9991 9.44772 10.9991 10V11.5H9.5C8.94772 11.5 8.5 11.9477 8.5 12.5C8.5 13.0523 8.94772 13.5 9.5 13.5H10.9991V15C10.9991 15.5523 11.4469 16 11.9991 16C12.5514 16 12.9991 15.5523 12.9991 15V13.5H14.5C15.0523 13.5 15.5 13.0523 15.5 12.5C15.5 11.9477 15.0523 11.5 14.5 11.5H12.9991V10Z" fill="black"/></svg>
