<svg xmlns="http://www.w3.org/2000/svg" viewBox="0 0 24 24" fill="none"><path fill-rule="evenodd" clip-rule="evenodd" d="M9.00187 14C9.00187 10.134 12.1359 7.00001 16.0019 7.00001C19.8679 7.00001 23.0019 10.134 23.0019 14C23.0019 17.866 19.8679 21 16.0019 21C12.1359 21 9.00187 17.866 9.00187 14ZM16.0019 11C16.5542 11 17.0019 11.4477 17.0019 12V13.5858L18.3756 14.9596C18.7662 15.3501 18.7662 15.9833 18.3756 16.3738C17.9851 16.7643 17.352 16.7643 16.9614 16.3738L15.2948 14.7071C15.1072 14.5196 15.0019 14.2652 15.0019 14V12C15.0019 11.4477 15.4496 11 16.0019 11Z" fill="black"/><path d="M1.07395 6.39352C0.97805 5.84963 1.34122 5.33097 1.88511 5.23507L14.6876 2.97764C15.2315 2.88174 15.7502 3.2449 15.8461 3.7888L16.0597 5.00019C16.0404 5.00007 16.0211 5.00001 16.0019 5.00001C13.3418 5.00001 10.9513 6.15401 9.30371 7.98867L1.5949 9.34795L1.07395 6.39352Z" fill="black"/><path d="M7.80229 10.2843L1.94219 11.3176L3.15773 18.2112C3.25363 18.7551 3.77229 19.1183 4.31619 19.0224L8.12179 18.3513C7.40813 17.0617 7.00187 15.5783 7.00187 14C7.00187 12.6751 7.28817 11.417 7.80229 10.2843Z" fill="black"/></svg>
