<svg xmlns="http://www.w3.org/2000/svg" viewBox="0 0 24 24" fill="none"><path fill-rule="evenodd" clip-rule="evenodd" d="M2 3C2 2.44772 2.44772 2 3 2H17C17.5523 2 18 2.44772 18 3V6H21C21.5523 6 22 6.44772 22 7V21C22 21.5523 21.5523 22 21 22H7C6.44772 22 6 21.5523 6 21V18H3C2.44772 18 2 17.5523 2 17V3ZM16 6H7C6.44772 6 6 6.44772 6 7V16H4V4H16V6ZM15 11C15 10.4477 14.5523 10 14 10C13.4477 10 13 10.4477 13 11V13H11C10.4477 13 10 13.4477 10 14C10 14.5523 10.4477 15 11 15H13V17C13 17.5523 13.4477 18 14 18C14.5523 18 15 17.5523 15 17V15H17C17.5523 15 18 14.5523 18 14C18 13.4477 17.5523 13 17 13H15V11Z" fill="black"/></svg>
