<svg xmlns="http://www.w3.org/2000/svg" viewBox="0 0 24 24" fill="none"><path fill-rule="evenodd" clip-rule="evenodd" d="M4 3C4 2.44772 4.44772 2 5 2H15C15.5523 2 16 2.44772 16 3V6H19C19.5523 6 20 6.44772 20 7V21C20 21.5523 19.5523 22 19 22H9C8.44772 22 8 21.5523 8 21V18H5C4.44772 18 4 17.5523 4 17V3ZM14 6H9C8.44772 6 8 6.44772 8 7V16H6V4H14V6ZM15 12C15 11.4477 14.5523 11 14 11C13.4477 11 13 11.4477 13 12V13H12C11.4477 13 11 13.4477 11 14C11 14.5523 11.4477 15 12 15H13V16C13 16.5523 13.4477 17 14 17C14.5523 17 15 16.5523 15 16V15H16C16.5523 15 17 14.5523 17 14C17 13.4477 16.5523 13 16 13H15V12Z" fill="black"/></svg>
