<svg xmlns="http://www.w3.org/2000/svg" viewBox="0 0 24 24" fill="none"><path d="M7 4H3C2.44772 4 2 4.44772 2 5V19C2 19.5523 2.44772 20 3 20H7V4Z" fill="black"/><path fill-rule="evenodd" clip-rule="evenodd" d="M9 20H21C21.5523 20 22 19.5523 22 19V5C22 4.44772 21.5523 4 21 4H9V20ZM16.7071 9.29289C17.0976 9.68342 17.0976 10.3166 16.7071 10.7071L15.4142 12L16.7071 13.2929C17.0976 13.6834 17.0976 14.3166 16.7071 14.7071C16.3166 15.0976 15.6834 15.0976 15.2929 14.7071L13.2929 12.7071C12.9024 12.3166 12.9024 11.6834 13.2929 11.2929L15.2929 9.29289C15.6834 8.90237 16.3166 8.90237 16.7071 9.29289Z" fill="black"/></svg>
