<svg xmlns="http://www.w3.org/2000/svg" viewBox="0 0 24 24" fill="none"><path d="M3 4C2.44772 4 2 4.44772 2 5V15C2 15.5523 2.44772 16 3 16H7C7.55228 16 8 15.5523 8 15V5C8 4.44772 7.55228 4 7 4H3Z" fill="black"/><path d="M10 4C9.44772 4 9 4.44772 9 5V19C9 19.5523 9.44772 20 10 20H14C14.5523 20 15 19.5523 15 19V5C15 4.44772 14.5523 4 14 4H10Z" fill="black"/><path d="M17 4C16.4477 4 16 4.44772 16 5V13C16 13.5523 16.4477 14 17 14H21C21.5523 14 22 13.5523 22 13V5C22 4.44772 21.5523 4 21 4H17Z" fill="black"/></svg>
