<svg xmlns="http://www.w3.org/2000/svg" viewBox="0 0 24 24" fill="none"><path d="M3 4.6C3 4.03995 3 3.75992 3.10899 3.54601C3.20487 3.35785 3.35785 3.20487 3.54601 3.10899C3.75992 3 4.03995 3 4.6 3H9.4C9.96005 3 10.2401 3 10.454 3.10899C10.6422 3.20487 10.7951 3.35785 10.891 3.54601C11 3.75992 11 4.03995 11 4.6V7.4C11 7.96005 11 8.24008 10.891 8.45399C10.7951 8.64215 10.6422 8.79513 10.454 8.89101C10.2401 9 9.96005 9 9.4 9H4.6C4.03995 9 3.75992 9 3.54601 8.89101C3.35785 8.79513 3.20487 8.64215 3.10899 8.45399C3 8.24008 3 7.96005 3 7.4V4.6Z" fill="black"/><path d="M13 16.6C13 16.0399 13 15.7599 13.109 15.546C13.2049 15.3578 13.3578 15.2049 13.546 15.109C13.7599 15 14.0399 15 14.6 15H19.4C19.9601 15 20.2401 15 20.454 15.109C20.6422 15.2049 20.7951 15.3578 20.891 15.546C21 15.7599 21 16.0399 21 16.6V19.4C21 19.9601 21 20.2401 20.891 20.454C20.7951 20.6422 20.6422 20.7951 20.454 20.891C20.2401 21 19.9601 21 19.4 21H14.6C14.0399 21 13.7599 21 13.546 20.891C13.3578 20.7951 13.2049 20.6422 13.109 20.454C13 20.2401 13 19.9601 13 19.4V16.6Z" fill="black"/><path d="M3 12.6C3 12.0399 3 11.7599 3.10899 11.546C3.20487 11.3578 3.35785 11.2049 3.54601 11.109C3.75992 11 4.03995 11 4.6 11H9.4C9.96005 11 10.2401 11 10.454 11.109C10.6422 11.2049 10.7951 11.3578 10.891 11.546C11 11.7599 11 12.0399 11 12.6V19.4C11 19.9601 11 20.2401 10.891 20.454C10.7951 20.6422 10.6422 20.7951 10.454 20.891C10.2401 21 9.96005 21 9.4 21H4.6C4.03995 21 3.75992 21 3.54601 20.891C3.35785 20.7951 3.20487 20.6422 3.10899 20.454C3 20.2401 3 19.9601 3 19.4V12.6Z" fill="black"/><path d="M13 4.6C13 4.03995 13 3.75992 13.109 3.54601C13.2049 3.35785 13.3578 3.20487 13.546 3.10899C13.7599 3 14.0399 3 14.6 3H19.4C19.9601 3 20.2401 3 20.454 3.10899C20.6422 3.20487 20.7951 3.35785 20.891 3.54601C21 3.75992 21 4.03995 21 4.6V11.4C21 11.9601 21 12.2401 20.891 12.454C20.7951 12.6422 20.6422 12.7951 20.454 12.891C20.2401 13 19.9601 13 19.4 13H14.6C14.0399 13 13.7599 13 13.546 12.891C13.3578 12.7951 13.2049 12.6422 13.109 12.454C13 12.2401 13 11.9601 13 11.4V4.6Z" fill="black"/></svg>
