<svg xmlns="http://www.w3.org/2000/svg" viewBox="0 0 24 24" fill="none"><path d="M4.54087 13L2.51436 14.1258C2.19689 14.3022 2 14.6368 2 15C2 15.3632 2.19689 15.6978 2.51436 15.8742L11.5144 20.8742C11.8164 21.0419 12.1836 21.0419 12.4856 20.8742L21.4856 15.8742C21.8031 15.6978 22 15.3632 22 15C22 14.6368 21.8031 14.3022 21.4856 14.1258L19.4591 13L12.4856 16.8742C12.1836 17.0419 11.8164 17.0419 11.5144 16.8742L4.54087 13Z" fill="black"/><path d="M12.4856 3.12584C12.1836 2.95805 11.8164 2.95805 11.5144 3.12584L2.51436 8.12584C2.19689 8.30221 2 8.63683 2 9C2 9.36317 2.19689 9.69779 2.51436 9.87416L11.5144 14.8742C11.8164 15.0419 12.1836 15.0419 12.4856 14.8742L21.4856 9.87416C21.8031 9.69779 22 9.36317 22 9C22 8.63683 21.8031 8.30221 21.4856 8.12584L12.4856 3.12584Z" fill="black"/></svg>
