<svg xmlns="http://www.w3.org/2000/svg" viewBox="0 0 24 24" fill="none"><path fill-rule="evenodd" clip-rule="evenodd" d="M3 4C2.44772 4 2 4.44772 2 5V15C2 15.5523 2.44772 16 3 16H6V19C6 19.5523 6.44772 20 7 20H21C21.5523 20 22 19.5523 22 19V9C22 8.44772 21.5523 8 21 8H18V5C18 4.44772 17.5523 4 17 4H3ZM6 14V9C6 8.44772 6.44772 8 7 8H16V6H4V14H6ZM12 15C11.4477 15 11 14.5523 11 14C11 13.4477 11.4477 13 12 13H13V12C13 11.4477 13.4477 11 14 11C14.5523 11 15 11.4477 15 12V13H16C16.5523 13 17 13.4477 17 14C17 14.5523 16.5523 15 16 15H15V16C15 16.5523 14.5523 17 14 17C13.4477 17 13 16.5523 13 16V15H12Z" fill="black"/></svg>
