<svg xmlns="http://www.w3.org/2000/svg" viewBox="0 0 24 24" fill="none"><path d="M3 4C2.44772 4 2 4.44772 2 5V19C2 19.5523 2.44772 20 3 20H12C12.5523 20 13 19.5523 13 19V6H20V10C20 10.5523 20.4477 11 21 11C21.5523 11 22 10.5523 22 10V5C22 4.44772 21.5523 4 21 4H3Z" fill="black"/><path d="M20 14C20 13.4477 19.5523 13 19 13C18.4477 13 18 13.4477 18 14V16H16C15.4477 16 15 16.4477 15 17C15 17.5523 15.4477 18 16 18H18V20C18 20.5523 18.4477 21 19 21C19.5523 21 20 20.5523 20 20V18H22C22.5523 18 23 17.5523 23 17C23 16.4477 22.5523 16 22 16H20V14Z" fill="black"/></svg>
