<svg xmlns="http://www.w3.org/2000/svg" viewBox="0 0 24 24" fill="none"><path fill-rule="evenodd" clip-rule="evenodd" d="M12 2C17.5228 2 22 6.47715 22 12C22 17.5228 17.5228 22 12 22C6.47715 22 2 17.5228 2 12C2 6.47715 6.47715 2 12 2ZM12.002 13.8496C10.5958 13.8447 9.19093 14.4144 8.20703 15.3896C8.09709 15.4975 7.99348 15.6091 7.89355 15.7256C7.77012 15.8727 7.69924 16.0608 7.7041 16.2549C7.70896 16.449 7.78784 16.6327 7.9248 16.7666C8.06176 16.9003 8.24733 16.9752 8.44141 16.9756C8.63533 16.9759 8.82172 16.901 8.96582 16.7744C9.0522 16.7003 9.14015 16.6304 9.23047 16.5635C10.0414 15.9616 11.021 15.6505 12.0029 15.6504C12.985 15.6491 13.9641 15.9587 14.7725 16.5615C14.8625 16.6286 14.9501 16.6982 15.0361 16.7725C15.18 16.8996 15.3664 16.9754 15.5605 16.9756C15.7546 16.9757 15.9409 16.9019 16.0781 16.7686C16.2153 16.6351 16.2944 16.4508 16.2998 16.2568C16.3052 16.0629 16.2351 15.8749 16.1123 15.7275C16.0126 15.6106 15.9087 15.4989 15.7988 15.3906C14.8159 14.4115 13.4079 13.8425 12.002 13.8496ZM9.25 7.5C8.42157 7.5 7.75 8.29582 7.75 9.40039C7.75016 10.5047 8.42167 11.25 9.25 11.25C10.0783 11.25 10.7498 10.5047 10.75 9.40039C10.75 8.29582 10.0784 7.5 9.25 7.5ZM14.75 7.5C13.9216 7.5 13.25 8.29582 13.25 9.40039C13.2502 10.5047 13.9217 11.25 14.75 11.25C15.5783 11.25 16.2498 10.5047 16.25 9.40039C16.25 8.29582 15.5784 7.5 14.75 7.5Z" fill="black"/></svg>
