<svg xmlns="http://www.w3.org/2000/svg" viewBox="0 0 24 24" fill="none"><path fill-rule="evenodd" clip-rule="evenodd" d="M3.36829 2.72481C3.60133 2.5349 3.90745 2.45991 4.20188 2.5206C9.50862 3.61443 14.4914 3.61443 19.7981 2.5206C20.0926 2.45991 20.3987 2.5349 20.6317 2.72481C20.8648 2.91471 21 3.19939 21 3.50001V12.5C21 17.4706 16.9706 21.5 12 21.5C7.02944 21.5 3 17.4706 3 12.5V3.50001C3 3.19939 3.13524 2.91471 3.36829 2.72481ZM8.20878 14.0693C7.93923 13.6717 8.39677 13.2338 8.84128 13.4158C10.9471 14.2781 13.0529 14.2781 15.1587 13.4158C15.6032 13.2338 16.0608 13.6717 15.7912 14.0693C13.7634 17.0602 10.2366 17.0602 8.20878 14.0693ZM11 10.1058C11 10.6421 10.7135 10.5298 10.2732 10.3572C9.98547 10.2444 9.63203 10.1058 9.25 10.1058C8.86797 10.1058 8.51453 10.2444 8.22676 10.3572C7.78652 10.5298 7.5 10.6421 7.5 10.1058C7.5 9.21896 8.2835 8.5 9.25 8.5C10.2165 8.5 11 9.21896 11 10.1058ZM15.7732 10.3572C16.2135 10.5298 16.5 10.6421 16.5 10.1058C16.5 9.21896 15.7165 8.5 14.75 8.5C13.7835 8.5 13 9.21896 13 10.1058C13 10.6421 13.2865 10.5298 13.7268 10.3572C14.0145 10.2444 14.368 10.1058 14.75 10.1058C15.132 10.1058 15.4855 10.2444 15.7732 10.3572Z" fill="black"/></svg>
