<svg xmlns="http://www.w3.org/2000/svg" viewBox="0 0 24 24" fill="none"><path fill-rule="evenodd" clip-rule="evenodd" d="M2 12C2 6.47715 6.47715 2 12 2C17.5228 2 22 6.47715 22 12C22 17.5228 17.5228 22 12 22C6.47715 22 2 17.5228 2 12ZM9.5 10.5C10.3284 10.5 11 9.82843 11 9C11 8.17157 10.3284 7.5 9.5 7.5C8.67157 7.5 8 8.17157 8 9C8 9.82843 8.67157 10.5 9.5 10.5ZM16 9C16 9.82843 15.3284 10.5 14.5 10.5C13.6716 10.5 13 9.82843 13 9C13 8.17157 13.6716 7.5 14.5 7.5C15.3284 7.5 16 8.17157 16 9ZM6.56474 12.8474C6.48046 12.3016 5.96966 11.9274 5.42385 12.0117C4.87803 12.096 4.50388 12.6068 4.58816 13.1526C5.1433 16.7478 8.24932 19.5 12 19.5C15.7507 19.5 18.8567 16.7478 19.4118 13.1526C19.4961 12.6068 19.122 12.096 18.5762 12.0117C18.0303 11.9274 17.5195 12.3016 17.4353 12.8474C17.0284 15.4824 14.7489 17.5 12 17.5C9.2511 17.5 6.97161 15.4824 6.56474 12.8474Z" fill="black"/></svg>
