<svg xmlns="http://www.w3.org/2000/svg" viewBox="0 0 24 24" fill="none"><path fill-rule="evenodd" clip-rule="evenodd" d="M12 3C12 2.44772 12.4477 2 13 2C15.7614 2 18 4.23858 18 7C18 7.81825 17.8031 8.59088 17.4546 9.27269C18.9445 9.85457 20 11.304 20 13C20 13.4377 19.9295 13.8573 19.7997 14.2493C21.0892 14.7653 22 16.0263 22 17.5C22 19.433 20.433 21 18.5 21H5.5C3.567 21 2 19.433 2 17.5C2 16.0263 2.91085 14.7653 4.2003 14.2493C4.07052 13.8573 4 13.4377 4 13C4 11.4173 4.91885 10.0497 6.25252 9.40106C6.08934 8.96485 6 8.49259 6 8C6 5.79086 7.79086 4 10 4H12V3ZM11 9C10.4477 9 10 9.44772 10 10C10 10.5523 10.4477 11 11 11H12C12.5523 11 13 10.5523 13 10C13 9.44772 12.5523 9 12 9H11ZM14 14C13.4477 14 13 14.4477 13 15C13 15.5523 13.4477 16 14 16H15C15.5523 16 16 15.5523 16 15C16 14.4477 15.5523 14 15 14H14Z" fill="black"/></svg>
