<svg xmlns="http://www.w3.org/2000/svg" viewBox="0 0 24 24" fill="none"><path fill-rule="evenodd" clip-rule="evenodd" d="M3 4C3 3.44772 3.44772 3 4 3H20C20.5523 3 21 3.44772 21 4V18C21 18.5523 20.5523 19 20 19H18V21C18 21.5523 17.5523 22 17 22C16.4477 22 16 21.5523 16 21V19H8V21C8 21.5523 7.55228 22 7 22C6.44772 22 6 21.5523 6 21V19H4C3.44772 19 3 18.5523 3 18V4ZM11 12V17H5V12H11ZM11 10V5H5V10H11ZM15 9C15.5523 9 16 9.44772 16 10V12C16 12.5523 15.5523 13 15 13C14.4477 13 14 12.5523 14 12V10C14 9.44772 14.4477 9 15 9Z" fill="black"/></svg>
