<svg xmlns="http://www.w3.org/2000/svg" viewBox="0 0 24 24" fill="none"><path d="M11 4H3C2.44772 4 2 4.44772 2 5V11C2 11.5523 2.44772 12 3 12H3.92448L3.00877 18.8678C2.93578 19.4153 3.3204 19.9182 3.86784 19.9912C4.41528 20.0642 4.91824 19.6796 4.99123 19.1322L5.94218 12H11V4Z" fill="black"/><path d="M13 12H18.0578L19.0088 19.1322C19.0818 19.6796 19.5847 20.0642 20.1322 19.9912C20.6796 19.9182 21.0642 19.4153 20.9912 18.8678L20.0755 12H21C21.5523 12 22 11.5523 22 11V5C22 4.44772 21.5523 4 21 4H13V12Z" fill="black"/></svg>
