<svg xmlns="http://www.w3.org/2000/svg" viewBox="0 0 24 24" fill="none"><path fill-rule="evenodd" clip-rule="evenodd" d="M8.00024 2C7.53334 2 7.12858 2.32309 7.0251 2.77838L4.67128 13.1352C4.52962 13.101 4.38681 13.0659 4.24277 13.0299C3.70698 12.8959 3.16404 13.2217 3.03009 13.7575C2.89615 14.2933 3.22191 14.8362 3.7577 14.9701C4.80239 15.2313 5.78974 15.4482 6.73922 15.6208L5.05155 20.6838C4.87691 21.2077 5.16007 21.774 5.68401 21.9487C6.20795 22.1233 6.77427 21.8402 6.94892 21.3162L8.74582 15.9255C10.9631 16.1915 13.0374 16.1915 15.2546 15.9255L17.0516 21.3162C17.2262 21.8402 17.7925 22.1233 18.3165 21.9487C18.8404 21.774 19.1236 21.2077 18.9489 20.6838L17.2613 15.6208C18.2107 15.4482 19.1981 15.2313 20.2428 14.9701C20.7786 14.8362 21.1043 14.2933 20.9704 13.7575C20.8364 13.2217 20.2935 12.8959 19.7577 13.0299C19.6137 13.0659 19.4709 13.101 19.3292 13.1352L16.9754 2.77838C16.8719 2.32309 16.4671 2 16.0002 2H8.00024Z" fill="black"/></svg>
