<svg xmlns="http://www.w3.org/2000/svg" viewBox="0 0 24 24" fill="none"><path fill-rule="evenodd" clip-rule="evenodd" d="M3 4H11V17H6V19C6 19.5523 5.55228 20 5 20C4.44772 20 4 19.5523 4 19V17H3C2.44772 17 2 16.5523 2 16V5C2 4.44772 2.44772 4 3 4ZM9 11C9 11.5523 8.55229 12 8 12C7.44772 12 7 11.5523 7 11V9C7 8.44771 7.44772 8 8 8C8.55229 8 9 8.44771 9 9V11Z" fill="black"/><path fill-rule="evenodd" clip-rule="evenodd" d="M22 16C22 16.5523 21.5523 17 21 17H20V19C20 19.5523 19.5523 20 19 20C18.4477 20 18 19.5523 18 19V17H13V4H21C21.5523 4 22 4.44772 22 5V16ZM17 11C17 11.5523 16.5523 12 16 12C15.4477 12 15 11.5523 15 11V9C15 8.44771 15.4477 8 16 8C16.5523 8 17 8.44771 17 9V11Z" fill="black"/></svg>
