<svg xmlns="http://www.w3.org/2000/svg" viewBox="0 0 24 24" fill="none"><path fill-rule="evenodd" clip-rule="evenodd" d="M4 3C4 2.44772 4.44772 2 5 2H19C19.5523 2 20 2.44772 20 3V10H4V3ZM10 5C9.44772 5 9 5.44772 9 6C9 6.55228 9.44772 7 10 7H14C14.5523 7 15 6.55228 15 6C15 5.44772 14.5523 5 14 5H10Z" fill="black"/><path fill-rule="evenodd" clip-rule="evenodd" d="M4 12V19C4 19.5523 4.44772 20 5 20H6V21C6 21.5523 6.44772 22 7 22C7.55228 22 8 21.5523 8 21V20H16V21C16 21.5523 16.4477 22 17 22C17.5523 22 18 21.5523 18 21V20H19C19.5523 20 20 19.5523 20 19V12H4ZM10 15C9.44772 15 9 15.4477 9 16C9 16.5523 9.44772 17 10 17H14C14.5523 17 15 16.5523 15 16C15 15.4477 14.5523 15 14 15H10Z" fill="black"/></svg>
