<svg xmlns="http://www.w3.org/2000/svg" viewBox="0 0 24 24" fill="none"><path fill-rule="evenodd" clip-rule="evenodd" d="M4 3C4 2.44772 4.44772 2 5 2H19C19.5523 2 20 2.44772 20 3V10H4V3ZM16 6C16 5.44772 15.5523 5 15 5C14.4477 5 14 5.44772 14 6V7C14 7.55228 14.4477 8 15 8C15.5523 8 16 7.55228 16 7V6Z" fill="black"/><path fill-rule="evenodd" clip-rule="evenodd" d="M4 12V21C4 21.5523 4.44772 22 5 22H19C19.5523 22 20 21.5523 20 21V12H4ZM15 14C15.5523 14 16 14.4477 16 15V16C16 16.5523 15.5523 17 15 17C14.4477 17 14 16.5523 14 16V15C14 14.4477 14.4477 14 15 14Z" fill="black"/></svg>
