<svg xmlns="http://www.w3.org/2000/svg" viewBox="0 0 24 24" fill="none"><path fill-rule="evenodd" clip-rule="evenodd" d="M4 3C4 2.44772 4.44772 2 5 2H11V20H8V21C8 21.5523 7.55228 22 7 22C6.44772 22 6 21.5523 6 21V20H5C4.44772 20 4 19.5523 4 19V3ZM9 10C9 9.44772 8.55228 9 8 9C7.44772 9 7 9.44772 7 10V12C7 12.5523 7.44772 13 8 13C8.55228 13 9 12.5523 9 12V10Z" fill="black"/><path fill-rule="evenodd" clip-rule="evenodd" d="M19 20C19.5523 20 20 19.5523 20 19V3C20 2.44772 19.5523 2 19 2H13V20H16V21C16 21.5523 16.4477 22 17 22C17.5523 22 18 21.5523 18 21V20H19ZM16 9C16.5523 9 17 9.44772 17 10V12C17 12.5523 16.5523 13 16 13C15.4477 13 15 12.5523 15 12V10C15 9.44772 15.4477 9 16 9Z" fill="black"/></svg>
