<svg xmlns="http://www.w3.org/2000/svg" viewBox="0 0 24 24" fill="none"><path fill-rule="evenodd" clip-rule="evenodd" d="M5 3C5 2.44772 5.44772 2 6 2H18C18.5523 2 19 2.44772 19 3V10C19 10.5523 18.5523 11 18 11H17V13H19C19.5523 13 20 13.4477 20 14C20 14.5523 19.5523 15 19 15V21C19 21.5523 18.5523 22 18 22C17.4477 22 17 21.5523 17 21V19H7V21C7 21.5523 6.55228 22 6 22C5.44772 22 5 21.5523 5 21V15C4.44772 15 4 14.5523 4 14C4 13.4477 4.44772 13 5 13H7V11H6C5.44772 11 5 10.5523 5 10V3ZM9 11V13H15V11H9ZM7 15V17H17V15H7Z" fill="black"/></svg>
