<svg xmlns="http://www.w3.org/2000/svg" viewBox="0 0 24 24" fill="none"><path d="M3 9V5C3 4.44772 3.44772 4 4 4H20C20.5523 4 21 4.44772 21 5V9H20C18.3431 9 17 10.3431 17 12H7C7 10.3431 5.65685 9 4 9H3Z" fill="black"/><path d="M2 11C1.44772 11 1 11.4477 1 12V17C1 17.5523 1.44772 18 2 18H4V19C4 19.5523 4.44772 20 5 20C5.55228 20 6 19.5523 6 19V18H18V19C18 19.5523 18.4477 20 19 20C19.5523 20 20 19.5523 20 19V18H22C22.5523 18 23 17.5523 23 17V12C23 11.4477 22.5523 11 22 11H20C19.4477 11 19 11.4477 19 12V14H5V12C5 11.4477 4.55228 11 4 11H2Z" fill="black"/></svg>
