<svg xmlns="http://www.w3.org/2000/svg" viewBox="0 0 24 24" fill="none"><path d="M5 10V4C5 3.44772 5.44772 3 6 3H18C18.5523 3 19 3.44772 19 4V10H18C16.8954 10 16 10.8954 16 12V13H8V12C8 10.8954 7.10457 10 6 10H5Z" fill="black"/><path d="M4 12C3.44772 12 3 12.4477 3 13V18C3 18.5523 3.44772 19 4 19H5V20C5 20.5523 5.44772 21 6 21C6.55228 21 7 20.5523 7 20V19H17V20C17 20.5523 17.4477 21 18 21C18.5523 21 19 20.5523 19 20V19H20C20.5523 19 21 18.5523 21 18V12.5C21 11.9477 20.5523 11.5 20 11.5H19C18.4477 11.5 18 11.9477 18 12.5V15H6V13C6 12.4477 5.55228 12 5 12H4Z" fill="black"/></svg>
