<svg xmlns="http://www.w3.org/2000/svg" viewBox="0 0 24 24" fill="none"><path fill-rule="evenodd" clip-rule="evenodd" d="M3 4C3 3.44772 3.44772 3 4 3H20C20.5523 3 21 3.44772 21 4V10H3V4ZM11 5C10.4477 5 10 5.44772 10 6C10 6.55228 10.4477 7 11 7H13C13.5523 7 14 6.55228 14 6C14 5.44772 13.5523 5 13 5H11Z" fill="black"/><path fill-rule="evenodd" clip-rule="evenodd" d="M21 12H3V18C3 18.5523 3.44772 19 4 19H6V21C6 21.5523 6.44772 22 7 22C7.55228 22 8 21.5523 8 21V19H16V21C16 21.5523 16.4477 22 17 22C17.5523 22 18 21.5523 18 21V19H20C20.5523 19 21 18.5523 21 18V12ZM11 14C10.4477 14 10 14.4477 10 15C10 15.5523 10.4477 16 11 16H13C13.5523 16 14 15.5523 14 15C14 14.4477 13.5523 14 13 14H11Z" fill="black"/></svg>
