<svg xmlns="http://www.w3.org/2000/svg" viewBox="0 0 24 24" fill="none"><path fill-rule="evenodd" clip-rule="evenodd" d="M3 4C2.44772 4 2 4.44772 2 5V18C2 18.5523 2.44772 19 3 19H4V20C4 20.5523 4.44772 21 5 21C5.55228 21 6 20.5523 6 20V19H11V4H3ZM9 12C9 12.5523 8.55228 13 8 13C7.44772 13 7 12.5523 7 12V10C7 9.44772 7.44772 9 8 9C8.55228 9 9 9.44772 9 10V12Z" fill="black"/><path fill-rule="evenodd" clip-rule="evenodd" d="M13 4V19H18V20C18 20.5523 18.4477 21 19 21C19.5523 21 20 20.5523 20 20V19H21C21.5523 19 22 18.5523 22 18V5C22 4.44772 21.5523 4 21 4H13ZM16 9C15.4477 9 15 9.44772 15 10V12C15 12.5523 15.4477 13 16 13C16.5523 13 17 12.5523 17 12V10C17 9.44772 16.5523 9 16 9Z" fill="black"/></svg>
