<svg xmlns="http://www.w3.org/2000/svg" viewBox="0 0 24 24" fill="none"><path fill-rule="evenodd" clip-rule="evenodd" d="M3 4C3 3.44772 3.44772 3 4 3H20C20.5523 3 21 3.44772 21 4V20C21 20.5523 20.5523 21 20 21H4C3.44772 21 3 20.5523 3 20V4ZM5 15V19H19V15H5ZM19 13V5H5V9.58579L7.29289 7.29289C7.68342 6.90237 8.31658 6.90237 8.70711 7.29289L14.4142 13H19ZM13 8.5C13 7.11929 14.1193 6 15.5 6C16.8807 6 18 7.11929 18 8.5C18 9.88071 16.8807 11 15.5 11C14.1193 11 13 9.88071 13 8.5ZM6 17C6 16.4477 6.44772 16 7 16H12C12.5523 16 13 16.4477 13 17C13 17.5523 12.5523 18 12 18H7C6.44772 18 6 17.5523 6 17ZM14 17C14 16.4477 14.4477 16 15 16H17C17.5523 16 18 16.4477 18 17C18 17.5523 17.5523 18 17 18H15C14.4477 18 14 17.5523 14 17Z" fill="black"/></svg>
