<svg xmlns="http://www.w3.org/2000/svg" viewBox="0 0 24 24" fill="none"><path fill-rule="evenodd" clip-rule="evenodd" d="M12 4C16.2391 3.99997 20.3386 6.61119 22.8882 11.5405C23.0373 11.8287 23.0373 12.1712 22.8882 12.4594C20.3386 17.3887 16.2392 20 12 20C7.76085 20 3.66137 17.3888 1.11178 12.4595C0.962741 12.1713 0.962741 11.8288 1.11178 11.5406C3.66136 6.6113 7.76084 4.00003 12 4ZM8.5 12C8.5 10.067 10.067 8.5 12 8.5C13.933 8.5 15.5 10.067 15.5 12C15.5 13.933 13.933 15.5 12 15.5C10.067 15.5 8.5 13.933 8.5 12Z" fill="black"/></svg>
