<svg xmlns="http://www.w3.org/2000/svg" viewBox="0 0 24 24" fill="none"><path fill-rule="evenodd" clip-rule="evenodd" d="M3.70711 2.29289C3.31658 1.90237 2.68342 1.90237 2.29289 2.29289C1.90237 2.68342 1.90237 3.31658 2.29289 3.70711L5.10823 6.52245C4.44904 7.0508 3.82213 7.65993 3.23563 8.34802C2.44846 9.27155 1.73437 10.3369 1.11178 11.5407C0.962741 11.8288 0.962741 12.1713 1.11178 12.4595C4.07307 18.1848 9.12983 20.774 14.0152 19.8006C15.1101 19.5824 16.1818 19.1865 17.2029 18.6171L20.2929 21.7071C20.6834 22.0976 21.3166 22.0976 21.7071 21.7071C22.0976 21.3166 22.0976 20.6834 21.7071 20.2929L18.8915 17.4773C20.4326 16.2411 21.8013 14.5609 22.8882 12.4594C23.0373 12.1712 23.0373 11.8287 22.8882 11.5405C20.3386 6.61119 16.2391 3.99997 12 4C10.2048 4.00001 8.43474 4.46829 6.79678 5.38257L3.70711 2.29289ZM10.3349 8.92069L15.0793 13.6651C15.3476 13.1699 15.5 12.6028 15.5 12C15.5 10.067 13.933 8.5 12 8.5C11.3972 8.5 10.8301 8.65237 10.3349 8.92069ZM5.3806 8.96641C5.75308 8.58964 6.13807 8.24999 6.53261 7.94682L15.7201 17.1343C15.1996 17.3845 14.6695 17.5797 14.1351 17.7209L5.3806 8.96641ZM4.08672 10.501L11.5733 17.9875C8.46101 17.8241 5.30764 15.8994 3.13492 12.0001C3.43438 11.463 3.75266 10.9635 4.08672 10.501Z" fill="black"/></svg>
