<svg xmlns="http://www.w3.org/2000/svg" viewBox="0 0 24 24" fill="none"><path fill-rule="evenodd" clip-rule="evenodd" d="M2 5C2 4.44772 2.44772 4 3 4H21C21.5523 4 22 4.44772 22 5V19C22 19.5523 21.5523 20 21 20H3C2.44772 20 2 19.5523 2 19V5ZM6 15C6 14.4477 6.44772 14 7 14H12C12.5523 14 13 14.4477 13 15C13 15.5523 12.5523 16 12 16H7C6.44772 16 6 15.5523 6 15ZM15 15C15 14.4477 15.4477 14 16 14H17C17.5523 14 18 14.4477 18 15C18 15.5523 17.5523 16 17 16H16C15.4477 16 15 15.5523 15 15ZM7 10C6.44772 10 6 10.4477 6 11C6 11.5523 6.44772 12 7 12H8C8.55228 12 9 11.5523 9 11C9 10.4477 8.55228 10 8 10H7ZM12 10C11.4477 10 11 10.4477 11 11C11 11.5523 11.4477 12 12 12H17C17.5523 12 18 11.5523 18 11C18 10.4477 17.5523 10 17 10H12Z" fill="black"/></svg>
