<svg xmlns="http://www.w3.org/2000/svg" viewBox="0 0 24 24" fill="none"><path fill-rule="evenodd" clip-rule="evenodd" d="M2.29289 2.29289C2.68342 1.90237 3.31658 1.90237 3.70711 2.29289L21.7071 20.2929C22.0976 20.6834 22.0976 21.3166 21.7071 21.7071C21.3166 22.0976 20.6834 22.0976 20.2929 21.7071L17.203 18.6172C14.5527 20.0949 11.5782 20.395 8.78165 19.4863C5.74306 18.4989 3.00295 16.1161 1.11178 12.4597C0.962741 12.1715 0.962741 11.829 1.11178 11.5409C2.19827 9.44025 3.56404 7.76024 5.10833 6.52254L2.29289 3.70711C1.90237 3.31658 1.90237 2.68342 2.29289 2.29289ZM12.5184 13.9326L14.032 15.4462C13.4365 15.7979 12.7414 16.0002 12 16.0002C9.79086 16.0002 8 14.2094 8 12.0002C8 11.2588 8.20233 10.5637 8.55405 9.96826L10.0676 11.4818C10.0235 11.6471 10 11.8208 10 12.0002C10 13.1048 10.8954 14.0002 12 14.0002C12.1794 14.0002 12.3531 13.9767 12.5184 13.9326Z" fill="black"/><path d="M22.8879 12.4594C22.159 13.8686 21.3035 15.0884 20.3542 16.1118L8.76172 4.51936C9.81541 4.17482 10.9029 4.00001 11.9997 4C16.2388 3.99997 20.3383 6.61119 22.8879 11.5405C23.0369 11.8287 23.0369 12.1712 22.8879 12.4594Z" fill="black"/></svg>
