<svg xmlns="http://www.w3.org/2000/svg" viewBox="0 0 24 24" fill="none"><path d="M8.87139 3.07179C9.38417 3.2769 9.63359 3.85887 9.42848 4.37166L7.97714 8H16.0229L14.5715 4.37166C14.3664 3.85887 14.6158 3.2769 15.1286 3.07179C15.6414 2.86668 16.2234 3.11609 16.4285 3.62888L18.1769 8H21C21.2965 8 21.5778 8.1316 21.7678 8.35925C21.9578 8.58691 22.0369 8.88715 21.9839 9.17889L21.1652 13.6813C20.0861 12.6403 18.6178 12 17 12C13.6863 12 11 14.6863 11 18C11 19.0929 11.2922 20.1175 11.8027 21H5.00001C4.51672 21 4.10259 20.6544 4.01614 20.1789L2.01614 9.17889C1.96309 8.88715 2.04226 8.58691 2.23226 8.35925C2.42225 8.1316 2.70348 8 3.00001 8H5.82307L7.57152 3.62888C7.77664 3.11609 8.35861 2.86668 8.87139 3.07179Z" fill="black"/><path fill-rule="evenodd" clip-rule="evenodd" d="M14.1716 15.1716C14.5621 14.781 15.1953 14.781 15.5858 15.1716L17 16.5858L18.4142 15.1716C18.8047 14.781 19.4379 14.781 19.8284 15.1716C20.219 15.5621 20.219 16.1953 19.8284 16.5858L18.4142 18L19.8284 19.4142C20.219 19.8047 20.219 20.4379 19.8284 20.8284C19.4379 21.219 18.8047 21.219 18.4142 20.8284L17 19.4142L15.5858 20.8284C15.1953 21.219 14.5621 21.219 14.1716 20.8284C13.781 20.4379 13.781 19.8047 14.1716 19.4142L15.5858 18L14.1716 16.5858C13.781 16.1953 13.781 15.5621 14.1716 15.1716Z" fill="black"/></svg>
