<svg xmlns="http://www.w3.org/2000/svg" viewBox="0 0 24 24" fill="none"><path d="M8 3H4C3.44772 3 3 3.44772 3 4V20C3 20.5523 3.44772 21 4 21H12.8096C11.6888 19.8321 11 18.2465 11 16.5C11 12.9101 13.9101 10 17.5 10C18.7886 10 19.9897 10.375 21 11.0218V4C21 3.44772 20.5523 3 20 3H16V8C16 8.55228 15.5523 9 15 9H9C8.44772 9 8 8.55228 8 8V3Z" fill="black"/><path d="M14 3H10V7H14V3Z" fill="black"/><path fill-rule="evenodd" clip-rule="evenodd" d="M20.682 13.318C18.9246 11.5607 16.0754 11.5607 14.318 13.318C12.5607 15.0754 12.5607 17.9246 14.318 19.682C16.0754 21.4393 18.9246 21.4393 20.682 19.682C22.4393 17.9246 22.4393 15.0754 20.682 13.318ZM19.8278 17.4136L16.5864 14.1722C17.4836 13.8207 18.5429 14.0073 19.2678 14.7322C19.9927 15.4571 20.1793 16.5164 19.8278 17.4136ZM15.1722 15.5864L18.4136 18.8278C17.5164 19.1793 16.4571 18.9927 15.7322 18.2678C15.0073 17.5429 14.8207 16.4836 15.1722 15.5864Z" fill="black"/></svg>
