<svg xmlns="http://www.w3.org/2000/svg" viewBox="0 0 24 24" fill="none"><path d="M21.3088 10.2297C20.4867 10.719 19.5262 11 18.5 11C15.4624 11 13 8.53757 13 5.5C13 5.33146 13.0076 5.16468 13.0224 5H5.34713L4.98639 2.8356C4.90603 2.35341 4.48884 2 4 2H2C1.44772 2 1 2.44772 1 3C1 3.55228 1.44772 4 2 4H3.15287L5.01361 15.1644C5.09397 15.6466 5.51116 16 6 16H19.5C19.9888 16 20.406 15.6466 20.4864 15.1644L21.3088 10.2297Z" fill="black"/><path d="M8 17C6.89543 17 6 17.8954 6 19C6 20.1046 6.89543 21 8 21C9.10457 21 10 20.1046 10 19C10 17.8954 9.10457 17 8 17Z" fill="black"/><path d="M15 19C15 17.8954 15.8954 17 17 17C18.1046 17 19 17.8954 19 19C19 20.1046 18.1046 21 17 21C15.8954 21 15 20.1046 15 19Z" fill="black"/><path fill-rule="evenodd" clip-rule="evenodd" d="M18.5 2C19.0523 2 19.5 2.44772 19.5 3V4.5H21C21.5523 4.5 22 4.94772 22 5.5C22 6.05228 21.5523 6.5 21 6.5H19.5V8C19.5 8.55228 19.0523 9 18.5 9C17.9477 9 17.5 8.55228 17.5 8V6.5H16C15.4477 6.5 15 6.05228 15 5.5C15 4.94772 15.4477 4.5 16 4.5H17.5V3C17.5 2.44772 17.9477 2 18.5 2Z" fill="black"/></svg>
