<svg xmlns="http://www.w3.org/2000/svg" viewBox="0 0 24 24" fill="none"><path fill-rule="evenodd" clip-rule="evenodd" d="M2 6.5C2 5.12055 3.11658 4 4.49855 4H19C19.5523 4 20 4.44772 20 5V7H21C21.5523 7 22 7.44772 22 8V19C22 19.5523 21.5523 20 21 20H5C3.34315 20 2 18.6569 2 17C2 13.5 2 10 2 6.5ZM18 7V6H4.49855C4.22367 6 4 6.2226 4 6.5C4 6.77614 4.22386 7 4.5 7H18ZM15 13.5C15 12.6716 15.6716 12 16.5 12C17.3284 12 18 12.6716 18 13.5C18 14.3284 17.3284 15 16.5 15C15.6716 15 15 14.3284 15 13.5Z" fill="black"/></svg>
