<svg xmlns="http://www.w3.org/2000/svg" viewBox="0 0 24 24" fill="none"><path fill-rule="evenodd" clip-rule="evenodd" d="M8 6C8 3.79086 9.79086 2 12 2C14.2091 2 16 3.79086 16 6V7H17.5C17.9936 7 18.4133 7.36011 18.4884 7.84794L19.1656 12.2501C18.6391 12.253 18.1647 12.3344 17.7503 12.4542C17.3282 12.3322 16.8437 12.25 16.3053 12.25C15.0492 12.25 13.7974 12.7561 12.8749 13.7401C11.9375 14.7399 11.499 16.0541 11.499 17.4175C11.499 19.5741 12.7997 21.1311 13.7492 22H4.50001C4.20824 22 3.93102 21.8726 3.74104 21.6511C3.55106 21.4297 3.46727 21.1363 3.51164 20.8479L5.51164 7.84794C5.58669 7.36011 6.00644 7 6.50001 7H8V6ZM14 6V7H10V6C10 4.89543 10.8954 4 12 4C13.1046 4 14 4.89543 14 6Z" fill="black"/><path fill-rule="evenodd" clip-rule="evenodd" d="M15.793 16.4758C15.6536 16.6245 15.499 16.9091 15.499 17.4175C15.499 17.9864 15.9338 18.632 16.66 19.2318C16.9961 19.5095 17.3421 19.7327 17.6137 19.8836C17.6631 19.9111 17.7088 19.9355 17.7503 19.9568C17.7918 19.9355 17.8375 19.9111 17.887 19.8836C18.1586 19.7327 18.5046 19.5095 18.8407 19.2318C19.5668 18.632 20.0017 17.9864 20.0017 17.4175C20.0017 16.9091 19.847 16.6245 19.7077 16.4758C19.5635 16.3221 19.3786 16.25 19.1954 16.25C18.9483 16.25 18.751 16.3236 18.613 16.3988C18.5442 16.4364 18.494 16.4724 18.4654 16.4947C18.4541 16.5036 18.4466 16.51 18.4433 16.5128C18.0566 16.8849 17.4441 16.8849 17.0573 16.5128C17.0541 16.51 17.0466 16.5036 17.0352 16.4947C17.0067 16.4724 16.9565 16.4364 16.8877 16.3988C16.7497 16.3236 16.5524 16.25 16.3053 16.25C16.122 16.25 15.9372 16.3221 15.793 16.4758ZM17.7503 14.5933C17.3964 14.4153 16.9056 14.25 16.3053 14.25C15.5854 14.25 14.8671 14.5392 14.334 15.1079C13.796 15.6818 13.499 16.481 13.499 17.4175C13.499 18.9259 14.5544 20.0866 15.3862 20.7738C15.829 21.1396 16.2789 21.43 16.6424 21.6319C16.8239 21.7328 16.9936 21.8169 17.1389 21.8792C17.2106 21.91 17.2877 21.9402 17.3643 21.9648L17.367 21.9656C17.4136 21.9806 17.5681 22.0301 17.7503 22.0301C17.9326 22.0301 18.0871 21.9806 18.1337 21.9656L18.1364 21.9648C18.213 21.9402 18.2901 21.91 18.3618 21.8792C18.5071 21.8169 18.6768 21.7328 18.8583 21.6319C19.2217 21.43 19.6716 21.1396 20.1145 20.7738C20.9463 20.0866 22.0017 18.9259 22.0017 17.4175C22.0017 16.481 21.7047 15.6818 21.1667 15.1079C20.6335 14.5392 19.9152 14.25 19.1954 14.25C18.595 14.25 18.1043 14.4153 17.7503 14.5933Z" fill="black"/></svg>
