<svg xmlns="http://www.w3.org/2000/svg" viewBox="0 0 24 24" fill="none"><path fill-rule="evenodd" clip-rule="evenodd" d="M8 6C8 3.79086 9.79086 2 12 2C14.2091 2 16 3.79086 16 6V7H17.5C17.9936 7 18.4133 7.36011 18.4884 7.84794L19.2377 12.7185C17.8654 12.5496 16.4322 12.9919 15.3787 14.0454L11.5858 17.8383C11.2107 18.2134 11 18.7221 11 19.2525V22H4.50001C4.20824 22 3.93102 21.8726 3.74104 21.6511C3.55106 21.4297 3.46727 21.1363 3.51164 20.8479L5.51164 7.84794C5.58669 7.36011 6.00644 7 6.50001 7H8V6ZM14 7V6C14 4.89543 13.1046 4 12 4C10.8954 4 10 4.89543 10 6V7H14Z" fill="black"/><path fill-rule="evenodd" clip-rule="evenodd" d="M20.5404 15.4596C19.5056 14.4248 17.8278 14.4248 16.7929 15.4596L13.2929 18.9596C13.1054 19.1472 13 19.4015 13 19.6667V22.0001C13 22.5523 13.4477 23.0001 14 23.0001H16.3333C16.5985 23.0001 16.8529 22.8947 17.0404 22.7072L20.5404 19.2072C21.5753 18.1723 21.5753 16.4945 20.5404 15.4596ZM18.2071 16.8738C18.4609 16.62 18.8724 16.62 19.1262 16.8738C19.38 17.1276 19.38 17.5391 19.1262 17.7929L15.9191 21.0001H15V20.0809L18.2071 16.8738Z" fill="black"/></svg>
