<svg xmlns="http://www.w3.org/2000/svg" viewBox="0 0 24 24" fill="none"><path d="M2 5C2 4.44772 2.44772 4 3 4H21C21.5523 4 22 4.44772 22 5V9H2V5Z" fill="black"/><path d="M2 11V19C2 19.5523 2.44772 20 3 20H16C14.3431 20 13 18.6569 13 17C13 15.3431 14.3431 14 16 14C16 12.3431 17.3431 11 19 11H2Z" fill="black"/><path d="M20 14C20 13.4477 19.5523 13 19 13C18.4477 13 18 13.4477 18 14V16H16C15.4477 16 15 16.4477 15 17C15 17.5523 15.4477 18 16 18H18V20C18 20.5523 18.4477 21 19 21C19.5523 21 20 20.5523 20 20V18H22C22.5523 18 23 17.5523 23 17C23 16.4477 22.5523 16 22 16H20V14Z" fill="black"/></svg>
