<svg xmlns="http://www.w3.org/2000/svg" viewBox="0 0 24 24" fill="none"><path fill-rule="evenodd" clip-rule="evenodd" d="M3 4C3 3.44772 3.44772 3 4 3H20C20.5523 3 21 3.44772 21 4V20C21 20.5523 20.5523 21 20 21H14C13.4477 21 13 20.5523 13 20C13 19.4477 13.4477 19 14 19H19V5H16V9C16 9.55228 15.5523 10 15 10H9C8.44772 10 8 9.55228 8 9V5H5V9C5 9.55228 4.55228 10 4 10C3.44772 10 3 9.55228 3 9V4Z" fill="black"/><path fill-rule="evenodd" clip-rule="evenodd" d="M5.20711 13.2929C5.59763 13.6834 5.59763 14.3166 5.20711 14.7071L4.91421 15H7C8.65685 15 10 16.3431 10 18V20C10 20.5523 9.55228 21 9 21C8.44772 21 8 20.5523 8 20V18C8 17.4477 7.55228 17 7 17H4.91421L5.20711 17.2929C5.59763 17.6834 5.59763 18.3166 5.20711 18.7071C4.81658 19.0976 4.18342 19.0976 3.79289 18.7071L1.79289 16.7071C1.40237 16.3166 1.40237 15.6834 1.79289 15.2929L3.79289 13.2929C4.18342 12.9024 4.81658 12.9024 5.20711 13.2929Z" fill="black"/></svg>
