<svg xmlns="http://www.w3.org/2000/svg" viewBox="0 0 24 24" fill="none"><path fill-rule="evenodd" clip-rule="evenodd" d="M3 4C3 3.44772 3.44772 3 4 3H7C7.55228 3 8 3.44772 8 4V13.126C9.40561 13.4878 10.5122 14.5944 10.874 16H20C20.5523 16 21 16.4477 21 17C21 17.5523 20.5523 18 20 18H10.874C10.4299 19.7252 8.86384 21 7 21C4.79086 21 3 19.2091 3 17C3 15.1362 4.27477 13.5701 6 13.126V5H4C3.44772 5 3 4.55228 3 4ZM7 15C8.10457 15 9 15.8954 9 17C9 18.1046 8.10457 19 7 19C5.89543 19 5 18.1046 5 17C5 15.8954 5.89543 15 7 15Z" fill="black"/><path d="M11 4H14.5V8C14.5 8.55228 14.9477 9 15.5 9C16.0523 9 16.5 8.55228 16.5 8V4H20C20.5523 4 21 4.44772 21 5V13C21 13.5523 20.5523 14 20 14H11C10.4477 14 10 13.5523 10 13V5C10 4.44772 10.4477 4 11 4Z" fill="black"/></svg>
