<svg xmlns="http://www.w3.org/2000/svg" viewBox="0 0 24 24" fill="none"><path d="M9.42848 4.37166C9.63359 3.85887 9.38417 3.2769 8.87139 3.07179C8.35861 2.86668 7.77664 3.11609 7.57152 3.62888L5.82307 8H3.00001C2.70348 8 2.42225 8.1316 2.23226 8.35925C2.04226 8.58691 1.96309 8.88715 2.01614 9.17889L4.01614 20.1789C4.10259 20.6544 4.51672 21 5.00001 21H19C19.4833 21 19.8974 20.6544 19.9839 20.1789L21.9839 9.17889C22.0369 8.88715 21.9578 8.58691 21.7678 8.35925C21.5778 8.1316 21.2965 8 21 8H18.1769L16.4285 3.62888C16.2234 3.11609 15.6414 2.86668 15.1286 3.07179C14.6158 3.2769 14.3664 3.85887 14.5715 4.37166L16.0229 8H7.97714L9.42848 4.37166Z" fill="black"/></svg>
