<svg xmlns="http://www.w3.org/2000/svg" viewBox="0 0 24 24" fill="none"><path fill-rule="evenodd" clip-rule="evenodd" d="M3 4C3 3.44772 3.44772 3 4 3H20C20.5523 3 21 3.44772 21 4V20C21 20.5523 20.5523 21 20 21H13C12.4477 21 12 20.5523 12 20C12 19.4477 12.4477 19 13 19H19V5H16V9C16 9.55228 15.5523 10 15 10H9C8.44772 10 8 9.55228 8 9V5H5V9C5 9.55228 4.55228 10 4 10C3.44772 10 3 9.55228 3 9V4ZM3 14C3 13.4477 3.44772 13 4 13H8C8.55228 13 9 13.4477 9 14C9 14.5523 8.55228 15 8 15H4C3.44772 15 3 14.5523 3 14ZM1 17C1 16.4477 1.44772 16 2 16H6C6.55228 16 7 16.4477 7 17C7 17.5523 6.55228 18 6 18H2C1.44772 18 1 17.5523 1 17ZM3 20C3 19.4477 3.44772 19 4 19H8C8.55228 19 9 19.4477 9 20C9 20.5523 8.55228 21 8 21H4C3.44772 21 3 20.5523 3 20Z" fill="black"/></svg>
