<svg xmlns="http://www.w3.org/2000/svg" viewBox="0 0 24 24" fill="none"><path d="M8 3H4C3.44772 3 3 3.44772 3 4V20C3 20.5523 3.44772 21 4 21H13.7134C13.1287 19.8705 13.31 18.4472 14.2574 17.4999C13.0858 16.3284 13.0858 14.4289 14.2574 13.2573C15.4289 12.0857 17.3284 12.0857 18.5 13.2573C19.1823 12.575 20.1115 12.29 21 12.4025V4C21 3.44772 20.5523 3 20 3H16V8C16 8.55228 15.5523 9 15 9H9C8.44772 9 8 8.55228 8 8V3Z" fill="black"/><path d="M14 3H10V7H14V3Z" fill="black"/><path d="M21.3284 16.0858C21.7189 15.6952 21.7189 15.0621 21.3284 14.6716C20.9379 14.281 20.3047 14.281 19.9142 14.6716L18.5 16.0858L17.0858 14.6716C16.6953 14.281 16.0621 14.281 15.6716 14.6716C15.281 15.0621 15.281 15.6952 15.6716 16.0858L17.0858 17.5L15.6716 18.9142C15.281 19.3047 15.281 19.9379 15.6716 20.3284C16.0621 20.7189 16.6953 20.7189 17.0858 20.3284L18.5 18.9142L19.9142 20.3284C20.3047 20.7189 20.9379 20.7189 21.3284 20.3284C21.7189 19.9379 21.7189 19.3047 21.3284 18.9142L19.9142 17.5L21.3284 16.0858Z" fill="black"/></svg>
