<svg xmlns="http://www.w3.org/2000/svg" viewBox="0 0 24 24" fill="none"><path fill-rule="evenodd" clip-rule="evenodd" d="M8 6C8 3.79086 9.79086 2 12 2C14.2091 2 16 3.79086 16 6V7H17.5C17.9936 7 18.4133 7.36011 18.4884 7.84794L19.1272 12H14C12.8954 12 12 12.8954 12 14V22H4.50001C4.20824 22 3.93102 21.8726 3.74104 21.6511C3.55106 21.4297 3.46727 21.1363 3.51164 20.8479L5.51164 7.84794C5.58669 7.36011 6.00644 7 6.50001 7H8V6ZM14 7V6C14 4.89543 13.1046 4 12 4C10.8954 4 10 4.89543 10 6V7H14Z" fill="black"/><path fill-rule="evenodd" clip-rule="evenodd" d="M15 14C14.4477 14 14 14.4477 14 15V21C14 21.3603 14.1938 21.6927 14.5073 21.8702C14.8208 22.0477 15.2056 22.0429 15.5145 21.8575L17.5 20.6662L19.4855 21.8575C19.7944 22.0429 20.1792 22.0477 20.4927 21.8702C20.8062 21.6927 21 21.3603 21 21V15C21 14.4477 20.5523 14 20 14H15ZM16 19.2338V16H19V19.2338L18.0145 18.6425C17.6978 18.4525 17.3022 18.4525 16.9855 18.6425L16 19.2338Z" fill="black"/></svg>
