<svg xmlns="http://www.w3.org/2000/svg" viewBox="0 0 24 24" fill="none"><path d="M2 2C1.44772 2 1 2.44772 1 3C1 3.55228 1.44772 4 2 4H3.15287L5.01361 15.1644C5.09397 15.6466 5.51116 16 6 16H19.5C19.9888 16 20.406 15.6466 20.4864 15.1644L21.9864 6.1644C22.0347 5.87445 21.953 5.57792 21.763 5.35363C21.573 5.12933 21.294 5 21 5H5.34713L4.98639 2.8356C4.90603 2.35341 4.48884 2 4 2H2Z" fill="black"/><path d="M8 17C6.89543 17 6 17.8954 6 19C6 20.1046 6.89543 21 8 21C9.10457 21 10 20.1046 10 19C10 17.8954 9.10457 17 8 17Z" fill="black"/><path d="M17 17C15.8954 17 15 17.8954 15 19C15 20.1046 15.8954 21 17 21C18.1046 21 19 20.1046 19 19C19 17.8954 18.1046 17 17 17Z" fill="black"/></svg>
