<svg xmlns="http://www.w3.org/2000/svg" viewBox="0 0 24 24" fill="none"><path d="M8 3H4C3.44772 3 3 3.44772 3 4V20C3 20.5523 3.44772 21 4 21H15.1707C15.0602 20.6872 15 20.3506 15 20C13.3431 20 12 18.6569 12 17C12 15.3431 13.3431 14 15 14C15 12.3431 16.3431 11 18 11C19.6569 11 21 12.3431 21 14V4C21 3.44772 20.5523 3 20 3H16V8C16 8.55228 15.5523 9 15 9H9C8.44772 9 8 8.55228 8 8V3Z" fill="black"/><path d="M14 3H10V7H14V3Z" fill="black"/><path d="M19 14C19 13.4477 18.5523 13 18 13C17.4477 13 17 13.4477 17 14V16H15C14.4477 16 14 16.4477 14 17C14 17.5523 14.4477 18 15 18H17V20C17 20.5523 17.4477 21 18 21C18.5523 21 19 20.5523 19 20V18H21C21.5523 18 22 17.5523 22 17C22 16.4477 21.5523 16 21 16H19V14Z" fill="black"/></svg>
