<svg xmlns="http://www.w3.org/2000/svg" viewBox="0 0 24 24" fill="none"><path fill-rule="evenodd" clip-rule="evenodd" d="M3 4C2.44772 4 2 4.44772 2 5V19C2 19.5523 2.44772 20 3 20H21C21.5523 20 22 19.5523 22 19V5C22 4.44772 21.5523 4 21 4H3ZM5 8C5 7.44772 5.44772 7 6 7H18C18.5523 7 19 7.44772 19 8V10H16.5858C16.3206 10 16.0662 10.1054 15.8787 10.2929L14.4645 11.7071C14.2769 11.8946 14.0226 12 13.7574 12H10.2426C9.97742 12 9.72307 11.8946 9.53553 11.7071L8.12132 10.2929C7.93378 10.1054 7.67943 10 7.41421 10H5V8Z" fill="black"/></svg>
