<svg xmlns="http://www.w3.org/2000/svg" viewBox="0 0 24 24" fill="none"><path fill-rule="evenodd" clip-rule="evenodd" d="M5 2C4.44772 2 4 2.44772 4 3V20.25C4 20.6065 4.18976 20.936 4.49807 21.1149C4.80639 21.2938 5.18664 21.2951 5.49614 21.1182L8.5 19.4018L11.5039 21.1182C11.8113 21.2939 12.1887 21.2939 12.4961 21.1182L15.5 19.4018L18.5039 21.1182C18.8134 21.2951 19.1936 21.2938 19.5019 21.1149C19.8102 20.936 20 20.6065 20 20.25V3C20 2.44772 19.5523 2 19 2H5ZM9 14C9 13.4477 9.44772 13 10 13H14C14.5523 13 15 13.4477 15 14C15 14.5523 14.5523 15 14 15H10C9.44772 15 9 14.5523 9 14ZM14.4571 8.25711C14.8476 7.86658 14.8476 7.23342 14.4571 6.84289C14.0666 6.45237 13.4334 6.45237 13.0429 6.84289L11.3 8.58579L10.9571 8.24289C10.5666 7.85237 9.93342 7.85237 9.54289 8.24289C9.15237 8.63342 9.15237 9.26658 9.54289 9.65711L10.5929 10.7071C10.7804 10.8946 11.0348 11 11.3 11C11.5652 11 11.8196 10.8946 12.0071 10.7071L14.4571 8.25711Z" fill="black"/></svg>
