<svg xmlns="http://www.w3.org/2000/svg" viewBox="0 0 24 24" fill="none"><path fill-rule="evenodd" clip-rule="evenodd" d="M8 6C8 3.79086 9.79086 2 12 2C14.2091 2 16 3.79086 16 6V7H17.5C17.9936 7 18.4133 7.36011 18.4884 7.84794L19.3286 13.3095C18.9281 13.1114 18.4771 13 18 13C16.3431 13 15 14.3431 15 16C13.3431 16 12 17.3431 12 19C12 20.6569 13.3431 22 15 22H4.50001C4.20824 22 3.93102 21.8726 3.74104 21.6511C3.55106 21.4297 3.46727 21.1363 3.51164 20.8479L5.51164 7.84794C5.58669 7.36011 6.00644 7 6.50001 7H8V6ZM14 7V6C14 4.89543 13.1046 4 12 4C10.8954 4 10 4.89543 10 6V7H14Z" fill="black"/><path d="M19 16C19 15.4477 18.5523 15 18 15C17.4477 15 17 15.4477 17 16V18H15C14.4477 18 14 18.4477 14 19C14 19.5523 14.4477 20 15 20H17V22C17 22.5523 17.4477 23 18 23C18.5523 23 19 22.5523 19 22V20H21C21.5523 20 22 19.5523 22 19C22 18.4477 21.5523 18 21 18H19V16Z" fill="black"/></svg>
