<svg xmlns="http://www.w3.org/2000/svg" viewBox="0 0 24 24" fill="none"><path d="M4 3C3.44772 3 3 3.44772 3 4V20C3 20.5523 3.44772 21 4 21H12C12.5523 21 13 20.5523 13 20C13 19.4477 12.5523 19 12 19H5V5H8V9C8 9.55228 8.44772 10 9 10H15C15.5523 10 16 9.55228 16 9V5H19V9C19 9.55228 19.4477 10 20 10C20.5523 10 21 9.55228 21 9V4C21 3.44772 20.5523 3 20 3H4Z" fill="black"/><path d="M21.0706 13.4144C19.5085 11.8523 16.9759 11.8523 15.4138 13.4144C13.8517 14.9765 13.8517 17.5091 15.4138 19.0712L17.5351 21.1925C17.9256 21.5831 18.5588 21.5831 18.9493 21.1925L21.0706 19.0712C22.6327 17.5091 22.6327 14.9765 21.0706 13.4144Z" fill="black"/></svg>
