<svg xmlns="http://www.w3.org/2000/svg" viewBox="0 0 24 24" fill="none"><path d="M6 4.66667C6 3.19391 7.19391 2 8.66667 2C10.007 2 11.2051 2.60849 12 3.56429C12.7949 2.60849 13.993 2 15.3333 2C16.8061 2 18 3.19391 18 4.66667C18 5.52576 17.75 6.32647 17.3188 7H20C20.5523 7 21 7.44772 21 8V10C21 10.5523 20.5523 11 20 11H13V7H13.6667C14.9553 7 16 5.95533 16 4.66667C16 4.29848 15.7015 4 15.3333 4C14.0447 4 13 5.04467 13 6.33333V7H11V6.33333C11 5.04467 9.95533 4 8.66667 4C8.29848 4 8 4.29848 8 4.66667C8 5.95533 9.04467 7 10.3333 7H11V11H4C3.44772 11 3 10.5523 3 10V8C3 7.44772 3.44772 7 4 7H6.68121C6.25 6.32647 6 5.52576 6 4.66667Z" fill="black"/><path d="M13 13H20V20C20 20.5523 19.5523 21 19 21H13V13Z" fill="black"/><path d="M11 13H4V20C4 20.5523 4.44772 21 5 21H11V13Z" fill="black"/></svg>
