<svg xmlns="http://www.w3.org/2000/svg" viewBox="0 0 24 24" fill="none"><path fill-rule="evenodd" clip-rule="evenodd" d="M4.00195 3.93762C4.03489 3.41059 4.47194 3 5 3H19C19.5281 3 19.9651 3.41059 19.9981 3.93762L20.5297 12.4438C20.0954 12.315 19.6457 12.25 19.1954 12.25C18.6569 12.25 18.1725 12.3322 17.7503 12.4542C17.3282 12.3322 16.8437 12.25 16.3053 12.25C15.0492 12.25 13.7974 12.7561 12.8749 13.7401C11.9375 14.7399 11.499 16.0541 11.499 17.4175C11.499 18.9077 12.1201 20.1116 12.8171 21H4C3.72395 21 3.46018 20.8859 3.27117 20.6847C3.08217 20.4835 2.98473 20.2131 3.00195 19.9376L4.00195 3.93762ZM10 8C10 7.44772 9.55228 7 9 7C8.44772 7 8 7.44772 8 8C8 10.2091 9.79086 12 12 12C14.2091 12 16 10.2091 16 8C16 7.44772 15.5523 7 15 7C14.4477 7 14 7.44772 14 8C14 9.10457 13.1046 10 12 10C10.8954 10 10 9.10457 10 8Z" fill="black"/><path fill-rule="evenodd" clip-rule="evenodd" d="M16.3053 14.25C16.9056 14.25 17.3964 14.4153 17.7503 14.5933C18.1043 14.4153 18.595 14.25 19.1954 14.25C19.9152 14.25 20.6335 14.5392 21.1667 15.1079C21.7047 15.6818 22.0017 16.481 22.0017 17.4175C22.0017 18.9259 20.9463 20.0866 20.1145 20.7738C19.6716 21.1396 19.2217 21.43 18.8583 21.6319C18.6768 21.7328 18.5071 21.8169 18.3618 21.8792C18.2901 21.91 18.213 21.9402 18.1364 21.9648L18.1337 21.9656C18.0871 21.9806 17.9326 22.0301 17.7503 22.0301C17.5681 22.0301 17.4136 21.9806 17.367 21.9656L17.3643 21.9648C17.2877 21.9402 17.2106 21.91 17.1389 21.8792C16.9936 21.8169 16.8239 21.7328 16.6424 21.6319C16.2789 21.43 15.829 21.1396 15.3862 20.7738C14.5544 20.0866 13.499 18.9259 13.499 17.4175C13.499 16.481 13.796 15.6818 14.334 15.1079C14.8671 14.5392 15.5854 14.25 16.3053 14.25ZM15.499 17.4175C15.499 16.9091 15.6537 16.6245 15.793 16.4758C15.9372 16.3221 16.122 16.25 16.3053 16.25C16.5524 16.25 16.7497 16.3236 16.8877 16.3988C16.9565 16.4364 17.0067 16.4724 17.0352 16.4947C17.0466 16.5036 17.0541 16.51 17.0573 16.5128C17.4441 16.8849 18.0566 16.8849 18.4433 16.5128C18.4466 16.51 18.4541 16.5036 18.4654 16.4947C18.494 16.4724 18.5442 16.4364 18.613 16.3988C18.751 16.3236 18.9483 16.25 19.1954 16.25C19.3786 16.25 19.5635 16.3221 19.7077 16.4758C19.847 16.6245 20.0017 16.9091 20.0017 17.4175C20.0017 17.9864 19.5668 18.632 18.8407 19.2318C18.5046 19.5095 18.1586 19.7327 17.887 19.8836C17.8375 19.9111 17.7918 19.9355 17.7503 19.9568C17.7088 19.9355 17.6631 19.9111 17.6137 19.8836C17.3421 19.7327 16.9961 19.5095 16.66 19.2318C15.9338 18.632 15.499 17.9864 15.499 17.4175Z" fill="black"/></svg>
