<svg xmlns="http://www.w3.org/2000/svg" viewBox="0 0 24 24" fill="none"><path fill-rule="evenodd" clip-rule="evenodd" d="M8 6C8 3.79086 9.79086 2 12 2C14.2091 2 16 3.79086 16 6V7H17.5C17.9936 7 18.4133 7.36011 18.4884 7.84794L19.019 11.2968C18.4131 11.1147 17.788 11.0164 17.1626 11.0019C15.3229 10.9593 13.4585 11.642 12.0502 13.0502C10.642 14.4585 9.95924 16.323 10.0019 18.1628C10.033 19.506 10.4509 20.8476 11.2544 22H4.50001C4.20824 22 3.93102 21.8726 3.74104 21.6511C3.55106 21.4297 3.46727 21.1363 3.51164 20.8479L5.51164 7.84794C5.58669 7.36011 6.00644 7 6.50001 7H8V6ZM14 7V6C14 4.89543 13.1046 4 12 4C10.8954 4 10 4.89543 10 6V7H14Z" fill="black"/><path fill-rule="evenodd" clip-rule="evenodd" d="M17.1163 13.0013C15.8 12.9709 14.4703 13.4586 13.4645 14.4645C12.4586 15.4703 11.9708 16.8001 12.0013 18.1164C12.0301 19.3556 12.5181 20.5892 13.4645 21.5355C14.4703 22.5414 15.8 23.0291 17.1163 22.9987C18.3555 22.97 19.5891 22.4819 20.5355 21.5355C21.4819 20.5892 21.9699 19.3556 21.9986 18.1164C22.0292 16.8001 21.5414 15.4703 20.5355 14.4645C19.5891 13.5181 18.3555 13.03 17.1163 13.0013ZM19.7079 19.2937L15.7063 15.2921C16.1353 15.0871 16.603 14.99 17.07 15.0008C17.8156 15.0181 18.553 15.3104 19.1213 15.8787C19.725 16.4823 20.0176 17.2774 19.9992 18.0701C19.9895 18.4902 19.8924 18.9076 19.7079 19.2937ZM14.2921 16.7063L18.2937 20.7079C17.9076 20.8924 17.4901 20.9895 17.07 20.9992C16.2773 21.0175 15.4823 20.725 14.8787 20.1213C14.3104 19.553 14.0181 18.8157 14.0008 18.0701C13.99 17.6031 14.0871 17.1353 14.2921 16.7063Z" fill="black"/></svg>
