<svg xmlns="http://www.w3.org/2000/svg" viewBox="0 0 24 24" fill="none"><path d="M16.797 3.44153C17.2435 2.91521 18.0322 2.85061 18.5587 3.297C19.085 3.74351 19.1496 4.53225 18.7032 5.05872L14.1309 10.4503H16.7501C17.4404 10.4503 18.0001 11.01 18.0001 11.7003C18 12.3906 17.4404 12.9503 16.7501 12.9503H13.2501V14.5001H16.7501C17.4404 14.5001 18.0001 15.0598 18.0001 15.7501C18 16.4404 17.4404 17.0001 16.7501 17.0001H13.2501V19.7501C13.25 20.4404 12.6904 21.0001 12.0001 21.0001C11.3098 21.0001 10.7501 20.4404 10.7501 19.7501V17.0001H7.25009C6.55983 17 6.00015 16.4404 6.00009 15.7501C6.00009 15.0598 6.55979 14.5002 7.25009 14.5001H10.7501V12.9503H7.25009C6.55983 12.9502 6.00015 12.3906 6.00009 11.7003C6.00009 11.01 6.55979 10.4504 7.25009 10.4503H9.86923L5.29696 5.05872L5.21884 4.95715C4.86 4.43512 4.94814 3.71565 5.44149 3.297C5.93526 2.87832 6.65985 2.90906 7.1163 3.34876L7.20321 3.44153L12.0001 9.09778L16.797 3.44153Z" fill="black"/></svg>
