<svg xmlns="http://www.w3.org/2000/svg" viewBox="0 0 24 24" fill="none"><path fill-rule="evenodd" clip-rule="evenodd" d="M8 6C8 3.79086 9.79086 2 12 2C14.2091 2 16 3.79086 16 6V7H17.5C17.9936 7 18.4133 7.36011 18.4884 7.84794L20.4884 20.8479C20.5327 21.1363 20.449 21.4297 20.259 21.6511C20.069 21.8726 19.7918 22 19.5 22H4.50001C4.20824 22 3.93102 21.8726 3.74104 21.6511C3.55106 21.4297 3.46727 21.1363 3.51164 20.8479L5.51164 7.84794C5.58669 7.36011 6.00644 7 6.50001 7H8V6ZM10 7H14V6C14 4.89543 13.1046 4 12 4C10.8954 4 10 4.89543 10 6V7Z" fill="black"/></svg>
