<svg xmlns="http://www.w3.org/2000/svg" viewBox="0 0 24 24" fill="none"><path fill-rule="evenodd" clip-rule="evenodd" d="M1.5 5.5C1.5 4.94772 1.94772 4.5 2.5 4.5H21.5C22.0523 4.5 22.5 4.94772 22.5 5.5V18.5C22.5 19.0523 22.0523 19.5 21.5 19.5H2.5C1.94772 19.5 1.5 19.0523 1.5 18.5V5.5ZM3.5 17.5H6C6 16.1193 4.88071 15 3.5 15V17.5ZM20.5 17.5V15C19.1193 15 18 16.1193 18 17.5H20.5ZM20.5 9C19.1193 9 18 7.88071 18 6.5H20.5V9ZM3.5 6.5H6C6 7.88071 4.88071 9 3.5 9V6.5ZM12 9.5C10.6193 9.5 9.5 10.6193 9.5 12C9.5 13.3807 10.6193 14.5 12 14.5C13.3807 14.5 14.5 13.3807 14.5 12C14.5 10.6193 13.3807 9.5 12 9.5Z" fill="black"/></svg>
