<svg xmlns="http://www.w3.org/2000/svg" viewBox="0 0 24 24" fill="none"><path fill-rule="evenodd" clip-rule="evenodd" d="M10.5 5C10.5 3.34315 11.8431 2 13.5 2C15.1569 2 16.5 3.34315 16.5 5C16.5 6.65685 15.1569 8 13.5 8C11.8431 8 10.5 6.65685 10.5 5ZM13.5 4C12.9477 4 12.5 4.44772 12.5 5C12.5 5.55228 12.9477 6 13.5 6C14.0523 6 14.5 5.55228 14.5 5C14.5 4.44772 14.0523 4 13.5 4Z" fill="black"/><path d="M13.0158 10.5486C13.1874 10.0236 12.901 9.45895 12.376 9.28733C11.8511 9.11571 11.2864 9.40213 11.1148 9.92707L10.18 12.7862L10.1736 12.8067C9.54049 14.894 11.1025 17 13.2837 17H17.7192L17.0299 19.7575C16.8959 20.2933 17.2217 20.8362 17.7575 20.9701C18.2933 21.1041 18.8362 20.7783 18.9702 20.2425L19.9702 16.2425C20.0448 15.9438 19.9777 15.6273 19.7882 15.3846C19.5987 15.1419 19.308 15 19 15H13.2837C12.4478 15 11.8484 14.1959 12.0848 13.396L12.2143 13H16C16.5523 13 17 12.5523 17 12C17 11.4477 16.5523 11 16 11H12.8682L13.0158 10.5486Z" fill="black"/><path d="M10 22C12.1729 22 14.076 20.8449 15.1288 19.1154L15.1577 18.9999H13.2837C9.76024 18.9999 7.237 15.5979 8.25965 12.2261L8.26901 12.1953L8.95721 10.0903C6.14058 10.5839 4 13.0419 4 16C4 19.3137 6.68629 22 10 22Z" fill="black"/></svg>
