<svg xmlns="http://www.w3.org/2000/svg" viewBox="0 0 24 24" fill="none"><path d="M9 2.25204C5.54955 3.14012 3 6.27232 3 10C3 11.8604 3.63624 13.5749 4.70231 14.934C6.00986 16.6009 6.00618 18.1805 6.00073 20.5259C6.00037 20.6805 6 20.8385 6 21C6 21.5523 6.44772 22 7 22H14C14.5523 22 15 21.5523 15 21V19H18C18.5523 19 19 18.5523 19 18V14.0662L21.0145 12.8575C21.249 12.7168 21.4156 12.4862 21.4756 12.2194C21.5356 11.9526 21.4837 11.6728 21.3321 11.4453C21.0215 10.9794 20.7314 10.5657 20.4598 10.1785C19.6556 9.0315 19.0143 8.11694 18.4868 6.76847C17.2219 3.5352 14.1621 2 11 2V6.17071C12.1652 6.58254 13 7.69378 13 9V10C13 11.6569 11.6569 13 10 13C8.34315 13 7 11.6569 7 10V9C7 7.69378 7.83481 6.58254 9 6.17071V2.25204Z" fill="black"/></svg>
