<svg xmlns="http://www.w3.org/2000/svg" viewBox="0 0 24 24" fill="none"><path fill-rule="evenodd" clip-rule="evenodd" d="M2 5C2 4.44772 2.44772 4 3 4H21C21.5523 4 22 4.44772 22 5V19C22 19.5523 21.5523 20 21 20H3C2.44772 20 2 19.5523 2 19V5ZM17.75 9.5C18.4404 9.5 19 8.94036 19 8.25C19 7.55964 18.4404 7 17.75 7C17.0596 7 16.5 7.55964 16.5 8.25C16.5 8.94036 17.0596 9.5 17.75 9.5ZM14.5 11C14.5 12.3807 13.3807 13.5 12 13.5C10.6193 13.5 9.5 12.3807 9.5 11C9.5 9.61929 10.6193 8.5 12 8.5C13.3807 8.5 14.5 9.61929 14.5 11ZM7.80931 17.0613C8.38962 16.0888 9.78652 15 12 15C14.2135 15 15.6104 16.0888 16.1907 17.0613C16.4737 17.5356 16.0523 18 15.5 18H8.5C7.94772 18 7.52631 17.5356 7.80931 17.0613Z" fill="black"/></svg>
