<svg xmlns="http://www.w3.org/2000/svg" viewBox="0 0 24 24" fill="none"><path d="M12 1C10.3431 1 9 2.34315 9 4C9 5.65685 10.3431 7 12 7C13.6569 7 15 5.65685 15 4C15 2.34315 13.6569 1 12 1Z" fill="black"/><path d="M9.00001 8C8.54114 8 8.14116 8.3123 8.02987 8.75746L5.52987 18.7575C5.45518 19.0562 5.5223 19.3727 5.7118 19.6154C5.90131 19.8581 6.19207 20 6.50001 20H8.00001V22C8.00001 22.5523 8.44772 23 9.00001 23H15C15.5523 23 16 22.5523 16 22V20H17.5C17.8079 20 18.0987 19.8581 18.2882 19.6154C18.4777 19.3727 18.5448 19.0562 18.4702 18.7575L15.9702 8.75746C15.8589 8.3123 15.4589 8 15 8H9.00001Z" fill="black"/></svg>
