<svg xmlns="http://www.w3.org/2000/svg" viewBox="0 0 24 24" fill="none"><path d="M12 2C9.51472 2 7.5 4.01472 7.5 6.5C7.5 8.98528 9.51472 11 12 11C14.4853 11 16.5 8.98528 16.5 6.5C16.5 4.01472 14.4853 2 12 2Z" fill="black"/><path d="M3.50439 19.9064C3.91665 15.5211 7.24222 12 12 12C13.4338 12 14.7376 12.3198 15.8707 12.8867C15.3325 13.4289 15 14.1756 15 15C13.3431 15 12 16.3431 12 18C12 19.6569 13.3431 21 15 21H4.5C4.21851 21 3.95005 20.8814 3.76055 20.6732C3.57104 20.465 3.47805 20.1867 3.50439 19.9064Z" fill="black"/><path d="M19 15C19 14.4477 18.5523 14 18 14C17.4477 14 17 14.4477 17 15V17H15C14.4477 17 14 17.4477 14 18C14 18.5523 14.4477 19 15 19H17V21C17 21.5523 17.4477 22 18 22C18.5523 22 19 21.5523 19 21V19H21C21.5523 19 22 18.5523 22 18C22 17.4477 21.5523 17 21 17H19V15Z" fill="black"/></svg>
