<svg xmlns="http://www.w3.org/2000/svg" viewBox="0 0 24 24" fill="none"><path d="M12 12C15.3137 12 18 14.6863 18 18V19C18 19.5523 17.5523 20 17 20H7C6.44772 20 6 19.5523 6 19V18C6 14.6863 8.68629 12 12 12Z" fill="black"/><path d="M5.75684 13C4.65841 14.3698 4 16.1076 4 18V19H1C0.447715 19 0 18.5523 0 18C0 15.2386 2.23858 13 5 13H5.75684Z" fill="black"/><path d="M19 13C21.7614 13 24 15.2386 24 18C24 18.5523 23.5523 19 23 19H20V18C20 16.1076 19.3416 14.3698 18.2432 13H19Z" fill="black"/><path d="M4.5 6.25C6.01878 6.25 7.25 7.48122 7.25 9C7.25 10.5188 6.01878 11.75 4.5 11.75C2.98122 11.75 1.75 10.5188 1.75 9C1.75 7.48122 2.98122 6.25 4.5 6.25Z" fill="black"/><path d="M19.5 6.25C21.0188 6.25 22.25 7.48122 22.25 9C22.25 10.5188 21.0188 11.75 19.5 11.75C17.9812 11.75 16.75 10.5188 16.75 9C16.75 7.48122 17.9812 6.25 19.5 6.25Z" fill="black"/><path d="M12 3.5C13.933 3.5 15.5 5.067 15.5 7C15.5 8.933 13.933 10.5 12 10.5C10.067 10.5 8.5 8.933 8.5 7C8.5 5.067 10.067 3.5 12 3.5Z" fill="black"/></svg>
