<svg xmlns="http://www.w3.org/2000/svg" viewBox="0 0 24 24" fill="none"><path d="M5.95898 13.5625C7.67899 12.4551 9.8844 12.3258 12.0312 13.4238C14.2014 12.4492 16.3732 12.4818 18.082 13.5303C19.9176 14.6568 20.9803 16.8081 21 19.4932C21.002 19.7596 20.8976 20.016 20.71 20.2051C20.5222 20.3942 20.2665 20.501 20 20.501H17.5C17.2032 20.501 16.9214 20.3686 16.7314 20.1406C16.3194 19.6464 15.6121 19.519 15.0537 19.8389L14.9971 19.8711C14.6853 20.0498 14.3018 20.0477 13.9922 19.8652L13.0166 19.2891C12.3896 18.9192 11.6104 18.9192 10.9834 19.2891L10.0078 19.8652C9.69824 20.0477 9.31472 20.0498 9.00293 19.8711L8.94629 19.8389C8.38795 19.519 7.68059 19.6464 7.26855 20.1406C7.07856 20.3686 6.79679 20.501 6.5 20.501H4C3.44783 20.501 3.00019 20.0531 3 19.501C3 16.919 4.13337 14.738 5.95898 13.5625Z" fill="black"/><path fill-rule="evenodd" clip-rule="evenodd" d="M17 3C19.2091 3 21 4.79086 21 7C21 9.20914 19.2091 11 17 11C15.0175 11 13.3724 9.5576 13.0557 7.66504C12.375 7.40906 11.624 7.40884 10.9434 7.66504C10.6265 9.55752 8.98247 11 7 11C4.79086 11 3 9.20914 3 7C3 4.79086 4.79086 3 7 3C8.7278 3 10.1994 4.0956 10.7588 5.62988C11.5727 5.42131 12.4263 5.42147 13.2402 5.62988C13.7995 4.09544 15.2721 3 17 3ZM7 5C5.89543 5 5 5.89543 5 7C5 8.10457 5.89543 9 7 9C8.10457 9 9 8.10457 9 7C9 5.89543 8.10457 5 7 5ZM17 5C15.8954 5 15 5.89543 15 7C15 8.10457 15.8954 9 17 9C18.1046 9 19 8.10457 19 7C19 5.89543 18.1046 5 17 5Z" fill="black"/></svg>
