<svg xmlns="http://www.w3.org/2000/svg" viewBox="0 0 24 24" fill="none"><path d="M12 2C9.51472 2 7.5 4.01472 7.5 6.5C7.5 8.98528 9.51472 11 12 11C14.4853 11 16.5 8.98528 16.5 6.5C16.5 4.01472 14.4853 2 12 2Z" fill="black"/><path d="M12 12C7.24222 12 3.91665 15.5211 3.50439 19.9064C3.47805 20.1867 3.57104 20.465 3.76055 20.6732C3.95005 20.8814 4.21851 21 4.5 21H19.5C19.7815 21 20.05 20.8814 20.2395 20.6732C20.429 20.465 20.522 20.1867 20.4956 19.9064C20.0834 15.5211 16.7578 12 12 12Z" fill="black"/></svg>
