<svg xmlns="http://www.w3.org/2000/svg" viewBox="0 0 24 24" fill="none"><path d="M9 2C6.51472 2 4.5 4.01472 4.5 6.5C4.5 8.98528 6.51472 11 9 11C11.4853 11 13.5 8.98528 13.5 6.5C13.5 4.01472 11.4853 2 9 2Z" fill="black"/><path d="M15 2C14.4477 2 14 2.44772 14 3C14 3.55228 14.4477 4 15 4C16.3807 4 17.5 5.11929 17.5 6.5C17.5 7.88071 16.3807 9 15 9C14.4477 9 14 9.44772 14 10C14 10.5523 14.4477 11 15 11C17.4853 11 19.5 8.98528 19.5 6.5C19.5 4.01472 17.4853 2 15 2Z" fill="black"/><path d="M9 12C4.15904 12 1.78814e-07 15.4605 0 20C0 20.2652 0.105357 20.5196 0.292893 20.7071C0.48043 20.8946 0.734784 21 1 21H17C17.5523 21 18 20.5523 18 20C18 15.4605 13.841 12 9 12Z" fill="black"/><path d="M18.3339 12.5662C17.8133 12.3818 17.2418 12.6543 17.0574 13.1749C16.873 13.6955 17.1455 14.267 17.6661 14.4514C19.9149 15.2479 21.5034 16.98 21.9021 19H20.5C19.9477 19 19.5 19.4477 19.5 20C19.5 20.5522 19.9477 21 20.5 21H23C23.5523 21 24 20.5522 24 20C24 16.5596 21.585 13.7177 18.3339 12.5662Z" fill="black"/></svg>
