<svg xmlns="http://www.w3.org/2000/svg" viewBox="0 0 24 24" fill="none"><path d="M12 2C9.51472 2 7.5 4.01472 7.5 6.5C7.5 8.98528 9.51472 11 12 11C14.4853 11 16.5 8.98528 16.5 6.5C16.5 4.01472 14.4853 2 12 2Z" fill="black"/><path d="M3.50439 19.9064C3.91665 15.5211 7.24222 12 12 12C13.4272 12 14.7255 12.3168 15.8549 12.8788C15.0951 12.8847 14.3371 13.1776 13.7574 13.7574C12.5858 14.9289 12.5858 16.8284 13.7574 18C12.9454 18.8119 12.6962 19.9734 13.0096 21H4.5C4.21851 21 3.95005 20.8814 3.76055 20.6732C3.57104 20.465 3.47805 20.1867 3.50439 19.9064Z" fill="black"/><path d="M16.7071 15.2929C16.3166 14.9024 15.6834 14.9024 15.2929 15.2929C14.9024 15.6834 14.9024 16.3166 15.2929 16.7071L16.5858 18L15.2929 19.2929C14.9024 19.6834 14.9024 20.3166 15.2929 20.7071C15.6834 21.0976 16.3166 21.0976 16.7071 20.7071L18 19.4142L19.2929 20.7071C19.6834 21.0976 20.3166 21.0976 20.7071 20.7071C21.0976 20.3166 21.0976 19.6834 20.7071 19.2929L19.4142 18L20.7071 16.7071C21.0976 16.3166 21.0976 15.6834 20.7071 15.2929C20.3166 14.9024 19.6834 14.9024 19.2929 15.2929L18 16.5858L16.7071 15.2929Z" fill="black"/></svg>
