<svg xmlns="http://www.w3.org/2000/svg" viewBox="0 0 24 24" fill="none"><path d="M3.5 14.3387C4.89849 13.2382 6.68001 12.8215 8.3623 13.0691L8.69727 13.1277L8.79688 13.1531C9.28096 13.303 9.58272 13.798 9.48047 14.3055C9.37807 14.8131 8.9078 15.1529 8.40332 15.1033L8.30273 15.0877L8.06934 15.0477C6.90026 14.8757 5.67861 15.1694 4.7373 15.91C3.75422 16.6835 3.00004 18.0065 3 19.9998C3 20.5521 2.55228 20.9998 2 20.9998C1.44772 20.9998 1 20.5521 1 19.9998C1.00004 17.457 1.98743 15.5291 3.5 14.3387Z" fill="black"/><path fill-rule="evenodd" clip-rule="evenodd" d="M22 11.9998C22.3137 11.9998 22.6099 12.1468 22.7988 12.3973C22.9642 12.6165 23.031 12.8932 22.9873 13.1609L22.9619 13.2742L20.9619 20.2742C20.8393 20.7035 20.4465 20.9998 20 20.9998H7C6.44772 20.9998 6 20.5521 6 19.9998C6.00009 19.4476 6.44777 18.9998 7 18.9998H10.2451L12.0381 12.7254L12.0967 12.5711C12.26 12.2267 12.6092 11.9998 13 11.9998H22Z" fill="black"/><path fill-rule="evenodd" clip-rule="evenodd" d="M9.56152 1.10234C9.89671 1.12541 10.1912 1.33329 10.3252 1.6414V1.63945L10.3281 1.64629C10.3313 1.65318 10.3364 1.66494 10.3438 1.68047C10.3591 1.7129 10.3837 1.76254 10.415 1.82207C10.4789 1.94344 10.5678 2.09847 10.6729 2.2459C10.7821 2.39918 10.885 2.50991 10.9668 2.57304C10.9728 2.57764 10.9794 2.58022 10.9844 2.58379C10.9865 2.58294 10.989 2.58276 10.9912 2.58183C11.0481 2.55786 11.1158 2.52104 11.1875 2.47636C11.2574 2.4328 11.3198 2.38869 11.3643 2.35527C11.3861 2.33888 11.4031 2.32518 11.4131 2.31718C11.4172 2.31393 11.4203 2.31167 11.4219 2.31035C11.757 2.02937 12.2412 2.03219 12.5723 2.30547L12.6367 2.36308L12.9102 2.63652C13.9306 3.65694 14.0454 5.273 13.1797 6.42754L12.9004 6.79863V6.9998C12.9004 9.706 10.7062 11.9002 8 11.9002C5.37836 11.9001 3.23758 9.84083 3.10645 7.25175L3.10059 6.9998C3.10055 6.17628 3.23341 5.13043 3.70996 4.25664C4.21818 3.32502 5.12259 2.59945 6.5 2.59941C6.53111 2.59766 6.9889 2.57611 7.78223 2.30547L8.16992 2.16289C8.17173 2.1618 8.20982 2.14258 8.28027 2.08086C8.35072 2.01909 8.42595 1.93877 8.49902 1.85039C8.57081 1.76355 8.63209 1.68006 8.6748 1.61797C8.69574 1.58752 8.71177 1.56304 8.72168 1.54765C8.72658 1.54003 8.72972 1.53381 8.73145 1.53105L8.73242 1.5291C8.90744 1.24315 9.22698 1.07945 9.56152 1.10234ZM8 7.9998C8 8.27594 7.77614 8.4998 7.5 8.4998H5.28809C5.81659 9.45347 6.8323 10.0994 8 10.0994C9.16778 10.0994 10.1841 9.45354 10.7129 8.4998H9.5C9.22386 8.4998 9 8.27594 9 7.9998V7.4998H8V7.9998ZM9.37598 3.50859C9.21654 3.6369 9.03358 3.7565 8.83008 3.83672L8.36523 4.00859C7.33313 4.3609 6.67145 4.40019 6.5 4.40019C5.87775 4.40022 5.53182 4.67488 5.29004 5.11797C5.15249 5.37013 5.05558 5.67415 4.99219 5.9998H11.2549C11.2636 5.98674 11.2708 5.9724 11.2803 5.95976L11.7393 5.34746C12.0006 4.99898 12.0265 4.53974 11.8311 4.17168C11.616 4.27671 11.344 4.3811 11.0527 4.39824H10.8682C10.4489 4.37342 10.107 4.18372 9.86719 3.99883C9.67588 3.85128 9.51297 3.67656 9.37598 3.50859Z" fill="black"/><path d="M16.3271 4.25957C16.7358 3.88821 17.3688 3.91842 17.7402 4.32695L17.7412 4.3289L17.7432 4.32988C17.7432 4.32988 17.7455 4.33302 17.7471 4.33476C17.7504 4.33844 17.7547 4.34369 17.7598 4.34941C17.7702 4.36117 17.7847 4.37745 17.8018 4.39726C17.8358 4.43688 17.8826 4.49276 17.9375 4.56133C18.0464 4.69747 18.1922 4.89107 18.3398 5.11992C18.4027 5.21739 18.4735 5.332 18.5439 5.45976C18.9913 5.25728 19.4879 5.10759 19.9824 5.10039C19.9858 5.10034 19.9893 5.09943 19.9922 5.09941H19.999C20.5511 5.09941 20.9997 5.54738 21 6.09941C21 6.6517 20.5523 7.09843 20 7.09843L20.001 7.09941H20.0146C20.0064 7.09991 19.9863 7.1014 19.9561 7.10527C19.8941 7.11323 19.7913 7.13098 19.6621 7.16972C19.4055 7.24671 19.0424 7.40687 18.6689 7.74297C18.3754 8.00715 17.9535 8.07355 17.5928 7.91289C17.2323 7.75211 17 7.39452 17 6.9998C16.9999 6.85826 16.8946 6.56844 16.6602 6.20488C16.5581 6.04669 16.4535 5.90843 16.375 5.81035C16.3363 5.76199 16.3048 5.72397 16.2842 5.7C16.2741 5.68823 16.2669 5.67933 16.2627 5.67461L16.2607 5.67168L16.2588 5.6707C15.8889 5.26199 15.9191 4.63056 16.3271 4.25957Z" fill="black"/></svg>
