<svg xmlns="http://www.w3.org/2000/svg" viewBox="0 0 24 24" fill="none"><path fill-rule="evenodd" clip-rule="evenodd" d="M4 3C4 2.44772 4.44772 2 5 2H19C19.5523 2 20 2.44772 20 3V18C20 18.5523 19.5523 19 19 19H6V20H19C19.5523 20 20 20.4477 20 21C20 21.5523 19.5523 22 19 22H5C4.44772 22 4 21.5523 4 21C4 15.0035 4 9.00338 4 3ZM12.0001 7C11.0336 7 10.2501 7.7835 10.2501 8.75C10.2501 9.7165 11.0336 10.5 12.0001 10.5C12.9666 10.5 13.7501 9.7165 13.7501 8.75C13.7501 7.7835 12.9666 7 12.0001 7ZM12.0001 11C11.1063 11 10.4298 11.1877 9.93183 11.5125C9.42363 11.844 9.18466 12.2643 9.08018 12.5703C8.79417 13.4079 9.51247 14 10.1106 14H13.8896C14.4876 14 15.2059 13.4079 14.9199 12.5703C14.8154 12.2643 14.5765 11.844 14.0683 11.5125C13.5703 11.1877 12.8938 11 12.0001 11Z" fill="black"/></svg>
