<svg xmlns="http://www.w3.org/2000/svg" viewBox="0 0 24 24" fill="none"><path d="M11.5 4C11.5 3.44772 11.0523 3 10.5 3C9.94772 3 9.5 3.44772 9.5 4H2C1.44772 4 1 4.44772 1 5C1 5.55228 1.44772 6 2 6V16C1.44772 16 1 16.4477 1 17C1 17.5523 1.44772 18 2 18H9C9.55228 18 10 17.5523 10 17C10 16.4477 9.55228 16 9 16H4V6H17C17 6.55228 17.4477 7 18 7C18.5523 7 19 6.55228 19 6C19.5523 6 20 5.55228 20 5C20 4.44772 19.5523 4 19 4H11.5Z" fill="black"/><path d="M17 9C15.3431 9 14 10.3431 14 12C14 13.6569 15.3431 15 17 15C18.6569 15 20 13.6569 20 12C20 10.3431 18.6569 9 17 9Z" fill="black"/><path d="M17 15.5C14.2516 15.5 12.253 17.4268 12.005 19.9002C11.9768 20.1814 12.0689 20.4614 12.2585 20.6709C12.448 20.8804 12.7174 21 13 21H21C21.2826 21 21.552 20.8804 21.7415 20.6709C21.9311 20.4614 22.0232 20.1814 21.995 19.9002C21.747 17.4268 19.7484 15.5 17 15.5Z" fill="black"/></svg>
