<svg xmlns="http://www.w3.org/2000/svg" viewBox="0 0 24 24" fill="none"><path d="M3.5 7C3.5 4.79086 5.29086 3 7.5 3C9.70914 3 11.5 4.79086 11.5 7C11.5 9.20914 9.70914 11 7.5 11C5.29086 11 3.5 9.20914 3.5 7Z" fill="black"/><path d="M12.5 7C12.5 4.79086 14.2909 3 16.5 3C18.7091 3 20.5 4.79086 20.5 7C20.5 9.20914 18.7091 11 16.5 11C14.2909 11 12.5 9.20914 12.5 7Z" fill="black"/><path d="M7.5 12C10.9707 12 14.1399 14.8568 14.4975 19.9297C14.517 20.2064 14.4207 20.4788 14.2315 20.6818C14.0424 20.8847 13.7774 21 13.5 21H1.5C1.22257 21 0.957608 20.8847 0.768457 20.6818C0.579306 20.4788 0.48297 20.2064 0.502478 19.9297C0.860069 14.8568 4.02933 12 7.5 12Z" fill="black"/><path d="M22.4995 21H16.3279C16.4638 20.6159 16.5213 20.2041 16.4921 19.789C16.2851 16.8531 15.2265 14.4102 13.6289 12.6991C14.5204 12.2382 15.4974 12 16.4995 12C19.9702 12 23.1394 14.8568 23.497 19.9297C23.5378 20.5082 23.0795 21 22.4995 21Z" fill="black"/></svg>
