<svg xmlns="http://www.w3.org/2000/svg" viewBox="0 0 24 24" fill="none"><path d="M15.8612 2.06802C16.376 2.26819 16.631 2.84774 16.4308 3.36247L9.43078 21.3625C9.23061 21.8772 8.65106 22.1322 8.13633 21.932C7.6216 21.7319 7.3666 21.1523 7.56677 20.6376L14.5668 2.63758C14.7669 2.12285 15.3465 1.86785 15.8612 2.06802Z" fill="black"/><path d="M10.5512 10.2042C9.6764 9.16886 8.40473 8.50002 6.85157 8.50002C3.99276 8.50002 2.08761 10.766 1.85539 13.4126C1.83088 13.692 1.92479 13.9688 2.1142 14.1755C2.30362 14.3823 2.57115 14.5 2.85157 14.5H8.88064L10.5512 10.2042Z" fill="black"/><path d="M3.99878 5.00002C3.99878 3.34317 5.34193 2.00002 6.99878 2.00002C8.65564 2.00002 9.99878 3.34317 9.99878 5.00002C9.99878 6.65688 8.65564 8.00002 6.99878 8.00002C5.34193 8.00002 3.99878 6.65688 3.99878 5.00002Z" fill="black"/><path d="M13.9988 12.5C13.9988 10.8432 15.3419 9.50002 16.9988 9.50002C18.6556 9.50002 19.9988 10.8432 19.9988 12.5C19.9988 14.1569 18.6556 15.5 16.9988 15.5C15.3419 15.5 13.9988 14.1569 13.9988 12.5Z" fill="black"/><path d="M11.8554 20.9126C12.0876 18.266 13.9928 16 16.8516 16C19.7104 16 21.6155 18.266 21.8477 20.9126C21.8722 21.192 21.7783 21.4688 21.5889 21.6755C21.3995 21.8823 21.132 22 20.8516 22H12.8516C12.5712 22 12.3036 21.8823 12.1142 21.6755C11.9248 21.4688 11.8309 21.192 11.8554 20.9126Z" fill="black"/></svg>
