<svg xmlns="http://www.w3.org/2000/svg" viewBox="0 0 24 24" fill="none"><path d="M4 7C4 4.79086 5.79086 3 8 3C10.2091 3 12 4.79086 12 7C12 9.20914 10.2091 11 8 11C5.79086 11 4 9.20914 4 7Z" fill="black"/><path d="M13.5 7.5C13.5 5.567 15.067 4 17 4C18.933 4 20.5 5.567 20.5 7.5C20.5 9.433 18.933 11 17 11C15.067 11 13.5 9.433 13.5 7.5Z" fill="black"/><path d="M17 20C17 19.9299 16.9976 19.8595 16.9926 19.789C16.7887 16.8959 15.7569 14.4789 14.1953 12.7704C15.051 12.264 16.0111 12 17.0027 12C20.0683 12 22.8325 14.5235 23.1431 18.9297C23.1626 19.2064 23.0663 19.4788 22.8771 19.6818C22.688 19.8847 22.423 20 22.1456 20H17Z" fill="black"/><path d="M14.9975 19.9297C14.6399 14.8568 11.4707 12 8 12C4.52933 12 1.36007 14.8568 1.00248 19.9297C0.98297 20.2064 1.07931 20.4788 1.26846 20.6818C1.45761 20.8847 1.72257 21 2 21H14C14.2774 21 14.5424 20.8847 14.7315 20.6818C14.9207 20.4788 15.017 20.2064 14.9975 19.9297Z" fill="black"/></svg>
