<svg xmlns="http://www.w3.org/2000/svg" viewBox="0 0 24 24" fill="none"><path fill-rule="evenodd" clip-rule="evenodd" d="M19.1499 13C19.3935 13.0002 19.6054 13.166 19.6645 13.4023L19.8511 14.1484C19.9238 14.4398 20.2235 14.6126 20.5122 14.5303L21.2524 14.3193C21.4868 14.2523 21.737 14.3534 21.8589 14.5645L22.5063 15.6855C22.6283 15.8966 22.5907 16.1635 22.4155 16.333L21.8628 16.8672C21.6469 17.0759 21.647 17.422 21.8628 17.6309L22.4165 18.167C22.5917 18.3365 22.6292 18.6034 22.5073 18.8145L21.8599 19.9355C21.7379 20.1467 21.4878 20.2478 21.2534 20.1807L20.5132 19.9688C20.2243 19.886 19.9239 20.0591 19.8511 20.3506L19.6645 21.0977C19.6054 21.3339 19.3935 21.4998 19.1499 21.5H17.854C17.6103 21.5 17.3975 21.334 17.3384 21.0977L17.1519 20.3516C17.0789 20.0603 16.7794 19.8872 16.4907 19.9697L15.7515 20.1807C15.5171 20.2477 15.2669 20.1466 15.145 19.9355L14.4976 18.8145C14.3757 18.6034 14.4133 18.3365 14.5884 18.167L15.1411 17.6309C15.3569 17.422 15.357 17.0759 15.1411 16.8672L14.5894 16.333C14.4142 16.1635 14.3766 15.8966 14.4985 15.6855L15.146 14.5645C15.2679 14.3534 15.5181 14.2524 15.7524 14.3193L16.4907 14.5303C16.7793 14.6126 17.0788 14.4394 17.1519 14.1484L17.3384 13.4023C17.3976 13.166 17.6103 13 17.854 13H19.1499ZM18.4995 15.75C17.6714 15.7504 16.9995 16.4218 16.9995 17.25C16.9995 18.0782 17.6714 18.7496 18.4995 18.75C19.3279 18.75 19.9995 18.0784 19.9995 17.25C19.9995 16.4216 19.3279 15.75 18.4995 15.75Z" fill="black"/><path d="M11.9995 12C13.0351 12 14.0035 12.1664 14.8882 12.4727C13.3509 13.5048 12.3394 15.2594 12.3394 17.25C12.3394 18.6834 12.8653 19.9931 13.7329 21H4.49951C4.21819 20.9999 3.94965 20.8809 3.76025 20.6729C3.57095 20.4647 3.47806 20.1864 3.50439 19.9062C3.9167 15.5211 7.24203 12.0002 11.9995 12Z" fill="black"/><path d="M11.9995 2C14.4848 2.00001 16.4995 4.01472 16.4995 6.5C16.4995 8.98528 14.4848 11 11.9995 11C9.51444 10.9998 7.49951 8.98513 7.49951 6.5C7.49951 4.01487 9.51444 2.00025 11.9995 2Z" fill="black"/></svg>
