<svg xmlns="http://www.w3.org/2000/svg" viewBox="0 0 24 24" fill="none"><path d="M5.5 6.5C5.5 4.01472 7.51472 2 10 2C12.4853 2 14.5 4.01472 14.5 6.5C14.5 8.98528 12.4853 11 10 11C7.51472 11 5.5 8.98528 5.5 6.5Z" fill="black"/><path d="M1.50439 19.9064C1.91665 15.5211 5.24222 12 10 12C14.7578 12 18.0834 15.5211 18.4956 19.9064C18.522 20.1867 18.429 20.465 18.2395 20.6732C18.05 20.8814 17.7815 21 17.5 21H2.5C2.21851 21 1.95005 20.8814 1.76055 20.6732C1.57104 20.465 1.47805 20.1867 1.50439 19.9064Z" fill="black"/><path d="M20 8C20 7.44772 19.5523 7 19 7C18.4477 7 18 7.44772 18 8V10H16C15.4477 10 15 10.4477 15 11C15 11.5523 15.4477 12 16 12H18V14C18 14.5523 18.4477 15 19 15C19.5523 15 20 14.5523 20 14V12H22C22.5523 12 23 11.5523 23 11C23 10.4477 22.5523 10 22 10H20V8Z" fill="black"/></svg>
