<svg xmlns="http://www.w3.org/2000/svg" viewBox="0 0 24 24" fill="none"><path d="M14.5 22C14.2239 22 14 21.7761 14 21.5V19.9142C14 19.649 14.1054 19.3946 14.2929 19.2071L19.2929 14.2071C19.6834 13.8166 20.3166 13.8166 20.7071 14.2071L21.7929 15.2929C22.1834 15.6834 22.1834 16.3166 21.7929 16.7071L16.7929 21.7071C16.6054 21.8946 16.351 22 16.0858 22H14.5Z" fill="black"/><path d="M17.0572 13.6142C15.6852 12.6004 13.9647 12 12 12C7.24222 12 3.91665 15.5211 3.50439 19.9064C3.47805 20.1867 3.57104 20.465 3.76055 20.6732C3.95005 20.8814 4.21851 21 4.5 21H12V19.9141C12 19.1184 12.3161 18.3554 12.8787 17.7927L17.0572 13.6142Z" fill="black"/><path d="M12 2C9.51472 2 7.5 4.01472 7.5 6.5C7.5 8.98528 9.51472 11 12 11C14.4853 11 16.5 8.98528 16.5 6.5C16.5 4.01472 14.4853 2 12 2Z" fill="black"/></svg>
