<svg xmlns="http://www.w3.org/2000/svg" viewBox="0 0 24 24" fill="none"><path fill-rule="evenodd" clip-rule="evenodd" d="M3 2C2.44772 2 2 2.44772 2 3V17C2 17.5523 2.44772 18 3 18H6V21C6 21.5523 6.44772 22 7 22H21C21.5523 22 22 21.5523 22 21V7C22 6.44772 21.5523 6 21 6H18V3C18 2.44772 17.5523 2 17 2H3ZM16 6V4H4V16H6V7C6 6.44772 6.44772 6 7 6H16ZM14 14.5C15.3807 14.5 16.5 13.3807 16.5 12C16.5 10.6193 15.3807 9.5 14 9.5C12.6193 9.5 11.5 10.6193 11.5 12C11.5 13.3807 12.6193 14.5 14 14.5ZM9.75164 20C9.39442 20 9.15451 19.634 9.31884 19.3168C11.6102 14.8944 16.3898 14.8944 18.6812 19.3168C18.8455 19.634 18.6056 20 18.2484 20H9.75164Z" fill="black"/></svg>
