<svg xmlns="http://www.w3.org/2000/svg" viewBox="0 0 24 24" fill="none"><path d="M3 8.5C3 4.91015 5.91015 2 9.5 2C11.8418 2 13.8927 3.2383 15.0364 5.09297C15.3486 5.03193 15.6709 5 16 5C18.7614 5 21 7.23858 21 10C21 12.7614 18.7614 15 16 15H9.5C5.91015 15 3 12.0899 3 8.5Z" fill="black"/><path d="M6.94743 17.1056C7.44141 17.3526 7.64164 17.9532 7.39465 18.4472L6.39465 20.4472C6.14766 20.9412 5.54698 21.1414 5.05301 20.8944C4.55903 20.6474 4.3588 20.0468 4.60579 19.5528L5.60579 17.5528C5.85278 17.0588 6.45345 16.8586 6.94743 17.1056Z" fill="black"/><path d="M11.9474 17.1056C12.4414 17.3526 12.6416 17.9532 12.3946 18.4472L11.3946 20.4472C11.1477 20.9412 10.547 21.1414 10.053 20.8944C9.55903 20.6474 9.3588 20.0468 9.60579 19.5528L10.6058 17.5528C10.8528 17.0588 11.4535 16.8586 11.9474 17.1056Z" fill="black"/><path d="M16.9474 17.1056C17.4414 17.3526 17.6416 17.9532 17.3946 18.4472L16.3946 20.4472C16.1477 20.9412 15.547 21.1414 15.053 20.8944C14.559 20.6474 14.3588 20.0468 14.6058 19.5528L15.6058 17.5528C15.8528 17.0588 16.4535 16.8586 16.9474 17.1056Z" fill="black"/></svg>
