<svg xmlns="http://www.w3.org/2000/svg" viewBox="0 0 24 24" fill="none"><path fill-rule="evenodd" clip-rule="evenodd" d="M15 4C15 3.44772 15.4477 3 16 3H19C19.5523 3 20 3.44772 20 4C20 4.55228 19.5523 5 19 5H16C15.4477 5 15 4.55228 15 4ZM15 8C15 7.44772 15.4477 7 16 7H19C19.5523 7 20 7.44772 20 8C20 8.55228 19.5523 9 19 9H16C15.4477 9 15 8.55228 15 8ZM15 12C15 11.4477 15.4477 11 16 11H19C19.5523 11 20 11.4477 20 12C20 12.5523 19.5523 13 19 13H16C15.4477 13 15 12.5523 15 12Z" fill="black"/><path d="M11 3C11 2.44772 10.5523 2 10 2H8C7.44772 2 7 2.44772 7 3V12.416C5.2341 13.1876 4 14.9497 4 17C4 19.7614 6.23858 22 9 22C11.7614 22 14 19.7614 14 17C14 14.9497 12.7659 13.1876 11 12.416V3Z" fill="black"/></svg>
