<svg xmlns="http://www.w3.org/2000/svg" viewBox="0 0 24 24" fill="none"><path d="M9 2C8.62123 2 8.27497 2.214 8.10557 2.55279L3.10557 12.5528C2.95058 12.8628 2.96714 13.2309 3.14935 13.5257C3.33156 13.8205 3.65342 14 4 14H7.71922L6.02986 20.7575C5.92251 21.1869 6.11021 21.6358 6.49128 21.8609C6.87235 22.0861 7.3561 22.034 7.68045 21.7328L21.6805 8.73279C21.9818 8.45299 22.0811 8.01724 21.9308 7.63448C21.7805 7.25173 21.4112 7 21 7H16.7662L18.8575 3.5145C19.0429 3.20557 19.0477 2.82081 18.8702 2.5073C18.6927 2.19379 18.3603 2 18 2H9Z" fill="black"/></svg>
