<svg xmlns="http://www.w3.org/2000/svg" viewBox="0 0 24 24" fill="none"><path d="M11.3822 2.21368C11.7448 1.92877 12.2552 1.92877 12.6178 2.21368L12.6206 2.21587L12.6259 2.22007L12.644 2.23446C12.6593 2.2467 12.6811 2.26419 12.7089 2.28677C12.7645 2.33193 12.8443 2.39747 12.9448 2.48206C13.1457 2.65116 13.4298 2.89679 13.7695 3.20816C14.4475 3.82968 15.3536 4.7193 16.2625 5.79052C18.0389 7.88416 20 10.8717 20 14C20 18.4183 16.4183 22 12 22C7.58172 22 4 18.4183 4 14C4 10.8717 5.96107 7.88416 7.73749 5.79052C8.64641 4.7193 9.55251 3.82968 10.2305 3.20816C10.5702 2.89679 10.8543 2.65116 11.0552 2.48206C11.1557 2.39747 11.2355 2.33193 11.2911 2.28677C11.3189 2.26419 11.3407 2.2467 11.356 2.23446L11.3741 2.22007L11.3794 2.21587L11.3822 2.21368Z" fill="black"/></svg>
