<svg xmlns="http://www.w3.org/2000/svg" viewBox="0 0 24 24" fill="none"><g clip-path="url(#clip0_9885_24877)"><path d="M15.9762 1.21698C16.076 0.767884 15.8565 0.308638 15.4444 0.104207C15.0322 -0.100225 14.5338 0.00291136 14.2366 0.354111L3.23663 13.3541C2.98511 13.6514 2.92901 14.0676 3.09284 14.4208C3.25667 14.774 3.61064 15.0001 4.00001 15.0001H9.7534L8.02383 22.7831C7.92403 23.2322 8.14351 23.6915 8.55565 23.8959C8.96779 24.1003 9.46623 23.9972 9.7634 23.646L20.7634 10.646C21.0149 10.3488 21.071 9.93254 20.9072 9.57931C20.7434 9.22607 20.3894 9.00005 20 9.00005H14.2466L15.9762 1.21698Z" fill="black"/></g><defs><clipPath id="clip0_9885_24877"><rect width="24" height="24" fill="white"/></clipPath></defs></svg>
