<svg xmlns="http://www.w3.org/2000/svg" viewBox="0 0 24 24" fill="none"><path d="M22.1022 17.8595C22.6681 17.0492 23 16.0634 23 15C23 12.5603 21.2527 10.5287 18.9412 10.0884C18.4945 6.65314 15.5571 4 12 4C10.9039 4 9.86684 4.25189 8.94348 4.70081L22.1022 17.8595Z" fill="black"/><path d="M3.70711 2.29289C3.31658 1.90237 2.68342 1.90237 2.29289 2.29289C1.90237 2.68342 1.90237 3.31658 2.29289 3.70711L5.99193 7.40614C5.84595 7.64973 5.71431 7.90303 5.5982 8.16486C2.96039 8.79653 1 11.1686 1 14C1 17.3137 3.68629 20 7 20H18C18.1874 20 18.3727 19.9896 18.5552 19.9694L20.2929 21.7071C20.6834 22.0976 21.3166 22.0976 21.7071 21.7071C22.0976 21.3166 22.0976 20.6834 21.7071 20.2929L3.70711 2.29289Z" fill="black"/></svg>
