<svg xmlns="http://www.w3.org/2000/svg" viewBox="0 0 24 24" fill="none"><path fill-rule="evenodd" clip-rule="evenodd" d="M4 3C3.44772 3 3 3.44772 3 4V18C3 18.5523 3.44772 19 4 19H6V20C6 20.5523 6.44772 21 7 21C7.55228 21 8 20.5523 8 20V19H16V20C16 20.5523 16.4477 21 17 21C17.5523 21 18 20.5523 18 20V19H20C20.5523 19 21 18.5523 21 18V4C21 3.44772 20.5523 3 20 3H4ZM16 11C16 13.2091 14.2091 15 12 15C10.1362 15 8.57006 13.7252 8.12602 12H11C11.5523 12 12 11.5523 12 11C12 10.4477 11.5523 10 11 10H8.12602C8.57006 8.27477 10.1362 7 12 7C14.2091 7 16 8.79086 16 11Z" fill="black"/></svg>
