<svg xmlns="http://www.w3.org/2000/svg" viewBox="0 0 24 24" fill="none"><path fill-rule="evenodd" clip-rule="evenodd" d="M3 4C3 3.44772 3.44772 3 4 3H20C20.5523 3 21 3.44772 21 4V18C21 18.3788 20.786 18.725 20.4472 18.8944L12.4472 22.8944C12.1657 23.0352 11.8343 23.0352 11.5528 22.8944L3.55279 18.8944C3.214 18.725 3 18.3788 3 18V4ZM15.2071 10.9571C15.5976 10.5666 15.5976 9.93342 15.2071 9.54289C14.8166 9.15237 14.1834 9.15237 13.7929 9.54289L11 12.3358L10.2071 11.5429C9.81658 11.1524 9.18342 11.1524 8.79289 11.5429C8.40237 11.9334 8.40237 12.5666 8.79289 12.9571L10.2929 14.4571C10.4804 14.6446 10.7348 14.75 11 14.75C11.2652 14.75 11.5196 14.6446 11.7071 14.4571L15.2071 10.9571Z" fill="black"/></svg>
