<svg xmlns="http://www.w3.org/2000/svg" viewBox="0 0 24 24" fill="none"><path fill-rule="evenodd" clip-rule="evenodd" d="M22 8.5C22 12.0899 19.0899 15 15.5 15C14.7504 15 14.0304 14.8731 13.3604 14.6396L11.2929 16.7071C11.1054 16.8946 10.851 17 10.5858 17H9V18.5858C9 18.851 8.89464 19.1054 8.70711 19.2929L7.29289 20.7071C7.10536 20.8946 6.851 21 6.58579 21H4C3.44772 21 3 20.5523 3 20V17.4142C3 17.149 3.10536 16.8946 3.29289 16.7071L9.36037 10.6396C9.12689 9.96959 9 9.24962 9 8.5C9 4.91015 11.9101 2 15.5 2C19.0899 2 22 4.91015 22 8.5ZM17 8.5C17 9.32843 16.3284 10 15.5 10C14.6716 10 14 9.32843 14 8.5C14 7.67157 14.6716 7 15.5 7C16.3284 7 17 7.67157 17 8.5Z" fill="black"/></svg>
