<svg xmlns="http://www.w3.org/2000/svg" viewBox="0 0 24 24" fill="none"><path d="M13 3C13 2.44772 12.5523 2 12 2C11.4477 2 11 2.44772 11 3V4.04933C6.68988 4.47702 3.18638 7.64089 2.24746 11.7787C2.18016 12.0753 2.25147 12.3863 2.44123 12.624C2.63098 12.8616 2.91856 13 3.22267 13H20.7766C21.0807 13 21.3683 12.8616 21.5581 12.624C21.7478 12.3863 21.8191 12.0753 21.7518 11.7787C20.813 7.64112 17.3098 4.47737 13 4.0494V3Z" fill="black"/><path d="M13.0002 16C13.0002 15.4477 12.5525 15 12.0002 15C11.4479 15 11.0002 15.4477 11.0002 16V19.0767C11.0002 19.5866 10.5868 20 10.0769 20C9.6368 20 9.25787 19.6894 9.17155 19.2578L8.98077 18.3039C8.87246 17.7623 8.34564 17.4111 7.80408 17.5194C7.26252 17.6277 6.9113 18.1546 7.01961 18.6961L7.21039 19.65C7.48368 21.0164 8.68343 22 10.0769 22C11.6914 22 13.0002 20.6912 13.0002 19.0767V16Z" fill="black"/></svg>
