<svg xmlns="http://www.w3.org/2000/svg" viewBox="0 0 24 24" fill="none"><path d="M12.3251 2.05431C12.1144 1.9819 11.8856 1.9819 11.6749 2.05431L3.67492 4.80431C3.27112 4.94312 3 5.32301 3 5.75V11.9123C3 14.7191 4.14891 16.7418 5.8125 18.3168C7.38493 19.8054 9.44484 20.9162 11.3681 21.9533L11.5252 22.038C11.8215 22.1979 12.1785 22.1979 12.4748 22.038L12.6319 21.9533C14.5552 20.9162 16.6151 19.8054 18.1875 18.3168C19.8511 16.7418 21 14.7191 21 11.9123V5.75C21 5.32301 20.7289 4.94312 20.3251 4.80431L12.3251 2.05431Z" fill="black"/></svg>
