<svg xmlns="http://www.w3.org/2000/svg" viewBox="0 0 24 24" fill="none"><path d="M3 4C3 3.44772 3.44772 3 4 3H10.25C10.8023 3 11.25 3.44772 11.25 4V7C11.25 7.55228 10.8023 8 10.25 8H4C3.44772 8 3 7.55228 3 7V4Z" fill="black"/><path d="M8.5 10.5C8.5 9.94772 8.94772 9.5 9.5 9.5H14.5C15.0523 9.5 15.5 9.94772 15.5 10.5V13.5C15.5 14.0523 15.0523 14.5 14.5 14.5H9.5C8.94772 14.5 8.5 14.0523 8.5 13.5V10.5Z" fill="black"/><path d="M3 10.5C3 9.94772 3.44772 9.5 4 9.5H5.75C6.30228 9.5 6.75 9.94772 6.75 10.5V13.5C6.75 14.0523 6.30228 14.5 5.75 14.5H4C3.44772 14.5 3 14.0523 3 13.5V10.5Z" fill="black"/><path d="M17.2 10.5C17.2 9.94772 17.6477 9.5 18.2 9.5H19.95C20.5022 9.5 20.95 9.94772 20.95 10.5V13.5C20.95 14.0523 20.5022 14.5 19.95 14.5H18.2C17.6477 14.5 17.2 14.0523 17.2 13.5V10.5Z" fill="black"/><path d="M12.75 4C12.75 3.44772 13.1977 3 13.75 3H20C20.5523 3 21 3.44772 21 4V7C21 7.55228 20.5523 8 20 8H13.75C13.1977 8 12.75 7.55228 12.75 7V4Z" fill="black"/><path d="M3 17C3 16.4477 3.44772 16 4 16H10.25C10.8023 16 11.25 16.4477 11.25 17V20C11.25 20.5523 10.8023 21 10.25 21H4C3.44772 21 3 20.5523 3 20V17Z" fill="black"/><path d="M12.75 17C12.75 16.4477 13.1977 16 13.75 16H20C20.5523 16 21 16.4477 21 17V20C21 20.5523 20.5523 21 20 21H13.75C13.1977 21 12.75 20.5523 12.75 20V17Z" fill="black"/></svg>
