<svg xmlns="http://www.w3.org/2000/svg" viewBox="0 0 24 24" fill="none"><path fill-rule="evenodd" clip-rule="evenodd" d="M11.6749 2.05431C11.8856 1.9819 12.1144 1.9819 12.3251 2.05431L20.3251 4.80431C20.7289 4.94312 21 5.32301 21 5.75V11.9123C21 14.7191 19.8511 16.7418 18.1875 18.3168C16.6151 19.8054 14.5552 20.9162 12.6319 21.9533L12.4748 22.038C12.1785 22.1979 11.8215 22.1979 11.5252 22.038L11.3681 21.9533C9.44484 20.9162 7.38493 19.8054 5.8125 18.3168C4.14891 16.7418 3 14.7191 3 11.9123V5.75C3 5.32301 3.27112 4.94312 3.67492 4.80431L11.6749 2.05431ZM12 8C10.6193 8 9.5 9.11929 9.5 10.5C9.5 11.5252 10.117 12.4062 11 12.792V15C11 15.5523 11.4477 16 12 16C12.5523 16 13 15.5523 13 15V12.792C13.883 12.4062 14.5 11.5252 14.5 10.5C14.5 9.11929 13.3807 8 12 8Z" fill="black"/></svg>
