<svg xmlns="http://www.w3.org/2000/svg" viewBox="0 0 24 24" fill="none"><path fill-rule="evenodd" clip-rule="evenodd" d="M11.5992 1.58384C11.8547 1.47205 12.1453 1.47205 12.4008 1.58384L20.4008 5.08384C20.7648 5.24309 21 5.6027 21 6V13C21 17.9706 16.9706 22 12 22C7.02944 22 3 17.9706 3 13V6C3 5.6027 3.23519 5.24309 3.59918 5.08384L11.5992 1.58384ZM15.7071 10.7071C16.0976 10.3166 16.0976 9.68342 15.7071 9.29289C15.3166 8.90237 14.6834 8.90237 14.2929 9.29289L11 12.5858L9.70711 11.2929C9.31658 10.9024 8.68342 10.9024 8.29289 11.2929C7.90237 11.6834 7.90237 12.3166 8.29289 12.7071L10.2929 14.7071C10.6834 15.0976 11.3166 15.0976 11.7071 14.7071L15.7071 10.7071Z" fill="black"/></svg>
