<svg xmlns="http://www.w3.org/2000/svg" viewBox="0 0 24 24" fill="none"><path d="M18.889 18.7918L21.3753 20.7809C21.8066 21.1259 22.4359 21.056 22.7809 20.6247C23.1259 20.1934 23.056 19.5641 22.6247 19.2191L2.62473 3.21914C2.19347 2.87413 1.56418 2.94405 1.21917 3.37531C0.874158 3.80657 0.94408 4.43587 1.37534 4.78088L3 6.0806V13C3 17.9706 7.02944 22 12 22C14.7646 22 17.2381 20.7535 18.889 18.7918Z" fill="black"/><path d="M21 13C21 13.741 20.9105 14.461 20.7416 15.1499L6.54695 3.79419L11.5992 1.58384C11.8547 1.47205 12.1453 1.47205 12.4008 1.58384L20.4008 5.08384C20.7648 5.24309 21 5.6027 21 6V13Z" fill="black"/></svg>
