<svg xmlns="http://www.w3.org/2000/svg" viewBox="0 0 24 24" fill="none"><path d="M13.0001 3C13.0001 2.44772 12.5524 2 12.0001 2C11.4478 2 11.0001 2.44772 11.0001 3V4H10.0001C9.84488 4 9.69176 4.03615 9.55291 4.10557L7.76405 5H3.00012C2.44784 5 2.00012 5.44772 2.00012 6C2.00012 6.55228 2.44784 7 3.00012 7H4.1127L1.55144 14.6838C1.40026 15.1373 1.59124 15.6344 2.00718 15.8701C3.15837 16.5223 4.30796 16.8825 5.50012 16.8825C6.69228 16.8825 7.84187 16.5223 8.99306 15.8701C9.40901 15.6344 9.59998 15.1373 9.44881 14.6838L6.88755 7H8.00012C8.15537 7 8.30848 6.96385 8.44734 6.89443L10.2362 6H11.0001V19H7.00012C6.44784 19 6.00012 19.4477 6.00012 20C6.00012 20.5523 6.44784 21 7.00012 21H17.0001C17.5524 21 18.0001 20.5523 18.0001 20C18.0001 19.4477 17.5524 19 17.0001 19H13.0001V6H13.7641L15.5529 6.89443C15.6918 6.96385 15.8449 7 16.0001 7H17.1127L14.5514 14.6838C14.4003 15.1373 14.5912 15.6344 15.0072 15.8701C16.1584 16.5223 17.308 16.8825 18.5001 16.8825C19.6923 16.8825 20.8419 16.5223 21.9931 15.8701C22.409 15.6344 22.6 15.1373 22.4488 14.6838L19.8875 7H21.0001C21.5524 7 22.0001 6.55228 22.0001 6C22.0001 5.44772 21.5524 5 21.0001 5H16.2362L14.4473 4.10557C14.3085 4.03615 14.1554 4 14.0001 4H13.0001V3Z" fill="black"/></svg>
