<svg xmlns="http://www.w3.org/2000/svg" viewBox="0 0 24 24" fill="none"><path fill-rule="evenodd" clip-rule="evenodd" d="M11.6749 2.05431C11.8856 1.9819 12.1144 1.9819 12.3251 2.05431L20.3251 4.80431C20.7289 4.94312 21 5.32301 21 5.75V11.9123C21 14.7191 19.8511 16.7418 18.1875 18.3168C16.6151 19.8054 14.5552 20.9162 12.6319 21.9533L12.4748 22.038C12.1785 22.1979 11.8215 22.1979 11.5252 22.038L11.3681 21.9533C9.44484 20.9162 7.38493 19.8054 5.8125 18.3168C4.14891 16.7418 3 14.7191 3 11.9123V5.75C3 5.32301 3.27112 4.94312 3.67492 4.80431L11.6749 2.05431ZM14.7071 14.2071C14.3166 14.5976 13.6834 14.5976 13.2929 14.2071L12 12.9142L10.7071 14.2071C10.3166 14.5976 9.68342 14.5976 9.29289 14.2071C8.90237 13.8166 8.90237 13.1834 9.29289 12.7929L10.5858 11.5L9.29289 10.2071C8.90237 9.81658 8.90237 9.18342 9.29289 8.79289C9.68342 8.40237 10.3166 8.40237 10.7071 8.79289L12 10.0858L13.2929 8.79289C13.6834 8.40237 14.3166 8.40237 14.7071 8.79289C15.0976 9.18342 15.0976 9.81658 14.7071 10.2071L13.4142 11.5L14.7071 12.7929C15.0976 13.1834 15.0976 13.8166 14.7071 14.2071Z" fill="black"/></svg>
