<svg xmlns="http://www.w3.org/2000/svg" viewBox="0 0 24 24" fill="none"><path fill-rule="evenodd" clip-rule="evenodd" d="M12 2C9.23858 2 7 4.23858 7 7V9H5C4.44772 9 4 9.44772 4 10V21C4 21.5523 4.44772 22 5 22H19C19.5523 22 20 21.5523 20 21V10C20 9.44772 19.5523 9 19 9H17V7C17 4.23858 14.7614 2 12 2ZM15 9V7C15 5.34315 13.6569 4 12 4C10.3431 4 9 5.34315 9 7V9H15ZM12 13C12.5523 13 13 13.4477 13 14V17C13 17.5523 12.5523 18 12 18C11.4477 18 11 17.5523 11 17V14C11 13.4477 11.4477 13 12 13Z" fill="black"/></svg>
