<svg xmlns="http://www.w3.org/2000/svg" viewBox="0 0 24 24" fill="none"><path fill-rule="evenodd" clip-rule="evenodd" d="M12 2C7.58172 2 4 5.58172 4 10V21C4 21.3361 4.16888 21.6498 4.44951 21.8348C4.73014 22.0199 5.08496 22.0516 5.39392 21.9191L8.5 20.588L11.6061 21.9191C11.8576 22.027 12.1424 22.027 12.3939 21.9191L15.5 20.588L18.6061 21.9191C18.915 22.0516 19.2699 22.0199 19.5505 21.8348C19.8311 21.6498 20 21.3361 20 21V10C20 5.58172 16.4183 2 12 2ZM11 10.5C11 11.3284 10.3284 12 9.5 12C8.67157 12 8 11.3284 8 10.5C8 9.67157 8.67157 9 9.5 9C10.3284 9 11 9.67157 11 10.5ZM14.5 12C15.3284 12 16 11.3284 16 10.5C16 9.67157 15.3284 9 14.5 9C13.6716 9 13 9.67157 13 10.5C13 11.3284 13.6716 12 14.5 12Z" fill="black"/></svg>
