<svg xmlns="http://www.w3.org/2000/svg" viewBox="0 0 24 24" fill="none"><path d="M12 2C9.51472 2 7.5 4.01472 7.5 6.5C7.5 8.98528 9.51472 11 12 11C14.4853 11 16.5 8.98528 16.5 6.5C16.5 4.01472 14.4853 2 12 2Z" fill="black"/><path d="M12 12C7.24222 12 3.91665 15.5211 3.50439 19.9064C3.47805 20.1867 3.57104 20.465 3.76055 20.6732C3.95005 20.8814 4.21851 21 4.5 21H14.75V17.7993C13.6804 16.8836 13 15.5224 13 14C13 13.3279 13.1326 12.6869 13.373 12.1015C12.9304 12.0347 12.4723 12 12 12Z" fill="black"/><path fill-rule="evenodd" clip-rule="evenodd" d="M18 11C16.3431 11 15 12.3431 15 14C15 15.2107 15.7172 16.254 16.75 16.728V20.2597C16.75 20.4116 16.819 20.5552 16.9377 20.6501L17.6877 21.2501C17.8703 21.3962 18.1297 21.3962 18.3123 21.2501L19.0623 20.6501C19.181 20.5552 19.25 20.4116 19.25 20.2597V19.427L18.5 18.75L19.25 18V16.728C20.2828 16.254 21 15.2107 21 14C21 12.3431 19.6569 11 18 11ZM17 14C17 13.4477 17.4477 13 18 13C18.5523 13 19 13.4477 19 14C19 14.5523 18.5523 15 18 15C17.4477 15 17 14.5523 17 14Z" fill="black"/></svg>
