<svg xmlns="http://www.w3.org/2000/svg" viewBox="0 0 24 24" fill="none"><path d="M21.999 16.0004C22.5513 16.0004 22.999 16.4481 22.999 17.0004C22.9988 17.5525 22.5512 18.0004 21.999 18.0004H1.99902C1.44685 18.0004 0.999199 17.5525 0.999023 17.0004C0.999023 16.4481 1.44674 16.0004 1.99902 16.0004H21.999Z" fill="black"/><path d="M4.31934 7.55021C4.56791 7.11987 5.11842 6.97261 5.54883 7.22111C5.97916 7.46969 6.12642 8.0202 5.87793 8.4506L5.55762 9.00529H6.19922C6.6961 9.0055 7.09863 9.40876 7.09863 9.90568C7.09845 10.4025 6.69598 10.8059 6.19922 10.8061H5.55762L5.87793 11.3608C6.12625 11.7912 5.97918 12.3418 5.54883 12.5903C5.11851 12.8386 4.56794 12.6913 4.31934 12.2612L3.99805 11.7055L3.67871 12.2612C3.43019 12.6913 2.87955 12.8384 2.44922 12.5903C2.01884 12.3418 1.87081 11.7912 2.11914 11.3608L2.43945 10.8061H1.79883C1.30189 10.8061 0.898622 10.4026 0.898438 9.90568C0.898438 9.40863 1.30177 9.00529 1.79883 9.00529H2.43945L2.11914 8.4506C1.87064 8.02019 2.01886 7.46968 2.44922 7.22111C2.87965 6.97278 3.43023 7.11983 3.67871 7.55021L3.99805 8.1049L4.31934 7.55021Z" fill="black"/><path d="M12.3193 7.55021C12.5679 7.11987 13.1184 6.97261 13.5488 7.22111C13.9792 7.46969 14.1264 8.0202 13.8779 8.4506L13.5576 9.00529H14.1992C14.6961 9.0055 15.0986 9.40876 15.0986 9.90568C15.0984 10.4025 14.696 10.8059 14.1992 10.8061H13.5576L13.8779 11.3608C14.1263 11.7912 13.9792 12.3418 13.5488 12.5903C13.1185 12.8386 12.5679 12.6913 12.3193 12.2612L11.998 11.7055L11.6787 12.2612C11.4302 12.6913 10.8795 12.8384 10.4492 12.5903C10.0188 12.3418 9.87081 11.7912 10.1191 11.3608L10.4395 10.8061H9.79883C9.30189 10.8061 8.89862 10.4026 8.89844 9.90568C8.89844 9.40863 9.30177 9.00529 9.79883 9.00529H10.4395L10.1191 8.4506C9.87064 8.02019 10.0189 7.46968 10.4492 7.22111C10.8796 6.97278 11.4302 7.11983 11.6787 7.55021L11.998 8.1049L12.3193 7.55021Z" fill="black"/><path d="M20.3193 7.55021C20.5679 7.11987 21.1184 6.97261 21.5488 7.22111C21.9792 7.46969 22.1264 8.0202 21.8779 8.4506L21.5576 9.00529H22.1992C22.6961 9.0055 23.0986 9.40876 23.0986 9.90568C23.0984 10.4025 22.696 10.8059 22.1992 10.8061H21.5576L21.8779 11.3608C22.1263 11.7912 21.9792 12.3418 21.5488 12.5903C21.1185 12.8386 20.5679 12.6913 20.3193 12.2612L19.998 11.7055L19.6787 12.2612C19.4302 12.6913 18.8795 12.8384 18.4492 12.5903C18.0188 12.3418 17.8708 11.7912 18.1191 11.3608L18.4395 10.8061H17.7988C17.3019 10.8061 16.8986 10.4026 16.8984 9.90568C16.8984 9.40863 17.3018 9.00529 17.7988 9.00529H18.4395L18.1191 8.4506C17.8706 8.02019 18.0189 7.46968 18.4492 7.22111C18.8796 6.97278 19.4302 7.11983 19.6787 7.55021L19.998 8.1049L20.3193 7.55021Z" fill="black"/></svg>
