<svg xmlns="http://www.w3.org/2000/svg" viewBox="0 0 24 24" fill="none"><path fill-rule="evenodd" clip-rule="evenodd" d="M1 12C1 8.68629 3.68629 6 7 6C9.00871 6 10.7858 6.98751 11.8738 8.5H20.5C20.8038 8.5 21.0911 8.63809 21.2809 8.8753L23.2809 11.3753C23.573 11.7405 23.573 12.2595 23.2809 12.6247L21.2809 15.1247C21.0911 15.3619 20.8038 15.5 20.5 15.5H18C17.8448 15.5 17.6916 15.4639 17.5528 15.3944L16 14.618L14.4472 15.3944C14.3084 15.4639 14.1552 15.5 14 15.5H11.8738C10.7858 17.0125 9.00871 18 7 18C3.68629 18 1 15.3137 1 12ZM7 13.5C7.82843 13.5 8.5 12.8284 8.5 12C8.5 11.1716 7.82843 10.5 7 10.5C6.17157 10.5 5.5 11.1716 5.5 12C5.5 12.8284 6.17157 13.5 7 13.5Z" fill="black"/></svg>
