<svg xmlns="http://www.w3.org/2000/svg" viewBox="0 0 24 24" fill="none"><path fill-rule="evenodd" clip-rule="evenodd" d="M22.6247 6.21917C23.056 6.56418 23.1259 7.19347 22.7809 7.62473L14.7809 17.6247C14.6058 17.8435 14.347 17.9789 14.0675 17.9978C13.7879 18.0167 13.5133 17.9174 13.3104 17.7242L7.0552 11.7669L2.7433 16.5579C2.37384 16.9684 1.74155 17.0017 1.33104 16.6322C0.920534 16.2628 0.887255 15.6305 1.25671 15.22L6.25671 9.66441C6.43741 9.46364 6.69163 9.3445 6.96153 9.33411C7.23144 9.32372 7.49407 9.42295 7.68966 9.60923L13.9002 15.524L21.2191 6.37534C21.5641 5.94408 22.1934 5.87416 22.6247 6.21917Z" fill="black"/></svg>
