<svg xmlns="http://www.w3.org/2000/svg" viewBox="0 0 24 24" fill="none"><path fill-rule="evenodd" clip-rule="evenodd" d="M3.38218 11.7863L8.74505 16H8C7.44772 16 7 16.4477 7 17V21C7 21.5523 7.44772 22 8 22H16C16.5523 22 17 21.5523 17 21V17C17 16.4477 16.5523 16 16 16H15.255L20.6178 11.7863C20.8591 11.5967 21 11.3069 21 11C21 6.02944 16.9706 2 12 2C7.02944 2 3 6.02944 3 11C3 11.3069 3.14089 11.5967 3.38218 11.7863ZM17.0964 11.747C17.1993 11.755 17.3007 11.763 17.4002 11.771L13 15.2282V11.5148C14.3262 11.5509 15.8256 11.6482 17.0964 11.747ZM6.90361 11.747C8.17443 11.6482 9.67378 11.5509 11 11.5148V15.2282L6.59981 11.771C6.69932 11.763 6.80066 11.755 6.90361 11.747Z" fill="black"/></svg>
