<svg xmlns="http://www.w3.org/2000/svg" viewBox="0 0 24 24" fill="none"><path d="M9 13.732V10.268L12 8.53604L15 10.268V13.732L12 15.464L9 13.732Z" fill="black"/><path fill-rule="evenodd" clip-rule="evenodd" d="M2 12C2 6.47715 6.47715 2 12 2C17.5228 2 22 6.47715 22 12C22 17.5228 17.5228 22 12 22C6.47715 22 2 17.5228 2 12ZM16.5 8.82466L12.5 6.51532C12.1906 6.33669 11.8094 6.33669 11.5 6.51532L7.50001 8.82466C7.1906 9.00329 7 9.33342 7 9.69069V14.3094C7 14.6666 7.1906 14.9968 7.50001 15.1754L11.5 17.4847C11.8094 17.6634 12.1906 17.6634 12.5 17.4847L16.5 15.1754C16.8094 14.9968 17 14.6666 17 14.3094V9.69069C17 9.33342 16.8094 9.00329 16.5 8.82466Z" fill="black"/></svg>
