<svg xmlns="http://www.w3.org/2000/svg" viewBox="0 0 24 24" fill="none"><path d="M8 3C8 2.44772 7.55228 2 7 2C6.44772 2 6 2.44772 6 3V9H4C3.44772 9 3 9.44772 3 10V18C3 18.5523 3.44772 19 4 19H6V21C6 21.5523 6.44772 22 7 22C7.55228 22 8 21.5523 8 21V19H10C10.5523 19 11 18.5523 11 18V10C11 9.44772 10.5523 9 10 9H8V3Z" fill="black"/><path d="M18 3C18 2.44772 17.5523 2 17 2C16.4477 2 16 2.44772 16 3V5H14C13.4477 5 13 5.44772 13 6V18C13 18.5523 13.4477 19 14 19H16V21C16 21.5523 16.4477 22 17 22C17.5523 22 18 21.5523 18 21V19H20C20.5523 19 21 18.5523 21 18V6C21 5.44772 20.5523 5 20 5H18V3Z" fill="black"/></svg>
