<svg xmlns="http://www.w3.org/2000/svg" viewBox="0 0 24 24" fill="none"><path fill-rule="evenodd" clip-rule="evenodd" d="M2 5C2 4.44772 2.44772 4 3 4H21C21.5523 4 22 4.44772 22 5V19C22 19.5523 21.5523 20 21 20H3C2.44772 20 2 19.5523 2 19V5ZM6 9C6 8.44772 6.44772 8 7 8H10C10.5523 8 11 8.44772 11 9C11 9.55228 10.5523 10 10 10H7C6.44772 10 6 9.55228 6 9ZM14 8C13.4477 8 13 8.44772 13 9C13 9.55228 13.4477 10 14 10H17C17.5523 10 18 9.55228 18 9C18 8.44772 17.5523 8 17 8H14ZM6 12C6 11.4477 6.44772 11 7 11H10C10.5523 11 11 11.4477 11 12C11 12.5523 10.5523 13 10 13H7C6.44772 13 6 12.5523 6 12ZM14 11C13.4477 11 13 11.4477 13 12C13 12.5523 13.4477 13 14 13H17C17.5523 13 18 12.5523 18 12C18 11.4477 17.5523 11 17 11H14ZM6 15C6 14.4477 6.44772 14 7 14H10C10.5523 14 11 14.4477 11 15C11 15.5523 10.5523 16 10 16H7C6.44772 16 6 15.5523 6 15ZM14 14C13.4477 14 13 14.4477 13 15C13 15.5523 13.4477 16 14 16H17C17.5523 16 18 15.5523 18 15C18 14.4477 17.5523 14 17 14H14Z" fill="black"/></svg>
