<svg xmlns="http://www.w3.org/2000/svg" viewBox="0 0 24 24" fill="none"><path fill-rule="evenodd" clip-rule="evenodd" d="M3 4C3 3.44772 3.44772 3 4 3H14C14.5523 3 15 3.44772 15 4V9H18C18.5523 9 19 9.44772 19 10V16H20V8.41421L18.2929 6.70711C17.9024 6.31658 17.9024 5.68342 18.2929 5.29289C18.6834 4.90237 19.3166 4.90237 19.7071 5.29289L21.7071 7.29289C21.8946 7.48043 22 7.73478 22 8V17C22 17.5523 21.5523 18 21 18H18C17.4477 18 17 17.5523 17 17V11H15V19C15.5523 19 16 19.4477 16 20C16 20.5523 15.5523 21 15 21H3C2.44772 21 2 20.5523 2 20C2 19.4477 2.44772 19 3 19V4ZM6 10C6 9.44772 6.44772 9 7 9H11C11.5523 9 12 9.44772 12 10C12 10.5523 11.5523 11 11 11H7C6.44772 11 6 10.5523 6 10Z" fill="black"/></svg>
