<svg xmlns="http://www.w3.org/2000/svg" viewBox="0 0 24 24" fill="none"><path d="M4.11267 5.84915C2.98014 7.29879 2.23866 9.06876 2.04688 11.0004H6.93561C6.67816 8.93589 5.63404 7.11565 4.11267 5.84915Z" fill="black"/><path d="M2.04688 13.0004C2.23866 14.9321 2.98014 16.7021 4.11267 18.1517C5.63404 16.8852 6.67816 15.065 6.93561 13.0004H2.04688Z" fill="black"/><path d="M5.49609 4.40084C7.40068 6.03139 8.6851 8.36547 8.94672 11.0004H10.9961V2.0498C8.90664 2.25726 7.00638 3.10786 5.49609 4.40084Z" fill="black"/><path d="M12.9961 2.0498V11.0004H15.0455C15.3071 8.36547 16.5915 6.03139 18.4961 4.40084C16.9858 3.10786 15.0855 2.25726 12.9961 2.0498Z" fill="black"/><path d="M19.8815 5.84915C18.3602 7.11565 17.316 8.93589 17.0586 11.0004H21.9473C21.7555 9.06876 21.0141 7.29879 19.8815 5.84915Z" fill="black"/><path d="M21.9473 13.0004H17.0586C17.316 15.065 18.3602 16.8852 19.8815 18.1517C21.0141 16.7021 21.7555 14.9321 21.9473 13.0004Z" fill="black"/><path d="M18.4961 19.6C16.9858 20.893 15.0855 21.7436 12.9961 21.9511V13.0004H15.0455C15.3071 15.6354 16.5915 17.9695 18.4961 19.6Z" fill="black"/><path d="M10.9961 21.9511V13.0004H8.94672C8.6851 15.6354 7.40068 17.9695 5.49609 19.6C7.00638 20.893 8.90664 21.7436 10.9961 21.9511Z" fill="black"/></svg>
