<svg xmlns="http://www.w3.org/2000/svg" viewBox="0 0 24 24" fill="none"><path d="M11.3867 2.01855C7.25626 2.26865 3.80246 5.026 2.52734 8.78857C5.56064 6.96924 8.99064 5.71326 12.1949 5.42216C12.0939 4.18074 11.8188 3.00218 11.3867 2.01855Z" fill="black"/><path d="M2.01188 11.5083C2.00399 11.6712 2 11.8352 2 12C2 13.2635 2.23433 14.4723 2.6619 15.5852C3.61637 14.5086 4.8251 13.5594 6.11894 12.8124C7.7552 11.8677 9.60346 11.2028 11.3614 11.0375C11.825 10.0042 12.1132 8.74961 12.2055 7.43042C8.86747 7.77301 5.14278 9.30106 2.01188 11.5083Z" fill="black"/><path d="M3.66406 17.5241C5.45508 20.2217 8.52041 22 12.0011 22C12.6988 22 13.3798 21.9286 14.0373 21.7926C10.9161 20.101 8.07621 17.7597 6.21015 15.1198C5.18434 15.8286 4.30027 16.657 3.66406 17.5241Z" fill="black"/><path d="M16.6488 20.8551C17.8557 20.22 18.9169 19.3454 19.7692 18.2944C18.3609 18.0057 16.9358 17.434 15.643 16.6877C14.0067 15.7431 12.5065 14.475 11.4846 13.0349C10.3586 13.1501 9.12908 13.5274 7.94141 14.1062C9.91819 16.8321 13.1471 19.2887 16.6488 20.8551Z" fill="black"/><path d="M20.9531 16.459C21.623 15.1165 21.9998 13.6023 21.9998 12C21.9998 9.45059 21.0458 7.12398 19.4752 5.35773C19.5641 8.90255 18.9535 12.5254 17.6016 15.4577C18.7272 15.9906 19.8853 16.3414 20.9531 16.459Z" fill="black"/><path d="M17.3586 3.55629C16.228 2.83708 14.9431 2.33872 13.5647 2.12195C14.0192 3.48626 14.2367 5.00686 14.2367 6.50006C14.2367 8.38958 13.8885 10.323 13.1523 11.928C13.8157 12.8467 14.7585 13.7238 15.8554 14.4635C17.2278 11.3905 17.7447 7.3717 17.3586 3.55629Z" fill="black"/></svg>
