<svg xmlns="http://www.w3.org/2000/svg" viewBox="0 0 24 24" fill="none"><path d="M15.0002 3L15.0871 3.00391C15.5213 3.04171 15.8855 3.35912 15.9777 3.79199C16.4132 5.83599 16.5783 8.32341 16.1917 10.6527C15.5441 10.5607 14.8732 10.5091 14.1878 10.5011C14.5086 8.72288 14.4585 6.75962 14.1691 5H12.1662C12.3916 6.81493 12.3744 8.76058 12.0194 10.6242C11.2696 10.7197 10.5493 10.8689 9.87201 11.0667C10.3695 9.13826 10.4254 7.00031 10.1476 5H7.85174C7.54514 7.20726 7.64601 9.578 8.29486 11.6505C8.05111 11.7624 7.81634 11.8816 7.59145 12.0078C7.22736 12.2122 6.87171 12.4463 6.53889 12.7097C5.67299 10.2628 5.52308 7.5049 5.83416 5H3.83612C3.33933 8.18432 3.74444 11.3927 5.3043 14.0015C4.81009 14.7138 4.49978 15.548 4.49978 16.5C4.49978 16.6705 4.50972 16.8371 4.52889 17H2.9992C2.44714 16.9997 1.9992 16.5521 1.9992 16C1.9992 15.4479 2.44714 15.0003 2.9992 15H3.57049C1.57687 11.6494 1.25097 7.57892 2.01971 3.80078L2.0412 3.71484C2.16605 3.29419 2.55446 3 3.00018 3H15.0002Z" fill="black"/><path d="M19.3748 14.4999C19.3748 13.8481 18.9171 13.1427 17.9275 12.5654L17.88 12.538C16.7227 12.1911 15.3947 12 13.9998 12C12.6048 12 11.2769 12.1911 10.1195 12.538L10.072 12.5654C9.08245 13.1427 8.62476 13.8481 8.62476 14.4999C8.62476 15.1518 9.08245 15.8572 10.072 16.4345C11.0464 17.0029 12.4337 17.3749 13.9998 17.3749C15.5658 17.3749 16.9531 17.0029 17.9275 16.4345C18.9171 15.8572 19.3748 15.1518 19.3748 14.4999Z" fill="black"/><path d="M5.99976 16.5C5.99976 15.4085 6.61048 14.5235 7.45153 13.8557C7.40137 14.0629 7.37476 14.2779 7.37476 14.4999C7.37476 15.781 8.26032 16.8252 9.44214 17.5146C10.6393 18.213 12.2521 18.6249 13.9998 18.6249C15.7474 18.6249 17.3602 18.213 18.5574 17.5146C19.7392 16.8252 20.6248 15.781 20.6248 14.4999C20.6248 14.2779 20.5981 14.0629 20.548 13.8557C21.389 14.5235 21.9998 15.4085 21.9998 16.5C21.9998 18.0493 20.7693 19.1826 19.3962 19.8691C17.9634 20.5855 16.0542 21 13.9998 21C11.9453 21 10.0361 20.5855 8.60327 19.8691C7.23022 19.1826 5.99976 18.0493 5.99976 16.5Z" fill="black"/></svg>
