<svg xmlns="http://www.w3.org/2000/svg" viewBox="0 0 24 24" fill="none"><path fill-rule="evenodd" clip-rule="evenodd" d="M15.3145 4.7165L12.5878 6.69756C12.2373 6.95221 11.7627 6.95221 11.4122 6.69756L8.68552 4.7165C7.70018 5.16572 6.82112 5.80955 6.09797 6.59935L7.13872 9.80244C7.27259 10.2145 7.12593 10.6658 6.77545 10.9205L4.05004 12.9006C4.17282 13.9979 4.51741 15.0274 5.03811 15.9443H8.40778C8.841 15.9443 9.22496 16.2232 9.35883 16.6353L10.4002 19.8402C10.9164 19.9449 11.4513 20 12 20C12.5487 20 13.0836 19.9449 13.5998 19.8402L14.6412 16.6353C14.775 16.2232 15.159 15.9443 15.5922 15.9443H18.9619C19.4826 15.0274 19.8272 13.9979 19.95 12.9006L17.2246 10.9205C16.8741 10.6658 16.7274 10.2145 16.8613 9.80244L17.902 6.59935C17.1789 5.80955 16.2998 5.16572 15.3145 4.7165ZM8.46638 2.64253C9.56638 2.22695 10.7578 2 12 2C13.2422 2 14.4336 2.22695 15.5336 2.64253C17.2253 3.28166 18.6968 4.3653 19.8066 5.74987C21.1786 7.46163 22 9.63626 22 12C22 12.1562 21.9964 12.3117 21.9893 12.4664C21.9042 14.3176 21.3152 16.039 20.3566 17.4943C19.0376 19.4968 17.017 20.9982 14.6411 21.6473C13.7986 21.8774 12.9128 22 12 22C11.0872 22 10.2014 21.8774 9.3589 21.6473C6.98303 20.9982 4.96244 19.4968 3.64343 17.4943C2.68484 16.039 2.09583 14.3176 2.0107 12.4664C2.00359 12.3117 2 12.1562 2 12C2 9.63626 2.82136 7.46163 4.19344 5.74987C5.30325 4.3653 6.77466 3.28166 8.46638 2.64253ZM11.4122 8.19098C11.7627 7.93634 12.2373 7.93634 12.5878 8.19098L15.441 10.2639C15.7914 10.5186 15.9381 10.9699 15.8042 11.382L14.7144 14.7361C14.5805 15.1481 14.1966 15.4271 13.7634 15.4271H10.2366C9.80342 15.4271 9.41946 15.1481 9.28559 14.7361L8.19577 11.382C8.0619 10.9699 8.20856 10.5186 8.55905 10.2639L11.4122 8.19098Z" fill="black"/></svg>
