<svg xmlns="http://www.w3.org/2000/svg" viewBox="0 0 24 24" fill="none"><path fill-rule="evenodd" clip-rule="evenodd" d="M3.8132 9.35647C4.26146 5.17264 7.79219 2 12 2C16.2078 2 19.7385 5.17264 20.1867 9.35648L20.8902 16.4006C20.949 16.9893 20.4867 17.5 19.8952 17.5H4.10483C3.51327 17.5 3.051 16.9893 3.10978 16.4006L3.8132 9.35647ZM15.2071 9.70711C15.5976 9.31658 15.5976 8.68342 15.2071 8.29289C14.8166 7.90237 14.1834 7.90237 13.7929 8.29289L11 11.0858L10.2071 10.2929C9.81658 9.90237 9.18342 9.90237 8.79289 10.2929C8.40237 10.6834 8.40237 11.3166 8.79289 11.7071L10.2929 13.2071C10.6834 13.5976 11.3166 13.5976 11.7071 13.2071L15.2071 9.70711Z" fill="black"/><path d="M12 22C9.94965 22 8.18757 20.7659 7.41602 19H16.5839C15.8124 20.7659 14.0503 22 12 22Z" fill="black"/></svg>
