<svg xmlns="http://www.w3.org/2000/svg" viewBox="0 0 24 24" fill="none"><path fill-rule="evenodd" clip-rule="evenodd" d="M3 4C3 3.44772 3.44772 3 4 3H20C20.5523 3 21 3.44772 21 4V20C21 20.5523 20.5523 21 20 21H4C3.44772 21 3 20.5523 3 20V4ZM12.4617 7.60996C12.2909 7.19932 11.7091 7.19932 11.5383 7.60997L10.6625 9.7157C10.5905 9.88882 10.4277 10.0071 10.2408 10.0221L7.96749 10.2043C7.52416 10.2399 7.3444 10.7931 7.68217 11.0825L9.4142 12.5661C9.55659 12.6881 9.61878 12.8795 9.57527 13.0619L9.04611 15.2803C8.94292 15.7129 9.41354 16.0548 9.79309 15.823L11.7394 14.6342C11.8994 14.5365 12.1006 14.5365 12.2606 14.6342L14.2069 15.823C14.5865 16.0548 15.0571 15.7129 14.9539 15.2803L14.4247 13.0619C14.3812 12.8795 14.4434 12.6881 14.5858 12.5661L16.3178 11.0825C16.6556 10.7931 16.4758 10.2399 16.0325 10.2043L13.7592 10.0221C13.5723 10.0071 13.4095 9.88882 13.3375 9.7157L12.4617 7.60996Z" fill="black"/></svg>
