<svg xmlns="http://www.w3.org/2000/svg" viewBox="0 0 24 24" fill="none"><path fill-rule="evenodd" clip-rule="evenodd" d="M3 4C3 3.44772 3.44772 3 4 3H20C20.5523 3 21 3.44772 21 4V20C21 20.5523 20.5523 21 20 21H4C3.44772 21 3 20.5523 3 20V4ZM15.8535 8.14646C15.9804 8.27333 16.0296 8.45846 15.9824 8.63157L14.4824 14.1316C14.4358 14.3024 14.3024 14.4358 14.1316 14.4824L8.63156 15.9824C8.45845 16.0296 8.27332 15.9804 8.14644 15.8536C8.01957 15.7267 7.9704 15.5416 8.01761 15.3685L9.51762 9.86845C9.5642 9.69765 9.69763 9.56421 9.86844 9.51763L15.3684 8.01763C15.5415 7.97042 15.7267 8.01958 15.8535 8.14646Z" fill="black"/></svg>
