<svg xmlns="http://www.w3.org/2000/svg" viewBox="0 0 24 24" fill="none"><path d="M13.7471 7.34171C14.1107 6.92619 14.7426 6.88363 15.1583 7.24698C15.5737 7.61057 15.6163 8.2425 15.253 8.65811L8.253 16.6581C8.07077 16.8664 7.80986 16.9897 7.53328 16.9989C7.25672 17.0081 6.98873 16.9026 6.79304 16.7069L3.79304 13.7069C3.40252 13.3164 3.40252 12.6834 3.79304 12.2929C4.18357 11.9024 4.81658 11.9024 5.20711 12.2929L7.45125 14.537L13.7471 7.34171Z" fill="black"/><path d="M18.7471 7.34171C19.1107 6.92619 19.7426 6.88363 20.1583 7.24698C20.5737 7.61057 20.6163 8.2425 20.253 8.65811L13.253 16.6581C12.8894 17.0736 12.2575 17.1161 11.8419 16.7528C11.4264 16.3893 11.3838 15.7573 11.7471 15.3417L18.7471 7.34171Z" fill="black"/></svg>
