<svg xmlns="http://www.w3.org/2000/svg" viewBox="0 0 24 24" fill="none"><path d="M9 7.5C9 8.32843 8.32843 9 7.5 9C6.67157 9 6 8.32843 6 7.5C6 6.67157 6.67157 6 7.5 6C8.32843 6 9 6.67157 9 7.5Z" fill="black"/><path fill-rule="evenodd" clip-rule="evenodd" d="M3 4C3 3.44772 3.44772 3 4 3H20C20.5523 3 21 3.44772 21 4V20C21 20.5523 20.5523 21 20 21H4C3.44772 21 3 20.5523 3 20V4ZM19 10H5V5H19V10ZM10 7.5C10 6.94772 10.4477 6.5 11 6.5H17C17.5523 6.5 18 6.94772 18 7.5C18 8.05228 17.5523 8.5 17 8.5H11C10.4477 8.5 10 8.05228 10 7.5Z" fill="black"/></svg>
