<svg xmlns="http://www.w3.org/2000/svg" viewBox="0 0 24 24" fill="none"><path d="M3.70711 2.29289C3.31658 1.90237 2.68342 1.90237 2.29289 2.29289C1.90237 2.68342 1.90237 3.31658 2.29289 3.70711L4.80808 6.22229C4.28217 7.1642 3.93461 8.22324 3.8132 9.35647L3.10978 16.4006C3.051 16.9893 3.51327 17.5 4.10483 17.5H16.0858L20.2929 21.7071C20.6834 22.0976 21.3166 22.0976 21.7071 21.7071C22.0976 21.3166 22.0976 20.6834 21.7071 20.2929L3.70711 2.29289Z" fill="black"/><path d="M20.8902 16.4006C20.9362 16.8608 20.6637 17.2733 20.26 17.4315L6.73326 3.90474C8.16674 2.71142 10.0074 2 12 2C16.2078 2 19.7385 5.17264 20.1867 9.35648L20.8902 16.4006Z" fill="black"/><path d="M7.41602 19C8.18757 20.7659 9.94965 22 12 22C14.0503 22 15.8124 20.7659 16.5839 19H7.41602Z" fill="black"/></svg>
