<svg xmlns="http://www.w3.org/2000/svg" viewBox="0 0 24 24" fill="none"><path fill-rule="evenodd" clip-rule="evenodd" d="M5.13176 4.50386C5.3098 4.19229 5.64114 4 6 4H18C18.3589 4 18.6902 4.19229 18.8682 4.50386L22.8682 11.5039C22.9546 11.655 23 11.826 23 12V19C23 19.5523 22.5523 20 22 20H2C1.44772 20 1 19.5523 1 19V12C1 11.826 1.04542 11.655 1.13176 11.5039L5.13176 4.50386ZM21 13H16L14.8 14.6C14.6111 14.8518 14.3148 15 14 15H10C9.68524 15 9.38885 14.8518 9.2 14.6L8 13H3V18H21V13Z" fill="black"/></svg>
