<svg xmlns="http://www.w3.org/2000/svg" viewBox="0 0 24 24" fill="none"><path d="M5 2C4.44772 2 4 2.44772 4 3V13.2405L1.66965 14.0561C1.14837 14.2386 0.873692 14.8091 1.05614 15.3303C1.23859 15.8516 1.80907 16.1263 2.33035 15.9439L22.3303 8.94386C22.8516 8.76141 23.1263 8.19093 22.9439 7.66965C22.7614 7.14837 22.1909 6.87369 21.6696 7.05614L20 7.64052V3C20 2.44772 19.5523 2 19 2H5Z" fill="black"/><path d="M4 21V17.4784L20 11.8784V21C20 21.3565 19.8102 21.686 19.5019 21.8649C19.1936 22.0438 18.8134 22.0451 18.5039 21.8682L12 18.1517L5.49614 21.8682C5.18664 22.0451 4.80639 22.0438 4.49807 21.8649C4.18976 21.686 4 21.3565 4 21Z" fill="black"/></svg>
