<svg xmlns="http://www.w3.org/2000/svg" viewBox="0 0 24 24" fill="none"><path d="M7 8C7.55228 8 8 7.55228 8 7C8 6.44772 7.55228 6 7 6C6.44772 6 6 6.44772 6 7C6 7.55228 6.44772 8 7 8Z" fill="black"/><path fill-rule="evenodd" clip-rule="evenodd" d="M3 4C3 3.44772 3.44772 3 4 3H10C10.5523 3 11 3.44772 11 4V10C11 10.5523 10.5523 11 10 11H4C3.44772 11 3 10.5523 3 10V4ZM5 5V9H9V5H5Z" fill="black"/><path d="M7 18C7.55228 18 8 17.5523 8 17C8 16.4477 7.55228 16 7 16C6.44772 16 6 16.4477 6 17C6 17.5523 6.44772 18 7 18Z" fill="black"/><path fill-rule="evenodd" clip-rule="evenodd" d="M3 14C3 13.4477 3.44772 13 4 13H10C10.5523 13 11 13.4477 11 14V20C11 20.5523 10.5523 21 10 21H4C3.44772 21 3 20.5523 3 20V14ZM5 15V19H9V15H5Z" fill="black"/><path d="M18 7C18 7.55228 17.5523 8 17 8C16.4477 8 16 7.55228 16 7C16 6.44772 16.4477 6 17 6C17.5523 6 18 6.44772 18 7Z" fill="black"/><path fill-rule="evenodd" clip-rule="evenodd" d="M14 3C13.4477 3 13 3.44772 13 4V10C13 10.5523 13.4477 11 14 11H20C20.5523 11 21 10.5523 21 10V4C21 3.44772 20.5523 3 20 3H14ZM19 5V9H15V5H19Z" fill="black"/><path d="M14 13C14.5523 13 15 13.4477 15 14V15H16C16.5523 15 17 15.4477 17 16C17 16.5523 16.5523 17 16 17H14C13.4477 17 13 16.5523 13 16V14C13 13.4477 13.4477 13 14 13Z" fill="black"/><path d="M17 14C17 13.4477 17.4477 13 18 13H20C20.5523 13 21 13.4477 21 14C21 14.5523 20.5523 15 20 15H18C17.4477 15 17 14.5523 17 14Z" fill="black"/><path d="M17 18C17 17.4477 17.4477 17 18 17H20C20.5523 17 21 17.4477 21 18C21 18.5523 20.5523 19 20 19H19V20C19 20.5523 18.5523 21 18 21C17.4477 21 17 20.5523 17 20V18Z" fill="black"/><path d="M14 21C14.5523 21 15 20.5523 15 20C15 19.4477 14.5523 19 14 19C13.4477 19 13 19.4477 13 20C13 20.5523 13.4477 21 14 21Z" fill="black"/></svg>
