<svg xmlns="http://www.w3.org/2000/svg" viewBox="0 0 24 24" fill="none"><path d="M17 4C13.6863 4 11 6.68629 11 10V12.5858L8.95711 10.5429C8.56658 10.1524 7.93342 10.1524 7.54289 10.5429C7.15237 10.9334 7.15237 11.5666 7.54289 11.9571L11.2929 15.7071C11.6834 16.0976 12.3166 16.0976 12.7071 15.7071L16.4571 11.9571C16.8476 11.5666 16.8476 10.9334 16.4571 10.5429C16.0666 10.1524 15.4334 10.1524 15.0429 10.5429L13 12.5858V10C13 7.79086 14.7909 6 17 6H21C21.5523 6 22 5.55228 22 5C22 4.44772 21.5523 4 21 4H17Z" fill="black"/><path d="M3 4C2.44772 4 2 4.44772 2 5V19C2 19.5523 2.44772 20 3 20H21C21.5523 20 22 19.5523 22 19V9C22 8.44772 21.5523 8 21 8C20.4477 8 20 8.44772 20 9V18H4V6H8C8.55228 6 9 5.55228 9 5C9 4.44772 8.55228 4 8 4H3Z" fill="black"/></svg>
