<svg xmlns="http://www.w3.org/2000/svg" viewBox="0 0 24 24" fill="none"><path fill-rule="evenodd" clip-rule="evenodd" d="M4 3C4 2.44772 4.44772 2 5 2H19C19.5523 2 20 2.44772 20 3V21C20 21.3565 19.8102 21.686 19.5019 21.8649C19.1936 22.0438 18.8134 22.0451 18.5039 21.8682L12 18.1518L5.49614 21.8682C5.18664 22.0451 4.80639 22.0438 4.49807 21.8649C4.18976 21.686 4 21.3565 4 21V3ZM15.2071 8.95711C15.5976 8.56658 15.5976 7.93342 15.2071 7.54289C14.8166 7.15237 14.1834 7.15237 13.7929 7.54289L11 10.3358L10.2071 9.54289C9.81658 9.15237 9.18342 9.15237 8.79289 9.54289C8.40237 9.93342 8.40237 10.5666 8.79289 10.9571L10.2929 12.4571C10.4804 12.6446 10.7348 12.75 11 12.75C11.2652 12.75 11.5196 12.6446 11.7071 12.4571L15.2071 8.95711Z" fill="black"/></svg>
