<svg xmlns="http://www.w3.org/2000/svg" viewBox="0 0 24 24" fill="none"><path d="M3 4C3 3.44772 3.44772 3 4 3H10C10.5523 3 11 3.44772 11 4V10C11 10.5523 10.5523 11 10 11H4C3.44772 11 3 10.5523 3 10V4Z" fill="black"/><path d="M13 4C13 3.44772 13.4477 3 14 3H20C20.5523 3 21 3.44772 21 4V10C21 10.5523 20.5523 11 20 11H14C13.4477 11 13 10.5523 13 10V4Z" fill="black"/><path d="M3 14C3 13.4477 3.44772 13 4 13H10C10.5523 13 11 13.4477 11 14V20C11 20.5523 10.5523 21 10 21H4C3.44772 21 3 20.5523 3 20V14Z" fill="black"/><path fill-rule="evenodd" clip-rule="evenodd" d="M19.8284 14.1722C18.2663 12.6101 15.7337 12.6101 14.1716 14.1722C12.6095 15.7343 12.6095 18.2669 14.1716 19.829C15.4895 21.147 17.4983 21.353 19.0322 20.447L20.2929 21.7077C20.6834 22.0982 21.3166 22.0982 21.7071 21.7077C22.0976 21.3172 22.0976 20.684 21.7071 20.2935L20.4464 19.0328C21.3524 17.4989 21.1464 15.4901 19.8284 14.1722ZM15.5858 15.5864C16.3668 14.8053 17.6332 14.8053 18.4142 15.5864C19.1953 16.3674 19.1953 17.6338 18.4142 18.4148C17.6332 19.1959 16.3668 19.1959 15.5858 18.4148C14.8047 17.6338 14.8047 16.3674 15.5858 15.5864Z" fill="black"/></svg>
