<svg xmlns="http://www.w3.org/2000/svg" viewBox="0 0 24 24" fill="none"><path d="M4.00005 3.00001L20 3C20.2652 3 20.5196 3.10536 20.7071 3.29289C20.8947 3.48043 21 3.73478 21 4L21 12H15.874C15.4177 12 15.0193 12.3089 14.9056 12.7507C14.5725 14.0449 13.3965 15 12 15C10.6035 15 9.42755 14.0449 9.09446 12.7507C8.98073 12.3089 8.58231 12 8.12603 12H3.00003L3.00005 4C3.00005 3.44772 3.44777 3.00001 4.00005 3.00001Z" fill="black"/><path d="M3.00003 14L3 20C3 20.2652 3.10536 20.5196 3.29289 20.7071C3.48043 20.8946 3.73478 21 4 21H20C20.5523 21 21 20.5523 21 20L21 14H16.5836C15.8122 15.7655 14.0512 17 12 17C9.94878 17 8.18784 15.7655 7.41638 14H3.00003Z" fill="black"/></svg>
