<svg xmlns="http://www.w3.org/2000/svg" viewBox="0 0 24 24" fill="none"><path fill-rule="evenodd" clip-rule="evenodd" d="M7.7386 3.10969C8.71849 1.22271 10.8389 0.101853 13.0443 0.49055C15.2495 0.87941 16.8584 2.65779 17.1341 4.76594L20.8079 5.41438C21.3516 5.51046 21.7144 6.02882 21.6185 6.57258C21.5225 7.11634 21.0041 7.47902 20.4603 7.38313L19.9476 7.29231L18.9984 21.0687C18.962 21.5927 18.5256 22.0001 18.0003 22.0003H6.00032C5.47489 22.0003 5.03865 21.5928 5.00227 21.0687L4.10579 8.06868C4.06621 7.49088 4.52462 7.00032 5.10384 7.00032H18.2884L3.71809 4.43196C3.17442 4.33587 2.81167 3.81654 2.90755 3.27278C3.00359 2.72907 3.52198 2.36638 4.06575 2.46223L7.7386 3.10969ZM12.7074 10.2933C12.3412 9.92717 11.7622 9.90457 11.3695 10.2249L11.2933 10.2933L8.79329 12.7933C8.40282 13.1838 8.40278 13.8168 8.79329 14.2073C9.18383 14.5975 9.81695 14.5977 10.2074 14.2073L11.0003 13.4144V17.0003C11.0006 17.5524 11.4482 18.0003 12.0003 18.0003C12.5523 18.0001 13.0001 17.5523 13.0003 17.0003V13.4144L13.7933 14.2073L13.8695 14.2757C14.2622 14.5957 14.8414 14.5733 15.2074 14.2073C15.5733 13.8414 15.5957 13.2622 15.2757 12.8695L15.2074 12.7933L12.7074 10.2933ZM12.6966 2.46028C11.604 2.26787 10.5448 2.69409 9.87825 3.48664L14.9954 4.38899C14.64 3.41602 13.7895 2.65298 12.6966 2.46028Z" fill="black"/></svg>
