<svg xmlns="http://www.w3.org/2000/svg" viewBox="0 0 24 24" fill="none"><path fill-rule="evenodd" clip-rule="evenodd" d="M8 4C7.67705 4 7.37398 4.15597 7.18627 4.41876L2.18627 11.4188C1.93791 11.7665 1.93791 12.2335 2.18627 12.5812L7.18627 19.5812C7.37398 19.844 7.67705 20 8 20H21C21.5523 20 22 19.5523 22 19V5C22 4.44772 21.5523 4 21 4H8ZM10.5412 9.29289C10.9318 8.90237 11.5649 8.90237 11.9554 9.29289L13.25 10.5875L14.5446 9.29289C14.9351 8.90237 15.5682 8.90237 15.9588 9.29289C16.3493 9.68342 16.3493 10.3166 15.9588 10.7071L14.6642 12.0017L15.9571 13.2946C16.3476 13.6851 16.3476 14.3182 15.9571 14.7088C15.5666 15.0993 14.9334 15.0993 14.5429 14.7088L13.25 13.4159L11.9571 14.7088C11.5666 15.0993 10.9334 15.0993 10.5429 14.7088C10.1524 14.3182 10.1524 13.6851 10.5429 13.2946L11.8358 12.0017L10.5412 10.7071C10.1507 10.3166 10.1507 9.68342 10.5412 9.29289Z" fill="black"/></svg>
