<svg xmlns="http://www.w3.org/2000/svg" viewBox="0 0 24 24" fill="none"><path fill-rule="evenodd" clip-rule="evenodd" d="M15.5 1C15.8508 1 16.1759 1.18381 16.3568 1.48436L18.1133 4.40308L21.432 5.17168C21.7737 5.25083 22.049 5.50326 22.1574 5.83688C22.2658 6.1705 22.1915 6.53653 21.9615 6.80143L19.7284 9.3739L20.023 12.7676C20.0533 13.1171 19.8983 13.4569 19.6145 13.6631C19.3307 13.8693 18.9596 13.9117 18.6366 13.7749L15.5 12.446L12.3634 13.7749C12.0404 13.9117 11.6693 13.8693 11.3855 13.6631C11.1017 13.4569 10.9467 13.1171 10.977 12.7676L11.2716 9.3739L9.03849 6.80143C8.80854 6.53653 8.7342 6.1705 8.8426 5.83688C8.951 5.50326 9.22629 5.25083 9.56803 5.17168L12.8867 4.40308L14.6432 1.48436C14.8241 1.18381 15.1492 1 15.5 1ZM7.70711 10.2931C8.09763 10.6837 8.09763 11.3168 7.70711 11.7074L3.70711 15.7074C3.31658 16.0979 2.68342 16.0979 2.29289 15.7074C1.90237 15.3168 1.90237 14.6837 2.29289 14.2931L6.29289 10.2931C6.68342 9.90261 7.31658 9.90261 7.70711 10.2931ZM9.70711 15.2931C10.0976 15.6837 10.0976 16.3168 9.70711 16.7074L5.70711 20.7074C5.31658 21.0979 4.68342 21.0979 4.29289 20.7074C3.90237 20.3168 3.90237 19.6837 4.29289 19.2931L8.29289 15.2931C8.68342 14.9026 9.31658 14.9026 9.70711 15.2931ZM16.7071 15.2931C17.0976 15.6837 17.0976 16.3168 16.7071 16.7074L12.7071 20.7074C12.3166 21.0979 11.6834 21.0979 11.2929 20.7074C10.9024 20.3168 10.9024 19.6837 11.2929 19.2931L15.2929 15.2931C15.6834 14.9026 16.3166 14.9026 16.7071 15.2931Z" fill="black"/></svg>
