<svg xmlns="http://www.w3.org/2000/svg" viewBox="0 0 24 24" fill="none"><path d="M12.0001 4C8.43122 4 5.4848 6.67174 5.05434 10.1237C4.986 10.6718 4.48633 11.0607 3.93829 10.9923C3.39024 10.924 3.00137 10.4243 3.06971 9.87626C3.62345 5.43564 7.40981 2 12.0001 2C16.9707 2 21.0001 6.02944 21.0001 11C21.0001 13.1253 20.2637 15.0782 19.032 16.6178L21.7071 19.2929C22.0976 19.6834 22.0976 20.3166 21.7071 20.7071C21.3166 21.0976 20.6834 21.0976 20.2929 20.7071L17.6177 18.0319C16.3538 19.0427 14.8113 19.72 13.1237 19.9304C12.5757 19.9988 12.076 19.6099 12.0077 19.0618C11.9394 18.5138 12.3282 18.0141 12.8763 17.9458C16.3283 17.5154 19.0001 14.5689 19.0001 11C19.0001 7.13401 15.8661 4 12.0001 4Z" fill="black"/><path d="M7.91803 11.2623L3.7075 16.1746C3.42949 16.4989 3.65995 17 4.08712 17H6.50001L6.20623 19.3503C6.14475 19.8421 6.75942 20.114 7.082 19.7377L11.2925 14.8254C11.5705 14.5011 11.3401 14 10.9129 14H8.50001L8.7938 11.6497C8.85528 11.1579 8.24061 10.886 7.91803 11.2623Z" fill="black"/></svg>
