<svg xmlns="http://www.w3.org/2000/svg" viewBox="0 0 24 24" fill="none"><path fill-rule="evenodd" clip-rule="evenodd" d="M3 4C3 3.44772 3.44772 3 4 3H20C20.5523 3 21 3.44772 21 4V20C21 20.5523 20.5523 21 20 21H4C3.44772 21 3 20.5523 3 20V4ZM11 9.5C11 8.94772 11.4477 8.5 12 8.5H16C16.5523 8.5 17 8.94772 17 9.5C17 10.0523 16.5523 10.5 16 10.5H12C11.4477 10.5 11 10.0523 11 9.5ZM12 13.5C11.4477 13.5 11 13.9477 11 14.5C11 15.0523 11.4477 15.5 12 15.5H16C16.5523 15.5 17 15.0523 17 14.5C17 13.9477 16.5523 13.5 16 13.5H12ZM9.5 9.5C9.5 10.1904 8.94036 10.75 8.25 10.75C7.55964 10.75 7 10.1904 7 9.5C7 8.80964 7.55964 8.25 8.25 8.25C8.94036 8.25 9.5 8.80964 9.5 9.5ZM8.25 15.75C8.94036 15.75 9.5 15.1904 9.5 14.5C9.5 13.8096 8.94036 13.25 8.25 13.25C7.55964 13.25 7 13.8096 7 14.5C7 15.1904 7.55964 15.75 8.25 15.75Z" fill="black"/></svg>
