<svg xmlns="http://www.w3.org/2000/svg" viewBox="0 0 24 24" fill="none"><path d="M10.6055 3.56159C9.36452 2.98891 8.05656 2.86595 6.83075 3.13927C4.90269 3.56917 3.26796 4.96089 2.4891 6.90295C0.884955 10.9029 2.98312 16.5927 11.5111 21.3725C11.8148 21.5428 12.1852 21.5428 12.4889 21.3725C21.0168 16.5927 23.1149 10.9028 21.5108 6.90294C20.7319 4.96087 19.0972 3.56916 17.1691 3.13926C15.8028 2.83462 14.3344 3.0223 12.9705 3.77631C11.8876 4.94169 11.1058 6.64633 11.0099 8.59567L14.1441 11.7299L12.9487 15.3162C12.774 15.8401 12.2077 16.1233 11.6838 15.9486C11.1598 15.774 10.8767 15.2077 11.0513 14.6837L11.8559 12.2701L9 9.41418V8.99996C9 6.98111 9.6049 5.08088 10.6055 3.56159Z" fill="black"/></svg>
