<svg xmlns="http://www.w3.org/2000/svg" viewBox="0 0 24 24" fill="none"><path d="M18.4487 2.18379C18.3391 1.855 18.0671 1.6064 17.7298 1.52677C17.3924 1.44714 17.038 1.54785 16.7929 1.79291L13.2929 5.29291C13.1054 5.48045 13 5.7348 13 6.00002V9.58581L11.2929 11.2929C10.9024 11.6834 10.9024 12.3166 11.2929 12.7071C11.6834 13.0977 12.3166 13.0977 12.7071 12.7071L14.4142 11H18C18.2652 11 18.5196 10.8947 18.7071 10.7071L22.2071 7.20713C22.4522 6.96206 22.5529 6.60757 22.4732 6.27027C22.3936 5.93296 22.145 5.66093 21.8162 5.55134L19.2906 4.70945L18.4487 2.18379Z" fill="black"/><path d="M4 12C4 7.58172 7.58172 4 12 4C12.5523 4 13 3.55228 13 3C13 2.44772 12.5523 2 12 2C6.47715 2 2 6.47715 2 12C2 17.5228 6.47715 22 12 22C17.5228 22 22 17.5228 22 12C22 11.4477 21.5523 11 21 11C20.4477 11 20 11.4477 20 12C20 16.4183 16.4183 20 12 20C7.58172 20 4 16.4183 4 12Z" fill="black"/><path d="M10.7996 8.18283C11.3266 8.01734 11.6195 7.45604 11.454 6.92913C11.2886 6.40223 10.7273 6.10924 10.2004 6.27473C7.76699 7.03901 6 9.31179 6 11.9999C6 15.3136 8.68629 17.9999 12 17.9999C14.6882 17.9999 16.961 16.2328 17.7252 13.7993C17.8907 13.2724 17.5977 12.7111 17.0708 12.5456C16.5439 12.3801 15.9826 12.6731 15.8171 13.2001C15.3072 14.8239 13.7896 15.9999 12 15.9999C9.79086 15.9999 8 14.209 8 11.9999C8 10.2103 9.1759 8.69282 10.7996 8.18283Z" fill="black"/></svg>
