<svg xmlns="http://www.w3.org/2000/svg" viewBox="0 0 24 24" fill="none"><path fill-rule="evenodd" clip-rule="evenodd" d="M1 7C1 6.44772 1.44772 6 2 6H8C8.55228 6 9 6.44772 9 7C9 7.55228 8.55228 8 8 8H3V16H8C8.55228 16 9 16.4477 9 17C9 17.5523 8.55228 18 8 18H2C1.44772 18 1 17.5523 1 17V7ZM15 7C15 6.44772 15.4477 6 16 6H22C22.5523 6 23 6.44772 23 7V17C23 17.5523 22.5523 18 22 18H16C15.4477 18 15 17.5523 15 17C15 16.4477 15.4477 16 16 16H21V8H16C15.4477 8 15 7.55228 15 7ZM6 12C6 11.4477 6.44772 11 7 11H17C17.5523 11 18 11.4477 18 12C18 12.5523 17.5523 13 17 13H7C6.44772 13 6 12.5523 6 12Z" fill="black"/></svg>
