<svg xmlns="http://www.w3.org/2000/svg" viewBox="0 0 24 24" fill="none"><path fill-rule="evenodd" clip-rule="evenodd" d="M20 3L4.00005 3.00001C3.44777 3.00001 3.00005 3.44772 3.00005 4L3 20C3 20.2652 3.10536 20.5196 3.29289 20.7071C3.48043 20.8946 3.73478 21 4 21H20C20.5523 21 21 20.5523 21 20V4C21 3.73478 20.8947 3.48043 20.7071 3.29289C20.5196 3.10536 20.2652 3 20 3ZM5.00003 12L5.00005 5.00001L19 5V12H15.874C15.4177 12 15.0193 12.3089 14.9055 12.7507C14.5725 14.0449 13.3965 15 12 15C10.6035 15 9.42754 14.0449 9.09446 12.7507C8.98072 12.3089 8.5823 12 8.12602 12H5.00003Z" fill="black"/></svg>
