<svg xmlns="http://www.w3.org/2000/svg" viewBox="0 0 24 24" fill="none"><path d="M14.555 19.5834C15.0784 19.4076 15.6456 19.689 15.8216 20.2123C15.9973 20.7358 15.7151 21.303 15.1917 21.4789C13.1238 22.1737 10.8748 22.1738 8.80695 21.4789C8.2836 21.303 8.00143 20.7357 8.17706 20.2123C8.35308 19.689 8.92029 19.4076 9.44367 19.5834C11.0983 20.1394 12.9004 20.1394 14.555 19.5834Z" fill="black"/><path d="M12.0003 10.0004C13.1047 10.0006 14.0003 10.8959 14.0003 12.0004C14.0001 13.1047 13.1046 14.0002 12.0003 14.0004C10.8959 14.0004 10.0005 13.1048 10.0003 12.0004C10.0003 10.8958 10.8957 10.0004 12.0003 10.0004Z" fill="black"/><path fill-rule="evenodd" clip-rule="evenodd" d="M12.0003 7.0004C14.7616 7.00056 17.0003 9.23908 17.0003 12.0004C17.0002 13.0193 16.6936 13.966 16.1702 14.7563L17.7073 16.2934L17.7757 16.3695C18.0957 16.7623 18.0733 17.3414 17.7073 17.7074C17.3413 18.0734 16.7622 18.0958 16.3694 17.7758L16.2933 17.7074L14.7562 16.1703C13.9659 16.6937 13.0192 17.0003 12.0003 17.0004C9.23901 17.0004 7.00052 14.7616 7.00031 12.0004C7.00031 9.23898 9.23888 7.0004 12.0003 7.0004ZM12.0003 9.0004C10.3435 9.0004 9.00031 10.3435 9.00031 12.0004C9.00052 13.6571 10.3436 15.0004 12.0003 15.0004C13.6569 15.0002 15.0001 13.657 15.0003 12.0004C15.0003 10.3436 13.657 9.00056 12.0003 9.0004Z" fill="black"/><path d="M2.55792 8.71232C2.76714 8.25077 3.2967 8.01327 3.78742 8.17814C4.3107 8.35415 4.59211 8.92136 4.41632 9.44474L4.31867 9.75724C3.86277 11.3244 3.89511 13.0051 4.41632 14.5561C4.59192 15.0794 4.31061 15.6467 3.78742 15.8227C3.26408 15.9984 2.69682 15.716 2.52081 15.1928C1.82594 13.1249 1.82603 10.8759 2.52081 8.80802L2.55792 8.71232Z" fill="black"/><path d="M9.1966 2.39982C11.1552 1.82973 13.2529 1.87041 15.1917 2.52189C15.7152 2.69781 15.9975 3.26497 15.8216 3.78849C15.6454 4.31152 15.0782 4.59316 14.555 4.4174C12.9003 3.86136 11.0983 3.86135 9.44367 4.4174L9.34503 4.44474C8.85106 4.55652 8.34215 4.27879 8.17706 3.78849C8.00117 3.26507 8.28362 2.69792 8.80695 2.52189L9.1966 2.39982Z" fill="black"/><path d="M21.4779 15.1925C22.1727 13.1246 22.1727 10.8756 21.4779 8.80769C21.3019 8.28417 20.7348 8.00188 20.2113 8.17781C19.6881 8.35394 19.4066 8.92112 19.5824 9.44441C20.1383 11.099 20.1384 12.9011 19.5824 14.5557C19.4069 15.079 19.6881 15.6463 20.2113 15.8223C20.7346 15.9982 21.3018 15.7157 21.4779 15.1925Z" fill="black"/></svg>
