<svg xmlns="http://www.w3.org/2000/svg" viewBox="0 0 24 24" fill="none"><path d="M7 7.25C7 7.11193 7.11193 7 7.25 7H16.75C16.8881 7 17 7.11193 17 7.25V16.75C17 16.8881 16.8881 17 16.75 17H7.25C7.11193 17 7 16.8881 7 16.75V7.25Z" fill="black"/><path fill-rule="evenodd" clip-rule="evenodd" d="M3 4C3 3.44772 3.44772 3 4 3H6C6.55228 3 7 3.44772 7 4C7 4.55228 6.55228 5 6 5H5V6C5 6.55228 4.55228 7 4 7C3.44772 7 3 6.55228 3 6V4ZM9.5 4C9.5 3.44772 9.94772 3 10.5 3H13.5C14.0523 3 14.5 3.44772 14.5 4C14.5 4.55228 14.0523 5 13.5 5H10.5C9.94772 5 9.5 4.55228 9.5 4ZM17 4C17 3.44772 17.4477 3 18 3H20C20.5523 3 21 3.44772 21 4V6C21 6.55228 20.5523 7 20 7C19.4477 7 19 6.55228 19 6V5H18C17.4477 5 17 4.55228 17 4ZM4 9.5C4.55228 9.5 5 9.94772 5 10.5V13.5C5 14.0523 4.55228 14.5 4 14.5C3.44772 14.5 3 14.0523 3 13.5V10.5C3 9.94772 3.44772 9.5 4 9.5ZM20 9.5C20.5523 9.5 21 9.94772 21 10.5V13.5C21 14.0523 20.5523 14.5 20 14.5C19.4477 14.5 19 14.0523 19 13.5V10.5C19 9.94772 19.4477 9.5 20 9.5ZM4 17C4.55228 17 5 17.4477 5 18V19H6C6.55228 19 7 19.4477 7 20C7 20.5523 6.55228 21 6 21H4C3.44772 21 3 20.5523 3 20V18C3 17.4477 3.44772 17 4 17ZM20 17C20.5523 17 21 17.4477 21 18V20C21 20.5523 20.5523 21 20 21H18C17.4477 21 17 20.5523 17 20C17 19.4477 17.4477 19 18 19H19V18C19 17.4477 19.4477 17 20 17ZM9.5 20C9.5 19.4477 9.94772 19 10.5 19H13.5C14.0523 19 14.5 19.4477 14.5 20C14.5 20.5523 14.0523 21 13.5 21H10.5C9.94772 21 9.5 20.5523 9.5 20Z" fill="black"/></svg>
