<svg xmlns="http://www.w3.org/2000/svg" viewBox="0 0 24 24" fill="none"><path d="M14.5547 2.16795C14.2188 1.94402 13.7812 1.94402 13.4453 2.16795L10.6293 4.04526L4.34794 5.01163C3.81297 5.09393 3.44059 5.58695 3.50772 6.12403L3.91997 9.42198L2.55279 10.1056C2.214 10.275 2 10.6212 2 11V14C2 14.3344 2.1671 14.6466 2.4453 14.8321L3.56449 15.5782L4.00772 19.124C4.04584 19.4289 4.22201 19.6994 4.4855 19.8575L6.9855 21.3575C7.29565 21.5436 7.68211 21.5477 7.99614 21.3682L10.7535 19.7926L12.2191 21.6247C12.4809 21.9518 12.9188 22.0812 13.3162 21.9487L16.3162 20.9487C16.4422 20.9067 16.5586 20.84 16.6585 20.7526L20.6585 17.2526C21.0166 16.9392 21.1043 16.417 20.8682 16.0039L19.1942 13.0744L21.8 9.6C21.9779 9.36278 22.0414 9.05884 21.9732 8.77025C21.9051 8.48166 21.7124 8.23818 21.4472 8.10557L18 6.38197V5C18 4.66565 17.8329 4.35342 17.5547 4.16795L14.5547 2.16795Z" fill="black"/></svg>
