<svg xmlns="http://www.w3.org/2000/svg" viewBox="0 0 24 24" fill="none"><path d="M4 15C4.55228 15 5 15.4477 5 16V19H8C8.55228 19 9 19.4477 9 20C9 20.5523 8.55228 21 8 21H5C3.89543 21 3 20.1046 3 19V16C3 15.4477 3.44772 15 4 15Z" fill="black"/><path d="M20 15C20.5523 15 21 15.4477 21 16V19C21 20.1046 20.1046 21 19 21H16C15.4477 21 15 20.5523 15 20C15 19.4477 15.4477 19 16 19H19V16C19 15.4477 19.4477 15 20 15Z" fill="black"/><path d="M13 13C13.5523 13 14 13.4477 14 14C14 14.5523 13.5523 15 13 15H9C8.44772 15 8 14.5523 8 14C8 13.4477 8.44772 13 9 13H13Z" fill="black"/><path d="M15 9C15.5523 9 16 9.44772 16 10C16 10.5523 15.5523 11 15 11H9C8.44772 11 8 10.5523 8 10C8 9.44772 8.44772 9 9 9H15Z" fill="black"/><path d="M8 3C8.55228 3 9 3.44772 9 4C9 4.55228 8.55228 5 8 5H5V8C5 8.55228 4.55228 9 4 9C3.44772 9 3 8.55228 3 8V5C3 3.89543 3.89543 3 5 3H8Z" fill="black"/><path d="M19 3C20.1046 3 21 3.89543 21 5V8C21 8.55228 20.5523 9 20 9C19.4477 9 19 8.55228 19 8V5H16C15.4477 5 15 4.55228 15 4C15 3.44772 15.4477 3 16 3H19Z" fill="black"/></svg>
