<svg xmlns="http://www.w3.org/2000/svg" viewBox="0 0 24 24" fill="none"><path d="M9 2C8.44772 2 8 2.44772 8 3V5C8 5.55228 8.44772 6 9 6C9.55228 6 10 5.55228 10 5V4H11C11.5523 4 12 3.55228 12 3C12 2.44772 11.5523 2 11 2H9Z" fill="black"/><path d="M14 2C13.4477 2 13 2.44772 13 3C13 3.55228 13.4477 4 14 4H16C16.5523 4 17 3.55228 17 3C17 2.44772 16.5523 2 16 2H14Z" fill="black"/><path d="M19 2C18.4477 2 18 2.44772 18 3C18 3.55228 18.4477 4 19 4H20V5C20 5.55228 20.4477 6 21 6C21.5523 6 22 5.55228 22 5V3C22 2.44772 21.5523 2 21 2H19Z" fill="black"/><path d="M10 8C10 7.44772 9.55228 7 9 7C8.44772 7 8 7.44772 8 8H3C2.44771 8 2 8.44772 2 9V21C2 21.5523 2.44771 22 3 22H15C15.5523 22 16 21.5523 16 21V16C16.5523 16 17 15.5523 17 15C17 14.4477 16.5523 14 16 14V9C16 8.44772 15.5523 8 15 8H10Z" fill="black"/><path d="M22 8C22 7.44772 21.5523 7 21 7C20.4477 7 20 7.44772 20 8V10C20 10.5523 20.4477 11 21 11C21.5523 11 22 10.5523 22 10V8Z" fill="black"/><path d="M22 13C22 12.4477 21.5523 12 21 12C20.4477 12 20 12.4477 20 13V14H19C18.4477 14 18 14.4477 18 15C18 15.5523 18.4477 16 19 16H21C21.5523 16 22 15.5523 22 15V13Z" fill="black"/></svg>
