<svg xmlns="http://www.w3.org/2000/svg" viewBox="0 0 24 24" fill="none"><path fill-rule="evenodd" clip-rule="evenodd" d="M13.7929 1.79289C14.1834 1.40237 14.8166 1.40237 15.2071 1.79289L22.2071 8.79289C22.5976 9.18342 22.5976 9.81658 22.2071 10.2071L18.7071 13.7071C18.3166 14.0976 17.6834 14.0976 17.2929 13.7071C16.9024 13.3166 16.9024 12.6834 17.2929 12.2929L20.0858 9.5L14.5 3.91421L11.7071 6.70711C11.3166 7.09763 10.6834 7.09763 10.2929 6.70711C9.90237 6.31658 9.90237 5.68342 10.2929 5.29289L13.7929 1.79289ZM15.7071 8.29289C16.0976 8.68342 16.0976 9.31658 15.7071 9.70711L9.70711 15.7071C9.31658 16.0976 8.68342 16.0976 8.29289 15.7071C7.90237 15.3166 7.90237 14.6834 8.29289 14.2929L14.2929 8.29289C14.6834 7.90237 15.3166 7.90237 15.7071 8.29289ZM6.70711 10.2929C7.09763 10.6834 7.09763 11.3166 6.70711 11.7071L3.91421 14.5L9.5 20.0858L12.2929 17.2929C12.6834 16.9024 13.3166 16.9024 13.7071 17.2929C14.0976 17.6834 14.0976 18.3166 13.7071 18.7071L10.2071 22.2071C9.81658 22.5976 9.18342 22.5976 8.79289 22.2071L1.79289 15.2071C1.40237 14.8166 1.40237 14.1834 1.79289 13.7929L5.29289 10.2929C5.68342 9.90237 6.31658 9.90237 6.70711 10.2929Z" fill="black"/></svg>
