<svg xmlns="http://www.w3.org/2000/svg" viewBox="0 0 24 24" fill="none"><path fill-rule="evenodd" clip-rule="evenodd" d="M21 4C21.5523 4 22 4.44772 22 5V19C22 19.5523 21.5523 20 21 20H3C2.44772 20 2 19.5523 2 19V5C2 4.44772 2.44772 4 3 4H21ZM6 7C5.44772 7 5 7.44772 5 8C5 8.55228 5.44772 9 6 9H11C11.5523 9 12 8.55228 12 8C12 7.44772 11.5523 7 11 7H6ZM14 7C13.4477 7 13 7.44772 13 8C13 8.55228 13.4477 9 14 9H14.5C15.0523 9 15.5 8.55228 15.5 8C15.5 7.44772 15.0523 7 14.5 7H14ZM17.5 7C16.9477 7 16.5 7.44772 16.5 8C16.5 8.55228 16.9477 9 17.5 9H18C18.5523 9 19 8.55228 19 8C19 7.44772 18.5523 7 18 7H17.5Z" fill="black"/></svg>
