<svg xmlns="http://www.w3.org/2000/svg" viewBox="0 0 24 24" fill="none"><path fill-rule="evenodd" clip-rule="evenodd" d="M18.048 3.66365C18.51 3.96632 18.6391 4.58618 18.3365 5.04814L11.7847 15.0481C11.6118 15.3121 11.3244 15.4789 11.0094 15.4982C10.6945 15.5175 10.3889 15.387 10.185 15.1462L6.7367 11.0721C6.3799 10.6505 6.43239 10.0195 6.85395 9.66274C7.27551 9.30594 7.90649 9.35843 8.2633 9.77999L10.846 12.8314L16.6635 3.95209C16.9662 3.49012 17.5861 3.36099 18.048 3.66365ZM4 14.0001C4.55228 14.0001 5 14.4478 5 15.0001V19.0001H19V15.0001C19 14.4478 19.4477 14.0001 20 14.0001C20.5523 14.0001 21 14.4478 21 15.0001V20.0001C21 20.5524 20.5523 21.0001 20 21.0001H4C3.44772 21.0001 3 20.5524 3 20.0001V15.0001C3 14.4478 3.44772 14.0001 4 14.0001Z" fill="black"/></svg>
