<svg xmlns="http://www.w3.org/2000/svg" viewBox="0 0 24 24" fill="none"><path d="M7.5 2C6.94772 2 6.5 2.44772 6.5 3V6.99695C6.5 8.65455 5.84152 10.2443 4.66942 11.4164L4.29289 11.7929C4.10536 11.9804 4 12.2348 4 12.5V15C4 15.5523 4.44772 16 5 16H11V21C11 21.5523 11.4477 22 12 22C12.5523 22 13 21.5523 13 21V16H19C19.5523 16 20 15.5523 20 15V12.5C20 12.2348 19.8946 11.9804 19.7071 11.7929L19.3306 11.4164C18.1585 10.2443 17.5 8.65455 17.5 6.99695V3C17.5 2.73478 17.3946 2.48043 17.2071 2.29289C17.0196 2.10536 16.7652 2 16.5 2H7.5Z" fill="black"/></svg>
