<svg xmlns="http://www.w3.org/2000/svg" viewBox="0 0 24 24" fill="none"><path d="M17.1969 4.40337C17.5263 3.96024 18.1531 3.86814 18.5964 4.19732C19.0396 4.52677 19.1318 5.15348 18.8024 5.59673L8.39713 19.5967C8.23642 19.8129 7.99515 19.9552 7.72819 19.9913C7.46123 20.0272 7.19038 19.9541 6.97819 19.7881L1.38346 15.4131C0.94868 15.0729 0.871516 14.4438 1.21159 14.0088C1.55171 13.5739 2.18083 13.497 2.61588 13.837L7.40299 17.5801L17.1969 4.40337Z" fill="black"/><path d="M21.1969 4.40337C21.5263 3.96026 22.1531 3.86815 22.5964 4.19732C23.0396 4.52678 23.1318 5.15349 22.8024 5.59673L12.3971 19.5967C12.0677 20.0399 11.441 20.1322 10.9977 19.8028C10.5548 19.4733 10.4623 18.8465 10.7917 18.4034L21.1969 4.40337Z" fill="black"/></svg>
