<svg xmlns="http://www.w3.org/2000/svg" viewBox="0 0 24 24" fill="none"><path fill-rule="evenodd" clip-rule="evenodd" d="M12.25 4C12.25 4.55229 11.8023 5 11.25 5L5 5L5 19H11.25C11.8023 19 12.25 19.4477 12.25 20C12.25 20.5523 11.8023 21 11.25 21H4C3.44772 21 3 20.5523 3 20L3 4C3 3.44772 3.44772 3 4 3L11.25 3C11.8023 3 12.25 3.44772 12.25 4Z" fill="black"/><path fill-rule="evenodd" clip-rule="evenodd" d="M21 12C21 12.2652 20.8946 12.5196 20.7071 12.7071L16.2071 17.2071C15.8166 17.5976 15.1834 17.5976 14.7929 17.2071C14.4024 16.8166 14.4024 16.1834 14.7929 15.7929L17.5858 13L8.75 13C8.19772 13 7.75 12.5523 7.75 12C7.75 11.4477 8.19772 11 8.75 11H17.5858L14.7929 8.20711C14.4024 7.81658 14.4024 7.18342 14.7929 6.79289C15.1834 6.40237 15.8166 6.40237 16.2071 6.79289L20.7071 11.2929C20.8946 11.4804 21 11.7348 21 12Z" fill="black"/></svg>
