<svg xmlns="http://www.w3.org/2000/svg" viewBox="0 0 24 24" fill="none"><path fill-rule="evenodd" clip-rule="evenodd" d="M2 12C2 6.47715 6.47715 2 12 2C17.5228 2 22 6.47715 22 12C22 17.5228 17.5228 22 12 22C6.47715 22 2 17.5228 2 12ZM15.8536 8.14646C15.9804 8.27333 16.0296 8.45846 15.9824 8.63157L14.4824 14.1316C14.4358 14.3024 14.3024 14.4358 14.1316 14.4824L8.63157 15.9824C8.45846 16.0296 8.27333 15.9804 8.14646 15.8536C8.01958 15.7267 7.97042 15.5416 8.01763 15.3685L9.51763 9.86845C9.56421 9.69765 9.69765 9.56421 9.86845 9.51763L15.3685 8.01763C15.5416 7.97042 15.7267 8.01958 15.8536 8.14646Z" fill="black"/></svg>
