<svg xmlns="http://www.w3.org/2000/svg" viewBox="0 0 24 24" fill="none"><path fill-rule="evenodd" clip-rule="evenodd" d="M19.611 4.38899C19.0454 3.82336 18.1117 3.88253 17.622 4.51506L14.2117 8.92008C14.3709 9.04591 14.5244 9.1822 14.6711 9.32891C14.8178 9.47562 14.9541 9.62908 15.0799 9.78832L19.485 6.37798C20.1175 5.88829 20.1767 4.95463 19.611 4.38899ZM16.0054 11.6012L20.7093 7.95943C22.2945 6.73219 22.4428 4.39233 21.0252 2.97478C19.6077 1.55723 17.2678 1.70553 16.0406 3.29071L12.3988 7.99466C10.6372 7.49742 8.66454 7.9409 7.27653 9.32891L5.57597 11.0295H3.99673C3.73151 11.0295 3.47716 11.1348 3.28962 11.3224L2.29289 12.3191C1.90237 12.7096 1.90237 13.3428 2.29289 13.7333L3.81941 15.2598C2.65944 16.6318 2.72612 18.6872 4.01946 19.9806C5.31279 21.2739 7.36827 21.3406 8.74019 20.1806L10.2667 21.7071C10.6572 22.0976 11.2904 22.0976 11.6809 21.7071L12.6776 20.7104C12.8652 20.5229 12.9705 20.2685 12.9705 20.0033V18.424L14.6711 16.7235C16.0591 15.3355 16.5026 13.3628 16.0054 11.6012ZM7.31402 18.7544L5.24558 16.686C4.85985 17.2655 4.92254 18.0552 5.43367 18.5663C5.9448 19.0775 6.73454 19.1402 7.31402 18.7544Z" fill="black"/></svg>
