<svg xmlns="http://www.w3.org/2000/svg" viewBox="0 0 24 24" fill="none"><path fill-rule="evenodd" clip-rule="evenodd" d="M3 4C3 3.44772 3.44772 3 4 3H20C20.5523 3 21 3.44772 21 4V20C21 20.5523 20.5523 21 20 21H4C3.44772 21 3 20.5523 3 20V4ZM9.00005 11C8.44777 11 8.00004 11.4477 8.00002 11.9999C7.99999 12.5522 8.44769 13 8.99998 13L11 13.0001L11 15C11 15.5523 11.4477 16 12 16C12.5523 16 13 15.5523 13 15L13 13.0001L15 13.0002C15.5523 13.0002 16 12.5525 16 12.0003C16.0001 11.448 15.5524 11.0002 15.0001 11.0002L13 11.0001L13 9.00022C13 8.44793 12.5523 8.00022 12 8.00021C11.4478 8.00021 11 8.44792 11 9.00021L11 11.0001L9.00005 11Z" fill="black"/></svg>
