<svg xmlns="http://www.w3.org/2000/svg" viewBox="0 0 24 24" fill="none"><path d="M6 7C5.44772 7 5 7.44772 5 8C5 8.55228 5.44772 9 6 9C6.55228 9 7 8.55228 7 8C7 7.44772 6.55228 7 6 7Z" fill="black"/><path d="M8 8C8 7.44772 8.44772 7 9 7C9.55228 7 10 7.44772 10 8C10 8.55228 9.55228 9 9 9C8.44772 9 8 8.55228 8 8Z" fill="black"/><path d="M12 7C11.4477 7 11 7.44772 11 8C11 8.55228 11.4477 9 12 9C12.5523 9 13 8.55228 13 8C13 7.44772 12.5523 7 12 7Z" fill="black"/><path fill-rule="evenodd" clip-rule="evenodd" d="M3 4C2.44772 4 2 4.44772 2 5V19C2 19.5523 2.44772 20 3 20H21C21.5523 20 22 19.5523 22 19V5C22 4.44772 21.5523 4 21 4H3ZM4 6V10H20V6H4Z" fill="black"/></svg>
