<svg xmlns="http://www.w3.org/2000/svg" viewBox="0 0 24 24" fill="none"><path d="M4 15C4.55228 15 5 15.4477 5 16V19H8C8.55228 19 9 19.4477 9 20C9 20.5523 8.55228 21 8 21H4C3.44772 21 3 20.5523 3 20V16C3 15.4477 3.44772 15 4 15Z" fill="black"/><path d="M20 15C20.5523 15 21 15.4477 21 16V20C21 20.5523 20.5523 21 20 21H16C15.4477 21 15 20.5523 15 20C15 19.4477 15.4477 19 16 19H19V16C19 15.4477 19.4477 15 20 15Z" fill="black"/><path d="M8 15H7V9H8V15Z" fill="black"/><path d="M11 15H9V9H11V15Z" fill="black"/><path d="M13 15H12V9H13V15Z" fill="black"/><path d="M15 15H14V9H15V15Z" fill="black"/><path d="M17 15H16V9H17V15Z" fill="black"/><path d="M8 3C8.55228 3 9 3.44772 9 4C9 4.55228 8.55228 5 8 5H5V8C5 8.55228 4.55228 9 4 9C3.44772 9 3 8.55228 3 8V4C3 3.44772 3.44772 3 4 3H8Z" fill="black"/><path d="M20 3C20.5523 3 21 3.44772 21 4V8C21 8.55228 20.5523 9 20 9C19.4477 9 19 8.55228 19 8V5H16C15.4477 5 15 4.55228 15 4C15 3.44772 15.4477 3 16 3H20Z" fill="black"/></svg>
