<svg xmlns="http://www.w3.org/2000/svg" viewBox="0 0 24 24" fill="none"><path fill-rule="evenodd" clip-rule="evenodd" d="M3 4C3 3.44772 3.44772 3 4 3H20C20.5523 3 21 3.44772 21 4V20C21 20.5523 20.5523 21 20 21H4C3.44772 21 3 20.5523 3 20V4ZM16.2039 10.4571C16.5944 10.0666 16.5944 9.43343 16.2039 9.0429C15.8133 8.65238 15.1802 8.65238 14.7897 9.0429L10.9968 12.8358L9.70387 11.5429C9.31334 11.1524 8.68018 11.1524 8.28965 11.5429C7.89913 11.9334 7.89913 12.5666 8.28965 12.9571L10.2897 14.9571C10.6802 15.3476 11.3133 15.3476 11.7039 14.9571L16.2039 10.4571Z" fill="black"/></svg>
