<svg xmlns="http://www.w3.org/2000/svg" viewBox="0 0 24 24" fill="none"><path d="M3.0025 3.99945C3.0025 3.44855 3.4491 3.00195 4 3.00195H10C10.5509 3.00195 10.9975 3.44855 10.9975 3.99945V9.99945C10.9975 10.5504 10.5509 10.997 10 10.997H4C3.4491 10.997 3.0025 10.5504 3.0025 9.99945V3.99945Z" fill="black"/><path d="M3.0025 13.9995C3.0025 13.4485 3.4491 13.002 4 13.002H10C10.5509 13.002 10.9975 13.4485 10.9975 13.9995V19.9995C10.9975 20.5504 10.5509 20.997 10 20.997H4C3.4491 20.997 3.0025 20.5504 3.0025 19.9995V13.9995Z" fill="black"/><path d="M13.0025 3.99945C13.0025 3.44855 13.4491 3.00195 14 3.00195H20C20.5509 3.00195 20.9975 3.44855 20.9975 3.99945V9.99945C20.9975 10.5504 20.5509 10.997 20 10.997H14C13.4491 10.997 13.0025 10.5504 13.0025 9.99945V3.99945Z" fill="black"/><path fill-rule="evenodd" clip-rule="evenodd" d="M17 13.002C14.7922 13.002 13.0025 14.7917 13.0025 16.9995C13.0025 19.2072 14.7922 20.997 17 20.997C19.2078 20.997 20.9975 19.2072 20.9975 16.9995C20.9975 14.7917 19.2078 13.002 17 13.002ZM14.9975 16.9995C14.9975 15.8935 15.8941 14.997 17 14.997C18.106 14.997 19.0025 15.8935 19.0025 16.9995C19.0025 18.1054 18.106 19.002 17 19.002C15.8941 19.002 14.9975 18.1054 14.9975 16.9995Z" fill="black"/></svg>
