<svg xmlns="http://www.w3.org/2000/svg" viewBox="0 0 24 24" fill="none"><path d="M3.70711 2.29289C3.31658 1.90237 2.68342 1.90237 2.29289 2.29289C1.90237 2.68342 1.90237 3.31658 2.29289 3.70711L6.64878 8.063L3.68379 9.05133C3.355 9.16092 3.1064 9.43295 3.02677 9.77026C2.94714 10.1076 3.04785 10.462 3.29291 10.7071L7.58581 15L3.29291 19.2929C2.90239 19.6834 2.90239 20.3166 3.29291 20.7071C3.68344 21.0976 4.3166 21.0976 4.70713 20.7071L9.00002 16.4142L13.2929 20.7071C13.538 20.9522 13.8925 21.0529 14.2298 20.9733C14.5671 20.8936 14.8391 20.645 14.9487 20.3162L15.937 17.3512L20.2929 21.7071C20.6834 22.0976 21.3166 22.0976 21.7071 21.7071C22.0976 21.3166 22.0976 20.6834 21.7071 20.2929L3.70711 2.29289Z" fill="black"/><path d="M17.3257 13.1853L17.3209 13.1996L10.8004 6.67911L10.8148 6.67433L13.1259 2.51437C13.2783 2.24006 13.5506 2.0532 13.8613 2.00968C14.1721 1.96615 14.4852 2.07102 14.7071 2.2929L21.7071 9.2929C21.929 9.51479 22.0339 9.82795 21.9904 10.1387C21.9468 10.4495 21.76 10.7218 21.4857 10.8742L17.3257 13.1853Z" fill="black"/></svg>
