<svg xmlns="http://www.w3.org/2000/svg" viewBox="0 0 24 24" fill="none"><path fill-rule="evenodd" clip-rule="evenodd" d="M4 3C3.44772 3 3 3.44772 3 4V20C3 20.5523 3.44772 21 4 21H12V17C12 13.6863 14.6863 11 18 11C19.0929 11 20.1175 11.2922 21 11.8027V4C21 3.44772 20.5523 3 20 3H4ZM10.1396 6.95224C10.5814 7.28361 10.671 7.91042 10.3396 8.35224L8.46795 10.8478C8.14951 11.2723 7.55485 11.3742 7.11325 11.0798L5.98825 10.3298C5.52872 10.0235 5.40455 9.40258 5.7109 8.94305C6.01726 8.48352 6.63812 8.35935 7.09765 8.6657L7.43555 8.89096L8.73959 7.15224C9.07096 6.71042 9.69776 6.62087 10.1396 6.95224ZM13.0579 9C13.0579 8.44772 13.5057 8 14.0579 8H16.0579C16.6102 8 17.0579 8.44772 17.0579 9C17.0579 9.55228 16.6102 10 16.0579 10H14.0579C13.5057 10 13.0579 9.55228 13.0579 9ZM10.1396 12.9534C10.5814 13.2847 10.671 13.9115 10.3396 14.3534L8.46795 16.8489C8.14951 17.2735 7.55485 17.3753 7.11325 17.0809L5.98825 16.3309C5.52872 16.0246 5.40455 15.4037 5.7109 14.9442C6.01726 14.4847 6.63812 14.3605 7.09765 14.6668L7.43555 14.8921L8.73959 13.1534C9.07096 12.7115 9.69776 12.622 10.1396 12.9534Z" fill="black"/><path fill-rule="evenodd" clip-rule="evenodd" d="M14 17C14 14.7909 15.7909 13 18 13C20.2091 13 22 14.7909 22 17V20C22 20.5523 21.5523 21 21 21H15C14.4477 21 14 20.5523 14 20V17ZM18 15C16.8954 15 16 15.8954 16 17V19H20V17C20 15.8954 19.1046 15 18 15Z" fill="black"/><path d="M18 22C19.1046 22 20 21.1046 20 20H16C16 21.1046 16.8954 22 18 22Z" fill="black"/></svg>
