<svg xmlns="http://www.w3.org/2000/svg" viewBox="0 0 24 24" fill="none"><path fill-rule="evenodd" clip-rule="evenodd" d="M12 2C8.10602 2 4.89608 5.05346 4.70162 8.94258L4.51173 12.7405L3.10557 15.5528C3.03615 15.6916 3 15.8448 3 16V17C3 17.5523 3.44772 18 4 18H7.10002C7.56329 20.2822 9.58104 22 12 22C14.419 22 16.4367 20.2822 16.9 18H20C20.5523 18 21 17.5523 21 17V16C21 15.8448 20.9639 15.6916 20.8944 15.5528L19.4883 12.7405L19.2984 8.94258C19.1039 5.05346 15.894 2 12 2ZM12 20C10.6938 20 9.58254 19.1652 9.17071 18H14.8293C14.4175 19.1652 13.3062 20 12 20Z" fill="black"/></svg>
