<svg xmlns="http://www.w3.org/2000/svg" viewBox="0 0 24 24" fill="none"><path d="M14.7071 2.2929C14.4852 2.07102 14.1721 1.96615 13.8613 2.00968C13.5506 2.0532 13.2783 2.24006 13.1259 2.51437L10.8148 6.67433L3.68379 9.05133C3.355 9.16092 3.1064 9.43295 3.02677 9.77026C2.94714 10.1076 3.04785 10.462 3.29291 10.7071L7.58581 15L3.29291 19.2929C2.90239 19.6834 2.90239 20.3166 3.29291 20.7071C3.68344 21.0976 4.3166 21.0976 4.70713 20.7071L9.00002 16.4142L13.2929 20.7071C13.538 20.9522 13.8925 21.0529 14.2298 20.9733C14.5671 20.8936 14.8391 20.645 14.9487 20.3162L17.3257 13.1853L21.4857 10.8742C21.76 10.7218 21.9468 10.4495 21.9904 10.1387C22.0339 9.82795 21.929 9.51479 21.7071 9.2929L14.7071 2.2929Z" fill="black"/></svg>
