<svg xmlns="http://www.w3.org/2000/svg" viewBox="0 0 24 24" fill="none"><path d="M16.1588 4.45922C16.4575 3.995 17.0762 3.86101 17.5406 4.15942C18.0049 4.45816 18.139 5.0768 17.8404 5.54126L8.84043 19.5413C8.66628 19.8117 8.37263 19.9826 8.05137 19.9993C7.72997 20.0158 7.41941 19.8766 7.21836 19.6252L2.21836 13.3752C1.87352 12.9441 1.94366 12.314 2.37461 11.969C2.80584 11.624 3.43583 11.6941 3.78086 12.1252L7.91074 17.2883L16.1588 4.45922Z" fill="black"/><path d="M20.1588 4.45922C20.4575 3.995 21.0762 3.86101 21.5406 4.15942C22.0049 4.45816 22.139 5.0768 21.8404 5.54126L12.8404 19.5413C12.5416 20.0053 11.923 20.1396 11.4586 19.8411C10.9946 19.5423 10.8605 18.9236 11.1588 18.4592L20.1588 4.45922Z" fill="black"/></svg>
