<svg xmlns="http://www.w3.org/2000/svg" viewBox="0 0 24 24" fill="none"><path fill-rule="evenodd" clip-rule="evenodd" d="M4 3C3.44772 3 3 3.44772 3 4V20C3 20.5523 3.44772 21 4 21H12.5277C10.4169 18.6442 10.4935 15.0212 12.7574 12.7573C15.0213 10.4934 18.6442 10.4169 21 12.5276V4C21 3.44772 20.5523 3 20 3H4ZM10.1396 6.95224C10.5814 7.28361 10.671 7.91042 10.3396 8.35224L8.46795 10.8478C8.14951 11.2723 7.55485 11.3742 7.11325 11.0798L5.98825 10.3298C5.52872 10.0235 5.40455 9.40258 5.7109 8.94305C6.01726 8.48352 6.63812 8.35935 7.09765 8.6657L7.43555 8.89096L8.73959 7.15224C9.07096 6.71042 9.69776 6.62087 10.1396 6.95224ZM13.0579 9C13.0579 8.44772 13.5057 8 14.0579 8H16.0579C16.6102 8 17.0579 8.44772 17.0579 9C17.0579 9.55228 16.6102 10 16.0579 10H14.0579C13.5057 10 13.0579 9.55228 13.0579 9ZM10.1396 12.9534C10.5814 13.2847 10.671 13.9115 10.3396 14.3534L8.46795 16.8489C8.14951 17.2735 7.55485 17.3753 7.11325 17.0809L5.98825 16.3309C5.52872 16.0246 5.40455 15.4037 5.7109 14.9442C6.01726 14.4847 6.63812 14.3605 7.09765 14.6668L7.43555 14.8921L8.73959 13.1534C9.07096 12.7115 9.69776 12.622 10.1396 12.9534Z" fill="black"/><path fill-rule="evenodd" clip-rule="evenodd" d="M18.4142 15.5858C17.6332 14.8047 16.3668 14.8047 15.5858 15.5858C14.8047 16.3668 14.8047 17.6331 15.5858 18.4142C16.3668 19.1952 17.6332 19.1952 18.4142 18.4142C19.1953 17.6331 19.1953 16.3668 18.4142 15.5858ZM14.1716 14.1715C15.7337 12.6094 18.2663 12.6094 19.8284 14.1715C21.1464 15.4895 21.3524 17.4983 20.4464 19.0322L21.7071 20.2929C22.0976 20.6834 22.0976 21.3166 21.7071 21.7071C21.3166 22.0976 20.6834 22.0976 20.2929 21.7071L19.0322 20.4464C17.4983 21.3523 15.4895 21.1463 14.1716 19.8284C12.6095 18.2663 12.6095 15.7336 14.1716 14.1715Z" fill="black"/></svg>
