<svg xmlns="http://www.w3.org/2000/svg" viewBox="0 0 24 24" fill="none"><path d="M20.293 6.29289C20.6835 5.90237 21.3165 5.90237 21.707 6.29289C22.0975 6.68342 22.0975 7.31643 21.707 7.70696L7.70702 21.707C7.31649 22.0975 6.68348 22.0975 6.29295 21.707C5.90243 21.3164 5.90243 20.6834 6.29295 20.2929L20.293 6.29289ZM20.293 14.2929C20.6835 13.9024 21.3165 13.9024 21.707 14.2929C22.0975 14.6834 22.0975 15.3164 21.707 15.707L15.707 21.707C15.3165 22.0975 14.6835 22.0975 14.293 21.707C13.9024 21.3164 13.9024 20.6834 14.293 20.2929L20.293 14.2929Z" fill="black"/></svg>
