<svg xmlns="http://www.w3.org/2000/svg" viewBox="0 0 24 24" fill="none"><path fill-rule="evenodd" clip-rule="evenodd" d="M12 2C6.47715 2 2 6.47715 2 12C2 17.5228 6.47715 22 12 22C17.5228 22 22 17.5228 22 12C22 6.47715 17.5228 2 12 2ZM10 7C9.44772 7 9 7.44772 9 8V9C9 9.55228 9.44772 10 10 10C10.5523 10 11 9.55228 11 9H13V10L11.4 11.2C11.1482 11.3889 11 11.6852 11 12V13C11 13.5523 11.4477 14 12 14C12.5523 14 13 13.5523 13 13V12.5L14.6 11.3C14.8518 11.1111 15 10.8148 15 10.5V8C15 7.44772 14.5523 7 14 7H10ZM13 16C13 15.4477 12.5523 15 12 15C11.4477 15 11 15.4477 11 16V16.01C11 16.5623 11.4477 17.01 12 17.01C12.5523 17.01 13 16.5623 13 16.01V16Z" fill="black"/></svg>
